M48
;DRILL file {KiCad (5.0.2)-1} date 2/1/2019 6:22:21 PM
;FORMAT={-:-/ absolute / metric / decimal}
FMAT,2
METRIC,TZ
T1C0.330
T2C1.000
T3C3.200
%
G90
G05
T1
X128.778Y-83.312
X128.778Y-89.916
X128.778Y-95.504
X128.778Y-101.092
X128.778Y-105.664
X128.778Y-108.204
X129.54Y-84.328
X129.54Y-90.932
X129.54Y-96.52
X129.54Y-102.108
X129.54Y-106.68
X130.302Y-85.344
X130.302Y-91.948
X130.302Y-97.536
X131.597Y-109.728
X132.08Y-86.614
X134.112Y-108.839
X135.128Y-79.756
X136.601Y-109.728
X136.652Y-113.919
X136.652Y-114.935
X137.16Y-86.614
X137.795Y-110.109
X139.7Y-92.202
X139.7Y-103.378
X139.7Y-114.3
X142.24Y-92.202
X142.24Y-103.378
X142.24Y-114.3
X144.78Y-92.202
X144.78Y-103.378
X146.05Y-113.411
X147.32Y-86.614
X148.59Y-113.538
X149.352Y-79.756
X149.86Y-114.173
X150.876Y-109.22
X151.765Y-113.538
X152.4Y-86.614
X154.178Y-97.536
X154.178Y-103.124
X154.178Y-106.68
X154.94Y-84.328
X154.94Y-90.932
X154.94Y-96.52
X154.94Y-102.108
X154.94Y-105.664
X155.702Y-83.312
X155.702Y-89.916
X155.702Y-95.504
X155.702Y-101.092
X155.702Y-104.648
X156.21Y-108.204
T2
X153.162Y-109.982
X153.162Y-112.522
X153.162Y-115.062
X155.702Y-109.982
X155.702Y-112.522
X155.702Y-115.062
T3
X154.94Y-78.74
X129.54Y-78.74
T0
M30
