G04 #@! TF.GenerationSoftware,KiCad,Pcbnew,(5.0.2)-1*
G04 #@! TF.CreationDate,2019-02-01T18:11:43-06:00*
G04 #@! TF.ProjectId,matrix_badge,6d617472-6978-45f6-9261-6467652e6b69,rev?*
G04 #@! TF.SameCoordinates,Original*
G04 #@! TF.FileFunction,Copper,L1,Top*
G04 #@! TF.FilePolarity,Positive*
%FSLAX46Y46*%
G04 Gerber Fmt 4.6, Leading zero omitted, Abs format (unit mm)*
G04 Created by KiCad (PCBNEW (5.0.2)-1) date 2/1/2019 6:11:43 PM*
%MOMM*%
%LPD*%
G01*
G04 APERTURE LIST*
G04 #@! TA.AperFunction,SMDPad,CuDef*
%ADD10R,1.200000X2.500000*%
G04 #@! TD*
G04 #@! TA.AperFunction,Conductor*
%ADD11C,0.100000*%
G04 #@! TD*
G04 #@! TA.AperFunction,SMDPad,CuDef*
%ADD12C,1.150000*%
G04 #@! TD*
G04 #@! TA.AperFunction,SMDPad,CuDef*
%ADD13R,1.200000X1.200000*%
G04 #@! TD*
G04 #@! TA.AperFunction,ComponentPad*
%ADD14R,1.700000X1.700000*%
G04 #@! TD*
G04 #@! TA.AperFunction,ComponentPad*
%ADD15O,1.700000X1.700000*%
G04 #@! TD*
G04 #@! TA.AperFunction,ViaPad*
%ADD16C,0.685800*%
G04 #@! TD*
G04 #@! TA.AperFunction,Conductor*
%ADD17C,0.254000*%
G04 #@! TD*
G04 APERTURE END LIST*
D10*
G04 #@! TO.P,S1,3*
G04 #@! TO.N,Net-(S1-Pad3)*
X130342000Y-109010000D03*
G04 #@! TO.P,S1,2*
G04 #@! TO.N,VDD*
X132842000Y-109010000D03*
G04 #@! TO.P,S1,1*
G04 #@! TO.N,Net-(BT1-Pad1)*
X135342000Y-109010000D03*
G04 #@! TO.P,S1,4*
X135342000Y-114510000D03*
G04 #@! TO.P,S1,5*
G04 #@! TO.N,VDD*
X132842000Y-114510000D03*
G04 #@! TO.P,S1,6*
G04 #@! TO.N,Net-(S1-Pad6)*
X130342000Y-114510000D03*
G04 #@! TD*
D11*
G04 #@! TO.N,P5*
G04 #@! TO.C,R6*
G36*
X150334505Y-110161204D02*
X150358773Y-110164804D01*
X150382572Y-110170765D01*
X150405671Y-110179030D01*
X150427850Y-110189520D01*
X150448893Y-110202132D01*
X150468599Y-110216747D01*
X150486777Y-110233223D01*
X150503253Y-110251401D01*
X150517868Y-110271107D01*
X150530480Y-110292150D01*
X150540970Y-110314329D01*
X150549235Y-110337428D01*
X150555196Y-110361227D01*
X150558796Y-110385495D01*
X150560000Y-110409999D01*
X150560000Y-111060001D01*
X150558796Y-111084505D01*
X150555196Y-111108773D01*
X150549235Y-111132572D01*
X150540970Y-111155671D01*
X150530480Y-111177850D01*
X150517868Y-111198893D01*
X150503253Y-111218599D01*
X150486777Y-111236777D01*
X150468599Y-111253253D01*
X150448893Y-111267868D01*
X150427850Y-111280480D01*
X150405671Y-111290970D01*
X150382572Y-111299235D01*
X150358773Y-111305196D01*
X150334505Y-111308796D01*
X150310001Y-111310000D01*
X149409999Y-111310000D01*
X149385495Y-111308796D01*
X149361227Y-111305196D01*
X149337428Y-111299235D01*
X149314329Y-111290970D01*
X149292150Y-111280480D01*
X149271107Y-111267868D01*
X149251401Y-111253253D01*
X149233223Y-111236777D01*
X149216747Y-111218599D01*
X149202132Y-111198893D01*
X149189520Y-111177850D01*
X149179030Y-111155671D01*
X149170765Y-111132572D01*
X149164804Y-111108773D01*
X149161204Y-111084505D01*
X149160000Y-111060001D01*
X149160000Y-110409999D01*
X149161204Y-110385495D01*
X149164804Y-110361227D01*
X149170765Y-110337428D01*
X149179030Y-110314329D01*
X149189520Y-110292150D01*
X149202132Y-110271107D01*
X149216747Y-110251401D01*
X149233223Y-110233223D01*
X149251401Y-110216747D01*
X149271107Y-110202132D01*
X149292150Y-110189520D01*
X149314329Y-110179030D01*
X149337428Y-110170765D01*
X149361227Y-110164804D01*
X149385495Y-110161204D01*
X149409999Y-110160000D01*
X150310001Y-110160000D01*
X150334505Y-110161204D01*
X150334505Y-110161204D01*
G37*
D12*
G04 #@! TD*
G04 #@! TO.P,R6,1*
G04 #@! TO.N,P5*
X149860000Y-110735000D03*
D11*
G04 #@! TO.N,Net-(R6-Pad2)*
G04 #@! TO.C,R6*
G36*
X150334505Y-112211204D02*
X150358773Y-112214804D01*
X150382572Y-112220765D01*
X150405671Y-112229030D01*
X150427850Y-112239520D01*
X150448893Y-112252132D01*
X150468599Y-112266747D01*
X150486777Y-112283223D01*
X150503253Y-112301401D01*
X150517868Y-112321107D01*
X150530480Y-112342150D01*
X150540970Y-112364329D01*
X150549235Y-112387428D01*
X150555196Y-112411227D01*
X150558796Y-112435495D01*
X150560000Y-112459999D01*
X150560000Y-113110001D01*
X150558796Y-113134505D01*
X150555196Y-113158773D01*
X150549235Y-113182572D01*
X150540970Y-113205671D01*
X150530480Y-113227850D01*
X150517868Y-113248893D01*
X150503253Y-113268599D01*
X150486777Y-113286777D01*
X150468599Y-113303253D01*
X150448893Y-113317868D01*
X150427850Y-113330480D01*
X150405671Y-113340970D01*
X150382572Y-113349235D01*
X150358773Y-113355196D01*
X150334505Y-113358796D01*
X150310001Y-113360000D01*
X149409999Y-113360000D01*
X149385495Y-113358796D01*
X149361227Y-113355196D01*
X149337428Y-113349235D01*
X149314329Y-113340970D01*
X149292150Y-113330480D01*
X149271107Y-113317868D01*
X149251401Y-113303253D01*
X149233223Y-113286777D01*
X149216747Y-113268599D01*
X149202132Y-113248893D01*
X149189520Y-113227850D01*
X149179030Y-113205671D01*
X149170765Y-113182572D01*
X149164804Y-113158773D01*
X149161204Y-113134505D01*
X149160000Y-113110001D01*
X149160000Y-112459999D01*
X149161204Y-112435495D01*
X149164804Y-112411227D01*
X149170765Y-112387428D01*
X149179030Y-112364329D01*
X149189520Y-112342150D01*
X149202132Y-112321107D01*
X149216747Y-112301401D01*
X149233223Y-112283223D01*
X149251401Y-112266747D01*
X149271107Y-112252132D01*
X149292150Y-112239520D01*
X149314329Y-112229030D01*
X149337428Y-112220765D01*
X149361227Y-112214804D01*
X149385495Y-112211204D01*
X149409999Y-112210000D01*
X150310001Y-112210000D01*
X150334505Y-112211204D01*
X150334505Y-112211204D01*
G37*
D12*
G04 #@! TD*
G04 #@! TO.P,R6,2*
G04 #@! TO.N,Net-(R6-Pad2)*
X149860000Y-112785000D03*
D13*
G04 #@! TO.P,D1,1*
G04 #@! TO.N,P1*
X131665000Y-83312000D03*
G04 #@! TO.P,D1,2*
G04 #@! TO.N,P2*
X133765000Y-83312000D03*
G04 #@! TD*
G04 #@! TO.P,D2,2*
G04 #@! TO.N,P3*
X140115000Y-83312000D03*
G04 #@! TO.P,D2,1*
G04 #@! TO.N,P1*
X138015000Y-83312000D03*
G04 #@! TD*
G04 #@! TO.P,D3,1*
G04 #@! TO.N,P1*
X144365000Y-83312000D03*
G04 #@! TO.P,D3,2*
G04 #@! TO.N,P4*
X146465000Y-83312000D03*
G04 #@! TD*
G04 #@! TO.P,D4,2*
G04 #@! TO.N,P5*
X152815000Y-83312000D03*
G04 #@! TO.P,D4,1*
G04 #@! TO.N,P1*
X150715000Y-83312000D03*
G04 #@! TD*
G04 #@! TO.P,D5,2*
G04 #@! TO.N,P1*
X133765000Y-88900000D03*
G04 #@! TO.P,D5,1*
G04 #@! TO.N,P2*
X131665000Y-88900000D03*
G04 #@! TD*
G04 #@! TO.P,D6,1*
G04 #@! TO.N,P2*
X138015000Y-88900000D03*
G04 #@! TO.P,D6,2*
G04 #@! TO.N,P3*
X140115000Y-88900000D03*
G04 #@! TD*
G04 #@! TO.P,D7,2*
G04 #@! TO.N,P4*
X146465000Y-88900000D03*
G04 #@! TO.P,D7,1*
G04 #@! TO.N,P2*
X144365000Y-88900000D03*
G04 #@! TD*
G04 #@! TO.P,D8,1*
G04 #@! TO.N,P2*
X150715000Y-88900000D03*
G04 #@! TO.P,D8,2*
G04 #@! TO.N,P5*
X152815000Y-88900000D03*
G04 #@! TD*
G04 #@! TO.P,D9,2*
G04 #@! TO.N,P1*
X133765000Y-94488000D03*
G04 #@! TO.P,D9,1*
G04 #@! TO.N,P3*
X131665000Y-94488000D03*
G04 #@! TD*
G04 #@! TO.P,D10,1*
G04 #@! TO.N,P3*
X138015000Y-94488000D03*
G04 #@! TO.P,D10,2*
G04 #@! TO.N,P2*
X140115000Y-94488000D03*
G04 #@! TD*
G04 #@! TO.P,D11,2*
G04 #@! TO.N,P4*
X146465000Y-94488000D03*
G04 #@! TO.P,D11,1*
G04 #@! TO.N,P3*
X144365000Y-94488000D03*
G04 #@! TD*
G04 #@! TO.P,D12,1*
G04 #@! TO.N,P3*
X150715000Y-94488000D03*
G04 #@! TO.P,D12,2*
G04 #@! TO.N,P5*
X152815000Y-94488000D03*
G04 #@! TD*
G04 #@! TO.P,D13,2*
G04 #@! TO.N,P1*
X133765000Y-100076000D03*
G04 #@! TO.P,D13,1*
G04 #@! TO.N,P4*
X131665000Y-100076000D03*
G04 #@! TD*
G04 #@! TO.P,D14,1*
G04 #@! TO.N,P4*
X138015000Y-100076000D03*
G04 #@! TO.P,D14,2*
G04 #@! TO.N,P2*
X140115000Y-100076000D03*
G04 #@! TD*
G04 #@! TO.P,D15,2*
G04 #@! TO.N,P3*
X146465000Y-100076000D03*
G04 #@! TO.P,D15,1*
G04 #@! TO.N,P4*
X144365000Y-100076000D03*
G04 #@! TD*
G04 #@! TO.P,D16,1*
G04 #@! TO.N,P4*
X150715000Y-100076000D03*
G04 #@! TO.P,D16,2*
G04 #@! TO.N,P5*
X152815000Y-100076000D03*
G04 #@! TD*
G04 #@! TO.P,D17,2*
G04 #@! TO.N,P1*
X133765000Y-105664000D03*
G04 #@! TO.P,D17,1*
G04 #@! TO.N,P5*
X131665000Y-105664000D03*
G04 #@! TD*
G04 #@! TO.P,D18,1*
G04 #@! TO.N,P5*
X138015000Y-105664000D03*
G04 #@! TO.P,D18,2*
G04 #@! TO.N,P2*
X140115000Y-105664000D03*
G04 #@! TD*
G04 #@! TO.P,D19,2*
G04 #@! TO.N,P3*
X146465000Y-105664000D03*
G04 #@! TO.P,D19,1*
G04 #@! TO.N,P5*
X144365000Y-105664000D03*
G04 #@! TD*
G04 #@! TO.P,D20,1*
G04 #@! TO.N,P5*
X150715000Y-105664000D03*
G04 #@! TO.P,D20,2*
G04 #@! TO.N,P4*
X152815000Y-105664000D03*
G04 #@! TD*
D14*
G04 #@! TO.P,J1,1*
G04 #@! TO.N,MISO*
X155702000Y-115062000D03*
D15*
G04 #@! TO.P,J1,2*
G04 #@! TO.N,VDD*
X153162000Y-115062000D03*
G04 #@! TO.P,J1,3*
G04 #@! TO.N,SCK*
X155702000Y-112522000D03*
G04 #@! TO.P,J1,4*
G04 #@! TO.N,MOSI*
X153162000Y-112522000D03*
G04 #@! TO.P,J1,5*
G04 #@! TO.N,~RST*
X155702000Y-109982000D03*
G04 #@! TO.P,J1,6*
G04 #@! TO.N,GND*
X153162000Y-109982000D03*
G04 #@! TD*
D11*
G04 #@! TO.N,P1*
G04 #@! TO.C,R2*
G36*
X140174505Y-110161204D02*
X140198773Y-110164804D01*
X140222572Y-110170765D01*
X140245671Y-110179030D01*
X140267850Y-110189520D01*
X140288893Y-110202132D01*
X140308599Y-110216747D01*
X140326777Y-110233223D01*
X140343253Y-110251401D01*
X140357868Y-110271107D01*
X140370480Y-110292150D01*
X140380970Y-110314329D01*
X140389235Y-110337428D01*
X140395196Y-110361227D01*
X140398796Y-110385495D01*
X140400000Y-110409999D01*
X140400000Y-111060001D01*
X140398796Y-111084505D01*
X140395196Y-111108773D01*
X140389235Y-111132572D01*
X140380970Y-111155671D01*
X140370480Y-111177850D01*
X140357868Y-111198893D01*
X140343253Y-111218599D01*
X140326777Y-111236777D01*
X140308599Y-111253253D01*
X140288893Y-111267868D01*
X140267850Y-111280480D01*
X140245671Y-111290970D01*
X140222572Y-111299235D01*
X140198773Y-111305196D01*
X140174505Y-111308796D01*
X140150001Y-111310000D01*
X139249999Y-111310000D01*
X139225495Y-111308796D01*
X139201227Y-111305196D01*
X139177428Y-111299235D01*
X139154329Y-111290970D01*
X139132150Y-111280480D01*
X139111107Y-111267868D01*
X139091401Y-111253253D01*
X139073223Y-111236777D01*
X139056747Y-111218599D01*
X139042132Y-111198893D01*
X139029520Y-111177850D01*
X139019030Y-111155671D01*
X139010765Y-111132572D01*
X139004804Y-111108773D01*
X139001204Y-111084505D01*
X139000000Y-111060001D01*
X139000000Y-110409999D01*
X139001204Y-110385495D01*
X139004804Y-110361227D01*
X139010765Y-110337428D01*
X139019030Y-110314329D01*
X139029520Y-110292150D01*
X139042132Y-110271107D01*
X139056747Y-110251401D01*
X139073223Y-110233223D01*
X139091401Y-110216747D01*
X139111107Y-110202132D01*
X139132150Y-110189520D01*
X139154329Y-110179030D01*
X139177428Y-110170765D01*
X139201227Y-110164804D01*
X139225495Y-110161204D01*
X139249999Y-110160000D01*
X140150001Y-110160000D01*
X140174505Y-110161204D01*
X140174505Y-110161204D01*
G37*
D12*
G04 #@! TD*
G04 #@! TO.P,R2,1*
G04 #@! TO.N,P1*
X139700000Y-110735000D03*
D11*
G04 #@! TO.N,MOSI*
G04 #@! TO.C,R2*
G36*
X140174505Y-112211204D02*
X140198773Y-112214804D01*
X140222572Y-112220765D01*
X140245671Y-112229030D01*
X140267850Y-112239520D01*
X140288893Y-112252132D01*
X140308599Y-112266747D01*
X140326777Y-112283223D01*
X140343253Y-112301401D01*
X140357868Y-112321107D01*
X140370480Y-112342150D01*
X140380970Y-112364329D01*
X140389235Y-112387428D01*
X140395196Y-112411227D01*
X140398796Y-112435495D01*
X140400000Y-112459999D01*
X140400000Y-113110001D01*
X140398796Y-113134505D01*
X140395196Y-113158773D01*
X140389235Y-113182572D01*
X140380970Y-113205671D01*
X140370480Y-113227850D01*
X140357868Y-113248893D01*
X140343253Y-113268599D01*
X140326777Y-113286777D01*
X140308599Y-113303253D01*
X140288893Y-113317868D01*
X140267850Y-113330480D01*
X140245671Y-113340970D01*
X140222572Y-113349235D01*
X140198773Y-113355196D01*
X140174505Y-113358796D01*
X140150001Y-113360000D01*
X139249999Y-113360000D01*
X139225495Y-113358796D01*
X139201227Y-113355196D01*
X139177428Y-113349235D01*
X139154329Y-113340970D01*
X139132150Y-113330480D01*
X139111107Y-113317868D01*
X139091401Y-113303253D01*
X139073223Y-113286777D01*
X139056747Y-113268599D01*
X139042132Y-113248893D01*
X139029520Y-113227850D01*
X139019030Y-113205671D01*
X139010765Y-113182572D01*
X139004804Y-113158773D01*
X139001204Y-113134505D01*
X139000000Y-113110001D01*
X139000000Y-112459999D01*
X139001204Y-112435495D01*
X139004804Y-112411227D01*
X139010765Y-112387428D01*
X139019030Y-112364329D01*
X139029520Y-112342150D01*
X139042132Y-112321107D01*
X139056747Y-112301401D01*
X139073223Y-112283223D01*
X139091401Y-112266747D01*
X139111107Y-112252132D01*
X139132150Y-112239520D01*
X139154329Y-112229030D01*
X139177428Y-112220765D01*
X139201227Y-112214804D01*
X139225495Y-112211204D01*
X139249999Y-112210000D01*
X140150001Y-112210000D01*
X140174505Y-112211204D01*
X140174505Y-112211204D01*
G37*
D12*
G04 #@! TD*
G04 #@! TO.P,R2,2*
G04 #@! TO.N,MOSI*
X139700000Y-112785000D03*
D11*
G04 #@! TO.N,MISO*
G04 #@! TO.C,R3*
G36*
X142714505Y-112211204D02*
X142738773Y-112214804D01*
X142762572Y-112220765D01*
X142785671Y-112229030D01*
X142807850Y-112239520D01*
X142828893Y-112252132D01*
X142848599Y-112266747D01*
X142866777Y-112283223D01*
X142883253Y-112301401D01*
X142897868Y-112321107D01*
X142910480Y-112342150D01*
X142920970Y-112364329D01*
X142929235Y-112387428D01*
X142935196Y-112411227D01*
X142938796Y-112435495D01*
X142940000Y-112459999D01*
X142940000Y-113110001D01*
X142938796Y-113134505D01*
X142935196Y-113158773D01*
X142929235Y-113182572D01*
X142920970Y-113205671D01*
X142910480Y-113227850D01*
X142897868Y-113248893D01*
X142883253Y-113268599D01*
X142866777Y-113286777D01*
X142848599Y-113303253D01*
X142828893Y-113317868D01*
X142807850Y-113330480D01*
X142785671Y-113340970D01*
X142762572Y-113349235D01*
X142738773Y-113355196D01*
X142714505Y-113358796D01*
X142690001Y-113360000D01*
X141789999Y-113360000D01*
X141765495Y-113358796D01*
X141741227Y-113355196D01*
X141717428Y-113349235D01*
X141694329Y-113340970D01*
X141672150Y-113330480D01*
X141651107Y-113317868D01*
X141631401Y-113303253D01*
X141613223Y-113286777D01*
X141596747Y-113268599D01*
X141582132Y-113248893D01*
X141569520Y-113227850D01*
X141559030Y-113205671D01*
X141550765Y-113182572D01*
X141544804Y-113158773D01*
X141541204Y-113134505D01*
X141540000Y-113110001D01*
X141540000Y-112459999D01*
X141541204Y-112435495D01*
X141544804Y-112411227D01*
X141550765Y-112387428D01*
X141559030Y-112364329D01*
X141569520Y-112342150D01*
X141582132Y-112321107D01*
X141596747Y-112301401D01*
X141613223Y-112283223D01*
X141631401Y-112266747D01*
X141651107Y-112252132D01*
X141672150Y-112239520D01*
X141694329Y-112229030D01*
X141717428Y-112220765D01*
X141741227Y-112214804D01*
X141765495Y-112211204D01*
X141789999Y-112210000D01*
X142690001Y-112210000D01*
X142714505Y-112211204D01*
X142714505Y-112211204D01*
G37*
D12*
G04 #@! TD*
G04 #@! TO.P,R3,2*
G04 #@! TO.N,MISO*
X142240000Y-112785000D03*
D11*
G04 #@! TO.N,P2*
G04 #@! TO.C,R3*
G36*
X142714505Y-110161204D02*
X142738773Y-110164804D01*
X142762572Y-110170765D01*
X142785671Y-110179030D01*
X142807850Y-110189520D01*
X142828893Y-110202132D01*
X142848599Y-110216747D01*
X142866777Y-110233223D01*
X142883253Y-110251401D01*
X142897868Y-110271107D01*
X142910480Y-110292150D01*
X142920970Y-110314329D01*
X142929235Y-110337428D01*
X142935196Y-110361227D01*
X142938796Y-110385495D01*
X142940000Y-110409999D01*
X142940000Y-111060001D01*
X142938796Y-111084505D01*
X142935196Y-111108773D01*
X142929235Y-111132572D01*
X142920970Y-111155671D01*
X142910480Y-111177850D01*
X142897868Y-111198893D01*
X142883253Y-111218599D01*
X142866777Y-111236777D01*
X142848599Y-111253253D01*
X142828893Y-111267868D01*
X142807850Y-111280480D01*
X142785671Y-111290970D01*
X142762572Y-111299235D01*
X142738773Y-111305196D01*
X142714505Y-111308796D01*
X142690001Y-111310000D01*
X141789999Y-111310000D01*
X141765495Y-111308796D01*
X141741227Y-111305196D01*
X141717428Y-111299235D01*
X141694329Y-111290970D01*
X141672150Y-111280480D01*
X141651107Y-111267868D01*
X141631401Y-111253253D01*
X141613223Y-111236777D01*
X141596747Y-111218599D01*
X141582132Y-111198893D01*
X141569520Y-111177850D01*
X141559030Y-111155671D01*
X141550765Y-111132572D01*
X141544804Y-111108773D01*
X141541204Y-111084505D01*
X141540000Y-111060001D01*
X141540000Y-110409999D01*
X141541204Y-110385495D01*
X141544804Y-110361227D01*
X141550765Y-110337428D01*
X141559030Y-110314329D01*
X141569520Y-110292150D01*
X141582132Y-110271107D01*
X141596747Y-110251401D01*
X141613223Y-110233223D01*
X141631401Y-110216747D01*
X141651107Y-110202132D01*
X141672150Y-110189520D01*
X141694329Y-110179030D01*
X141717428Y-110170765D01*
X141741227Y-110164804D01*
X141765495Y-110161204D01*
X141789999Y-110160000D01*
X142690001Y-110160000D01*
X142714505Y-110161204D01*
X142714505Y-110161204D01*
G37*
D12*
G04 #@! TD*
G04 #@! TO.P,R3,1*
G04 #@! TO.N,P2*
X142240000Y-110735000D03*
D11*
G04 #@! TO.N,P3*
G04 #@! TO.C,R4*
G36*
X145254505Y-110161204D02*
X145278773Y-110164804D01*
X145302572Y-110170765D01*
X145325671Y-110179030D01*
X145347850Y-110189520D01*
X145368893Y-110202132D01*
X145388599Y-110216747D01*
X145406777Y-110233223D01*
X145423253Y-110251401D01*
X145437868Y-110271107D01*
X145450480Y-110292150D01*
X145460970Y-110314329D01*
X145469235Y-110337428D01*
X145475196Y-110361227D01*
X145478796Y-110385495D01*
X145480000Y-110409999D01*
X145480000Y-111060001D01*
X145478796Y-111084505D01*
X145475196Y-111108773D01*
X145469235Y-111132572D01*
X145460970Y-111155671D01*
X145450480Y-111177850D01*
X145437868Y-111198893D01*
X145423253Y-111218599D01*
X145406777Y-111236777D01*
X145388599Y-111253253D01*
X145368893Y-111267868D01*
X145347850Y-111280480D01*
X145325671Y-111290970D01*
X145302572Y-111299235D01*
X145278773Y-111305196D01*
X145254505Y-111308796D01*
X145230001Y-111310000D01*
X144329999Y-111310000D01*
X144305495Y-111308796D01*
X144281227Y-111305196D01*
X144257428Y-111299235D01*
X144234329Y-111290970D01*
X144212150Y-111280480D01*
X144191107Y-111267868D01*
X144171401Y-111253253D01*
X144153223Y-111236777D01*
X144136747Y-111218599D01*
X144122132Y-111198893D01*
X144109520Y-111177850D01*
X144099030Y-111155671D01*
X144090765Y-111132572D01*
X144084804Y-111108773D01*
X144081204Y-111084505D01*
X144080000Y-111060001D01*
X144080000Y-110409999D01*
X144081204Y-110385495D01*
X144084804Y-110361227D01*
X144090765Y-110337428D01*
X144099030Y-110314329D01*
X144109520Y-110292150D01*
X144122132Y-110271107D01*
X144136747Y-110251401D01*
X144153223Y-110233223D01*
X144171401Y-110216747D01*
X144191107Y-110202132D01*
X144212150Y-110189520D01*
X144234329Y-110179030D01*
X144257428Y-110170765D01*
X144281227Y-110164804D01*
X144305495Y-110161204D01*
X144329999Y-110160000D01*
X145230001Y-110160000D01*
X145254505Y-110161204D01*
X145254505Y-110161204D01*
G37*
D12*
G04 #@! TD*
G04 #@! TO.P,R4,1*
G04 #@! TO.N,P3*
X144780000Y-110735000D03*
D11*
G04 #@! TO.N,SCK*
G04 #@! TO.C,R4*
G36*
X145254505Y-112211204D02*
X145278773Y-112214804D01*
X145302572Y-112220765D01*
X145325671Y-112229030D01*
X145347850Y-112239520D01*
X145368893Y-112252132D01*
X145388599Y-112266747D01*
X145406777Y-112283223D01*
X145423253Y-112301401D01*
X145437868Y-112321107D01*
X145450480Y-112342150D01*
X145460970Y-112364329D01*
X145469235Y-112387428D01*
X145475196Y-112411227D01*
X145478796Y-112435495D01*
X145480000Y-112459999D01*
X145480000Y-113110001D01*
X145478796Y-113134505D01*
X145475196Y-113158773D01*
X145469235Y-113182572D01*
X145460970Y-113205671D01*
X145450480Y-113227850D01*
X145437868Y-113248893D01*
X145423253Y-113268599D01*
X145406777Y-113286777D01*
X145388599Y-113303253D01*
X145368893Y-113317868D01*
X145347850Y-113330480D01*
X145325671Y-113340970D01*
X145302572Y-113349235D01*
X145278773Y-113355196D01*
X145254505Y-113358796D01*
X145230001Y-113360000D01*
X144329999Y-113360000D01*
X144305495Y-113358796D01*
X144281227Y-113355196D01*
X144257428Y-113349235D01*
X144234329Y-113340970D01*
X144212150Y-113330480D01*
X144191107Y-113317868D01*
X144171401Y-113303253D01*
X144153223Y-113286777D01*
X144136747Y-113268599D01*
X144122132Y-113248893D01*
X144109520Y-113227850D01*
X144099030Y-113205671D01*
X144090765Y-113182572D01*
X144084804Y-113158773D01*
X144081204Y-113134505D01*
X144080000Y-113110001D01*
X144080000Y-112459999D01*
X144081204Y-112435495D01*
X144084804Y-112411227D01*
X144090765Y-112387428D01*
X144099030Y-112364329D01*
X144109520Y-112342150D01*
X144122132Y-112321107D01*
X144136747Y-112301401D01*
X144153223Y-112283223D01*
X144171401Y-112266747D01*
X144191107Y-112252132D01*
X144212150Y-112239520D01*
X144234329Y-112229030D01*
X144257428Y-112220765D01*
X144281227Y-112214804D01*
X144305495Y-112211204D01*
X144329999Y-112210000D01*
X145230001Y-112210000D01*
X145254505Y-112211204D01*
X145254505Y-112211204D01*
G37*
D12*
G04 #@! TD*
G04 #@! TO.P,R4,2*
G04 #@! TO.N,SCK*
X144780000Y-112785000D03*
D11*
G04 #@! TO.N,Net-(R5-Pad2)*
G04 #@! TO.C,R5*
G36*
X147794505Y-112211204D02*
X147818773Y-112214804D01*
X147842572Y-112220765D01*
X147865671Y-112229030D01*
X147887850Y-112239520D01*
X147908893Y-112252132D01*
X147928599Y-112266747D01*
X147946777Y-112283223D01*
X147963253Y-112301401D01*
X147977868Y-112321107D01*
X147990480Y-112342150D01*
X148000970Y-112364329D01*
X148009235Y-112387428D01*
X148015196Y-112411227D01*
X148018796Y-112435495D01*
X148020000Y-112459999D01*
X148020000Y-113110001D01*
X148018796Y-113134505D01*
X148015196Y-113158773D01*
X148009235Y-113182572D01*
X148000970Y-113205671D01*
X147990480Y-113227850D01*
X147977868Y-113248893D01*
X147963253Y-113268599D01*
X147946777Y-113286777D01*
X147928599Y-113303253D01*
X147908893Y-113317868D01*
X147887850Y-113330480D01*
X147865671Y-113340970D01*
X147842572Y-113349235D01*
X147818773Y-113355196D01*
X147794505Y-113358796D01*
X147770001Y-113360000D01*
X146869999Y-113360000D01*
X146845495Y-113358796D01*
X146821227Y-113355196D01*
X146797428Y-113349235D01*
X146774329Y-113340970D01*
X146752150Y-113330480D01*
X146731107Y-113317868D01*
X146711401Y-113303253D01*
X146693223Y-113286777D01*
X146676747Y-113268599D01*
X146662132Y-113248893D01*
X146649520Y-113227850D01*
X146639030Y-113205671D01*
X146630765Y-113182572D01*
X146624804Y-113158773D01*
X146621204Y-113134505D01*
X146620000Y-113110001D01*
X146620000Y-112459999D01*
X146621204Y-112435495D01*
X146624804Y-112411227D01*
X146630765Y-112387428D01*
X146639030Y-112364329D01*
X146649520Y-112342150D01*
X146662132Y-112321107D01*
X146676747Y-112301401D01*
X146693223Y-112283223D01*
X146711401Y-112266747D01*
X146731107Y-112252132D01*
X146752150Y-112239520D01*
X146774329Y-112229030D01*
X146797428Y-112220765D01*
X146821227Y-112214804D01*
X146845495Y-112211204D01*
X146869999Y-112210000D01*
X147770001Y-112210000D01*
X147794505Y-112211204D01*
X147794505Y-112211204D01*
G37*
D12*
G04 #@! TD*
G04 #@! TO.P,R5,2*
G04 #@! TO.N,Net-(R5-Pad2)*
X147320000Y-112785000D03*
D11*
G04 #@! TO.N,P4*
G04 #@! TO.C,R5*
G36*
X147794505Y-110161204D02*
X147818773Y-110164804D01*
X147842572Y-110170765D01*
X147865671Y-110179030D01*
X147887850Y-110189520D01*
X147908893Y-110202132D01*
X147928599Y-110216747D01*
X147946777Y-110233223D01*
X147963253Y-110251401D01*
X147977868Y-110271107D01*
X147990480Y-110292150D01*
X148000970Y-110314329D01*
X148009235Y-110337428D01*
X148015196Y-110361227D01*
X148018796Y-110385495D01*
X148020000Y-110409999D01*
X148020000Y-111060001D01*
X148018796Y-111084505D01*
X148015196Y-111108773D01*
X148009235Y-111132572D01*
X148000970Y-111155671D01*
X147990480Y-111177850D01*
X147977868Y-111198893D01*
X147963253Y-111218599D01*
X147946777Y-111236777D01*
X147928599Y-111253253D01*
X147908893Y-111267868D01*
X147887850Y-111280480D01*
X147865671Y-111290970D01*
X147842572Y-111299235D01*
X147818773Y-111305196D01*
X147794505Y-111308796D01*
X147770001Y-111310000D01*
X146869999Y-111310000D01*
X146845495Y-111308796D01*
X146821227Y-111305196D01*
X146797428Y-111299235D01*
X146774329Y-111290970D01*
X146752150Y-111280480D01*
X146731107Y-111267868D01*
X146711401Y-111253253D01*
X146693223Y-111236777D01*
X146676747Y-111218599D01*
X146662132Y-111198893D01*
X146649520Y-111177850D01*
X146639030Y-111155671D01*
X146630765Y-111132572D01*
X146624804Y-111108773D01*
X146621204Y-111084505D01*
X146620000Y-111060001D01*
X146620000Y-110409999D01*
X146621204Y-110385495D01*
X146624804Y-110361227D01*
X146630765Y-110337428D01*
X146639030Y-110314329D01*
X146649520Y-110292150D01*
X146662132Y-110271107D01*
X146676747Y-110251401D01*
X146693223Y-110233223D01*
X146711401Y-110216747D01*
X146731107Y-110202132D01*
X146752150Y-110189520D01*
X146774329Y-110179030D01*
X146797428Y-110170765D01*
X146821227Y-110164804D01*
X146845495Y-110161204D01*
X146869999Y-110160000D01*
X147770001Y-110160000D01*
X147794505Y-110161204D01*
X147794505Y-110161204D01*
G37*
D12*
G04 #@! TD*
G04 #@! TO.P,R5,1*
G04 #@! TO.N,P4*
X147320000Y-110735000D03*
D16*
G04 #@! TO.N,GND*
X142240000Y-114300000D03*
X156210000Y-108204000D03*
X150876000Y-109220000D03*
X149352000Y-79756000D03*
X135128000Y-79756000D03*
X144780000Y-103378000D03*
X139700000Y-103378000D03*
X142240000Y-103378000D03*
X142240000Y-92202000D03*
X139700000Y-92202000D03*
X144780000Y-92202000D03*
X147320000Y-86614000D03*
X137160000Y-86614000D03*
X132080000Y-86614000D03*
X152400000Y-86614000D03*
X128778000Y-108204000D03*
X148590000Y-113538000D03*
G04 #@! TO.N,VDD*
X131597400Y-109728000D03*
X151765000Y-113538000D03*
G04 #@! TO.N,P1*
X136601200Y-109728000D03*
X128778000Y-105664000D03*
X128778000Y-101092000D03*
X128778000Y-95504000D03*
X128778000Y-89916000D03*
X128778000Y-83312000D03*
G04 #@! TO.N,P2*
X129540000Y-106680000D03*
X129540000Y-84328000D03*
X129540000Y-96520000D03*
X129540000Y-102108000D03*
X129540000Y-90932000D03*
G04 #@! TO.N,P3*
X154178000Y-106680000D03*
X154178000Y-97536000D03*
X130302000Y-85344000D03*
X130302000Y-91948000D03*
X130302000Y-97536000D03*
X154178000Y-103124000D03*
G04 #@! TO.N,P4*
X154940000Y-84328000D03*
X154940000Y-90932000D03*
X154940000Y-96520000D03*
X154940000Y-102108000D03*
X154940000Y-105664000D03*
G04 #@! TO.N,P5*
X155702000Y-104648000D03*
X155702000Y-89916000D03*
X155702000Y-83312000D03*
X155702000Y-95504000D03*
X155702000Y-101092000D03*
G04 #@! TO.N,MISO*
X136652000Y-113919000D03*
X139700000Y-114300000D03*
G04 #@! TO.N,SCK*
X137795000Y-110109000D03*
G04 #@! TO.N,MOSI*
X136652000Y-114935000D03*
G04 #@! TO.N,Net-(R5-Pad2)*
X146050000Y-113411000D03*
G04 #@! TO.N,Net-(R6-Pad2)*
X149860000Y-114173000D03*
G04 #@! TO.N,Net-(BT1-Pad1)*
X134112000Y-108839000D03*
G04 #@! TD*
D17*
G04 #@! TO.N,VDD*
X132798000Y-108966000D02*
X132842000Y-109010000D01*
X132842000Y-110514000D02*
X132842000Y-114510000D01*
X132842000Y-109010000D02*
X132842000Y-110514000D01*
X132842000Y-109010000D02*
X132112200Y-109010000D01*
X131776585Y-109010000D02*
X132112200Y-109010000D01*
X131597400Y-109189185D02*
X131776585Y-109010000D01*
X131597400Y-109728000D02*
X131597400Y-109189185D01*
X151765000Y-114867081D02*
X151765000Y-114076815D01*
X151765000Y-114076815D02*
X151765000Y-113538000D01*
X151959919Y-115062000D02*
X151765000Y-114867081D01*
X153162000Y-115062000D02*
X151959919Y-115062000D01*
G04 #@! TO.N,P1*
X150715000Y-82458000D02*
X150553000Y-82296000D01*
X150715000Y-83312000D02*
X150715000Y-82458000D01*
X133765000Y-106518000D02*
X133603000Y-106680000D01*
X133765000Y-105664000D02*
X133765000Y-106518000D01*
X133765000Y-100930000D02*
X133603000Y-101092000D01*
X133765000Y-100076000D02*
X133765000Y-100930000D01*
X133603000Y-101092000D02*
X130795198Y-101092000D01*
X130795198Y-101092000D02*
X128778000Y-101092000D01*
X133765000Y-95342000D02*
X133603000Y-95504000D01*
X133765000Y-94488000D02*
X133765000Y-95342000D01*
X133603000Y-95504000D02*
X128778000Y-95504000D01*
X133765000Y-89754000D02*
X133603000Y-89916000D01*
X133765000Y-88900000D02*
X133765000Y-89754000D01*
X133603000Y-89916000D02*
X128778000Y-89916000D01*
X128778000Y-105664000D02*
X129794000Y-105664000D01*
X130810000Y-106680000D02*
X133603000Y-106680000D01*
X129794000Y-105664000D02*
X130810000Y-106680000D01*
X131665980Y-82457020D02*
X131665980Y-82296000D01*
X131665000Y-82458000D02*
X131665980Y-82457020D01*
X131665000Y-83312000D02*
X131665000Y-82458000D01*
X138015980Y-82457020D02*
X138015980Y-82296000D01*
X138015000Y-82458000D02*
X138015980Y-82457020D01*
X138015000Y-83312000D02*
X138015000Y-82458000D01*
X131665980Y-82296000D02*
X138015980Y-82296000D01*
X144365000Y-82297560D02*
X144363440Y-82296000D01*
X144365000Y-83312000D02*
X144365000Y-82297560D01*
X138015980Y-82296000D02*
X144363440Y-82296000D01*
X144363440Y-82296000D02*
X150553000Y-82296000D01*
X128778000Y-83312000D02*
X129794000Y-82296000D01*
X129794000Y-82296000D02*
X131665980Y-82296000D01*
X138296762Y-110735000D02*
X139700000Y-110735000D01*
X138160761Y-110871001D02*
X138296762Y-110735000D01*
X137205386Y-110871001D02*
X138160761Y-110871001D01*
X136601200Y-110266815D02*
X137205386Y-110871001D01*
X136601200Y-109728000D02*
X136601200Y-110266815D01*
G04 #@! TO.N,P2*
X150715000Y-88900000D02*
X150715000Y-88046000D01*
X150715000Y-88046000D02*
X150553000Y-87884000D01*
X130078815Y-84328000D02*
X129540000Y-84328000D01*
X133765000Y-84166000D02*
X133603000Y-84328000D01*
X133765000Y-83312000D02*
X133765000Y-84166000D01*
X130048010Y-107188010D02*
X133857990Y-107188010D01*
X129540000Y-106680000D02*
X130048010Y-107188010D01*
X133857990Y-107188010D02*
X133858000Y-107188000D01*
X133858000Y-107188000D02*
X139700000Y-107188000D01*
X142240000Y-110735000D02*
X142240000Y-109474000D01*
X142240000Y-109474000D02*
X140115000Y-107349000D01*
X139700000Y-107188000D02*
X140115000Y-107188000D01*
X140115000Y-107349000D02*
X140115000Y-107188000D01*
X140115000Y-107188000D02*
X140115000Y-105664000D01*
X130078815Y-96520000D02*
X129540000Y-96520000D01*
X138937000Y-96520000D02*
X130078815Y-96520000D01*
X140115000Y-95342000D02*
X138937000Y-96520000D01*
X140115000Y-94488000D02*
X140115000Y-95342000D01*
X130078815Y-102108000D02*
X129540000Y-102108000D01*
X138937000Y-102108000D02*
X130078815Y-102108000D01*
X140115000Y-100930000D02*
X138937000Y-102108000D01*
X140115000Y-100076000D02*
X140115000Y-100930000D01*
X138015980Y-88045020D02*
X138015980Y-87884000D01*
X138015000Y-88046000D02*
X138015980Y-88045020D01*
X138015000Y-88900000D02*
X138015000Y-88046000D01*
X138015980Y-87884000D02*
X131827000Y-87884000D01*
X144365980Y-88045020D02*
X144365980Y-87884000D01*
X144365000Y-88046000D02*
X144365980Y-88045020D01*
X144365000Y-88900000D02*
X144365000Y-88046000D01*
X150553000Y-87884000D02*
X144365980Y-87884000D01*
X144365980Y-87884000D02*
X138015980Y-87884000D01*
X131827000Y-84329000D02*
X131826000Y-84328000D01*
X133603000Y-84328000D02*
X131826000Y-84328000D01*
X131826000Y-84328000D02*
X130078815Y-84328000D01*
X131665000Y-88046000D02*
X131827000Y-87884000D01*
X131665000Y-88900000D02*
X131665000Y-88046000D01*
X130078815Y-90932000D02*
X129540000Y-90932000D01*
X136837000Y-90932000D02*
X130078815Y-90932000D01*
X138015000Y-89754000D02*
X136837000Y-90932000D01*
X138015000Y-88900000D02*
X138015000Y-89754000D01*
G04 #@! TO.N,P3*
X150715000Y-93634000D02*
X150715000Y-94488000D01*
X150553000Y-93472000D02*
X150715000Y-93634000D01*
X131665000Y-93634000D02*
X131827000Y-93472000D01*
X131665000Y-94488000D02*
X131665000Y-93634000D01*
X144780000Y-110735000D02*
X144780000Y-109474000D01*
X144780000Y-109474000D02*
X146465000Y-107789000D01*
X138015980Y-93633020D02*
X138015980Y-93472000D01*
X138015000Y-93634000D02*
X138015980Y-93633020D01*
X138015000Y-94488000D02*
X138015000Y-93634000D01*
X131827000Y-93472000D02*
X138015980Y-93472000D01*
X144365980Y-93633020D02*
X144365980Y-93472000D01*
X144365000Y-93634000D02*
X144365980Y-93633020D01*
X144365000Y-94488000D02*
X144365000Y-93634000D01*
X138015980Y-93472000D02*
X144365980Y-93472000D01*
X144365980Y-93472000D02*
X150553000Y-93472000D01*
X130840815Y-85344000D02*
X130302000Y-85344000D01*
X138937000Y-85344000D02*
X130840815Y-85344000D01*
X140115000Y-84166000D02*
X138937000Y-85344000D01*
X140115000Y-83312000D02*
X140115000Y-84166000D01*
X130840815Y-91948000D02*
X130302000Y-91948000D01*
X137921000Y-91948000D02*
X130840815Y-91948000D01*
X140115000Y-89754000D02*
X137921000Y-91948000D01*
X140115000Y-88900000D02*
X140115000Y-89754000D01*
X130302000Y-97536000D02*
X142171000Y-97536000D01*
X144365000Y-97529360D02*
X144358360Y-97536000D01*
X144365000Y-94488000D02*
X144365000Y-97529360D01*
X142171000Y-97536000D02*
X144358360Y-97536000D01*
X144358360Y-97536000D02*
X154178000Y-97536000D01*
X146465000Y-100930000D02*
X148659000Y-103124000D01*
X146465000Y-100076000D02*
X146465000Y-100930000D01*
X148659000Y-103124000D02*
X154178000Y-103124000D01*
X154178000Y-106680000D02*
X146465000Y-106680000D01*
X146465000Y-107789000D02*
X146465000Y-106680000D01*
X146465000Y-106680000D02*
X146465000Y-105664000D01*
G04 #@! TO.N,P4*
X150715000Y-99222000D02*
X150715000Y-100076000D01*
X150553000Y-99060000D02*
X150715000Y-99222000D01*
X131665000Y-99222000D02*
X131827000Y-99060000D01*
X131665000Y-100076000D02*
X131665000Y-99222000D01*
X138015980Y-99221020D02*
X138015980Y-99060000D01*
X138015000Y-99222000D02*
X138015980Y-99221020D01*
X138015000Y-100076000D02*
X138015000Y-99222000D01*
X131827000Y-99060000D02*
X138015980Y-99060000D01*
X144368520Y-99218480D02*
X144368520Y-99060000D01*
X144365000Y-99222000D02*
X144368520Y-99218480D01*
X144365000Y-100076000D02*
X144365000Y-99222000D01*
X138015980Y-99060000D02*
X144368520Y-99060000D01*
X144368520Y-99060000D02*
X150553000Y-99060000D01*
X154401185Y-84328000D02*
X154940000Y-84328000D01*
X146627000Y-84328000D02*
X154401185Y-84328000D01*
X146465000Y-84166000D02*
X146627000Y-84328000D01*
X146465000Y-83312000D02*
X146465000Y-84166000D01*
X154401185Y-90932000D02*
X154940000Y-90932000D01*
X147643000Y-90932000D02*
X154401185Y-90932000D01*
X146465000Y-89754000D02*
X147643000Y-90932000D01*
X146465000Y-88900000D02*
X146465000Y-89754000D01*
X154401185Y-96520000D02*
X154940000Y-96520000D01*
X147643000Y-96520000D02*
X154401185Y-96520000D01*
X146465000Y-95342000D02*
X147643000Y-96520000D01*
X146465000Y-94488000D02*
X146465000Y-95342000D01*
X154401185Y-102108000D02*
X154940000Y-102108000D01*
X151893000Y-102108000D02*
X154401185Y-102108000D01*
X150715000Y-100930000D02*
X151893000Y-102108000D01*
X150715000Y-100076000D02*
X150715000Y-100930000D01*
X152815000Y-105664000D02*
X154940000Y-105664000D01*
X154940000Y-107045762D02*
X154940000Y-105664000D01*
X154543762Y-107442000D02*
X154940000Y-107045762D01*
X149352000Y-107442000D02*
X154543762Y-107442000D01*
X147320000Y-110735000D02*
X147320000Y-109474000D01*
X147320000Y-109474000D02*
X149352000Y-107442000D01*
G04 #@! TO.N,P5*
X131665000Y-104810000D02*
X131827000Y-104648000D01*
X131665000Y-105664000D02*
X131665000Y-104810000D01*
X138015000Y-104654060D02*
X138021060Y-104648000D01*
X138015000Y-105664000D02*
X138015000Y-104654060D01*
X131827000Y-104648000D02*
X138021060Y-104648000D01*
X144365980Y-104809020D02*
X144365980Y-104648000D01*
X144365000Y-104810000D02*
X144365980Y-104809020D01*
X144365000Y-105664000D02*
X144365000Y-104810000D01*
X138021060Y-104648000D02*
X144365980Y-104648000D01*
X144365980Y-104648000D02*
X150553000Y-104648000D01*
X150715980Y-104809020D02*
X150715980Y-104648000D01*
X150715000Y-104810000D02*
X150715980Y-104809020D01*
X150715000Y-105664000D02*
X150715000Y-104810000D01*
X150553000Y-104648000D02*
X150715980Y-104648000D01*
X150715980Y-104648000D02*
X155702000Y-104648000D01*
X152815000Y-83312000D02*
X155702000Y-83312000D01*
X155163185Y-89916000D02*
X155702000Y-89916000D01*
X152977000Y-89916000D02*
X155163185Y-89916000D01*
X152815000Y-89754000D02*
X152977000Y-89916000D01*
X152815000Y-88900000D02*
X152815000Y-89754000D01*
X155163185Y-95504000D02*
X155702000Y-95504000D01*
X152977000Y-95504000D02*
X155163185Y-95504000D01*
X152815000Y-95342000D02*
X152977000Y-95504000D01*
X152815000Y-94488000D02*
X152815000Y-95342000D01*
X155163185Y-101092000D02*
X155702000Y-101092000D01*
X152977000Y-101092000D02*
X155163185Y-101092000D01*
X152815000Y-100930000D02*
X152977000Y-101092000D01*
X152815000Y-100076000D02*
X152815000Y-100930000D01*
X149860000Y-110060000D02*
X149860000Y-110735000D01*
X149860000Y-108585000D02*
X149860000Y-110060000D01*
X150241000Y-108204000D02*
X149860000Y-108585000D01*
X154686000Y-108204000D02*
X150241000Y-108204000D01*
X155702000Y-104648000D02*
X155702000Y-107188000D01*
X155702000Y-107188000D02*
X154686000Y-108204000D01*
G04 #@! TO.N,MISO*
X137287000Y-113919000D02*
X137668000Y-114300000D01*
X137287000Y-113530614D02*
X137287000Y-113919000D01*
X139057614Y-111760000D02*
X137287000Y-113530614D01*
X142240000Y-112785000D02*
X141367386Y-112785000D01*
X140342386Y-111760000D02*
X139057614Y-111760000D01*
X141367386Y-112785000D02*
X140342386Y-111760000D01*
X137668000Y-114300000D02*
X139700000Y-114300000D01*
X136652000Y-113919000D02*
X137287000Y-113919000D01*
G04 #@! TO.N,SCK*
X140970000Y-111132386D02*
X141666604Y-111828990D01*
X140970000Y-110337614D02*
X140970000Y-111132386D01*
X140360387Y-109728001D02*
X140970000Y-110337614D01*
X138175999Y-109728001D02*
X140360387Y-109728001D01*
X137795000Y-110109000D02*
X138175999Y-109728001D01*
X141666604Y-111828990D02*
X144780000Y-111828990D01*
X144780000Y-112785000D02*
X144780000Y-112110000D01*
X144780000Y-112110000D02*
X144780000Y-111828990D01*
X154852001Y-111672001D02*
X155702000Y-112522000D01*
X154470999Y-111290999D02*
X154852001Y-111672001D01*
X151091001Y-111290999D02*
X154470999Y-111290999D01*
X144780000Y-111828990D02*
X150553010Y-111828990D01*
X150553010Y-111828990D02*
X151091001Y-111290999D01*
G04 #@! TO.N,MOSI*
X139700000Y-112785000D02*
X140716000Y-113801000D01*
X140716000Y-113801000D02*
X140716000Y-115062000D01*
X139334238Y-115062000D02*
X140716000Y-115062000D01*
X139207238Y-114935000D02*
X139334238Y-115062000D01*
X136652000Y-114935000D02*
X139207238Y-114935000D01*
X141478000Y-115824000D02*
X140716000Y-115062000D01*
X149463762Y-115824000D02*
X141478000Y-115824000D01*
X151003000Y-114284762D02*
X149463762Y-115824000D01*
X151003000Y-113172238D02*
X151003000Y-114284762D01*
X153162000Y-112522000D02*
X151653238Y-112522000D01*
X151653238Y-112522000D02*
X151003000Y-113172238D01*
G04 #@! TO.N,Net-(R5-Pad2)*
X146218800Y-112785000D02*
X147320000Y-112785000D01*
X146050000Y-112953800D02*
X146218800Y-112785000D01*
X146050000Y-112953800D02*
X146050000Y-113411000D01*
G04 #@! TO.N,Net-(R6-Pad2)*
X149860000Y-112785000D02*
X149860000Y-114173000D01*
G04 #@! TO.N,Net-(BT1-Pad1)*
X135298000Y-108966000D02*
X135342000Y-109010000D01*
X135171000Y-108839000D02*
X135342000Y-109010000D01*
X134112000Y-108839000D02*
X135171000Y-108839000D01*
X135342000Y-109010000D02*
X135342000Y-114510000D01*
G04 #@! TD*
G04 #@! TO.N,GND*
G36*
X156489991Y-76700727D02*
X156736213Y-76842884D01*
X156918966Y-77060680D01*
X157022997Y-77346503D01*
X157035500Y-77489412D01*
X157035501Y-115531107D01*
X156979273Y-115849991D01*
X156938883Y-115919950D01*
X156940464Y-115912000D01*
X156940464Y-114212000D01*
X156910894Y-114063341D01*
X156826686Y-113937314D01*
X156700659Y-113853106D01*
X156552000Y-113823536D01*
X154852000Y-113823536D01*
X154703341Y-113853106D01*
X154577314Y-113937314D01*
X154493106Y-114063341D01*
X154463536Y-114212000D01*
X154463536Y-115912000D01*
X154493106Y-116060659D01*
X154577314Y-116186686D01*
X154703341Y-116270894D01*
X154852000Y-116300464D01*
X156552000Y-116300464D01*
X156570204Y-116296843D01*
X156333498Y-116382997D01*
X156190588Y-116395500D01*
X128308888Y-116395500D01*
X127990009Y-116339273D01*
X127743787Y-116197116D01*
X127561034Y-115979320D01*
X127457003Y-115693498D01*
X127444500Y-115550588D01*
X127444500Y-113260000D01*
X129353536Y-113260000D01*
X129353536Y-115760000D01*
X129383106Y-115908659D01*
X129467314Y-116034686D01*
X129593341Y-116118894D01*
X129742000Y-116148464D01*
X130942000Y-116148464D01*
X131090659Y-116118894D01*
X131216686Y-116034686D01*
X131300894Y-115908659D01*
X131330464Y-115760000D01*
X131330464Y-113260000D01*
X131300894Y-113111341D01*
X131216686Y-112985314D01*
X131090659Y-112901106D01*
X130942000Y-112871536D01*
X129742000Y-112871536D01*
X129593341Y-112901106D01*
X129467314Y-112985314D01*
X129383106Y-113111341D01*
X129353536Y-113260000D01*
X127444500Y-113260000D01*
X127444500Y-105520007D01*
X128054100Y-105520007D01*
X128054100Y-105807993D01*
X128164307Y-106074056D01*
X128367944Y-106277693D01*
X128634007Y-106387900D01*
X128877448Y-106387900D01*
X128816100Y-106536007D01*
X128816100Y-106823993D01*
X128926307Y-107090056D01*
X129129944Y-107293693D01*
X129396007Y-107403900D01*
X129545479Y-107403900D01*
X129562975Y-107421396D01*
X129467314Y-107485314D01*
X129383106Y-107611341D01*
X129353536Y-107760000D01*
X129353536Y-110260000D01*
X129383106Y-110408659D01*
X129467314Y-110534686D01*
X129593341Y-110618894D01*
X129742000Y-110648464D01*
X130942000Y-110648464D01*
X131090659Y-110618894D01*
X131216686Y-110534686D01*
X131300894Y-110408659D01*
X131304557Y-110390244D01*
X131453407Y-110451900D01*
X131741393Y-110451900D01*
X131880265Y-110394377D01*
X131883106Y-110408659D01*
X131967314Y-110534686D01*
X132093341Y-110618894D01*
X132242000Y-110648464D01*
X132334000Y-110648464D01*
X132334001Y-112871536D01*
X132242000Y-112871536D01*
X132093341Y-112901106D01*
X131967314Y-112985314D01*
X131883106Y-113111341D01*
X131853536Y-113260000D01*
X131853536Y-115760000D01*
X131883106Y-115908659D01*
X131967314Y-116034686D01*
X132093341Y-116118894D01*
X132242000Y-116148464D01*
X133442000Y-116148464D01*
X133590659Y-116118894D01*
X133716686Y-116034686D01*
X133800894Y-115908659D01*
X133830464Y-115760000D01*
X133830464Y-113260000D01*
X133800894Y-113111341D01*
X133716686Y-112985314D01*
X133590659Y-112901106D01*
X133442000Y-112871536D01*
X133350000Y-112871536D01*
X133350000Y-110648464D01*
X133442000Y-110648464D01*
X133590659Y-110618894D01*
X133716686Y-110534686D01*
X133800894Y-110408659D01*
X133830464Y-110260000D01*
X133830464Y-109505928D01*
X133968007Y-109562900D01*
X134255993Y-109562900D01*
X134353536Y-109522496D01*
X134353536Y-110260000D01*
X134383106Y-110408659D01*
X134467314Y-110534686D01*
X134593341Y-110618894D01*
X134742000Y-110648464D01*
X134834000Y-110648464D01*
X134834001Y-112871536D01*
X134742000Y-112871536D01*
X134593341Y-112901106D01*
X134467314Y-112985314D01*
X134383106Y-113111341D01*
X134353536Y-113260000D01*
X134353536Y-115760000D01*
X134383106Y-115908659D01*
X134467314Y-116034686D01*
X134593341Y-116118894D01*
X134742000Y-116148464D01*
X135942000Y-116148464D01*
X136090659Y-116118894D01*
X136216686Y-116034686D01*
X136300894Y-115908659D01*
X136330464Y-115760000D01*
X136330464Y-115585359D01*
X136508007Y-115658900D01*
X136795993Y-115658900D01*
X137062056Y-115548693D01*
X137167749Y-115443000D01*
X138990070Y-115443000D01*
X139136026Y-115540525D01*
X139284206Y-115570000D01*
X139284209Y-115570000D01*
X139334237Y-115579951D01*
X139384265Y-115570000D01*
X140505580Y-115570000D01*
X141083414Y-116147835D01*
X141111753Y-116190247D01*
X141154165Y-116218586D01*
X141154167Y-116218588D01*
X141279788Y-116302525D01*
X141427968Y-116332000D01*
X141427972Y-116332000D01*
X141478000Y-116341951D01*
X141528028Y-116332000D01*
X149413734Y-116332000D01*
X149463762Y-116341951D01*
X149513790Y-116332000D01*
X149513794Y-116332000D01*
X149661974Y-116302525D01*
X149830009Y-116190247D01*
X149858350Y-116147832D01*
X151257000Y-114749183D01*
X151257000Y-114817053D01*
X151247049Y-114867081D01*
X151257000Y-114917109D01*
X151257000Y-114917112D01*
X151271205Y-114988525D01*
X151286475Y-115065292D01*
X151344617Y-115152307D01*
X151398753Y-115233328D01*
X151441168Y-115261669D01*
X151565331Y-115385832D01*
X151593672Y-115428247D01*
X151761707Y-115540525D01*
X151909887Y-115570000D01*
X151909890Y-115570000D01*
X151959918Y-115579951D01*
X152009946Y-115570000D01*
X152020925Y-115570000D01*
X152274499Y-115949501D01*
X152681688Y-116221576D01*
X153040761Y-116293000D01*
X153283239Y-116293000D01*
X153642312Y-116221576D01*
X154049501Y-115949501D01*
X154321576Y-115542312D01*
X154417116Y-115062000D01*
X154321576Y-114581688D01*
X154049501Y-114174499D01*
X153642312Y-113902424D01*
X153283239Y-113831000D01*
X153040761Y-113831000D01*
X152681688Y-113902424D01*
X152274499Y-114174499D01*
X152273000Y-114176742D01*
X152273000Y-114053749D01*
X152378693Y-113948056D01*
X152488900Y-113681993D01*
X152488900Y-113552759D01*
X152681688Y-113681576D01*
X153040761Y-113753000D01*
X153283239Y-113753000D01*
X153642312Y-113681576D01*
X154049501Y-113409501D01*
X154321576Y-113002312D01*
X154417116Y-112522000D01*
X154321576Y-112041688D01*
X154159416Y-111798999D01*
X154260579Y-111798999D01*
X154528168Y-112066589D01*
X154528171Y-112066591D01*
X154535928Y-112074348D01*
X154446884Y-112522000D01*
X154542424Y-113002312D01*
X154814499Y-113409501D01*
X155221688Y-113681576D01*
X155580761Y-113753000D01*
X155823239Y-113753000D01*
X156182312Y-113681576D01*
X156589501Y-113409501D01*
X156861576Y-113002312D01*
X156957116Y-112522000D01*
X156861576Y-112041688D01*
X156589501Y-111634499D01*
X156182312Y-111362424D01*
X155823239Y-111291000D01*
X155580761Y-111291000D01*
X155254348Y-111355928D01*
X155246591Y-111348171D01*
X155246589Y-111348168D01*
X154865587Y-110967166D01*
X154837246Y-110924752D01*
X154669211Y-110812474D01*
X154521031Y-110782999D01*
X154521027Y-110782999D01*
X154470999Y-110773048D01*
X154420971Y-110782999D01*
X154402591Y-110782999D01*
X154433645Y-110748924D01*
X154548555Y-110471488D01*
X154814499Y-110869501D01*
X155221688Y-111141576D01*
X155580761Y-111213000D01*
X155823239Y-111213000D01*
X156182312Y-111141576D01*
X156589501Y-110869501D01*
X156861576Y-110462312D01*
X156957116Y-109982000D01*
X156861576Y-109501688D01*
X156589501Y-109094499D01*
X156182312Y-108822424D01*
X155823239Y-108751000D01*
X155580761Y-108751000D01*
X155221688Y-108822424D01*
X154814499Y-109094499D01*
X154548555Y-109492512D01*
X154433645Y-109215076D01*
X154043358Y-108786817D01*
X153884046Y-108712000D01*
X154635972Y-108712000D01*
X154686000Y-108721951D01*
X154736028Y-108712000D01*
X154736032Y-108712000D01*
X154884212Y-108682525D01*
X155052247Y-108570247D01*
X155080588Y-108527832D01*
X156025835Y-107582586D01*
X156068247Y-107554247D01*
X156096586Y-107511835D01*
X156096588Y-107511833D01*
X156180525Y-107386212D01*
X156203432Y-107271049D01*
X156210000Y-107238032D01*
X156210000Y-107238028D01*
X156219951Y-107188000D01*
X156210000Y-107137972D01*
X156210000Y-105163749D01*
X156315693Y-105058056D01*
X156425900Y-104791993D01*
X156425900Y-104504007D01*
X156315693Y-104237944D01*
X156112056Y-104034307D01*
X155845993Y-103924100D01*
X155558007Y-103924100D01*
X155291944Y-104034307D01*
X155186251Y-104140000D01*
X150766012Y-104140000D01*
X150715980Y-104130048D01*
X150665948Y-104140000D01*
X144416012Y-104140000D01*
X144365980Y-104130048D01*
X144315948Y-104140000D01*
X138071087Y-104140000D01*
X138021059Y-104130049D01*
X137971031Y-104140000D01*
X131877028Y-104140000D01*
X131827000Y-104130049D01*
X131776972Y-104140000D01*
X131776968Y-104140000D01*
X131628788Y-104169475D01*
X131460753Y-104281753D01*
X131432411Y-104324170D01*
X131341167Y-104415414D01*
X131298754Y-104443753D01*
X131270415Y-104486165D01*
X131270412Y-104486168D01*
X131186475Y-104611789D01*
X131173795Y-104675536D01*
X131065000Y-104675536D01*
X130916341Y-104705106D01*
X130790314Y-104789314D01*
X130706106Y-104915341D01*
X130676536Y-105064000D01*
X130676536Y-105828115D01*
X130188588Y-105340168D01*
X130160247Y-105297753D01*
X129992212Y-105185475D01*
X129844032Y-105156000D01*
X129844028Y-105156000D01*
X129794000Y-105146049D01*
X129743972Y-105156000D01*
X129293749Y-105156000D01*
X129188056Y-105050307D01*
X128921993Y-104940100D01*
X128634007Y-104940100D01*
X128367944Y-105050307D01*
X128164307Y-105253944D01*
X128054100Y-105520007D01*
X127444500Y-105520007D01*
X127444500Y-100948007D01*
X128054100Y-100948007D01*
X128054100Y-101235993D01*
X128164307Y-101502056D01*
X128367944Y-101705693D01*
X128634007Y-101815900D01*
X128877448Y-101815900D01*
X128816100Y-101964007D01*
X128816100Y-102251993D01*
X128926307Y-102518056D01*
X129129944Y-102721693D01*
X129396007Y-102831900D01*
X129683993Y-102831900D01*
X129950056Y-102721693D01*
X130055749Y-102616000D01*
X138886972Y-102616000D01*
X138937000Y-102625951D01*
X138987028Y-102616000D01*
X138987032Y-102616000D01*
X139135212Y-102586525D01*
X139303247Y-102474247D01*
X139331588Y-102431832D01*
X140438832Y-101324588D01*
X140481247Y-101296247D01*
X140593525Y-101128212D01*
X140606205Y-101064464D01*
X140715000Y-101064464D01*
X140863659Y-101034894D01*
X140989686Y-100950686D01*
X141073894Y-100824659D01*
X141103464Y-100676000D01*
X141103464Y-99568000D01*
X143376536Y-99568000D01*
X143376536Y-100676000D01*
X143406106Y-100824659D01*
X143490314Y-100950686D01*
X143616341Y-101034894D01*
X143765000Y-101064464D01*
X144965000Y-101064464D01*
X145113659Y-101034894D01*
X145239686Y-100950686D01*
X145323894Y-100824659D01*
X145353464Y-100676000D01*
X145353464Y-99568000D01*
X145476536Y-99568000D01*
X145476536Y-100676000D01*
X145506106Y-100824659D01*
X145590314Y-100950686D01*
X145716341Y-101034894D01*
X145865000Y-101064464D01*
X145973795Y-101064464D01*
X145986475Y-101128211D01*
X146070412Y-101253832D01*
X146070415Y-101253835D01*
X146098754Y-101296247D01*
X146141166Y-101324586D01*
X148264412Y-103447832D01*
X148292753Y-103490247D01*
X148460788Y-103602525D01*
X148608968Y-103632000D01*
X148608972Y-103632000D01*
X148659000Y-103641951D01*
X148709028Y-103632000D01*
X153662251Y-103632000D01*
X153767944Y-103737693D01*
X154034007Y-103847900D01*
X154321993Y-103847900D01*
X154588056Y-103737693D01*
X154791693Y-103534056D01*
X154901900Y-103267993D01*
X154901900Y-102980007D01*
X154840552Y-102831900D01*
X155083993Y-102831900D01*
X155350056Y-102721693D01*
X155553693Y-102518056D01*
X155663900Y-102251993D01*
X155663900Y-101964007D01*
X155602552Y-101815900D01*
X155845993Y-101815900D01*
X156112056Y-101705693D01*
X156315693Y-101502056D01*
X156425900Y-101235993D01*
X156425900Y-100948007D01*
X156315693Y-100681944D01*
X156112056Y-100478307D01*
X155845993Y-100368100D01*
X155558007Y-100368100D01*
X155291944Y-100478307D01*
X155186251Y-100584000D01*
X153803464Y-100584000D01*
X153803464Y-99476000D01*
X153773894Y-99327341D01*
X153689686Y-99201314D01*
X153563659Y-99117106D01*
X153415000Y-99087536D01*
X152215000Y-99087536D01*
X152066341Y-99117106D01*
X151940314Y-99201314D01*
X151856106Y-99327341D01*
X151826536Y-99476000D01*
X151826536Y-100676000D01*
X151856106Y-100824659D01*
X151940314Y-100950686D01*
X152066341Y-101034894D01*
X152215000Y-101064464D01*
X152323795Y-101064464D01*
X152336475Y-101128211D01*
X152420412Y-101253832D01*
X152420415Y-101253835D01*
X152448754Y-101296247D01*
X152491167Y-101324586D01*
X152582411Y-101415830D01*
X152610753Y-101458247D01*
X152778788Y-101570525D01*
X152926968Y-101600000D01*
X152103420Y-101600000D01*
X151508412Y-101004992D01*
X151589686Y-100950686D01*
X151673894Y-100824659D01*
X151703464Y-100676000D01*
X151703464Y-99476000D01*
X151673894Y-99327341D01*
X151589686Y-99201314D01*
X151463659Y-99117106D01*
X151315000Y-99087536D01*
X151206205Y-99087536D01*
X151193525Y-99023788D01*
X151081247Y-98855753D01*
X151038831Y-98827411D01*
X150947588Y-98736169D01*
X150919247Y-98693753D01*
X150751212Y-98581475D01*
X150603032Y-98552000D01*
X150603028Y-98552000D01*
X150553000Y-98542049D01*
X150502972Y-98552000D01*
X144418552Y-98552000D01*
X144368520Y-98542048D01*
X144318488Y-98552000D01*
X138066012Y-98552000D01*
X138015980Y-98542048D01*
X137965948Y-98552000D01*
X131877028Y-98552000D01*
X131827000Y-98542049D01*
X131776972Y-98552000D01*
X131776968Y-98552000D01*
X131628788Y-98581475D01*
X131460753Y-98693753D01*
X131432411Y-98736170D01*
X131341167Y-98827414D01*
X131298754Y-98855753D01*
X131270415Y-98898165D01*
X131270412Y-98898168D01*
X131186475Y-99023789D01*
X131173795Y-99087536D01*
X131065000Y-99087536D01*
X130916341Y-99117106D01*
X130790314Y-99201314D01*
X130706106Y-99327341D01*
X130676536Y-99476000D01*
X130676536Y-100584000D01*
X129293749Y-100584000D01*
X129188056Y-100478307D01*
X128921993Y-100368100D01*
X128634007Y-100368100D01*
X128367944Y-100478307D01*
X128164307Y-100681944D01*
X128054100Y-100948007D01*
X127444500Y-100948007D01*
X127444500Y-95360007D01*
X128054100Y-95360007D01*
X128054100Y-95647993D01*
X128164307Y-95914056D01*
X128367944Y-96117693D01*
X128634007Y-96227900D01*
X128877448Y-96227900D01*
X128816100Y-96376007D01*
X128816100Y-96663993D01*
X128926307Y-96930056D01*
X129129944Y-97133693D01*
X129396007Y-97243900D01*
X129639448Y-97243900D01*
X129578100Y-97392007D01*
X129578100Y-97679993D01*
X129688307Y-97946056D01*
X129891944Y-98149693D01*
X130158007Y-98259900D01*
X130445993Y-98259900D01*
X130712056Y-98149693D01*
X130817749Y-98044000D01*
X144308332Y-98044000D01*
X144358360Y-98053951D01*
X144408388Y-98044000D01*
X153662251Y-98044000D01*
X153767944Y-98149693D01*
X154034007Y-98259900D01*
X154321993Y-98259900D01*
X154588056Y-98149693D01*
X154791693Y-97946056D01*
X154901900Y-97679993D01*
X154901900Y-97392007D01*
X154840552Y-97243900D01*
X155083993Y-97243900D01*
X155350056Y-97133693D01*
X155553693Y-96930056D01*
X155663900Y-96663993D01*
X155663900Y-96376007D01*
X155602552Y-96227900D01*
X155845993Y-96227900D01*
X156112056Y-96117693D01*
X156315693Y-95914056D01*
X156425900Y-95647993D01*
X156425900Y-95360007D01*
X156315693Y-95093944D01*
X156112056Y-94890307D01*
X155845993Y-94780100D01*
X155558007Y-94780100D01*
X155291944Y-94890307D01*
X155186251Y-94996000D01*
X153803464Y-94996000D01*
X153803464Y-93888000D01*
X153773894Y-93739341D01*
X153689686Y-93613314D01*
X153563659Y-93529106D01*
X153415000Y-93499536D01*
X152215000Y-93499536D01*
X152066341Y-93529106D01*
X151940314Y-93613314D01*
X151856106Y-93739341D01*
X151826536Y-93888000D01*
X151826536Y-95088000D01*
X151856106Y-95236659D01*
X151940314Y-95362686D01*
X152066341Y-95446894D01*
X152215000Y-95476464D01*
X152323795Y-95476464D01*
X152336475Y-95540211D01*
X152420412Y-95665832D01*
X152420415Y-95665835D01*
X152448754Y-95708247D01*
X152491167Y-95736586D01*
X152582411Y-95827830D01*
X152610753Y-95870247D01*
X152778788Y-95982525D01*
X152926968Y-96012000D01*
X147853420Y-96012000D01*
X147258412Y-95416992D01*
X147339686Y-95362686D01*
X147423894Y-95236659D01*
X147453464Y-95088000D01*
X147453464Y-93980000D01*
X149726536Y-93980000D01*
X149726536Y-95088000D01*
X149756106Y-95236659D01*
X149840314Y-95362686D01*
X149966341Y-95446894D01*
X150115000Y-95476464D01*
X151315000Y-95476464D01*
X151463659Y-95446894D01*
X151589686Y-95362686D01*
X151673894Y-95236659D01*
X151703464Y-95088000D01*
X151703464Y-93888000D01*
X151673894Y-93739341D01*
X151589686Y-93613314D01*
X151463659Y-93529106D01*
X151315000Y-93499536D01*
X151206205Y-93499536D01*
X151193525Y-93435788D01*
X151081247Y-93267753D01*
X151038831Y-93239411D01*
X150947588Y-93148169D01*
X150919247Y-93105753D01*
X150751212Y-92993475D01*
X150603032Y-92964000D01*
X150603028Y-92964000D01*
X150553000Y-92954049D01*
X150502972Y-92964000D01*
X144416012Y-92964000D01*
X144365980Y-92954048D01*
X144315948Y-92964000D01*
X138066012Y-92964000D01*
X138015980Y-92954048D01*
X137965948Y-92964000D01*
X131877028Y-92964000D01*
X131827000Y-92954049D01*
X131776972Y-92964000D01*
X131776968Y-92964000D01*
X131628788Y-92993475D01*
X131460753Y-93105753D01*
X131432411Y-93148170D01*
X131341167Y-93239414D01*
X131298754Y-93267753D01*
X131270415Y-93310165D01*
X131270412Y-93310168D01*
X131186475Y-93435789D01*
X131173795Y-93499536D01*
X131065000Y-93499536D01*
X130916341Y-93529106D01*
X130790314Y-93613314D01*
X130706106Y-93739341D01*
X130676536Y-93888000D01*
X130676536Y-94996000D01*
X129293749Y-94996000D01*
X129188056Y-94890307D01*
X128921993Y-94780100D01*
X128634007Y-94780100D01*
X128367944Y-94890307D01*
X128164307Y-95093944D01*
X128054100Y-95360007D01*
X127444500Y-95360007D01*
X127444500Y-89772007D01*
X128054100Y-89772007D01*
X128054100Y-90059993D01*
X128164307Y-90326056D01*
X128367944Y-90529693D01*
X128634007Y-90639900D01*
X128877448Y-90639900D01*
X128816100Y-90788007D01*
X128816100Y-91075993D01*
X128926307Y-91342056D01*
X129129944Y-91545693D01*
X129396007Y-91655900D01*
X129639448Y-91655900D01*
X129578100Y-91804007D01*
X129578100Y-92091993D01*
X129688307Y-92358056D01*
X129891944Y-92561693D01*
X130158007Y-92671900D01*
X130445993Y-92671900D01*
X130712056Y-92561693D01*
X130817749Y-92456000D01*
X137870972Y-92456000D01*
X137921000Y-92465951D01*
X137971028Y-92456000D01*
X137971032Y-92456000D01*
X138119212Y-92426525D01*
X138287247Y-92314247D01*
X138315588Y-92271832D01*
X140438832Y-90148588D01*
X140481247Y-90120247D01*
X140593525Y-89952212D01*
X140606205Y-89888464D01*
X140715000Y-89888464D01*
X140863659Y-89858894D01*
X140989686Y-89774686D01*
X141073894Y-89648659D01*
X141103464Y-89500000D01*
X141103464Y-88392000D01*
X143376536Y-88392000D01*
X143376536Y-89500000D01*
X143406106Y-89648659D01*
X143490314Y-89774686D01*
X143616341Y-89858894D01*
X143765000Y-89888464D01*
X144965000Y-89888464D01*
X145113659Y-89858894D01*
X145239686Y-89774686D01*
X145323894Y-89648659D01*
X145353464Y-89500000D01*
X145353464Y-88392000D01*
X145476536Y-88392000D01*
X145476536Y-89500000D01*
X145506106Y-89648659D01*
X145590314Y-89774686D01*
X145716341Y-89858894D01*
X145865000Y-89888464D01*
X145973795Y-89888464D01*
X145986475Y-89952211D01*
X146070412Y-90077832D01*
X146070415Y-90077835D01*
X146098754Y-90120247D01*
X146141166Y-90148586D01*
X147248412Y-91255832D01*
X147276753Y-91298247D01*
X147444788Y-91410525D01*
X147592968Y-91440000D01*
X147592972Y-91440000D01*
X147643000Y-91449951D01*
X147693028Y-91440000D01*
X154424251Y-91440000D01*
X154529944Y-91545693D01*
X154796007Y-91655900D01*
X155083993Y-91655900D01*
X155350056Y-91545693D01*
X155553693Y-91342056D01*
X155663900Y-91075993D01*
X155663900Y-90788007D01*
X155602552Y-90639900D01*
X155845993Y-90639900D01*
X156112056Y-90529693D01*
X156315693Y-90326056D01*
X156425900Y-90059993D01*
X156425900Y-89772007D01*
X156315693Y-89505944D01*
X156112056Y-89302307D01*
X155845993Y-89192100D01*
X155558007Y-89192100D01*
X155291944Y-89302307D01*
X155186251Y-89408000D01*
X153803464Y-89408000D01*
X153803464Y-88300000D01*
X153773894Y-88151341D01*
X153689686Y-88025314D01*
X153563659Y-87941106D01*
X153415000Y-87911536D01*
X152215000Y-87911536D01*
X152066341Y-87941106D01*
X151940314Y-88025314D01*
X151856106Y-88151341D01*
X151826536Y-88300000D01*
X151826536Y-89500000D01*
X151856106Y-89648659D01*
X151940314Y-89774686D01*
X152066341Y-89858894D01*
X152215000Y-89888464D01*
X152323795Y-89888464D01*
X152336475Y-89952211D01*
X152420412Y-90077832D01*
X152420415Y-90077835D01*
X152448754Y-90120247D01*
X152491167Y-90148586D01*
X152582411Y-90239830D01*
X152610753Y-90282247D01*
X152778788Y-90394525D01*
X152926968Y-90424000D01*
X147853420Y-90424000D01*
X147258412Y-89828992D01*
X147339686Y-89774686D01*
X147423894Y-89648659D01*
X147453464Y-89500000D01*
X147453464Y-88392000D01*
X149726536Y-88392000D01*
X149726536Y-89500000D01*
X149756106Y-89648659D01*
X149840314Y-89774686D01*
X149966341Y-89858894D01*
X150115000Y-89888464D01*
X151315000Y-89888464D01*
X151463659Y-89858894D01*
X151589686Y-89774686D01*
X151673894Y-89648659D01*
X151703464Y-89500000D01*
X151703464Y-88300000D01*
X151673894Y-88151341D01*
X151589686Y-88025314D01*
X151463659Y-87941106D01*
X151315000Y-87911536D01*
X151206205Y-87911536D01*
X151193525Y-87847788D01*
X151081247Y-87679753D01*
X151038830Y-87651411D01*
X150947588Y-87560169D01*
X150919247Y-87517753D01*
X150751212Y-87405475D01*
X150603032Y-87376000D01*
X150603028Y-87376000D01*
X150553000Y-87366049D01*
X150502972Y-87376000D01*
X144416012Y-87376000D01*
X144365980Y-87366048D01*
X144315948Y-87376000D01*
X138066012Y-87376000D01*
X138015980Y-87366048D01*
X137965948Y-87376000D01*
X131877028Y-87376000D01*
X131827000Y-87366049D01*
X131776972Y-87376000D01*
X131776968Y-87376000D01*
X131628788Y-87405475D01*
X131460753Y-87517753D01*
X131432411Y-87560170D01*
X131341167Y-87651414D01*
X131298754Y-87679753D01*
X131270415Y-87722165D01*
X131270412Y-87722168D01*
X131186475Y-87847789D01*
X131173795Y-87911536D01*
X131065000Y-87911536D01*
X130916341Y-87941106D01*
X130790314Y-88025314D01*
X130706106Y-88151341D01*
X130676536Y-88300000D01*
X130676536Y-89408000D01*
X129293749Y-89408000D01*
X129188056Y-89302307D01*
X128921993Y-89192100D01*
X128634007Y-89192100D01*
X128367944Y-89302307D01*
X128164307Y-89505944D01*
X128054100Y-89772007D01*
X127444500Y-89772007D01*
X127444500Y-83168007D01*
X128054100Y-83168007D01*
X128054100Y-83455993D01*
X128164307Y-83722056D01*
X128367944Y-83925693D01*
X128634007Y-84035900D01*
X128877448Y-84035900D01*
X128816100Y-84184007D01*
X128816100Y-84471993D01*
X128926307Y-84738056D01*
X129129944Y-84941693D01*
X129396007Y-85051900D01*
X129639448Y-85051900D01*
X129578100Y-85200007D01*
X129578100Y-85487993D01*
X129688307Y-85754056D01*
X129891944Y-85957693D01*
X130158007Y-86067900D01*
X130445993Y-86067900D01*
X130712056Y-85957693D01*
X130817749Y-85852000D01*
X138886972Y-85852000D01*
X138937000Y-85861951D01*
X138987028Y-85852000D01*
X138987032Y-85852000D01*
X139135212Y-85822525D01*
X139303247Y-85710247D01*
X139331588Y-85667832D01*
X140438832Y-84560588D01*
X140481247Y-84532247D01*
X140593525Y-84364212D01*
X140606205Y-84300464D01*
X140715000Y-84300464D01*
X140863659Y-84270894D01*
X140989686Y-84186686D01*
X141073894Y-84060659D01*
X141103464Y-83912000D01*
X141103464Y-82804000D01*
X143376536Y-82804000D01*
X143376536Y-83912000D01*
X143406106Y-84060659D01*
X143490314Y-84186686D01*
X143616341Y-84270894D01*
X143765000Y-84300464D01*
X144965000Y-84300464D01*
X145113659Y-84270894D01*
X145239686Y-84186686D01*
X145323894Y-84060659D01*
X145353464Y-83912000D01*
X145353464Y-82804000D01*
X145476536Y-82804000D01*
X145476536Y-83912000D01*
X145506106Y-84060659D01*
X145590314Y-84186686D01*
X145716341Y-84270894D01*
X145865000Y-84300464D01*
X145973795Y-84300464D01*
X145986475Y-84364211D01*
X146070412Y-84489832D01*
X146070415Y-84489835D01*
X146098754Y-84532247D01*
X146141167Y-84560586D01*
X146232411Y-84651830D01*
X146260753Y-84694247D01*
X146428788Y-84806525D01*
X146576968Y-84836000D01*
X146576972Y-84836000D01*
X146627000Y-84845951D01*
X146677028Y-84836000D01*
X154424251Y-84836000D01*
X154529944Y-84941693D01*
X154796007Y-85051900D01*
X155083993Y-85051900D01*
X155350056Y-84941693D01*
X155553693Y-84738056D01*
X155663900Y-84471993D01*
X155663900Y-84184007D01*
X155602552Y-84035900D01*
X155845993Y-84035900D01*
X156112056Y-83925693D01*
X156315693Y-83722056D01*
X156425900Y-83455993D01*
X156425900Y-83168007D01*
X156315693Y-82901944D01*
X156112056Y-82698307D01*
X155845993Y-82588100D01*
X155558007Y-82588100D01*
X155291944Y-82698307D01*
X155186251Y-82804000D01*
X153803464Y-82804000D01*
X153803464Y-82712000D01*
X153773894Y-82563341D01*
X153689686Y-82437314D01*
X153563659Y-82353106D01*
X153415000Y-82323536D01*
X152215000Y-82323536D01*
X152066341Y-82353106D01*
X151940314Y-82437314D01*
X151856106Y-82563341D01*
X151826536Y-82712000D01*
X151826536Y-83820000D01*
X151703464Y-83820000D01*
X151703464Y-82712000D01*
X151673894Y-82563341D01*
X151589686Y-82437314D01*
X151463659Y-82353106D01*
X151315000Y-82323536D01*
X151206205Y-82323536D01*
X151193525Y-82259788D01*
X151081247Y-82091753D01*
X151038830Y-82063411D01*
X150947588Y-81972169D01*
X150919247Y-81929753D01*
X150751212Y-81817475D01*
X150603032Y-81788000D01*
X150603028Y-81788000D01*
X150553000Y-81778049D01*
X150502972Y-81788000D01*
X144413468Y-81788000D01*
X144363440Y-81778049D01*
X144313412Y-81788000D01*
X138066012Y-81788000D01*
X138015980Y-81778048D01*
X137965948Y-81788000D01*
X131716012Y-81788000D01*
X131665980Y-81778048D01*
X131615948Y-81788000D01*
X129844028Y-81788000D01*
X129794000Y-81778049D01*
X129743972Y-81788000D01*
X129743968Y-81788000D01*
X129595788Y-81817475D01*
X129470167Y-81901412D01*
X129470165Y-81901414D01*
X129427753Y-81929753D01*
X129399414Y-81972165D01*
X128783480Y-82588100D01*
X128634007Y-82588100D01*
X128367944Y-82698307D01*
X128164307Y-82901944D01*
X128054100Y-83168007D01*
X127444500Y-83168007D01*
X127444500Y-78345955D01*
X127559000Y-78345955D01*
X127559000Y-79134045D01*
X127860589Y-79862146D01*
X128417854Y-80419411D01*
X129145955Y-80721000D01*
X129934045Y-80721000D01*
X130662146Y-80419411D01*
X131219411Y-79862146D01*
X131521000Y-79134045D01*
X131521000Y-78345955D01*
X152959000Y-78345955D01*
X152959000Y-79134045D01*
X153260589Y-79862146D01*
X153817854Y-80419411D01*
X154545955Y-80721000D01*
X155334045Y-80721000D01*
X156062146Y-80419411D01*
X156619411Y-79862146D01*
X156921000Y-79134045D01*
X156921000Y-78345955D01*
X156619411Y-77617854D01*
X156062146Y-77060589D01*
X155334045Y-76759000D01*
X154545955Y-76759000D01*
X153817854Y-77060589D01*
X153260589Y-77617854D01*
X152959000Y-78345955D01*
X131521000Y-78345955D01*
X131219411Y-77617854D01*
X130662146Y-77060589D01*
X129934045Y-76759000D01*
X129145955Y-76759000D01*
X128417854Y-77060589D01*
X127860589Y-77617854D01*
X127559000Y-78345955D01*
X127444500Y-78345955D01*
X127444500Y-77508888D01*
X127500727Y-77190009D01*
X127642884Y-76943787D01*
X127860680Y-76761034D01*
X128146503Y-76657003D01*
X128289412Y-76644500D01*
X156171112Y-76644500D01*
X156489991Y-76700727D01*
X156489991Y-76700727D01*
G37*
X156489991Y-76700727D02*
X156736213Y-76842884D01*
X156918966Y-77060680D01*
X157022997Y-77346503D01*
X157035500Y-77489412D01*
X157035501Y-115531107D01*
X156979273Y-115849991D01*
X156938883Y-115919950D01*
X156940464Y-115912000D01*
X156940464Y-114212000D01*
X156910894Y-114063341D01*
X156826686Y-113937314D01*
X156700659Y-113853106D01*
X156552000Y-113823536D01*
X154852000Y-113823536D01*
X154703341Y-113853106D01*
X154577314Y-113937314D01*
X154493106Y-114063341D01*
X154463536Y-114212000D01*
X154463536Y-115912000D01*
X154493106Y-116060659D01*
X154577314Y-116186686D01*
X154703341Y-116270894D01*
X154852000Y-116300464D01*
X156552000Y-116300464D01*
X156570204Y-116296843D01*
X156333498Y-116382997D01*
X156190588Y-116395500D01*
X128308888Y-116395500D01*
X127990009Y-116339273D01*
X127743787Y-116197116D01*
X127561034Y-115979320D01*
X127457003Y-115693498D01*
X127444500Y-115550588D01*
X127444500Y-113260000D01*
X129353536Y-113260000D01*
X129353536Y-115760000D01*
X129383106Y-115908659D01*
X129467314Y-116034686D01*
X129593341Y-116118894D01*
X129742000Y-116148464D01*
X130942000Y-116148464D01*
X131090659Y-116118894D01*
X131216686Y-116034686D01*
X131300894Y-115908659D01*
X131330464Y-115760000D01*
X131330464Y-113260000D01*
X131300894Y-113111341D01*
X131216686Y-112985314D01*
X131090659Y-112901106D01*
X130942000Y-112871536D01*
X129742000Y-112871536D01*
X129593341Y-112901106D01*
X129467314Y-112985314D01*
X129383106Y-113111341D01*
X129353536Y-113260000D01*
X127444500Y-113260000D01*
X127444500Y-105520007D01*
X128054100Y-105520007D01*
X128054100Y-105807993D01*
X128164307Y-106074056D01*
X128367944Y-106277693D01*
X128634007Y-106387900D01*
X128877448Y-106387900D01*
X128816100Y-106536007D01*
X128816100Y-106823993D01*
X128926307Y-107090056D01*
X129129944Y-107293693D01*
X129396007Y-107403900D01*
X129545479Y-107403900D01*
X129562975Y-107421396D01*
X129467314Y-107485314D01*
X129383106Y-107611341D01*
X129353536Y-107760000D01*
X129353536Y-110260000D01*
X129383106Y-110408659D01*
X129467314Y-110534686D01*
X129593341Y-110618894D01*
X129742000Y-110648464D01*
X130942000Y-110648464D01*
X131090659Y-110618894D01*
X131216686Y-110534686D01*
X131300894Y-110408659D01*
X131304557Y-110390244D01*
X131453407Y-110451900D01*
X131741393Y-110451900D01*
X131880265Y-110394377D01*
X131883106Y-110408659D01*
X131967314Y-110534686D01*
X132093341Y-110618894D01*
X132242000Y-110648464D01*
X132334000Y-110648464D01*
X132334001Y-112871536D01*
X132242000Y-112871536D01*
X132093341Y-112901106D01*
X131967314Y-112985314D01*
X131883106Y-113111341D01*
X131853536Y-113260000D01*
X131853536Y-115760000D01*
X131883106Y-115908659D01*
X131967314Y-116034686D01*
X132093341Y-116118894D01*
X132242000Y-116148464D01*
X133442000Y-116148464D01*
X133590659Y-116118894D01*
X133716686Y-116034686D01*
X133800894Y-115908659D01*
X133830464Y-115760000D01*
X133830464Y-113260000D01*
X133800894Y-113111341D01*
X133716686Y-112985314D01*
X133590659Y-112901106D01*
X133442000Y-112871536D01*
X133350000Y-112871536D01*
X133350000Y-110648464D01*
X133442000Y-110648464D01*
X133590659Y-110618894D01*
X133716686Y-110534686D01*
X133800894Y-110408659D01*
X133830464Y-110260000D01*
X133830464Y-109505928D01*
X133968007Y-109562900D01*
X134255993Y-109562900D01*
X134353536Y-109522496D01*
X134353536Y-110260000D01*
X134383106Y-110408659D01*
X134467314Y-110534686D01*
X134593341Y-110618894D01*
X134742000Y-110648464D01*
X134834000Y-110648464D01*
X134834001Y-112871536D01*
X134742000Y-112871536D01*
X134593341Y-112901106D01*
X134467314Y-112985314D01*
X134383106Y-113111341D01*
X134353536Y-113260000D01*
X134353536Y-115760000D01*
X134383106Y-115908659D01*
X134467314Y-116034686D01*
X134593341Y-116118894D01*
X134742000Y-116148464D01*
X135942000Y-116148464D01*
X136090659Y-116118894D01*
X136216686Y-116034686D01*
X136300894Y-115908659D01*
X136330464Y-115760000D01*
X136330464Y-115585359D01*
X136508007Y-115658900D01*
X136795993Y-115658900D01*
X137062056Y-115548693D01*
X137167749Y-115443000D01*
X138990070Y-115443000D01*
X139136026Y-115540525D01*
X139284206Y-115570000D01*
X139284209Y-115570000D01*
X139334237Y-115579951D01*
X139384265Y-115570000D01*
X140505580Y-115570000D01*
X141083414Y-116147835D01*
X141111753Y-116190247D01*
X141154165Y-116218586D01*
X141154167Y-116218588D01*
X141279788Y-116302525D01*
X141427968Y-116332000D01*
X141427972Y-116332000D01*
X141478000Y-116341951D01*
X141528028Y-116332000D01*
X149413734Y-116332000D01*
X149463762Y-116341951D01*
X149513790Y-116332000D01*
X149513794Y-116332000D01*
X149661974Y-116302525D01*
X149830009Y-116190247D01*
X149858350Y-116147832D01*
X151257000Y-114749183D01*
X151257000Y-114817053D01*
X151247049Y-114867081D01*
X151257000Y-114917109D01*
X151257000Y-114917112D01*
X151271205Y-114988525D01*
X151286475Y-115065292D01*
X151344617Y-115152307D01*
X151398753Y-115233328D01*
X151441168Y-115261669D01*
X151565331Y-115385832D01*
X151593672Y-115428247D01*
X151761707Y-115540525D01*
X151909887Y-115570000D01*
X151909890Y-115570000D01*
X151959918Y-115579951D01*
X152009946Y-115570000D01*
X152020925Y-115570000D01*
X152274499Y-115949501D01*
X152681688Y-116221576D01*
X153040761Y-116293000D01*
X153283239Y-116293000D01*
X153642312Y-116221576D01*
X154049501Y-115949501D01*
X154321576Y-115542312D01*
X154417116Y-115062000D01*
X154321576Y-114581688D01*
X154049501Y-114174499D01*
X153642312Y-113902424D01*
X153283239Y-113831000D01*
X153040761Y-113831000D01*
X152681688Y-113902424D01*
X152274499Y-114174499D01*
X152273000Y-114176742D01*
X152273000Y-114053749D01*
X152378693Y-113948056D01*
X152488900Y-113681993D01*
X152488900Y-113552759D01*
X152681688Y-113681576D01*
X153040761Y-113753000D01*
X153283239Y-113753000D01*
X153642312Y-113681576D01*
X154049501Y-113409501D01*
X154321576Y-113002312D01*
X154417116Y-112522000D01*
X154321576Y-112041688D01*
X154159416Y-111798999D01*
X154260579Y-111798999D01*
X154528168Y-112066589D01*
X154528171Y-112066591D01*
X154535928Y-112074348D01*
X154446884Y-112522000D01*
X154542424Y-113002312D01*
X154814499Y-113409501D01*
X155221688Y-113681576D01*
X155580761Y-113753000D01*
X155823239Y-113753000D01*
X156182312Y-113681576D01*
X156589501Y-113409501D01*
X156861576Y-113002312D01*
X156957116Y-112522000D01*
X156861576Y-112041688D01*
X156589501Y-111634499D01*
X156182312Y-111362424D01*
X155823239Y-111291000D01*
X155580761Y-111291000D01*
X155254348Y-111355928D01*
X155246591Y-111348171D01*
X155246589Y-111348168D01*
X154865587Y-110967166D01*
X154837246Y-110924752D01*
X154669211Y-110812474D01*
X154521031Y-110782999D01*
X154521027Y-110782999D01*
X154470999Y-110773048D01*
X154420971Y-110782999D01*
X154402591Y-110782999D01*
X154433645Y-110748924D01*
X154548555Y-110471488D01*
X154814499Y-110869501D01*
X155221688Y-111141576D01*
X155580761Y-111213000D01*
X155823239Y-111213000D01*
X156182312Y-111141576D01*
X156589501Y-110869501D01*
X156861576Y-110462312D01*
X156957116Y-109982000D01*
X156861576Y-109501688D01*
X156589501Y-109094499D01*
X156182312Y-108822424D01*
X155823239Y-108751000D01*
X155580761Y-108751000D01*
X155221688Y-108822424D01*
X154814499Y-109094499D01*
X154548555Y-109492512D01*
X154433645Y-109215076D01*
X154043358Y-108786817D01*
X153884046Y-108712000D01*
X154635972Y-108712000D01*
X154686000Y-108721951D01*
X154736028Y-108712000D01*
X154736032Y-108712000D01*
X154884212Y-108682525D01*
X155052247Y-108570247D01*
X155080588Y-108527832D01*
X156025835Y-107582586D01*
X156068247Y-107554247D01*
X156096586Y-107511835D01*
X156096588Y-107511833D01*
X156180525Y-107386212D01*
X156203432Y-107271049D01*
X156210000Y-107238032D01*
X156210000Y-107238028D01*
X156219951Y-107188000D01*
X156210000Y-107137972D01*
X156210000Y-105163749D01*
X156315693Y-105058056D01*
X156425900Y-104791993D01*
X156425900Y-104504007D01*
X156315693Y-104237944D01*
X156112056Y-104034307D01*
X155845993Y-103924100D01*
X155558007Y-103924100D01*
X155291944Y-104034307D01*
X155186251Y-104140000D01*
X150766012Y-104140000D01*
X150715980Y-104130048D01*
X150665948Y-104140000D01*
X144416012Y-104140000D01*
X144365980Y-104130048D01*
X144315948Y-104140000D01*
X138071087Y-104140000D01*
X138021059Y-104130049D01*
X137971031Y-104140000D01*
X131877028Y-104140000D01*
X131827000Y-104130049D01*
X131776972Y-104140000D01*
X131776968Y-104140000D01*
X131628788Y-104169475D01*
X131460753Y-104281753D01*
X131432411Y-104324170D01*
X131341167Y-104415414D01*
X131298754Y-104443753D01*
X131270415Y-104486165D01*
X131270412Y-104486168D01*
X131186475Y-104611789D01*
X131173795Y-104675536D01*
X131065000Y-104675536D01*
X130916341Y-104705106D01*
X130790314Y-104789314D01*
X130706106Y-104915341D01*
X130676536Y-105064000D01*
X130676536Y-105828115D01*
X130188588Y-105340168D01*
X130160247Y-105297753D01*
X129992212Y-105185475D01*
X129844032Y-105156000D01*
X129844028Y-105156000D01*
X129794000Y-105146049D01*
X129743972Y-105156000D01*
X129293749Y-105156000D01*
X129188056Y-105050307D01*
X128921993Y-104940100D01*
X128634007Y-104940100D01*
X128367944Y-105050307D01*
X128164307Y-105253944D01*
X128054100Y-105520007D01*
X127444500Y-105520007D01*
X127444500Y-100948007D01*
X128054100Y-100948007D01*
X128054100Y-101235993D01*
X128164307Y-101502056D01*
X128367944Y-101705693D01*
X128634007Y-101815900D01*
X128877448Y-101815900D01*
X128816100Y-101964007D01*
X128816100Y-102251993D01*
X128926307Y-102518056D01*
X129129944Y-102721693D01*
X129396007Y-102831900D01*
X129683993Y-102831900D01*
X129950056Y-102721693D01*
X130055749Y-102616000D01*
X138886972Y-102616000D01*
X138937000Y-102625951D01*
X138987028Y-102616000D01*
X138987032Y-102616000D01*
X139135212Y-102586525D01*
X139303247Y-102474247D01*
X139331588Y-102431832D01*
X140438832Y-101324588D01*
X140481247Y-101296247D01*
X140593525Y-101128212D01*
X140606205Y-101064464D01*
X140715000Y-101064464D01*
X140863659Y-101034894D01*
X140989686Y-100950686D01*
X141073894Y-100824659D01*
X141103464Y-100676000D01*
X141103464Y-99568000D01*
X143376536Y-99568000D01*
X143376536Y-100676000D01*
X143406106Y-100824659D01*
X143490314Y-100950686D01*
X143616341Y-101034894D01*
X143765000Y-101064464D01*
X144965000Y-101064464D01*
X145113659Y-101034894D01*
X145239686Y-100950686D01*
X145323894Y-100824659D01*
X145353464Y-100676000D01*
X145353464Y-99568000D01*
X145476536Y-99568000D01*
X145476536Y-100676000D01*
X145506106Y-100824659D01*
X145590314Y-100950686D01*
X145716341Y-101034894D01*
X145865000Y-101064464D01*
X145973795Y-101064464D01*
X145986475Y-101128211D01*
X146070412Y-101253832D01*
X146070415Y-101253835D01*
X146098754Y-101296247D01*
X146141166Y-101324586D01*
X148264412Y-103447832D01*
X148292753Y-103490247D01*
X148460788Y-103602525D01*
X148608968Y-103632000D01*
X148608972Y-103632000D01*
X148659000Y-103641951D01*
X148709028Y-103632000D01*
X153662251Y-103632000D01*
X153767944Y-103737693D01*
X154034007Y-103847900D01*
X154321993Y-103847900D01*
X154588056Y-103737693D01*
X154791693Y-103534056D01*
X154901900Y-103267993D01*
X154901900Y-102980007D01*
X154840552Y-102831900D01*
X155083993Y-102831900D01*
X155350056Y-102721693D01*
X155553693Y-102518056D01*
X155663900Y-102251993D01*
X155663900Y-101964007D01*
X155602552Y-101815900D01*
X155845993Y-101815900D01*
X156112056Y-101705693D01*
X156315693Y-101502056D01*
X156425900Y-101235993D01*
X156425900Y-100948007D01*
X156315693Y-100681944D01*
X156112056Y-100478307D01*
X155845993Y-100368100D01*
X155558007Y-100368100D01*
X155291944Y-100478307D01*
X155186251Y-100584000D01*
X153803464Y-100584000D01*
X153803464Y-99476000D01*
X153773894Y-99327341D01*
X153689686Y-99201314D01*
X153563659Y-99117106D01*
X153415000Y-99087536D01*
X152215000Y-99087536D01*
X152066341Y-99117106D01*
X151940314Y-99201314D01*
X151856106Y-99327341D01*
X151826536Y-99476000D01*
X151826536Y-100676000D01*
X151856106Y-100824659D01*
X151940314Y-100950686D01*
X152066341Y-101034894D01*
X152215000Y-101064464D01*
X152323795Y-101064464D01*
X152336475Y-101128211D01*
X152420412Y-101253832D01*
X152420415Y-101253835D01*
X152448754Y-101296247D01*
X152491167Y-101324586D01*
X152582411Y-101415830D01*
X152610753Y-101458247D01*
X152778788Y-101570525D01*
X152926968Y-101600000D01*
X152103420Y-101600000D01*
X151508412Y-101004992D01*
X151589686Y-100950686D01*
X151673894Y-100824659D01*
X151703464Y-100676000D01*
X151703464Y-99476000D01*
X151673894Y-99327341D01*
X151589686Y-99201314D01*
X151463659Y-99117106D01*
X151315000Y-99087536D01*
X151206205Y-99087536D01*
X151193525Y-99023788D01*
X151081247Y-98855753D01*
X151038831Y-98827411D01*
X150947588Y-98736169D01*
X150919247Y-98693753D01*
X150751212Y-98581475D01*
X150603032Y-98552000D01*
X150603028Y-98552000D01*
X150553000Y-98542049D01*
X150502972Y-98552000D01*
X144418552Y-98552000D01*
X144368520Y-98542048D01*
X144318488Y-98552000D01*
X138066012Y-98552000D01*
X138015980Y-98542048D01*
X137965948Y-98552000D01*
X131877028Y-98552000D01*
X131827000Y-98542049D01*
X131776972Y-98552000D01*
X131776968Y-98552000D01*
X131628788Y-98581475D01*
X131460753Y-98693753D01*
X131432411Y-98736170D01*
X131341167Y-98827414D01*
X131298754Y-98855753D01*
X131270415Y-98898165D01*
X131270412Y-98898168D01*
X131186475Y-99023789D01*
X131173795Y-99087536D01*
X131065000Y-99087536D01*
X130916341Y-99117106D01*
X130790314Y-99201314D01*
X130706106Y-99327341D01*
X130676536Y-99476000D01*
X130676536Y-100584000D01*
X129293749Y-100584000D01*
X129188056Y-100478307D01*
X128921993Y-100368100D01*
X128634007Y-100368100D01*
X128367944Y-100478307D01*
X128164307Y-100681944D01*
X128054100Y-100948007D01*
X127444500Y-100948007D01*
X127444500Y-95360007D01*
X128054100Y-95360007D01*
X128054100Y-95647993D01*
X128164307Y-95914056D01*
X128367944Y-96117693D01*
X128634007Y-96227900D01*
X128877448Y-96227900D01*
X128816100Y-96376007D01*
X128816100Y-96663993D01*
X128926307Y-96930056D01*
X129129944Y-97133693D01*
X129396007Y-97243900D01*
X129639448Y-97243900D01*
X129578100Y-97392007D01*
X129578100Y-97679993D01*
X129688307Y-97946056D01*
X129891944Y-98149693D01*
X130158007Y-98259900D01*
X130445993Y-98259900D01*
X130712056Y-98149693D01*
X130817749Y-98044000D01*
X144308332Y-98044000D01*
X144358360Y-98053951D01*
X144408388Y-98044000D01*
X153662251Y-98044000D01*
X153767944Y-98149693D01*
X154034007Y-98259900D01*
X154321993Y-98259900D01*
X154588056Y-98149693D01*
X154791693Y-97946056D01*
X154901900Y-97679993D01*
X154901900Y-97392007D01*
X154840552Y-97243900D01*
X155083993Y-97243900D01*
X155350056Y-97133693D01*
X155553693Y-96930056D01*
X155663900Y-96663993D01*
X155663900Y-96376007D01*
X155602552Y-96227900D01*
X155845993Y-96227900D01*
X156112056Y-96117693D01*
X156315693Y-95914056D01*
X156425900Y-95647993D01*
X156425900Y-95360007D01*
X156315693Y-95093944D01*
X156112056Y-94890307D01*
X155845993Y-94780100D01*
X155558007Y-94780100D01*
X155291944Y-94890307D01*
X155186251Y-94996000D01*
X153803464Y-94996000D01*
X153803464Y-93888000D01*
X153773894Y-93739341D01*
X153689686Y-93613314D01*
X153563659Y-93529106D01*
X153415000Y-93499536D01*
X152215000Y-93499536D01*
X152066341Y-93529106D01*
X151940314Y-93613314D01*
X151856106Y-93739341D01*
X151826536Y-93888000D01*
X151826536Y-95088000D01*
X151856106Y-95236659D01*
X151940314Y-95362686D01*
X152066341Y-95446894D01*
X152215000Y-95476464D01*
X152323795Y-95476464D01*
X152336475Y-95540211D01*
X152420412Y-95665832D01*
X152420415Y-95665835D01*
X152448754Y-95708247D01*
X152491167Y-95736586D01*
X152582411Y-95827830D01*
X152610753Y-95870247D01*
X152778788Y-95982525D01*
X152926968Y-96012000D01*
X147853420Y-96012000D01*
X147258412Y-95416992D01*
X147339686Y-95362686D01*
X147423894Y-95236659D01*
X147453464Y-95088000D01*
X147453464Y-93980000D01*
X149726536Y-93980000D01*
X149726536Y-95088000D01*
X149756106Y-95236659D01*
X149840314Y-95362686D01*
X149966341Y-95446894D01*
X150115000Y-95476464D01*
X151315000Y-95476464D01*
X151463659Y-95446894D01*
X151589686Y-95362686D01*
X151673894Y-95236659D01*
X151703464Y-95088000D01*
X151703464Y-93888000D01*
X151673894Y-93739341D01*
X151589686Y-93613314D01*
X151463659Y-93529106D01*
X151315000Y-93499536D01*
X151206205Y-93499536D01*
X151193525Y-93435788D01*
X151081247Y-93267753D01*
X151038831Y-93239411D01*
X150947588Y-93148169D01*
X150919247Y-93105753D01*
X150751212Y-92993475D01*
X150603032Y-92964000D01*
X150603028Y-92964000D01*
X150553000Y-92954049D01*
X150502972Y-92964000D01*
X144416012Y-92964000D01*
X144365980Y-92954048D01*
X144315948Y-92964000D01*
X138066012Y-92964000D01*
X138015980Y-92954048D01*
X137965948Y-92964000D01*
X131877028Y-92964000D01*
X131827000Y-92954049D01*
X131776972Y-92964000D01*
X131776968Y-92964000D01*
X131628788Y-92993475D01*
X131460753Y-93105753D01*
X131432411Y-93148170D01*
X131341167Y-93239414D01*
X131298754Y-93267753D01*
X131270415Y-93310165D01*
X131270412Y-93310168D01*
X131186475Y-93435789D01*
X131173795Y-93499536D01*
X131065000Y-93499536D01*
X130916341Y-93529106D01*
X130790314Y-93613314D01*
X130706106Y-93739341D01*
X130676536Y-93888000D01*
X130676536Y-94996000D01*
X129293749Y-94996000D01*
X129188056Y-94890307D01*
X128921993Y-94780100D01*
X128634007Y-94780100D01*
X128367944Y-94890307D01*
X128164307Y-95093944D01*
X128054100Y-95360007D01*
X127444500Y-95360007D01*
X127444500Y-89772007D01*
X128054100Y-89772007D01*
X128054100Y-90059993D01*
X128164307Y-90326056D01*
X128367944Y-90529693D01*
X128634007Y-90639900D01*
X128877448Y-90639900D01*
X128816100Y-90788007D01*
X128816100Y-91075993D01*
X128926307Y-91342056D01*
X129129944Y-91545693D01*
X129396007Y-91655900D01*
X129639448Y-91655900D01*
X129578100Y-91804007D01*
X129578100Y-92091993D01*
X129688307Y-92358056D01*
X129891944Y-92561693D01*
X130158007Y-92671900D01*
X130445993Y-92671900D01*
X130712056Y-92561693D01*
X130817749Y-92456000D01*
X137870972Y-92456000D01*
X137921000Y-92465951D01*
X137971028Y-92456000D01*
X137971032Y-92456000D01*
X138119212Y-92426525D01*
X138287247Y-92314247D01*
X138315588Y-92271832D01*
X140438832Y-90148588D01*
X140481247Y-90120247D01*
X140593525Y-89952212D01*
X140606205Y-89888464D01*
X140715000Y-89888464D01*
X140863659Y-89858894D01*
X140989686Y-89774686D01*
X141073894Y-89648659D01*
X141103464Y-89500000D01*
X141103464Y-88392000D01*
X143376536Y-88392000D01*
X143376536Y-89500000D01*
X143406106Y-89648659D01*
X143490314Y-89774686D01*
X143616341Y-89858894D01*
X143765000Y-89888464D01*
X144965000Y-89888464D01*
X145113659Y-89858894D01*
X145239686Y-89774686D01*
X145323894Y-89648659D01*
X145353464Y-89500000D01*
X145353464Y-88392000D01*
X145476536Y-88392000D01*
X145476536Y-89500000D01*
X145506106Y-89648659D01*
X145590314Y-89774686D01*
X145716341Y-89858894D01*
X145865000Y-89888464D01*
X145973795Y-89888464D01*
X145986475Y-89952211D01*
X146070412Y-90077832D01*
X146070415Y-90077835D01*
X146098754Y-90120247D01*
X146141166Y-90148586D01*
X147248412Y-91255832D01*
X147276753Y-91298247D01*
X147444788Y-91410525D01*
X147592968Y-91440000D01*
X147592972Y-91440000D01*
X147643000Y-91449951D01*
X147693028Y-91440000D01*
X154424251Y-91440000D01*
X154529944Y-91545693D01*
X154796007Y-91655900D01*
X155083993Y-91655900D01*
X155350056Y-91545693D01*
X155553693Y-91342056D01*
X155663900Y-91075993D01*
X155663900Y-90788007D01*
X155602552Y-90639900D01*
X155845993Y-90639900D01*
X156112056Y-90529693D01*
X156315693Y-90326056D01*
X156425900Y-90059993D01*
X156425900Y-89772007D01*
X156315693Y-89505944D01*
X156112056Y-89302307D01*
X155845993Y-89192100D01*
X155558007Y-89192100D01*
X155291944Y-89302307D01*
X155186251Y-89408000D01*
X153803464Y-89408000D01*
X153803464Y-88300000D01*
X153773894Y-88151341D01*
X153689686Y-88025314D01*
X153563659Y-87941106D01*
X153415000Y-87911536D01*
X152215000Y-87911536D01*
X152066341Y-87941106D01*
X151940314Y-88025314D01*
X151856106Y-88151341D01*
X151826536Y-88300000D01*
X151826536Y-89500000D01*
X151856106Y-89648659D01*
X151940314Y-89774686D01*
X152066341Y-89858894D01*
X152215000Y-89888464D01*
X152323795Y-89888464D01*
X152336475Y-89952211D01*
X152420412Y-90077832D01*
X152420415Y-90077835D01*
X152448754Y-90120247D01*
X152491167Y-90148586D01*
X152582411Y-90239830D01*
X152610753Y-90282247D01*
X152778788Y-90394525D01*
X152926968Y-90424000D01*
X147853420Y-90424000D01*
X147258412Y-89828992D01*
X147339686Y-89774686D01*
X147423894Y-89648659D01*
X147453464Y-89500000D01*
X147453464Y-88392000D01*
X149726536Y-88392000D01*
X149726536Y-89500000D01*
X149756106Y-89648659D01*
X149840314Y-89774686D01*
X149966341Y-89858894D01*
X150115000Y-89888464D01*
X151315000Y-89888464D01*
X151463659Y-89858894D01*
X151589686Y-89774686D01*
X151673894Y-89648659D01*
X151703464Y-89500000D01*
X151703464Y-88300000D01*
X151673894Y-88151341D01*
X151589686Y-88025314D01*
X151463659Y-87941106D01*
X151315000Y-87911536D01*
X151206205Y-87911536D01*
X151193525Y-87847788D01*
X151081247Y-87679753D01*
X151038830Y-87651411D01*
X150947588Y-87560169D01*
X150919247Y-87517753D01*
X150751212Y-87405475D01*
X150603032Y-87376000D01*
X150603028Y-87376000D01*
X150553000Y-87366049D01*
X150502972Y-87376000D01*
X144416012Y-87376000D01*
X144365980Y-87366048D01*
X144315948Y-87376000D01*
X138066012Y-87376000D01*
X138015980Y-87366048D01*
X137965948Y-87376000D01*
X131877028Y-87376000D01*
X131827000Y-87366049D01*
X131776972Y-87376000D01*
X131776968Y-87376000D01*
X131628788Y-87405475D01*
X131460753Y-87517753D01*
X131432411Y-87560170D01*
X131341167Y-87651414D01*
X131298754Y-87679753D01*
X131270415Y-87722165D01*
X131270412Y-87722168D01*
X131186475Y-87847789D01*
X131173795Y-87911536D01*
X131065000Y-87911536D01*
X130916341Y-87941106D01*
X130790314Y-88025314D01*
X130706106Y-88151341D01*
X130676536Y-88300000D01*
X130676536Y-89408000D01*
X129293749Y-89408000D01*
X129188056Y-89302307D01*
X128921993Y-89192100D01*
X128634007Y-89192100D01*
X128367944Y-89302307D01*
X128164307Y-89505944D01*
X128054100Y-89772007D01*
X127444500Y-89772007D01*
X127444500Y-83168007D01*
X128054100Y-83168007D01*
X128054100Y-83455993D01*
X128164307Y-83722056D01*
X128367944Y-83925693D01*
X128634007Y-84035900D01*
X128877448Y-84035900D01*
X128816100Y-84184007D01*
X128816100Y-84471993D01*
X128926307Y-84738056D01*
X129129944Y-84941693D01*
X129396007Y-85051900D01*
X129639448Y-85051900D01*
X129578100Y-85200007D01*
X129578100Y-85487993D01*
X129688307Y-85754056D01*
X129891944Y-85957693D01*
X130158007Y-86067900D01*
X130445993Y-86067900D01*
X130712056Y-85957693D01*
X130817749Y-85852000D01*
X138886972Y-85852000D01*
X138937000Y-85861951D01*
X138987028Y-85852000D01*
X138987032Y-85852000D01*
X139135212Y-85822525D01*
X139303247Y-85710247D01*
X139331588Y-85667832D01*
X140438832Y-84560588D01*
X140481247Y-84532247D01*
X140593525Y-84364212D01*
X140606205Y-84300464D01*
X140715000Y-84300464D01*
X140863659Y-84270894D01*
X140989686Y-84186686D01*
X141073894Y-84060659D01*
X141103464Y-83912000D01*
X141103464Y-82804000D01*
X143376536Y-82804000D01*
X143376536Y-83912000D01*
X143406106Y-84060659D01*
X143490314Y-84186686D01*
X143616341Y-84270894D01*
X143765000Y-84300464D01*
X144965000Y-84300464D01*
X145113659Y-84270894D01*
X145239686Y-84186686D01*
X145323894Y-84060659D01*
X145353464Y-83912000D01*
X145353464Y-82804000D01*
X145476536Y-82804000D01*
X145476536Y-83912000D01*
X145506106Y-84060659D01*
X145590314Y-84186686D01*
X145716341Y-84270894D01*
X145865000Y-84300464D01*
X145973795Y-84300464D01*
X145986475Y-84364211D01*
X146070412Y-84489832D01*
X146070415Y-84489835D01*
X146098754Y-84532247D01*
X146141167Y-84560586D01*
X146232411Y-84651830D01*
X146260753Y-84694247D01*
X146428788Y-84806525D01*
X146576968Y-84836000D01*
X146576972Y-84836000D01*
X146627000Y-84845951D01*
X146677028Y-84836000D01*
X154424251Y-84836000D01*
X154529944Y-84941693D01*
X154796007Y-85051900D01*
X155083993Y-85051900D01*
X155350056Y-84941693D01*
X155553693Y-84738056D01*
X155663900Y-84471993D01*
X155663900Y-84184007D01*
X155602552Y-84035900D01*
X155845993Y-84035900D01*
X156112056Y-83925693D01*
X156315693Y-83722056D01*
X156425900Y-83455993D01*
X156425900Y-83168007D01*
X156315693Y-82901944D01*
X156112056Y-82698307D01*
X155845993Y-82588100D01*
X155558007Y-82588100D01*
X155291944Y-82698307D01*
X155186251Y-82804000D01*
X153803464Y-82804000D01*
X153803464Y-82712000D01*
X153773894Y-82563341D01*
X153689686Y-82437314D01*
X153563659Y-82353106D01*
X153415000Y-82323536D01*
X152215000Y-82323536D01*
X152066341Y-82353106D01*
X151940314Y-82437314D01*
X151856106Y-82563341D01*
X151826536Y-82712000D01*
X151826536Y-83820000D01*
X151703464Y-83820000D01*
X151703464Y-82712000D01*
X151673894Y-82563341D01*
X151589686Y-82437314D01*
X151463659Y-82353106D01*
X151315000Y-82323536D01*
X151206205Y-82323536D01*
X151193525Y-82259788D01*
X151081247Y-82091753D01*
X151038830Y-82063411D01*
X150947588Y-81972169D01*
X150919247Y-81929753D01*
X150751212Y-81817475D01*
X150603032Y-81788000D01*
X150603028Y-81788000D01*
X150553000Y-81778049D01*
X150502972Y-81788000D01*
X144413468Y-81788000D01*
X144363440Y-81778049D01*
X144313412Y-81788000D01*
X138066012Y-81788000D01*
X138015980Y-81778048D01*
X137965948Y-81788000D01*
X131716012Y-81788000D01*
X131665980Y-81778048D01*
X131615948Y-81788000D01*
X129844028Y-81788000D01*
X129794000Y-81778049D01*
X129743972Y-81788000D01*
X129743968Y-81788000D01*
X129595788Y-81817475D01*
X129470167Y-81901412D01*
X129470165Y-81901414D01*
X129427753Y-81929753D01*
X129399414Y-81972165D01*
X128783480Y-82588100D01*
X128634007Y-82588100D01*
X128367944Y-82698307D01*
X128164307Y-82901944D01*
X128054100Y-83168007D01*
X127444500Y-83168007D01*
X127444500Y-78345955D01*
X127559000Y-78345955D01*
X127559000Y-79134045D01*
X127860589Y-79862146D01*
X128417854Y-80419411D01*
X129145955Y-80721000D01*
X129934045Y-80721000D01*
X130662146Y-80419411D01*
X131219411Y-79862146D01*
X131521000Y-79134045D01*
X131521000Y-78345955D01*
X152959000Y-78345955D01*
X152959000Y-79134045D01*
X153260589Y-79862146D01*
X153817854Y-80419411D01*
X154545955Y-80721000D01*
X155334045Y-80721000D01*
X156062146Y-80419411D01*
X156619411Y-79862146D01*
X156921000Y-79134045D01*
X156921000Y-78345955D01*
X156619411Y-77617854D01*
X156062146Y-77060589D01*
X155334045Y-76759000D01*
X154545955Y-76759000D01*
X153817854Y-77060589D01*
X153260589Y-77617854D01*
X152959000Y-78345955D01*
X131521000Y-78345955D01*
X131219411Y-77617854D01*
X130662146Y-77060589D01*
X129934045Y-76759000D01*
X129145955Y-76759000D01*
X128417854Y-77060589D01*
X127860589Y-77617854D01*
X127559000Y-78345955D01*
X127444500Y-78345955D01*
X127444500Y-77508888D01*
X127500727Y-77190009D01*
X127642884Y-76943787D01*
X127860680Y-76761034D01*
X128146503Y-76657003D01*
X128289412Y-76644500D01*
X156171112Y-76644500D01*
X156489991Y-76700727D01*
G36*
X143691536Y-112459999D02*
X143691536Y-113110001D01*
X143740136Y-113354330D01*
X143878537Y-113561463D01*
X144085670Y-113699864D01*
X144329999Y-113748464D01*
X145230001Y-113748464D01*
X145392823Y-113716077D01*
X145436307Y-113821056D01*
X145639944Y-114024693D01*
X145906007Y-114134900D01*
X146193993Y-114134900D01*
X146460056Y-114024693D01*
X146663693Y-113821056D01*
X146707177Y-113716077D01*
X146869999Y-113748464D01*
X147770001Y-113748464D01*
X148014330Y-113699864D01*
X148221463Y-113561463D01*
X148359864Y-113354330D01*
X148408464Y-113110001D01*
X148408464Y-112459999D01*
X148383996Y-112336990D01*
X148796004Y-112336990D01*
X148771536Y-112459999D01*
X148771536Y-113110001D01*
X148820136Y-113354330D01*
X148958537Y-113561463D01*
X149165670Y-113699864D01*
X149285543Y-113723708D01*
X149246307Y-113762944D01*
X149136100Y-114029007D01*
X149136100Y-114316993D01*
X149246307Y-114583056D01*
X149449944Y-114786693D01*
X149685202Y-114884140D01*
X149253342Y-115316000D01*
X141688421Y-115316000D01*
X141224000Y-114851580D01*
X141224000Y-113851028D01*
X141233951Y-113801000D01*
X141224000Y-113750972D01*
X141224000Y-113750968D01*
X141194525Y-113602788D01*
X141170496Y-113566826D01*
X141110588Y-113477167D01*
X141110586Y-113477165D01*
X141082247Y-113434753D01*
X141039835Y-113406415D01*
X140780991Y-113147570D01*
X140788464Y-113110001D01*
X140788464Y-112924499D01*
X140972800Y-113108835D01*
X141001139Y-113151247D01*
X141043551Y-113179586D01*
X141043553Y-113179588D01*
X141163898Y-113260000D01*
X141169174Y-113263525D01*
X141182605Y-113266197D01*
X141200136Y-113354330D01*
X141338537Y-113561463D01*
X141545670Y-113699864D01*
X141789999Y-113748464D01*
X142690001Y-113748464D01*
X142934330Y-113699864D01*
X143141463Y-113561463D01*
X143279864Y-113354330D01*
X143328464Y-113110001D01*
X143328464Y-112459999D01*
X143303996Y-112336990D01*
X143716004Y-112336990D01*
X143691536Y-112459999D01*
X143691536Y-112459999D01*
G37*
X143691536Y-112459999D02*
X143691536Y-113110001D01*
X143740136Y-113354330D01*
X143878537Y-113561463D01*
X144085670Y-113699864D01*
X144329999Y-113748464D01*
X145230001Y-113748464D01*
X145392823Y-113716077D01*
X145436307Y-113821056D01*
X145639944Y-114024693D01*
X145906007Y-114134900D01*
X146193993Y-114134900D01*
X146460056Y-114024693D01*
X146663693Y-113821056D01*
X146707177Y-113716077D01*
X146869999Y-113748464D01*
X147770001Y-113748464D01*
X148014330Y-113699864D01*
X148221463Y-113561463D01*
X148359864Y-113354330D01*
X148408464Y-113110001D01*
X148408464Y-112459999D01*
X148383996Y-112336990D01*
X148796004Y-112336990D01*
X148771536Y-112459999D01*
X148771536Y-113110001D01*
X148820136Y-113354330D01*
X148958537Y-113561463D01*
X149165670Y-113699864D01*
X149285543Y-113723708D01*
X149246307Y-113762944D01*
X149136100Y-114029007D01*
X149136100Y-114316993D01*
X149246307Y-114583056D01*
X149449944Y-114786693D01*
X149685202Y-114884140D01*
X149253342Y-115316000D01*
X141688421Y-115316000D01*
X141224000Y-114851580D01*
X141224000Y-113851028D01*
X141233951Y-113801000D01*
X141224000Y-113750972D01*
X141224000Y-113750968D01*
X141194525Y-113602788D01*
X141170496Y-113566826D01*
X141110588Y-113477167D01*
X141110586Y-113477165D01*
X141082247Y-113434753D01*
X141039835Y-113406415D01*
X140780991Y-113147570D01*
X140788464Y-113110001D01*
X140788464Y-112924499D01*
X140972800Y-113108835D01*
X141001139Y-113151247D01*
X141043551Y-113179586D01*
X141043553Y-113179588D01*
X141163898Y-113260000D01*
X141169174Y-113263525D01*
X141182605Y-113266197D01*
X141200136Y-113354330D01*
X141338537Y-113561463D01*
X141545670Y-113699864D01*
X141789999Y-113748464D01*
X142690001Y-113748464D01*
X142934330Y-113699864D01*
X143141463Y-113561463D01*
X143279864Y-113354330D01*
X143328464Y-113110001D01*
X143328464Y-112459999D01*
X143303996Y-112336990D01*
X143716004Y-112336990D01*
X143691536Y-112459999D01*
G36*
X152280642Y-108786817D02*
X151890355Y-109215076D01*
X151720524Y-109625110D01*
X151841845Y-109855000D01*
X153035000Y-109855000D01*
X153035000Y-109835000D01*
X153289000Y-109835000D01*
X153289000Y-109855000D01*
X153309000Y-109855000D01*
X153309000Y-110109000D01*
X153289000Y-110109000D01*
X153289000Y-110129000D01*
X153035000Y-110129000D01*
X153035000Y-110109000D01*
X151841845Y-110109000D01*
X151720524Y-110338890D01*
X151890355Y-110748924D01*
X151921409Y-110782999D01*
X151141028Y-110782999D01*
X151091000Y-110773048D01*
X151040972Y-110782999D01*
X151040969Y-110782999D01*
X150948464Y-110801399D01*
X150948464Y-110409999D01*
X150899864Y-110165670D01*
X150761463Y-109958537D01*
X150554330Y-109820136D01*
X150368000Y-109783073D01*
X150368000Y-108795420D01*
X150451420Y-108712000D01*
X152439954Y-108712000D01*
X152280642Y-108786817D01*
X152280642Y-108786817D01*
G37*
X152280642Y-108786817D02*
X151890355Y-109215076D01*
X151720524Y-109625110D01*
X151841845Y-109855000D01*
X153035000Y-109855000D01*
X153035000Y-109835000D01*
X153289000Y-109835000D01*
X153289000Y-109855000D01*
X153309000Y-109855000D01*
X153309000Y-110109000D01*
X153289000Y-110109000D01*
X153289000Y-110129000D01*
X153035000Y-110129000D01*
X153035000Y-110109000D01*
X151841845Y-110109000D01*
X151720524Y-110338890D01*
X151890355Y-110748924D01*
X151921409Y-110782999D01*
X151141028Y-110782999D01*
X151091000Y-110773048D01*
X151040972Y-110782999D01*
X151040969Y-110782999D01*
X150948464Y-110801399D01*
X150948464Y-110409999D01*
X150899864Y-110165670D01*
X150761463Y-109958537D01*
X150554330Y-109820136D01*
X150368000Y-109783073D01*
X150368000Y-108795420D01*
X150451420Y-108712000D01*
X152439954Y-108712000D01*
X152280642Y-108786817D01*
G04 #@! TD*
M02*
