G04 #@! TF.GenerationSoftware,KiCad,Pcbnew,(5.0.2)-1*
G04 #@! TF.CreationDate,2019-03-01T12:21:37-06:00*
G04 #@! TF.ProjectId,matrix_badge,6d617472-6978-45f6-9261-6467652e6b69,rev?*
G04 #@! TF.SameCoordinates,Original*
G04 #@! TF.FileFunction,Legend,Top*
G04 #@! TF.FilePolarity,Positive*
%FSLAX46Y46*%
G04 Gerber Fmt 4.6, Leading zero omitted, Abs format (unit mm)*
G04 Created by KiCad (PCBNEW (5.0.2)-1) date 3/1/2019 12:21:37 PM*
%MOMM*%
%LPD*%
G01*
G04 APERTURE LIST*
%ADD10C,0.965200*%
%ADD11C,0.457200*%
%ADD12C,0.127000*%
%ADD13C,0.150000*%
%ADD14C,0.100000*%
%ADD15C,0.120000*%
%ADD16C,0.010000*%
G04 APERTURE END LIST*
D10*
X154178000Y-94488000D02*
X154178000Y-82550000D01*
X130302000Y-106426000D02*
X130302000Y-88900000D01*
D11*
X130048000Y-82296000D02*
X130048000Y-106680000D01*
X130048000Y-106680000D02*
X154432000Y-106680000D01*
X154432000Y-82296000D02*
X154432000Y-106680000D01*
X130048000Y-82296000D02*
X154432000Y-82296000D01*
D12*
X157048200Y-116332000D02*
X157048200Y-115036600D01*
X156972000Y-116408200D02*
X157048200Y-116332000D01*
X155676600Y-116408200D02*
X156972000Y-116408200D01*
D13*
G36*
X132842000Y-104851200D02*
X133350000Y-104851200D01*
X133350000Y-104673400D01*
X132842000Y-104673400D01*
X132842000Y-104851200D01*
G37*
X132842000Y-104851200D02*
X133350000Y-104851200D01*
X133350000Y-104673400D01*
X132842000Y-104673400D01*
X132842000Y-104851200D01*
G36*
X145161000Y-105410000D02*
X145669000Y-105664000D01*
X145161000Y-105918000D01*
X145161000Y-105410000D01*
G37*
X145161000Y-105410000D02*
X145669000Y-105664000D01*
X145161000Y-105918000D01*
X145161000Y-105410000D01*
G36*
X132461000Y-105410000D02*
X132969000Y-105664000D01*
X132461000Y-105918000D01*
X132461000Y-105410000D01*
G37*
X132461000Y-105410000D02*
X132969000Y-105664000D01*
X132461000Y-105918000D01*
X132461000Y-105410000D01*
G36*
X138811000Y-105410000D02*
X139319000Y-105664000D01*
X138811000Y-105918000D01*
X138811000Y-105410000D01*
G37*
X138811000Y-105410000D02*
X139319000Y-105664000D01*
X138811000Y-105918000D01*
X138811000Y-105410000D01*
G36*
X145542000Y-104851200D02*
X146050000Y-104851200D01*
X146050000Y-104673400D01*
X145542000Y-104673400D01*
X145542000Y-104851200D01*
G37*
X145542000Y-104851200D02*
X146050000Y-104851200D01*
X146050000Y-104673400D01*
X145542000Y-104673400D01*
X145542000Y-104851200D01*
G36*
X145542000Y-106654600D02*
X146050000Y-106654600D01*
X146050000Y-106476800D01*
X145542000Y-106476800D01*
X145542000Y-106654600D01*
G37*
X145542000Y-106654600D02*
X146050000Y-106654600D01*
X146050000Y-106476800D01*
X145542000Y-106476800D01*
X145542000Y-106654600D01*
G36*
X151892000Y-106654600D02*
X152400000Y-106654600D01*
X152400000Y-106476800D01*
X151892000Y-106476800D01*
X151892000Y-106654600D01*
G37*
X151892000Y-106654600D02*
X152400000Y-106654600D01*
X152400000Y-106476800D01*
X151892000Y-106476800D01*
X151892000Y-106654600D01*
G36*
X132842000Y-106654600D02*
X133350000Y-106654600D01*
X133350000Y-106476800D01*
X132842000Y-106476800D01*
X132842000Y-106654600D01*
G37*
X132842000Y-106654600D02*
X133350000Y-106654600D01*
X133350000Y-106476800D01*
X132842000Y-106476800D01*
X132842000Y-106654600D01*
G36*
X151511000Y-105410000D02*
X152019000Y-105664000D01*
X151511000Y-105918000D01*
X151511000Y-105410000D01*
G37*
X151511000Y-105410000D02*
X152019000Y-105664000D01*
X151511000Y-105918000D01*
X151511000Y-105410000D01*
G36*
X139192000Y-106654600D02*
X139700000Y-106654600D01*
X139700000Y-106476800D01*
X139192000Y-106476800D01*
X139192000Y-106654600D01*
G37*
X139192000Y-106654600D02*
X139700000Y-106654600D01*
X139700000Y-106476800D01*
X139192000Y-106476800D01*
X139192000Y-106654600D01*
G36*
X151892000Y-104851200D02*
X152400000Y-104851200D01*
X152400000Y-104673400D01*
X151892000Y-104673400D01*
X151892000Y-104851200D01*
G37*
X151892000Y-104851200D02*
X152400000Y-104851200D01*
X152400000Y-104673400D01*
X151892000Y-104673400D01*
X151892000Y-104851200D01*
G36*
X139192000Y-104851200D02*
X139700000Y-104851200D01*
X139700000Y-104673400D01*
X139192000Y-104673400D01*
X139192000Y-104851200D01*
G37*
X139192000Y-104851200D02*
X139700000Y-104851200D01*
X139700000Y-104673400D01*
X139192000Y-104673400D01*
X139192000Y-104851200D01*
G36*
X132842000Y-99263200D02*
X133350000Y-99263200D01*
X133350000Y-99085400D01*
X132842000Y-99085400D01*
X132842000Y-99263200D01*
G37*
X132842000Y-99263200D02*
X133350000Y-99263200D01*
X133350000Y-99085400D01*
X132842000Y-99085400D01*
X132842000Y-99263200D01*
G36*
X145161000Y-99822000D02*
X145669000Y-100076000D01*
X145161000Y-100330000D01*
X145161000Y-99822000D01*
G37*
X145161000Y-99822000D02*
X145669000Y-100076000D01*
X145161000Y-100330000D01*
X145161000Y-99822000D01*
G36*
X132461000Y-99822000D02*
X132969000Y-100076000D01*
X132461000Y-100330000D01*
X132461000Y-99822000D01*
G37*
X132461000Y-99822000D02*
X132969000Y-100076000D01*
X132461000Y-100330000D01*
X132461000Y-99822000D01*
G36*
X138811000Y-99822000D02*
X139319000Y-100076000D01*
X138811000Y-100330000D01*
X138811000Y-99822000D01*
G37*
X138811000Y-99822000D02*
X139319000Y-100076000D01*
X138811000Y-100330000D01*
X138811000Y-99822000D01*
G36*
X145542000Y-99263200D02*
X146050000Y-99263200D01*
X146050000Y-99085400D01*
X145542000Y-99085400D01*
X145542000Y-99263200D01*
G37*
X145542000Y-99263200D02*
X146050000Y-99263200D01*
X146050000Y-99085400D01*
X145542000Y-99085400D01*
X145542000Y-99263200D01*
G36*
X145542000Y-101066600D02*
X146050000Y-101066600D01*
X146050000Y-100888800D01*
X145542000Y-100888800D01*
X145542000Y-101066600D01*
G37*
X145542000Y-101066600D02*
X146050000Y-101066600D01*
X146050000Y-100888800D01*
X145542000Y-100888800D01*
X145542000Y-101066600D01*
G36*
X151892000Y-101066600D02*
X152400000Y-101066600D01*
X152400000Y-100888800D01*
X151892000Y-100888800D01*
X151892000Y-101066600D01*
G37*
X151892000Y-101066600D02*
X152400000Y-101066600D01*
X152400000Y-100888800D01*
X151892000Y-100888800D01*
X151892000Y-101066600D01*
G36*
X132842000Y-101066600D02*
X133350000Y-101066600D01*
X133350000Y-100888800D01*
X132842000Y-100888800D01*
X132842000Y-101066600D01*
G37*
X132842000Y-101066600D02*
X133350000Y-101066600D01*
X133350000Y-100888800D01*
X132842000Y-100888800D01*
X132842000Y-101066600D01*
G36*
X151511000Y-99822000D02*
X152019000Y-100076000D01*
X151511000Y-100330000D01*
X151511000Y-99822000D01*
G37*
X151511000Y-99822000D02*
X152019000Y-100076000D01*
X151511000Y-100330000D01*
X151511000Y-99822000D01*
G36*
X139192000Y-101066600D02*
X139700000Y-101066600D01*
X139700000Y-100888800D01*
X139192000Y-100888800D01*
X139192000Y-101066600D01*
G37*
X139192000Y-101066600D02*
X139700000Y-101066600D01*
X139700000Y-100888800D01*
X139192000Y-100888800D01*
X139192000Y-101066600D01*
G36*
X151892000Y-99263200D02*
X152400000Y-99263200D01*
X152400000Y-99085400D01*
X151892000Y-99085400D01*
X151892000Y-99263200D01*
G37*
X151892000Y-99263200D02*
X152400000Y-99263200D01*
X152400000Y-99085400D01*
X151892000Y-99085400D01*
X151892000Y-99263200D01*
G36*
X139192000Y-99263200D02*
X139700000Y-99263200D01*
X139700000Y-99085400D01*
X139192000Y-99085400D01*
X139192000Y-99263200D01*
G37*
X139192000Y-99263200D02*
X139700000Y-99263200D01*
X139700000Y-99085400D01*
X139192000Y-99085400D01*
X139192000Y-99263200D01*
G36*
X132842000Y-93675200D02*
X133350000Y-93675200D01*
X133350000Y-93497400D01*
X132842000Y-93497400D01*
X132842000Y-93675200D01*
G37*
X132842000Y-93675200D02*
X133350000Y-93675200D01*
X133350000Y-93497400D01*
X132842000Y-93497400D01*
X132842000Y-93675200D01*
G36*
X145161000Y-94234000D02*
X145669000Y-94488000D01*
X145161000Y-94742000D01*
X145161000Y-94234000D01*
G37*
X145161000Y-94234000D02*
X145669000Y-94488000D01*
X145161000Y-94742000D01*
X145161000Y-94234000D01*
G36*
X132461000Y-94234000D02*
X132969000Y-94488000D01*
X132461000Y-94742000D01*
X132461000Y-94234000D01*
G37*
X132461000Y-94234000D02*
X132969000Y-94488000D01*
X132461000Y-94742000D01*
X132461000Y-94234000D01*
G36*
X138811000Y-94234000D02*
X139319000Y-94488000D01*
X138811000Y-94742000D01*
X138811000Y-94234000D01*
G37*
X138811000Y-94234000D02*
X139319000Y-94488000D01*
X138811000Y-94742000D01*
X138811000Y-94234000D01*
G36*
X145542000Y-93675200D02*
X146050000Y-93675200D01*
X146050000Y-93497400D01*
X145542000Y-93497400D01*
X145542000Y-93675200D01*
G37*
X145542000Y-93675200D02*
X146050000Y-93675200D01*
X146050000Y-93497400D01*
X145542000Y-93497400D01*
X145542000Y-93675200D01*
G36*
X145542000Y-95478600D02*
X146050000Y-95478600D01*
X146050000Y-95300800D01*
X145542000Y-95300800D01*
X145542000Y-95478600D01*
G37*
X145542000Y-95478600D02*
X146050000Y-95478600D01*
X146050000Y-95300800D01*
X145542000Y-95300800D01*
X145542000Y-95478600D01*
G36*
X151892000Y-95478600D02*
X152400000Y-95478600D01*
X152400000Y-95300800D01*
X151892000Y-95300800D01*
X151892000Y-95478600D01*
G37*
X151892000Y-95478600D02*
X152400000Y-95478600D01*
X152400000Y-95300800D01*
X151892000Y-95300800D01*
X151892000Y-95478600D01*
G36*
X132842000Y-95478600D02*
X133350000Y-95478600D01*
X133350000Y-95300800D01*
X132842000Y-95300800D01*
X132842000Y-95478600D01*
G37*
X132842000Y-95478600D02*
X133350000Y-95478600D01*
X133350000Y-95300800D01*
X132842000Y-95300800D01*
X132842000Y-95478600D01*
G36*
X151511000Y-94234000D02*
X152019000Y-94488000D01*
X151511000Y-94742000D01*
X151511000Y-94234000D01*
G37*
X151511000Y-94234000D02*
X152019000Y-94488000D01*
X151511000Y-94742000D01*
X151511000Y-94234000D01*
G36*
X139192000Y-95478600D02*
X139700000Y-95478600D01*
X139700000Y-95300800D01*
X139192000Y-95300800D01*
X139192000Y-95478600D01*
G37*
X139192000Y-95478600D02*
X139700000Y-95478600D01*
X139700000Y-95300800D01*
X139192000Y-95300800D01*
X139192000Y-95478600D01*
G36*
X151892000Y-93675200D02*
X152400000Y-93675200D01*
X152400000Y-93497400D01*
X151892000Y-93497400D01*
X151892000Y-93675200D01*
G37*
X151892000Y-93675200D02*
X152400000Y-93675200D01*
X152400000Y-93497400D01*
X151892000Y-93497400D01*
X151892000Y-93675200D01*
G36*
X139192000Y-93675200D02*
X139700000Y-93675200D01*
X139700000Y-93497400D01*
X139192000Y-93497400D01*
X139192000Y-93675200D01*
G37*
X139192000Y-93675200D02*
X139700000Y-93675200D01*
X139700000Y-93497400D01*
X139192000Y-93497400D01*
X139192000Y-93675200D01*
G36*
X132842000Y-88087200D02*
X133350000Y-88087200D01*
X133350000Y-87909400D01*
X132842000Y-87909400D01*
X132842000Y-88087200D01*
G37*
X132842000Y-88087200D02*
X133350000Y-88087200D01*
X133350000Y-87909400D01*
X132842000Y-87909400D01*
X132842000Y-88087200D01*
G36*
X145161000Y-88646000D02*
X145669000Y-88900000D01*
X145161000Y-89154000D01*
X145161000Y-88646000D01*
G37*
X145161000Y-88646000D02*
X145669000Y-88900000D01*
X145161000Y-89154000D01*
X145161000Y-88646000D01*
G36*
X132461000Y-88646000D02*
X132969000Y-88900000D01*
X132461000Y-89154000D01*
X132461000Y-88646000D01*
G37*
X132461000Y-88646000D02*
X132969000Y-88900000D01*
X132461000Y-89154000D01*
X132461000Y-88646000D01*
G36*
X138811000Y-88646000D02*
X139319000Y-88900000D01*
X138811000Y-89154000D01*
X138811000Y-88646000D01*
G37*
X138811000Y-88646000D02*
X139319000Y-88900000D01*
X138811000Y-89154000D01*
X138811000Y-88646000D01*
G36*
X145542000Y-88087200D02*
X146050000Y-88087200D01*
X146050000Y-87909400D01*
X145542000Y-87909400D01*
X145542000Y-88087200D01*
G37*
X145542000Y-88087200D02*
X146050000Y-88087200D01*
X146050000Y-87909400D01*
X145542000Y-87909400D01*
X145542000Y-88087200D01*
G36*
X145542000Y-89890600D02*
X146050000Y-89890600D01*
X146050000Y-89712800D01*
X145542000Y-89712800D01*
X145542000Y-89890600D01*
G37*
X145542000Y-89890600D02*
X146050000Y-89890600D01*
X146050000Y-89712800D01*
X145542000Y-89712800D01*
X145542000Y-89890600D01*
G36*
X151892000Y-89890600D02*
X152400000Y-89890600D01*
X152400000Y-89712800D01*
X151892000Y-89712800D01*
X151892000Y-89890600D01*
G37*
X151892000Y-89890600D02*
X152400000Y-89890600D01*
X152400000Y-89712800D01*
X151892000Y-89712800D01*
X151892000Y-89890600D01*
G36*
X132842000Y-89890600D02*
X133350000Y-89890600D01*
X133350000Y-89712800D01*
X132842000Y-89712800D01*
X132842000Y-89890600D01*
G37*
X132842000Y-89890600D02*
X133350000Y-89890600D01*
X133350000Y-89712800D01*
X132842000Y-89712800D01*
X132842000Y-89890600D01*
G36*
X151511000Y-88646000D02*
X152019000Y-88900000D01*
X151511000Y-89154000D01*
X151511000Y-88646000D01*
G37*
X151511000Y-88646000D02*
X152019000Y-88900000D01*
X151511000Y-89154000D01*
X151511000Y-88646000D01*
G36*
X139192000Y-89890600D02*
X139700000Y-89890600D01*
X139700000Y-89712800D01*
X139192000Y-89712800D01*
X139192000Y-89890600D01*
G37*
X139192000Y-89890600D02*
X139700000Y-89890600D01*
X139700000Y-89712800D01*
X139192000Y-89712800D01*
X139192000Y-89890600D01*
G36*
X151892000Y-88087200D02*
X152400000Y-88087200D01*
X152400000Y-87909400D01*
X151892000Y-87909400D01*
X151892000Y-88087200D01*
G37*
X151892000Y-88087200D02*
X152400000Y-88087200D01*
X152400000Y-87909400D01*
X151892000Y-87909400D01*
X151892000Y-88087200D01*
G36*
X139192000Y-88087200D02*
X139700000Y-88087200D01*
X139700000Y-87909400D01*
X139192000Y-87909400D01*
X139192000Y-88087200D01*
G37*
X139192000Y-88087200D02*
X139700000Y-88087200D01*
X139700000Y-87909400D01*
X139192000Y-87909400D01*
X139192000Y-88087200D01*
G36*
X151511000Y-83058000D02*
X152019000Y-83312000D01*
X151511000Y-83566000D01*
X151511000Y-83058000D01*
G37*
X151511000Y-83058000D02*
X152019000Y-83312000D01*
X151511000Y-83566000D01*
X151511000Y-83058000D01*
G36*
X145161000Y-83058000D02*
X145669000Y-83312000D01*
X145161000Y-83566000D01*
X145161000Y-83058000D01*
G37*
X145161000Y-83058000D02*
X145669000Y-83312000D01*
X145161000Y-83566000D01*
X145161000Y-83058000D01*
G36*
X138811000Y-83058000D02*
X139319000Y-83312000D01*
X138811000Y-83566000D01*
X138811000Y-83058000D01*
G37*
X138811000Y-83058000D02*
X139319000Y-83312000D01*
X138811000Y-83566000D01*
X138811000Y-83058000D01*
G36*
X132461000Y-83058000D02*
X132969000Y-83312000D01*
X132461000Y-83566000D01*
X132461000Y-83058000D01*
G37*
X132461000Y-83058000D02*
X132969000Y-83312000D01*
X132461000Y-83566000D01*
X132461000Y-83058000D01*
G36*
X151892000Y-82499200D02*
X152400000Y-82499200D01*
X152400000Y-82321400D01*
X151892000Y-82321400D01*
X151892000Y-82499200D01*
G37*
X151892000Y-82499200D02*
X152400000Y-82499200D01*
X152400000Y-82321400D01*
X151892000Y-82321400D01*
X151892000Y-82499200D01*
G36*
X151892000Y-84302600D02*
X152400000Y-84302600D01*
X152400000Y-84124800D01*
X151892000Y-84124800D01*
X151892000Y-84302600D01*
G37*
X151892000Y-84302600D02*
X152400000Y-84302600D01*
X152400000Y-84124800D01*
X151892000Y-84124800D01*
X151892000Y-84302600D01*
G36*
X145542000Y-82499200D02*
X146050000Y-82499200D01*
X146050000Y-82321400D01*
X145542000Y-82321400D01*
X145542000Y-82499200D01*
G37*
X145542000Y-82499200D02*
X146050000Y-82499200D01*
X146050000Y-82321400D01*
X145542000Y-82321400D01*
X145542000Y-82499200D01*
G36*
X145542000Y-84302600D02*
X146050000Y-84302600D01*
X146050000Y-84124800D01*
X145542000Y-84124800D01*
X145542000Y-84302600D01*
G37*
X145542000Y-84302600D02*
X146050000Y-84302600D01*
X146050000Y-84124800D01*
X145542000Y-84124800D01*
X145542000Y-84302600D01*
G36*
X139192000Y-82499200D02*
X139700000Y-82499200D01*
X139700000Y-82321400D01*
X139192000Y-82321400D01*
X139192000Y-82499200D01*
G37*
X139192000Y-82499200D02*
X139700000Y-82499200D01*
X139700000Y-82321400D01*
X139192000Y-82321400D01*
X139192000Y-82499200D01*
G36*
X139192000Y-84302600D02*
X139700000Y-84302600D01*
X139700000Y-84124800D01*
X139192000Y-84124800D01*
X139192000Y-84302600D01*
G37*
X139192000Y-84302600D02*
X139700000Y-84302600D01*
X139700000Y-84124800D01*
X139192000Y-84124800D01*
X139192000Y-84302600D01*
G36*
X132842000Y-84302600D02*
X133350000Y-84302600D01*
X133350000Y-84124800D01*
X132842000Y-84124800D01*
X132842000Y-84302600D01*
G37*
X132842000Y-84302600D02*
X133350000Y-84302600D01*
X133350000Y-84124800D01*
X132842000Y-84124800D01*
X132842000Y-84302600D01*
G36*
X132842000Y-82499200D02*
X133350000Y-82499200D01*
X133350000Y-82321400D01*
X132842000Y-82321400D01*
X132842000Y-82499200D01*
G37*
X132842000Y-82499200D02*
X133350000Y-82499200D01*
X133350000Y-82321400D01*
X132842000Y-82321400D01*
X132842000Y-82499200D01*
D14*
G04 #@! TO.C,S1*
X137467000Y-110210000D02*
X137117000Y-109835000D01*
X137117000Y-109835000D02*
X136017000Y-109835000D01*
X136017000Y-109835000D02*
X136017000Y-108785000D01*
X136992000Y-113685000D02*
X137467000Y-113685000D01*
X137467000Y-113685000D02*
X137467000Y-113285000D01*
X128217000Y-110210000D02*
X128217000Y-109835000D01*
X128217000Y-109835000D02*
X128567000Y-109835000D01*
X128617000Y-113685000D02*
X128217000Y-113685000D01*
X128217000Y-113685000D02*
X128217000Y-113310000D01*
D15*
G04 #@! TO.C,R6*
X150570000Y-111498748D02*
X150570000Y-112021252D01*
X149150000Y-111498748D02*
X149150000Y-112021252D01*
G04 #@! TO.C,D1*
X132415000Y-82512001D02*
X133015000Y-82512001D01*
X132395000Y-84112000D02*
X132994999Y-84112000D01*
G04 #@! TO.C,D2*
X138745000Y-84112000D02*
X139345000Y-84112000D01*
X138765000Y-82512000D02*
X139365000Y-82512000D01*
G04 #@! TO.C,D3*
X145115000Y-82512000D02*
X145715000Y-82512000D01*
X145095000Y-84112000D02*
X145695000Y-84112000D01*
G04 #@! TO.C,D4*
X151445000Y-84112000D02*
X152045000Y-84112000D01*
X151465000Y-82512000D02*
X152065000Y-82512000D01*
G04 #@! TO.C,D5*
X132395000Y-89700000D02*
X132995000Y-89700000D01*
X132415000Y-88100000D02*
X133015000Y-88100000D01*
G04 #@! TO.C,D6*
X138765000Y-88100000D02*
X139365000Y-88100000D01*
X138745000Y-89700000D02*
X139345000Y-89700000D01*
G04 #@! TO.C,D7*
X145095000Y-89700000D02*
X145695000Y-89700000D01*
X145115000Y-88100000D02*
X145715000Y-88100000D01*
G04 #@! TO.C,D8*
X151465000Y-88100000D02*
X152065000Y-88100000D01*
X151445000Y-89700000D02*
X152045000Y-89700000D01*
G04 #@! TO.C,D9*
X132395000Y-95288000D02*
X132995000Y-95288000D01*
X132415000Y-93688000D02*
X133015000Y-93688000D01*
G04 #@! TO.C,D10*
X138765000Y-93688000D02*
X139365000Y-93688000D01*
X138745000Y-95288000D02*
X139345000Y-95288000D01*
G04 #@! TO.C,D11*
X145095000Y-95288000D02*
X145695000Y-95288000D01*
X145115000Y-93688000D02*
X145715000Y-93688000D01*
G04 #@! TO.C,D12*
X151465000Y-93688000D02*
X152065000Y-93688000D01*
X151445000Y-95288000D02*
X152045000Y-95288000D01*
G04 #@! TO.C,D13*
X132395000Y-100876000D02*
X132995000Y-100876000D01*
X132415000Y-99276000D02*
X133015000Y-99276000D01*
G04 #@! TO.C,D14*
X138765000Y-99276000D02*
X139365000Y-99276000D01*
X138745000Y-100876000D02*
X139345000Y-100876000D01*
G04 #@! TO.C,D15*
X145095000Y-100876000D02*
X145695000Y-100876000D01*
X145115000Y-99276000D02*
X145715000Y-99276000D01*
G04 #@! TO.C,D16*
X151465000Y-99276000D02*
X152065000Y-99276000D01*
X151445000Y-100876000D02*
X152045000Y-100876000D01*
G04 #@! TO.C,D17*
X132395000Y-106464000D02*
X132995000Y-106464000D01*
X132415000Y-104864000D02*
X133015000Y-104864000D01*
G04 #@! TO.C,D18*
X138765000Y-104864000D02*
X139365000Y-104864000D01*
X138745000Y-106464000D02*
X139345000Y-106464000D01*
G04 #@! TO.C,D19*
X145095000Y-106464000D02*
X145695000Y-106464000D01*
X145115000Y-104864000D02*
X145715000Y-104864000D01*
G04 #@! TO.C,D20*
X151465000Y-104864000D02*
X152065000Y-104864000D01*
X151445000Y-106464000D02*
X152045000Y-106464000D01*
G04 #@! TO.C,R2*
X140410000Y-111498748D02*
X140410000Y-112021252D01*
X138990000Y-111498748D02*
X138990000Y-112021252D01*
G04 #@! TO.C,R3*
X141530000Y-111498748D02*
X141530000Y-112021252D01*
X142950000Y-111498748D02*
X142950000Y-112021252D01*
G04 #@! TO.C,R4*
X145490000Y-111498748D02*
X145490000Y-112021252D01*
X144070000Y-111498748D02*
X144070000Y-112021252D01*
G04 #@! TO.C,R5*
X146610000Y-111498748D02*
X146610000Y-112021252D01*
X148030000Y-111498748D02*
X148030000Y-112021252D01*
D16*
G04 #@! TO.C,G\002A\002A\002A*
G36*
X150007487Y-76972296D02*
X150196257Y-76973113D01*
X150375886Y-76974425D01*
X150541850Y-76976228D01*
X150689623Y-76978522D01*
X150814680Y-76981306D01*
X150912495Y-76984577D01*
X150978545Y-76988335D01*
X151007863Y-76992397D01*
X151058572Y-77031975D01*
X151102345Y-77105893D01*
X151117965Y-77145095D01*
X151128810Y-77185485D01*
X151135514Y-77234798D01*
X151138706Y-77300765D01*
X151139019Y-77391119D01*
X151137085Y-77513593D01*
X151136798Y-77527616D01*
X151131441Y-77688329D01*
X151119914Y-77812836D01*
X151097836Y-77905530D01*
X151060827Y-77970806D01*
X151004508Y-78013057D01*
X150924498Y-78036677D01*
X150816417Y-78046061D01*
X150675885Y-78045602D01*
X150622000Y-78044051D01*
X150502601Y-78038192D01*
X150403833Y-78029308D01*
X150333002Y-78018201D01*
X150302939Y-78009056D01*
X150255559Y-77976300D01*
X150221908Y-77927076D01*
X150200165Y-77855439D01*
X150188510Y-77755445D01*
X150185120Y-77624409D01*
X150185120Y-77398880D01*
X148965920Y-77398880D01*
X148965920Y-78028800D01*
X149070242Y-78028800D01*
X149203374Y-78041131D01*
X149309217Y-78077297D01*
X149383683Y-78135536D01*
X149408505Y-78169566D01*
X149423392Y-78206500D01*
X149430799Y-78257718D01*
X149433179Y-78334602D01*
X149433280Y-78365639D01*
X149433280Y-78536800D01*
X150190200Y-78536831D01*
X150388070Y-78536992D01*
X150549485Y-78537578D01*
X150678628Y-78538767D01*
X150779684Y-78540740D01*
X150856836Y-78543676D01*
X150914268Y-78547756D01*
X150956164Y-78553158D01*
X150986708Y-78560063D01*
X151010084Y-78568650D01*
X151017957Y-78572391D01*
X151071755Y-78609153D01*
X151110846Y-78652735D01*
X151114177Y-78658720D01*
X151121152Y-78683860D01*
X151126869Y-78730686D01*
X151131419Y-78802133D01*
X151134892Y-78901137D01*
X151137378Y-79030631D01*
X151138966Y-79193552D01*
X151139747Y-79392835D01*
X151139860Y-79496508D01*
X151139747Y-79713685D01*
X151138893Y-79893960D01*
X151136797Y-80041071D01*
X151132957Y-80158757D01*
X151126872Y-80250754D01*
X151118042Y-80320801D01*
X151105963Y-80372636D01*
X151090136Y-80409997D01*
X151070058Y-80436620D01*
X151045229Y-80456245D01*
X151015147Y-80472609D01*
X151008509Y-80475794D01*
X150971875Y-80483432D01*
X150899235Y-80490127D01*
X150795212Y-80495883D01*
X150664427Y-80500700D01*
X150511505Y-80504581D01*
X150341068Y-80507528D01*
X150157738Y-80509542D01*
X149966139Y-80510626D01*
X149770893Y-80510782D01*
X149576622Y-80510011D01*
X149387950Y-80508317D01*
X149209500Y-80505699D01*
X149045894Y-80502161D01*
X148901755Y-80497705D01*
X148781705Y-80492333D01*
X148690368Y-80486045D01*
X148632366Y-80478846D01*
X148616983Y-80474771D01*
X148569332Y-80450317D01*
X148533814Y-80418145D01*
X148508756Y-80372455D01*
X148492490Y-80307443D01*
X148483345Y-80217307D01*
X148479651Y-80096245D01*
X148479386Y-79996769D01*
X148481541Y-79836034D01*
X148489148Y-79711240D01*
X148505907Y-79617725D01*
X148535519Y-79550827D01*
X148581684Y-79505883D01*
X148648104Y-79478233D01*
X148738480Y-79463215D01*
X148856512Y-79456166D01*
X148909789Y-79454597D01*
X149064700Y-79453812D01*
X149184699Y-79460968D01*
X149274916Y-79477055D01*
X149340482Y-79503069D01*
X149386525Y-79540002D01*
X149393412Y-79548237D01*
X149411161Y-79576088D01*
X149422805Y-79611448D01*
X149429558Y-79662911D01*
X149432639Y-79739074D01*
X149433280Y-79829860D01*
X149433280Y-80060800D01*
X150185120Y-80060800D01*
X150185120Y-78963520D01*
X149428200Y-78963488D01*
X149230329Y-78963327D01*
X149068914Y-78962741D01*
X148939771Y-78961552D01*
X148838715Y-78959579D01*
X148761563Y-78956643D01*
X148704131Y-78952563D01*
X148662235Y-78947161D01*
X148631691Y-78940256D01*
X148608315Y-78931669D01*
X148600442Y-78927928D01*
X148571108Y-78912786D01*
X148546874Y-78896986D01*
X148527279Y-78876760D01*
X148511863Y-78848339D01*
X148500165Y-78807958D01*
X148491726Y-78751847D01*
X148486085Y-78676239D01*
X148482782Y-78577367D01*
X148481357Y-78451463D01*
X148481349Y-78294759D01*
X148482298Y-78103489D01*
X148483152Y-77967840D01*
X148484596Y-77761344D01*
X148486169Y-77591517D01*
X148488057Y-77454388D01*
X148490446Y-77345987D01*
X148493523Y-77262342D01*
X148497474Y-77199482D01*
X148502487Y-77153437D01*
X148508746Y-77120236D01*
X148516439Y-77095907D01*
X148524933Y-77077967D01*
X148563133Y-77027622D01*
X148607850Y-76993634D01*
X148612616Y-76991607D01*
X148643903Y-76987404D01*
X148711302Y-76983711D01*
X148810287Y-76980524D01*
X148936334Y-76977844D01*
X149084916Y-76975667D01*
X149251510Y-76973993D01*
X149431589Y-76972821D01*
X149620628Y-76972149D01*
X149814103Y-76971975D01*
X150007487Y-76972296D01*
X150007487Y-76972296D01*
G37*
X150007487Y-76972296D02*
X150196257Y-76973113D01*
X150375886Y-76974425D01*
X150541850Y-76976228D01*
X150689623Y-76978522D01*
X150814680Y-76981306D01*
X150912495Y-76984577D01*
X150978545Y-76988335D01*
X151007863Y-76992397D01*
X151058572Y-77031975D01*
X151102345Y-77105893D01*
X151117965Y-77145095D01*
X151128810Y-77185485D01*
X151135514Y-77234798D01*
X151138706Y-77300765D01*
X151139019Y-77391119D01*
X151137085Y-77513593D01*
X151136798Y-77527616D01*
X151131441Y-77688329D01*
X151119914Y-77812836D01*
X151097836Y-77905530D01*
X151060827Y-77970806D01*
X151004508Y-78013057D01*
X150924498Y-78036677D01*
X150816417Y-78046061D01*
X150675885Y-78045602D01*
X150622000Y-78044051D01*
X150502601Y-78038192D01*
X150403833Y-78029308D01*
X150333002Y-78018201D01*
X150302939Y-78009056D01*
X150255559Y-77976300D01*
X150221908Y-77927076D01*
X150200165Y-77855439D01*
X150188510Y-77755445D01*
X150185120Y-77624409D01*
X150185120Y-77398880D01*
X148965920Y-77398880D01*
X148965920Y-78028800D01*
X149070242Y-78028800D01*
X149203374Y-78041131D01*
X149309217Y-78077297D01*
X149383683Y-78135536D01*
X149408505Y-78169566D01*
X149423392Y-78206500D01*
X149430799Y-78257718D01*
X149433179Y-78334602D01*
X149433280Y-78365639D01*
X149433280Y-78536800D01*
X150190200Y-78536831D01*
X150388070Y-78536992D01*
X150549485Y-78537578D01*
X150678628Y-78538767D01*
X150779684Y-78540740D01*
X150856836Y-78543676D01*
X150914268Y-78547756D01*
X150956164Y-78553158D01*
X150986708Y-78560063D01*
X151010084Y-78568650D01*
X151017957Y-78572391D01*
X151071755Y-78609153D01*
X151110846Y-78652735D01*
X151114177Y-78658720D01*
X151121152Y-78683860D01*
X151126869Y-78730686D01*
X151131419Y-78802133D01*
X151134892Y-78901137D01*
X151137378Y-79030631D01*
X151138966Y-79193552D01*
X151139747Y-79392835D01*
X151139860Y-79496508D01*
X151139747Y-79713685D01*
X151138893Y-79893960D01*
X151136797Y-80041071D01*
X151132957Y-80158757D01*
X151126872Y-80250754D01*
X151118042Y-80320801D01*
X151105963Y-80372636D01*
X151090136Y-80409997D01*
X151070058Y-80436620D01*
X151045229Y-80456245D01*
X151015147Y-80472609D01*
X151008509Y-80475794D01*
X150971875Y-80483432D01*
X150899235Y-80490127D01*
X150795212Y-80495883D01*
X150664427Y-80500700D01*
X150511505Y-80504581D01*
X150341068Y-80507528D01*
X150157738Y-80509542D01*
X149966139Y-80510626D01*
X149770893Y-80510782D01*
X149576622Y-80510011D01*
X149387950Y-80508317D01*
X149209500Y-80505699D01*
X149045894Y-80502161D01*
X148901755Y-80497705D01*
X148781705Y-80492333D01*
X148690368Y-80486045D01*
X148632366Y-80478846D01*
X148616983Y-80474771D01*
X148569332Y-80450317D01*
X148533814Y-80418145D01*
X148508756Y-80372455D01*
X148492490Y-80307443D01*
X148483345Y-80217307D01*
X148479651Y-80096245D01*
X148479386Y-79996769D01*
X148481541Y-79836034D01*
X148489148Y-79711240D01*
X148505907Y-79617725D01*
X148535519Y-79550827D01*
X148581684Y-79505883D01*
X148648104Y-79478233D01*
X148738480Y-79463215D01*
X148856512Y-79456166D01*
X148909789Y-79454597D01*
X149064700Y-79453812D01*
X149184699Y-79460968D01*
X149274916Y-79477055D01*
X149340482Y-79503069D01*
X149386525Y-79540002D01*
X149393412Y-79548237D01*
X149411161Y-79576088D01*
X149422805Y-79611448D01*
X149429558Y-79662911D01*
X149432639Y-79739074D01*
X149433280Y-79829860D01*
X149433280Y-80060800D01*
X150185120Y-80060800D01*
X150185120Y-78963520D01*
X149428200Y-78963488D01*
X149230329Y-78963327D01*
X149068914Y-78962741D01*
X148939771Y-78961552D01*
X148838715Y-78959579D01*
X148761563Y-78956643D01*
X148704131Y-78952563D01*
X148662235Y-78947161D01*
X148631691Y-78940256D01*
X148608315Y-78931669D01*
X148600442Y-78927928D01*
X148571108Y-78912786D01*
X148546874Y-78896986D01*
X148527279Y-78876760D01*
X148511863Y-78848339D01*
X148500165Y-78807958D01*
X148491726Y-78751847D01*
X148486085Y-78676239D01*
X148482782Y-78577367D01*
X148481357Y-78451463D01*
X148481349Y-78294759D01*
X148482298Y-78103489D01*
X148483152Y-77967840D01*
X148484596Y-77761344D01*
X148486169Y-77591517D01*
X148488057Y-77454388D01*
X148490446Y-77345987D01*
X148493523Y-77262342D01*
X148497474Y-77199482D01*
X148502487Y-77153437D01*
X148508746Y-77120236D01*
X148516439Y-77095907D01*
X148524933Y-77077967D01*
X148563133Y-77027622D01*
X148607850Y-76993634D01*
X148612616Y-76991607D01*
X148643903Y-76987404D01*
X148711302Y-76983711D01*
X148810287Y-76980524D01*
X148936334Y-76977844D01*
X149084916Y-76975667D01*
X149251510Y-76973993D01*
X149431589Y-76972821D01*
X149620628Y-76972149D01*
X149814103Y-76971975D01*
X150007487Y-76972296D01*
G36*
X146598422Y-76974197D02*
X146793001Y-76975629D01*
X146983271Y-76977778D01*
X147164769Y-76980618D01*
X147333032Y-76984125D01*
X147483598Y-76988272D01*
X147612004Y-76993034D01*
X147713787Y-76998386D01*
X147784486Y-77004302D01*
X147819638Y-77010756D01*
X147821473Y-77011704D01*
X147845937Y-77030238D01*
X147865399Y-77052828D01*
X147880428Y-77084021D01*
X147891591Y-77128366D01*
X147899456Y-77190408D01*
X147904590Y-77274696D01*
X147907560Y-77385777D01*
X147908934Y-77528198D01*
X147909279Y-77706506D01*
X147909280Y-77715375D01*
X147909280Y-78294118D01*
X147847724Y-78416060D01*
X147776137Y-78536861D01*
X147697364Y-78633066D01*
X147616812Y-78698748D01*
X147569345Y-78721216D01*
X147496251Y-78745339D01*
X147572790Y-78782568D01*
X147625719Y-78809821D01*
X147666193Y-78836839D01*
X147702350Y-78871793D01*
X147742324Y-78922852D01*
X147794251Y-78998186D01*
X147808116Y-79018872D01*
X147909280Y-79170124D01*
X147909280Y-79774480D01*
X147909216Y-79946914D01*
X147908807Y-80083313D01*
X147907729Y-80188285D01*
X147905654Y-80266433D01*
X147902258Y-80322365D01*
X147897214Y-80360685D01*
X147890198Y-80386000D01*
X147880883Y-80402915D01*
X147868943Y-80416036D01*
X147863560Y-80421070D01*
X147813355Y-80454324D01*
X147748506Y-80481904D01*
X147736560Y-80485458D01*
X147700915Y-80489626D01*
X147629364Y-80493339D01*
X147526635Y-80496590D01*
X147397458Y-80499373D01*
X147246563Y-80501679D01*
X147078681Y-80503502D01*
X146898541Y-80504834D01*
X146710873Y-80505668D01*
X146520408Y-80505997D01*
X146331874Y-80505813D01*
X146150003Y-80505109D01*
X145979524Y-80503877D01*
X145825167Y-80502111D01*
X145691662Y-80499804D01*
X145583739Y-80496947D01*
X145506128Y-80493534D01*
X145463558Y-80489557D01*
X145460720Y-80488968D01*
X145364184Y-80454130D01*
X145304144Y-80404505D01*
X145287027Y-80373201D01*
X145281967Y-80340046D01*
X145277402Y-80272025D01*
X145273510Y-80174914D01*
X145270474Y-80054487D01*
X145268471Y-79916518D01*
X145267685Y-79766780D01*
X145267680Y-79753701D01*
X145267680Y-79185087D01*
X145340930Y-79069223D01*
X145415618Y-78963520D01*
X146222720Y-78963520D01*
X146222720Y-80060800D01*
X146954240Y-80060800D01*
X146954240Y-78963520D01*
X146222720Y-78963520D01*
X145415618Y-78963520D01*
X145434153Y-78937289D01*
X145522870Y-78844046D01*
X145608529Y-78787986D01*
X145612730Y-78786144D01*
X145683460Y-78755855D01*
X145611711Y-78719045D01*
X145532631Y-78664080D01*
X145450215Y-78582954D01*
X145375136Y-78487654D01*
X145318070Y-78390166D01*
X145317221Y-78388353D01*
X145302684Y-78355979D01*
X145291336Y-78325161D01*
X145282783Y-78290553D01*
X145276626Y-78246809D01*
X145272469Y-78188582D01*
X145269915Y-78110528D01*
X145268567Y-78007298D01*
X145268029Y-77873548D01*
X145267910Y-77724000D01*
X145268115Y-77555280D01*
X145269032Y-77422179D01*
X145269466Y-77398880D01*
X145755360Y-77398880D01*
X145755360Y-78023455D01*
X145909101Y-78033322D01*
X146024628Y-78048790D01*
X146109276Y-78081398D01*
X146167119Y-78135925D01*
X146202227Y-78217152D01*
X146218674Y-78329859D01*
X146221174Y-78399640D01*
X146222720Y-78536800D01*
X146954240Y-78536800D01*
X146954240Y-77398880D01*
X145755360Y-77398880D01*
X145269466Y-77398880D01*
X145270942Y-77319677D01*
X145274127Y-77242756D01*
X145278868Y-77186396D01*
X145285449Y-77145578D01*
X145294150Y-77115283D01*
X145303271Y-77094362D01*
X145340056Y-77040449D01*
X145383657Y-77001141D01*
X145389600Y-76997796D01*
X145422150Y-76991624D01*
X145490554Y-76986400D01*
X145590349Y-76982097D01*
X145717072Y-76978690D01*
X145866261Y-76976153D01*
X146033453Y-76974460D01*
X146214185Y-76973587D01*
X146403996Y-76973508D01*
X146598422Y-76974197D01*
X146598422Y-76974197D01*
G37*
X146598422Y-76974197D02*
X146793001Y-76975629D01*
X146983271Y-76977778D01*
X147164769Y-76980618D01*
X147333032Y-76984125D01*
X147483598Y-76988272D01*
X147612004Y-76993034D01*
X147713787Y-76998386D01*
X147784486Y-77004302D01*
X147819638Y-77010756D01*
X147821473Y-77011704D01*
X147845937Y-77030238D01*
X147865399Y-77052828D01*
X147880428Y-77084021D01*
X147891591Y-77128366D01*
X147899456Y-77190408D01*
X147904590Y-77274696D01*
X147907560Y-77385777D01*
X147908934Y-77528198D01*
X147909279Y-77706506D01*
X147909280Y-77715375D01*
X147909280Y-78294118D01*
X147847724Y-78416060D01*
X147776137Y-78536861D01*
X147697364Y-78633066D01*
X147616812Y-78698748D01*
X147569345Y-78721216D01*
X147496251Y-78745339D01*
X147572790Y-78782568D01*
X147625719Y-78809821D01*
X147666193Y-78836839D01*
X147702350Y-78871793D01*
X147742324Y-78922852D01*
X147794251Y-78998186D01*
X147808116Y-79018872D01*
X147909280Y-79170124D01*
X147909280Y-79774480D01*
X147909216Y-79946914D01*
X147908807Y-80083313D01*
X147907729Y-80188285D01*
X147905654Y-80266433D01*
X147902258Y-80322365D01*
X147897214Y-80360685D01*
X147890198Y-80386000D01*
X147880883Y-80402915D01*
X147868943Y-80416036D01*
X147863560Y-80421070D01*
X147813355Y-80454324D01*
X147748506Y-80481904D01*
X147736560Y-80485458D01*
X147700915Y-80489626D01*
X147629364Y-80493339D01*
X147526635Y-80496590D01*
X147397458Y-80499373D01*
X147246563Y-80501679D01*
X147078681Y-80503502D01*
X146898541Y-80504834D01*
X146710873Y-80505668D01*
X146520408Y-80505997D01*
X146331874Y-80505813D01*
X146150003Y-80505109D01*
X145979524Y-80503877D01*
X145825167Y-80502111D01*
X145691662Y-80499804D01*
X145583739Y-80496947D01*
X145506128Y-80493534D01*
X145463558Y-80489557D01*
X145460720Y-80488968D01*
X145364184Y-80454130D01*
X145304144Y-80404505D01*
X145287027Y-80373201D01*
X145281967Y-80340046D01*
X145277402Y-80272025D01*
X145273510Y-80174914D01*
X145270474Y-80054487D01*
X145268471Y-79916518D01*
X145267685Y-79766780D01*
X145267680Y-79753701D01*
X145267680Y-79185087D01*
X145340930Y-79069223D01*
X145415618Y-78963520D01*
X146222720Y-78963520D01*
X146222720Y-80060800D01*
X146954240Y-80060800D01*
X146954240Y-78963520D01*
X146222720Y-78963520D01*
X145415618Y-78963520D01*
X145434153Y-78937289D01*
X145522870Y-78844046D01*
X145608529Y-78787986D01*
X145612730Y-78786144D01*
X145683460Y-78755855D01*
X145611711Y-78719045D01*
X145532631Y-78664080D01*
X145450215Y-78582954D01*
X145375136Y-78487654D01*
X145318070Y-78390166D01*
X145317221Y-78388353D01*
X145302684Y-78355979D01*
X145291336Y-78325161D01*
X145282783Y-78290553D01*
X145276626Y-78246809D01*
X145272469Y-78188582D01*
X145269915Y-78110528D01*
X145268567Y-78007298D01*
X145268029Y-77873548D01*
X145267910Y-77724000D01*
X145268115Y-77555280D01*
X145269032Y-77422179D01*
X145269466Y-77398880D01*
X145755360Y-77398880D01*
X145755360Y-78023455D01*
X145909101Y-78033322D01*
X146024628Y-78048790D01*
X146109276Y-78081398D01*
X146167119Y-78135925D01*
X146202227Y-78217152D01*
X146218674Y-78329859D01*
X146221174Y-78399640D01*
X146222720Y-78536800D01*
X146954240Y-78536800D01*
X146954240Y-77398880D01*
X145755360Y-77398880D01*
X145269466Y-77398880D01*
X145270942Y-77319677D01*
X145274127Y-77242756D01*
X145278868Y-77186396D01*
X145285449Y-77145578D01*
X145294150Y-77115283D01*
X145303271Y-77094362D01*
X145340056Y-77040449D01*
X145383657Y-77001141D01*
X145389600Y-76997796D01*
X145422150Y-76991624D01*
X145490554Y-76986400D01*
X145590349Y-76982097D01*
X145717072Y-76978690D01*
X145866261Y-76976153D01*
X146033453Y-76974460D01*
X146214185Y-76973587D01*
X146403996Y-76973508D01*
X146598422Y-76974197D01*
G36*
X142685383Y-78539223D02*
X142799997Y-78549643D01*
X142884288Y-78572778D01*
X142942863Y-78613350D01*
X142980328Y-78676080D01*
X143001292Y-78765689D01*
X143010360Y-78886897D01*
X143012160Y-79024891D01*
X143012160Y-79288640D01*
X143739160Y-79288640D01*
X143746749Y-78995156D01*
X143750401Y-78877147D01*
X143754976Y-78792313D01*
X143761537Y-78733188D01*
X143771149Y-78692306D01*
X143784875Y-78662203D01*
X143796688Y-78644636D01*
X143830474Y-78604473D01*
X143867654Y-78575674D01*
X143915447Y-78556390D01*
X143981075Y-78544773D01*
X144071758Y-78538975D01*
X144194716Y-78537146D01*
X144216772Y-78537099D01*
X144369478Y-78539286D01*
X144486389Y-78548391D01*
X144572185Y-78567680D01*
X144631546Y-78600419D01*
X144669154Y-78649873D01*
X144689688Y-78719308D01*
X144697829Y-78811989D01*
X144698720Y-78873355D01*
X144697303Y-78967028D01*
X144691040Y-79034805D01*
X144676908Y-79091391D01*
X144651886Y-79151488D01*
X144634055Y-79188033D01*
X144588615Y-79266261D01*
X144533057Y-79343400D01*
X144474364Y-79411597D01*
X144419516Y-79462998D01*
X144375495Y-79489752D01*
X144363974Y-79491840D01*
X144336592Y-79502647D01*
X144332960Y-79512160D01*
X144349455Y-79530100D01*
X144363974Y-79532479D01*
X144401713Y-79548653D01*
X144453218Y-79592002D01*
X144511483Y-79654772D01*
X144569505Y-79729208D01*
X144620278Y-79807555D01*
X144632680Y-79829964D01*
X144663335Y-79890786D01*
X144682691Y-79941341D01*
X144693323Y-79994403D01*
X144697807Y-80062742D01*
X144698720Y-80157393D01*
X144697986Y-80251261D01*
X144694534Y-80313961D01*
X144686485Y-80354957D01*
X144671962Y-80383711D01*
X144649088Y-80409688D01*
X144648556Y-80410222D01*
X144595635Y-80450851D01*
X144526796Y-80479414D01*
X144435458Y-80497390D01*
X144315041Y-80506258D01*
X144214173Y-80507840D01*
X144070996Y-80503658D01*
X143962248Y-80490005D01*
X143882475Y-80465217D01*
X143826224Y-80427631D01*
X143789480Y-80378321D01*
X143774722Y-80340332D01*
X143763740Y-80285291D01*
X143755775Y-80206655D01*
X143750069Y-80097877D01*
X143747405Y-80015080D01*
X143739250Y-79715360D01*
X143012160Y-79715360D01*
X143012160Y-80000492D01*
X143010199Y-80154791D01*
X143001470Y-80273339D01*
X142981706Y-80360946D01*
X142946638Y-80422424D01*
X142891996Y-80462584D01*
X142813512Y-80486239D01*
X142706918Y-80498198D01*
X142567946Y-80503275D01*
X142566065Y-80503313D01*
X142449590Y-80504908D01*
X142365074Y-80503617D01*
X142303885Y-80498638D01*
X142257396Y-80489171D01*
X142216976Y-80474412D01*
X142207132Y-80469952D01*
X142141626Y-80434011D01*
X142098114Y-80392891D01*
X142072354Y-80337707D01*
X142060104Y-80259573D01*
X142057120Y-80155643D01*
X142058551Y-80063659D01*
X142064879Y-79997840D01*
X142079156Y-79943752D01*
X142104434Y-79886960D01*
X142120416Y-79856292D01*
X142193314Y-79736123D01*
X142269778Y-79639955D01*
X142344585Y-79573820D01*
X142383767Y-79552167D01*
X142447888Y-79525607D01*
X142376652Y-79489061D01*
X142291164Y-79425145D01*
X142206887Y-79321550D01*
X142123441Y-79177805D01*
X142120701Y-79172379D01*
X142086857Y-79099318D01*
X142067572Y-79037073D01*
X142058960Y-78968022D01*
X142057120Y-78884142D01*
X142060195Y-78775065D01*
X142071647Y-78697823D01*
X142094816Y-78643925D01*
X142133041Y-78604879D01*
X142177411Y-78578270D01*
X142216363Y-78561051D01*
X142259411Y-78549285D01*
X142315072Y-78541987D01*
X142391860Y-78538172D01*
X142498289Y-78536855D01*
X142535839Y-78536800D01*
X142685383Y-78539223D01*
X142685383Y-78539223D01*
G37*
X142685383Y-78539223D02*
X142799997Y-78549643D01*
X142884288Y-78572778D01*
X142942863Y-78613350D01*
X142980328Y-78676080D01*
X143001292Y-78765689D01*
X143010360Y-78886897D01*
X143012160Y-79024891D01*
X143012160Y-79288640D01*
X143739160Y-79288640D01*
X143746749Y-78995156D01*
X143750401Y-78877147D01*
X143754976Y-78792313D01*
X143761537Y-78733188D01*
X143771149Y-78692306D01*
X143784875Y-78662203D01*
X143796688Y-78644636D01*
X143830474Y-78604473D01*
X143867654Y-78575674D01*
X143915447Y-78556390D01*
X143981075Y-78544773D01*
X144071758Y-78538975D01*
X144194716Y-78537146D01*
X144216772Y-78537099D01*
X144369478Y-78539286D01*
X144486389Y-78548391D01*
X144572185Y-78567680D01*
X144631546Y-78600419D01*
X144669154Y-78649873D01*
X144689688Y-78719308D01*
X144697829Y-78811989D01*
X144698720Y-78873355D01*
X144697303Y-78967028D01*
X144691040Y-79034805D01*
X144676908Y-79091391D01*
X144651886Y-79151488D01*
X144634055Y-79188033D01*
X144588615Y-79266261D01*
X144533057Y-79343400D01*
X144474364Y-79411597D01*
X144419516Y-79462998D01*
X144375495Y-79489752D01*
X144363974Y-79491840D01*
X144336592Y-79502647D01*
X144332960Y-79512160D01*
X144349455Y-79530100D01*
X144363974Y-79532479D01*
X144401713Y-79548653D01*
X144453218Y-79592002D01*
X144511483Y-79654772D01*
X144569505Y-79729208D01*
X144620278Y-79807555D01*
X144632680Y-79829964D01*
X144663335Y-79890786D01*
X144682691Y-79941341D01*
X144693323Y-79994403D01*
X144697807Y-80062742D01*
X144698720Y-80157393D01*
X144697986Y-80251261D01*
X144694534Y-80313961D01*
X144686485Y-80354957D01*
X144671962Y-80383711D01*
X144649088Y-80409688D01*
X144648556Y-80410222D01*
X144595635Y-80450851D01*
X144526796Y-80479414D01*
X144435458Y-80497390D01*
X144315041Y-80506258D01*
X144214173Y-80507840D01*
X144070996Y-80503658D01*
X143962248Y-80490005D01*
X143882475Y-80465217D01*
X143826224Y-80427631D01*
X143789480Y-80378321D01*
X143774722Y-80340332D01*
X143763740Y-80285291D01*
X143755775Y-80206655D01*
X143750069Y-80097877D01*
X143747405Y-80015080D01*
X143739250Y-79715360D01*
X143012160Y-79715360D01*
X143012160Y-80000492D01*
X143010199Y-80154791D01*
X143001470Y-80273339D01*
X142981706Y-80360946D01*
X142946638Y-80422424D01*
X142891996Y-80462584D01*
X142813512Y-80486239D01*
X142706918Y-80498198D01*
X142567946Y-80503275D01*
X142566065Y-80503313D01*
X142449590Y-80504908D01*
X142365074Y-80503617D01*
X142303885Y-80498638D01*
X142257396Y-80489171D01*
X142216976Y-80474412D01*
X142207132Y-80469952D01*
X142141626Y-80434011D01*
X142098114Y-80392891D01*
X142072354Y-80337707D01*
X142060104Y-80259573D01*
X142057120Y-80155643D01*
X142058551Y-80063659D01*
X142064879Y-79997840D01*
X142079156Y-79943752D01*
X142104434Y-79886960D01*
X142120416Y-79856292D01*
X142193314Y-79736123D01*
X142269778Y-79639955D01*
X142344585Y-79573820D01*
X142383767Y-79552167D01*
X142447888Y-79525607D01*
X142376652Y-79489061D01*
X142291164Y-79425145D01*
X142206887Y-79321550D01*
X142123441Y-79177805D01*
X142120701Y-79172379D01*
X142086857Y-79099318D01*
X142067572Y-79037073D01*
X142058960Y-78968022D01*
X142057120Y-78884142D01*
X142060195Y-78775065D01*
X142071647Y-78697823D01*
X142094816Y-78643925D01*
X142133041Y-78604879D01*
X142177411Y-78578270D01*
X142216363Y-78561051D01*
X142259411Y-78549285D01*
X142315072Y-78541987D01*
X142391860Y-78538172D01*
X142498289Y-78536855D01*
X142535839Y-78536800D01*
X142685383Y-78539223D01*
G36*
X140936387Y-78540381D02*
X141091494Y-78542576D01*
X141208206Y-78545931D01*
X141287083Y-78550457D01*
X141328680Y-78556160D01*
X141329589Y-78556416D01*
X141391741Y-78585540D01*
X141442818Y-78627117D01*
X141446429Y-78631469D01*
X141461061Y-78652686D01*
X141471818Y-78677835D01*
X141479293Y-78713100D01*
X141484074Y-78764668D01*
X141486752Y-78838722D01*
X141487917Y-78941449D01*
X141488160Y-79068869D01*
X141487359Y-79216093D01*
X141484733Y-79327866D01*
X141479941Y-79409349D01*
X141472644Y-79465702D01*
X141462502Y-79502088D01*
X141459203Y-79509213D01*
X141443605Y-79537263D01*
X141425974Y-79560332D01*
X141402402Y-79578945D01*
X141368981Y-79593626D01*
X141321806Y-79604899D01*
X141256967Y-79613289D01*
X141170557Y-79619321D01*
X141058670Y-79623519D01*
X140917398Y-79626408D01*
X140742833Y-79628513D01*
X140558520Y-79630133D01*
X139801600Y-79636347D01*
X139801600Y-80060800D01*
X140538974Y-80060800D01*
X140731664Y-80060863D01*
X140888095Y-80061213D01*
X141012648Y-80062094D01*
X141109704Y-80063746D01*
X141183643Y-80066413D01*
X141238846Y-80070336D01*
X141279694Y-80075757D01*
X141310569Y-80082919D01*
X141335850Y-80092064D01*
X141359919Y-80103434D01*
X141365999Y-80106520D01*
X141440954Y-80158891D01*
X141478143Y-80223031D01*
X141479791Y-80304180D01*
X141469049Y-80349255D01*
X141444369Y-80406921D01*
X141404216Y-80445081D01*
X141359874Y-80468322D01*
X141339545Y-80476727D01*
X141316361Y-80483816D01*
X141286893Y-80489696D01*
X141247713Y-80494477D01*
X141195395Y-80498269D01*
X141126509Y-80501180D01*
X141037629Y-80503318D01*
X140925327Y-80504794D01*
X140786175Y-80505717D01*
X140616744Y-80506194D01*
X140413609Y-80506335D01*
X140173339Y-80506250D01*
X140167360Y-80506246D01*
X139901141Y-80505790D01*
X139673465Y-80504754D01*
X139482239Y-80503093D01*
X139325371Y-80500764D01*
X139200766Y-80497722D01*
X139106331Y-80493922D01*
X139039974Y-80489321D01*
X138999601Y-80483873D01*
X138989803Y-80481293D01*
X138918650Y-80436939D01*
X138878043Y-80385920D01*
X138866555Y-80364337D01*
X138857324Y-80339969D01*
X138850051Y-80308237D01*
X138844437Y-80264563D01*
X138840183Y-80204371D01*
X138836992Y-80123081D01*
X138834564Y-80016117D01*
X138832602Y-79878900D01*
X138830806Y-79706853D01*
X138830313Y-79654037D01*
X138824226Y-78993275D01*
X138844105Y-78963520D01*
X139801600Y-78963520D01*
X139801600Y-79187040D01*
X140533120Y-79187040D01*
X140533120Y-78963520D01*
X139801600Y-78963520D01*
X138844105Y-78963520D01*
X138931976Y-78831999D01*
X138996476Y-78743916D01*
X139063116Y-78667136D01*
X139121772Y-78613200D01*
X139127750Y-78608841D01*
X139215773Y-78546960D01*
X140235126Y-78540687D01*
X140508761Y-78539445D01*
X140742328Y-78539340D01*
X140936387Y-78540381D01*
X140936387Y-78540381D01*
G37*
X140936387Y-78540381D02*
X141091494Y-78542576D01*
X141208206Y-78545931D01*
X141287083Y-78550457D01*
X141328680Y-78556160D01*
X141329589Y-78556416D01*
X141391741Y-78585540D01*
X141442818Y-78627117D01*
X141446429Y-78631469D01*
X141461061Y-78652686D01*
X141471818Y-78677835D01*
X141479293Y-78713100D01*
X141484074Y-78764668D01*
X141486752Y-78838722D01*
X141487917Y-78941449D01*
X141488160Y-79068869D01*
X141487359Y-79216093D01*
X141484733Y-79327866D01*
X141479941Y-79409349D01*
X141472644Y-79465702D01*
X141462502Y-79502088D01*
X141459203Y-79509213D01*
X141443605Y-79537263D01*
X141425974Y-79560332D01*
X141402402Y-79578945D01*
X141368981Y-79593626D01*
X141321806Y-79604899D01*
X141256967Y-79613289D01*
X141170557Y-79619321D01*
X141058670Y-79623519D01*
X140917398Y-79626408D01*
X140742833Y-79628513D01*
X140558520Y-79630133D01*
X139801600Y-79636347D01*
X139801600Y-80060800D01*
X140538974Y-80060800D01*
X140731664Y-80060863D01*
X140888095Y-80061213D01*
X141012648Y-80062094D01*
X141109704Y-80063746D01*
X141183643Y-80066413D01*
X141238846Y-80070336D01*
X141279694Y-80075757D01*
X141310569Y-80082919D01*
X141335850Y-80092064D01*
X141359919Y-80103434D01*
X141365999Y-80106520D01*
X141440954Y-80158891D01*
X141478143Y-80223031D01*
X141479791Y-80304180D01*
X141469049Y-80349255D01*
X141444369Y-80406921D01*
X141404216Y-80445081D01*
X141359874Y-80468322D01*
X141339545Y-80476727D01*
X141316361Y-80483816D01*
X141286893Y-80489696D01*
X141247713Y-80494477D01*
X141195395Y-80498269D01*
X141126509Y-80501180D01*
X141037629Y-80503318D01*
X140925327Y-80504794D01*
X140786175Y-80505717D01*
X140616744Y-80506194D01*
X140413609Y-80506335D01*
X140173339Y-80506250D01*
X140167360Y-80506246D01*
X139901141Y-80505790D01*
X139673465Y-80504754D01*
X139482239Y-80503093D01*
X139325371Y-80500764D01*
X139200766Y-80497722D01*
X139106331Y-80493922D01*
X139039974Y-80489321D01*
X138999601Y-80483873D01*
X138989803Y-80481293D01*
X138918650Y-80436939D01*
X138878043Y-80385920D01*
X138866555Y-80364337D01*
X138857324Y-80339969D01*
X138850051Y-80308237D01*
X138844437Y-80264563D01*
X138840183Y-80204371D01*
X138836992Y-80123081D01*
X138834564Y-80016117D01*
X138832602Y-79878900D01*
X138830806Y-79706853D01*
X138830313Y-79654037D01*
X138824226Y-78993275D01*
X138844105Y-78963520D01*
X139801600Y-78963520D01*
X139801600Y-79187040D01*
X140533120Y-79187040D01*
X140533120Y-78963520D01*
X139801600Y-78963520D01*
X138844105Y-78963520D01*
X138931976Y-78831999D01*
X138996476Y-78743916D01*
X139063116Y-78667136D01*
X139121772Y-78613200D01*
X139127750Y-78608841D01*
X139215773Y-78546960D01*
X140235126Y-78540687D01*
X140508761Y-78539445D01*
X140742328Y-78539340D01*
X140936387Y-78540381D01*
G36*
X136895983Y-77002715D02*
X136898366Y-77003779D01*
X136954843Y-77036226D01*
X136996546Y-77072447D01*
X137003754Y-77082482D01*
X137013436Y-77120340D01*
X137021972Y-77197318D01*
X137029254Y-77311908D01*
X137035178Y-77462604D01*
X137038080Y-77571600D01*
X137048240Y-78018640D01*
X137212818Y-78024492D01*
X137296363Y-78028588D01*
X137350862Y-78035955D01*
X137387907Y-78050087D01*
X137419092Y-78074478D01*
X137436338Y-78091851D01*
X137495280Y-78153358D01*
X137506588Y-80081120D01*
X137795574Y-80081195D01*
X137913293Y-80081868D01*
X137998188Y-80084409D01*
X138058065Y-80089710D01*
X138100728Y-80098661D01*
X138133982Y-80112154D01*
X138151014Y-80121789D01*
X138201960Y-80162596D01*
X138238344Y-80208591D01*
X138240845Y-80213613D01*
X138253632Y-80285971D01*
X138236559Y-80364181D01*
X138194253Y-80432594D01*
X138169468Y-80455092D01*
X138152204Y-80466778D01*
X138132263Y-80476158D01*
X138105175Y-80483527D01*
X138066467Y-80489182D01*
X138011668Y-80493419D01*
X137936306Y-80496534D01*
X137835910Y-80498824D01*
X137706008Y-80500583D01*
X137542128Y-80502110D01*
X137448108Y-80502862D01*
X137264463Y-80504140D01*
X137116824Y-80504670D01*
X137000561Y-80504249D01*
X136911044Y-80502677D01*
X136843642Y-80499750D01*
X136793724Y-80495268D01*
X136756662Y-80489029D01*
X136727824Y-80480832D01*
X136702580Y-80470474D01*
X136702386Y-80470384D01*
X136676404Y-80458906D01*
X136653806Y-80448227D01*
X136634344Y-80435599D01*
X136617771Y-80418270D01*
X136603841Y-80393492D01*
X136592307Y-80358515D01*
X136582921Y-80310588D01*
X136575437Y-80246962D01*
X136569608Y-80164888D01*
X136565187Y-80061615D01*
X136561927Y-79934393D01*
X136559581Y-79780473D01*
X136557903Y-79597106D01*
X136556645Y-79381540D01*
X136555560Y-79131027D01*
X136554402Y-78842816D01*
X136554312Y-78821280D01*
X136553463Y-78575591D01*
X136552992Y-78339606D01*
X136552886Y-78116809D01*
X136553129Y-77910682D01*
X136553708Y-77724709D01*
X136554608Y-77562371D01*
X136555815Y-77427153D01*
X136557315Y-77322537D01*
X136559093Y-77252007D01*
X136560880Y-77220870D01*
X136588760Y-77114123D01*
X136640636Y-77036087D01*
X136712082Y-76989609D01*
X136798673Y-76977536D01*
X136895983Y-77002715D01*
X136895983Y-77002715D01*
G37*
X136895983Y-77002715D02*
X136898366Y-77003779D01*
X136954843Y-77036226D01*
X136996546Y-77072447D01*
X137003754Y-77082482D01*
X137013436Y-77120340D01*
X137021972Y-77197318D01*
X137029254Y-77311908D01*
X137035178Y-77462604D01*
X137038080Y-77571600D01*
X137048240Y-78018640D01*
X137212818Y-78024492D01*
X137296363Y-78028588D01*
X137350862Y-78035955D01*
X137387907Y-78050087D01*
X137419092Y-78074478D01*
X137436338Y-78091851D01*
X137495280Y-78153358D01*
X137506588Y-80081120D01*
X137795574Y-80081195D01*
X137913293Y-80081868D01*
X137998188Y-80084409D01*
X138058065Y-80089710D01*
X138100728Y-80098661D01*
X138133982Y-80112154D01*
X138151014Y-80121789D01*
X138201960Y-80162596D01*
X138238344Y-80208591D01*
X138240845Y-80213613D01*
X138253632Y-80285971D01*
X138236559Y-80364181D01*
X138194253Y-80432594D01*
X138169468Y-80455092D01*
X138152204Y-80466778D01*
X138132263Y-80476158D01*
X138105175Y-80483527D01*
X138066467Y-80489182D01*
X138011668Y-80493419D01*
X137936306Y-80496534D01*
X137835910Y-80498824D01*
X137706008Y-80500583D01*
X137542128Y-80502110D01*
X137448108Y-80502862D01*
X137264463Y-80504140D01*
X137116824Y-80504670D01*
X137000561Y-80504249D01*
X136911044Y-80502677D01*
X136843642Y-80499750D01*
X136793724Y-80495268D01*
X136756662Y-80489029D01*
X136727824Y-80480832D01*
X136702580Y-80470474D01*
X136702386Y-80470384D01*
X136676404Y-80458906D01*
X136653806Y-80448227D01*
X136634344Y-80435599D01*
X136617771Y-80418270D01*
X136603841Y-80393492D01*
X136592307Y-80358515D01*
X136582921Y-80310588D01*
X136575437Y-80246962D01*
X136569608Y-80164888D01*
X136565187Y-80061615D01*
X136561927Y-79934393D01*
X136559581Y-79780473D01*
X136557903Y-79597106D01*
X136556645Y-79381540D01*
X136555560Y-79131027D01*
X136554402Y-78842816D01*
X136554312Y-78821280D01*
X136553463Y-78575591D01*
X136552992Y-78339606D01*
X136552886Y-78116809D01*
X136553129Y-77910682D01*
X136553708Y-77724709D01*
X136554608Y-77562371D01*
X136555815Y-77427153D01*
X136557315Y-77322537D01*
X136559093Y-77252007D01*
X136560880Y-77220870D01*
X136588760Y-77114123D01*
X136640636Y-77036087D01*
X136712082Y-76989609D01*
X136798673Y-76977536D01*
X136895983Y-77002715D01*
G36*
X134859157Y-76972151D02*
X135048146Y-76973264D01*
X135227986Y-76975049D01*
X135394151Y-76977504D01*
X135542117Y-76980628D01*
X135667357Y-76984419D01*
X135765346Y-76988877D01*
X135831558Y-76994001D01*
X135858990Y-76998706D01*
X135887924Y-77009268D01*
X135911871Y-77021698D01*
X135931306Y-77039673D01*
X135946700Y-77066865D01*
X135958526Y-77106950D01*
X135967258Y-77163603D01*
X135973369Y-77240497D01*
X135977330Y-77341308D01*
X135979617Y-77469710D01*
X135980700Y-77629378D01*
X135981054Y-77823985D01*
X135981108Y-77947520D01*
X135981043Y-78154316D01*
X135980594Y-78324458D01*
X135979604Y-78461931D01*
X135977916Y-78570722D01*
X135975373Y-78654814D01*
X135971818Y-78718193D01*
X135967093Y-78764845D01*
X135961041Y-78798755D01*
X135953505Y-78823909D01*
X135945848Y-78841317D01*
X135930142Y-78871330D01*
X135913392Y-78895947D01*
X135891666Y-78915706D01*
X135861028Y-78931142D01*
X135817547Y-78942792D01*
X135757288Y-78951191D01*
X135676317Y-78956878D01*
X135570702Y-78960387D01*
X135436508Y-78962255D01*
X135269802Y-78963019D01*
X135066650Y-78963214D01*
X135051800Y-78963220D01*
X134294880Y-78963520D01*
X134294880Y-79621380D01*
X134294496Y-79783829D01*
X134293410Y-79935627D01*
X134291715Y-80071361D01*
X134289508Y-80185619D01*
X134286881Y-80272986D01*
X134283932Y-80328051D01*
X134282237Y-80342451D01*
X134258762Y-80403311D01*
X134222248Y-80456751D01*
X134204373Y-80474957D01*
X134185370Y-80488225D01*
X134158961Y-80497336D01*
X134118867Y-80503071D01*
X134058812Y-80506212D01*
X133972515Y-80507540D01*
X133853701Y-80507835D01*
X133811712Y-80507840D01*
X133448524Y-80507840D01*
X133350000Y-80402978D01*
X133344756Y-78784089D01*
X133343843Y-78488460D01*
X133343181Y-78230737D01*
X133342887Y-78049120D01*
X133806168Y-78049120D01*
X133945891Y-78049120D01*
X134070459Y-78055160D01*
X134161144Y-78076622D01*
X134223350Y-78118511D01*
X134262478Y-78185835D01*
X134283929Y-78283602D01*
X134291131Y-78369160D01*
X134299976Y-78536800D01*
X135026400Y-78536800D01*
X135026400Y-77398275D01*
X134421880Y-77403657D01*
X133817360Y-77409040D01*
X133806168Y-78049120D01*
X133342887Y-78049120D01*
X133342820Y-78008186D01*
X133342808Y-77818071D01*
X133343195Y-77657660D01*
X133344031Y-77524217D01*
X133345364Y-77415010D01*
X133347244Y-77327303D01*
X133349721Y-77258364D01*
X133352843Y-77205456D01*
X133356660Y-77165848D01*
X133361222Y-77136803D01*
X133366577Y-77115589D01*
X133372774Y-77099472D01*
X133375236Y-77094362D01*
X133412107Y-77040589D01*
X133455733Y-77001498D01*
X133461760Y-76998142D01*
X133493319Y-76992488D01*
X133560988Y-76987517D01*
X133660239Y-76983225D01*
X133786547Y-76979613D01*
X133935387Y-76976680D01*
X134102232Y-76974424D01*
X134282558Y-76972844D01*
X134471838Y-76971940D01*
X134665546Y-76971709D01*
X134859157Y-76972151D01*
X134859157Y-76972151D01*
G37*
X134859157Y-76972151D02*
X135048146Y-76973264D01*
X135227986Y-76975049D01*
X135394151Y-76977504D01*
X135542117Y-76980628D01*
X135667357Y-76984419D01*
X135765346Y-76988877D01*
X135831558Y-76994001D01*
X135858990Y-76998706D01*
X135887924Y-77009268D01*
X135911871Y-77021698D01*
X135931306Y-77039673D01*
X135946700Y-77066865D01*
X135958526Y-77106950D01*
X135967258Y-77163603D01*
X135973369Y-77240497D01*
X135977330Y-77341308D01*
X135979617Y-77469710D01*
X135980700Y-77629378D01*
X135981054Y-77823985D01*
X135981108Y-77947520D01*
X135981043Y-78154316D01*
X135980594Y-78324458D01*
X135979604Y-78461931D01*
X135977916Y-78570722D01*
X135975373Y-78654814D01*
X135971818Y-78718193D01*
X135967093Y-78764845D01*
X135961041Y-78798755D01*
X135953505Y-78823909D01*
X135945848Y-78841317D01*
X135930142Y-78871330D01*
X135913392Y-78895947D01*
X135891666Y-78915706D01*
X135861028Y-78931142D01*
X135817547Y-78942792D01*
X135757288Y-78951191D01*
X135676317Y-78956878D01*
X135570702Y-78960387D01*
X135436508Y-78962255D01*
X135269802Y-78963019D01*
X135066650Y-78963214D01*
X135051800Y-78963220D01*
X134294880Y-78963520D01*
X134294880Y-79621380D01*
X134294496Y-79783829D01*
X134293410Y-79935627D01*
X134291715Y-80071361D01*
X134289508Y-80185619D01*
X134286881Y-80272986D01*
X134283932Y-80328051D01*
X134282237Y-80342451D01*
X134258762Y-80403311D01*
X134222248Y-80456751D01*
X134204373Y-80474957D01*
X134185370Y-80488225D01*
X134158961Y-80497336D01*
X134118867Y-80503071D01*
X134058812Y-80506212D01*
X133972515Y-80507540D01*
X133853701Y-80507835D01*
X133811712Y-80507840D01*
X133448524Y-80507840D01*
X133350000Y-80402978D01*
X133344756Y-78784089D01*
X133343843Y-78488460D01*
X133343181Y-78230737D01*
X133342887Y-78049120D01*
X133806168Y-78049120D01*
X133945891Y-78049120D01*
X134070459Y-78055160D01*
X134161144Y-78076622D01*
X134223350Y-78118511D01*
X134262478Y-78185835D01*
X134283929Y-78283602D01*
X134291131Y-78369160D01*
X134299976Y-78536800D01*
X135026400Y-78536800D01*
X135026400Y-77398275D01*
X134421880Y-77403657D01*
X133817360Y-77409040D01*
X133806168Y-78049120D01*
X133342887Y-78049120D01*
X133342820Y-78008186D01*
X133342808Y-77818071D01*
X133343195Y-77657660D01*
X133344031Y-77524217D01*
X133345364Y-77415010D01*
X133347244Y-77327303D01*
X133349721Y-77258364D01*
X133352843Y-77205456D01*
X133356660Y-77165848D01*
X133361222Y-77136803D01*
X133366577Y-77115589D01*
X133372774Y-77099472D01*
X133375236Y-77094362D01*
X133412107Y-77040589D01*
X133455733Y-77001498D01*
X133461760Y-76998142D01*
X133493319Y-76992488D01*
X133560988Y-76987517D01*
X133660239Y-76983225D01*
X133786547Y-76979613D01*
X133935387Y-76976680D01*
X134102232Y-76974424D01*
X134282558Y-76972844D01*
X134471838Y-76971940D01*
X134665546Y-76971709D01*
X134859157Y-76972151D01*
G04 #@! TO.C,J1*
D13*
X154178000Y-107786714D02*
X154178000Y-108331000D01*
X154141714Y-108439857D01*
X154069142Y-108512428D01*
X153960285Y-108548714D01*
X153887714Y-108548714D01*
X154940000Y-108548714D02*
X154504571Y-108548714D01*
X154722285Y-108548714D02*
X154722285Y-107786714D01*
X154649714Y-107895571D01*
X154577142Y-107968142D01*
X154504571Y-108004428D01*
G04 #@! TO.C,S1*
X128197428Y-109401428D02*
X128306285Y-109437714D01*
X128487714Y-109437714D01*
X128560285Y-109401428D01*
X128596571Y-109365142D01*
X128632857Y-109292571D01*
X128632857Y-109220000D01*
X128596571Y-109147428D01*
X128560285Y-109111142D01*
X128487714Y-109074857D01*
X128342571Y-109038571D01*
X128270000Y-109002285D01*
X128233714Y-108966000D01*
X128197428Y-108893428D01*
X128197428Y-108820857D01*
X128233714Y-108748285D01*
X128270000Y-108712000D01*
X128342571Y-108675714D01*
X128524000Y-108675714D01*
X128632857Y-108712000D01*
X129358571Y-109437714D02*
X128923142Y-109437714D01*
X129140857Y-109437714D02*
X129140857Y-108675714D01*
X129068285Y-108784571D01*
X128995714Y-108857142D01*
X128923142Y-108893428D01*
G04 #@! TO.C,R6*
X149733000Y-109818714D02*
X149479000Y-109455857D01*
X149297571Y-109818714D02*
X149297571Y-109056714D01*
X149587857Y-109056714D01*
X149660428Y-109093000D01*
X149696714Y-109129285D01*
X149733000Y-109201857D01*
X149733000Y-109310714D01*
X149696714Y-109383285D01*
X149660428Y-109419571D01*
X149587857Y-109455857D01*
X149297571Y-109455857D01*
X150386142Y-109056714D02*
X150241000Y-109056714D01*
X150168428Y-109093000D01*
X150132142Y-109129285D01*
X150059571Y-109238142D01*
X150023285Y-109383285D01*
X150023285Y-109673571D01*
X150059571Y-109746142D01*
X150095857Y-109782428D01*
X150168428Y-109818714D01*
X150313571Y-109818714D01*
X150386142Y-109782428D01*
X150422428Y-109746142D01*
X150458714Y-109673571D01*
X150458714Y-109492142D01*
X150422428Y-109419571D01*
X150386142Y-109383285D01*
X150313571Y-109347000D01*
X150168428Y-109347000D01*
X150095857Y-109383285D01*
X150059571Y-109419571D01*
X150023285Y-109492142D01*
G04 #@! TO.C,D1*
X132152571Y-82005714D02*
X132152571Y-81243714D01*
X132334000Y-81243714D01*
X132442857Y-81280000D01*
X132515428Y-81352571D01*
X132551714Y-81425142D01*
X132588000Y-81570285D01*
X132588000Y-81679142D01*
X132551714Y-81824285D01*
X132515428Y-81896857D01*
X132442857Y-81969428D01*
X132334000Y-82005714D01*
X132152571Y-82005714D01*
X133313714Y-82005714D02*
X132878285Y-82005714D01*
X133096000Y-82005714D02*
X133096000Y-81243714D01*
X133023428Y-81352571D01*
X132950857Y-81425142D01*
X132878285Y-81461428D01*
G04 #@! TO.C,D2*
X138502571Y-82005714D02*
X138502571Y-81243714D01*
X138684000Y-81243714D01*
X138792857Y-81280000D01*
X138865428Y-81352571D01*
X138901714Y-81425142D01*
X138938000Y-81570285D01*
X138938000Y-81679142D01*
X138901714Y-81824285D01*
X138865428Y-81896857D01*
X138792857Y-81969428D01*
X138684000Y-82005714D01*
X138502571Y-82005714D01*
X139228285Y-81316285D02*
X139264571Y-81280000D01*
X139337142Y-81243714D01*
X139518571Y-81243714D01*
X139591142Y-81280000D01*
X139627428Y-81316285D01*
X139663714Y-81388857D01*
X139663714Y-81461428D01*
X139627428Y-81570285D01*
X139192000Y-82005714D01*
X139663714Y-82005714D01*
G04 #@! TO.C,D3*
X144852571Y-82005714D02*
X144852571Y-81243714D01*
X145034000Y-81243714D01*
X145142857Y-81280000D01*
X145215428Y-81352571D01*
X145251714Y-81425142D01*
X145288000Y-81570285D01*
X145288000Y-81679142D01*
X145251714Y-81824285D01*
X145215428Y-81896857D01*
X145142857Y-81969428D01*
X145034000Y-82005714D01*
X144852571Y-82005714D01*
X145542000Y-81243714D02*
X146013714Y-81243714D01*
X145759714Y-81534000D01*
X145868571Y-81534000D01*
X145941142Y-81570285D01*
X145977428Y-81606571D01*
X146013714Y-81679142D01*
X146013714Y-81860571D01*
X145977428Y-81933142D01*
X145941142Y-81969428D01*
X145868571Y-82005714D01*
X145650857Y-82005714D01*
X145578285Y-81969428D01*
X145542000Y-81933142D01*
G04 #@! TO.C,D4*
X151202571Y-82005714D02*
X151202571Y-81243714D01*
X151384000Y-81243714D01*
X151492857Y-81280000D01*
X151565428Y-81352571D01*
X151601714Y-81425142D01*
X151638000Y-81570285D01*
X151638000Y-81679142D01*
X151601714Y-81824285D01*
X151565428Y-81896857D01*
X151492857Y-81969428D01*
X151384000Y-82005714D01*
X151202571Y-82005714D01*
X152291142Y-81497714D02*
X152291142Y-82005714D01*
X152109714Y-81207428D02*
X151928285Y-81751714D01*
X152400000Y-81751714D01*
G04 #@! TO.C,D5*
X132152571Y-87593714D02*
X132152571Y-86831714D01*
X132334000Y-86831714D01*
X132442857Y-86868000D01*
X132515428Y-86940571D01*
X132551714Y-87013142D01*
X132588000Y-87158285D01*
X132588000Y-87267142D01*
X132551714Y-87412285D01*
X132515428Y-87484857D01*
X132442857Y-87557428D01*
X132334000Y-87593714D01*
X132152571Y-87593714D01*
X133277428Y-86831714D02*
X132914571Y-86831714D01*
X132878285Y-87194571D01*
X132914571Y-87158285D01*
X132987142Y-87122000D01*
X133168571Y-87122000D01*
X133241142Y-87158285D01*
X133277428Y-87194571D01*
X133313714Y-87267142D01*
X133313714Y-87448571D01*
X133277428Y-87521142D01*
X133241142Y-87557428D01*
X133168571Y-87593714D01*
X132987142Y-87593714D01*
X132914571Y-87557428D01*
X132878285Y-87521142D01*
G04 #@! TO.C,D6*
X138502571Y-87593714D02*
X138502571Y-86831714D01*
X138684000Y-86831714D01*
X138792857Y-86868000D01*
X138865428Y-86940571D01*
X138901714Y-87013142D01*
X138938000Y-87158285D01*
X138938000Y-87267142D01*
X138901714Y-87412285D01*
X138865428Y-87484857D01*
X138792857Y-87557428D01*
X138684000Y-87593714D01*
X138502571Y-87593714D01*
X139591142Y-86831714D02*
X139446000Y-86831714D01*
X139373428Y-86868000D01*
X139337142Y-86904285D01*
X139264571Y-87013142D01*
X139228285Y-87158285D01*
X139228285Y-87448571D01*
X139264571Y-87521142D01*
X139300857Y-87557428D01*
X139373428Y-87593714D01*
X139518571Y-87593714D01*
X139591142Y-87557428D01*
X139627428Y-87521142D01*
X139663714Y-87448571D01*
X139663714Y-87267142D01*
X139627428Y-87194571D01*
X139591142Y-87158285D01*
X139518571Y-87122000D01*
X139373428Y-87122000D01*
X139300857Y-87158285D01*
X139264571Y-87194571D01*
X139228285Y-87267142D01*
G04 #@! TO.C,D7*
X144852571Y-87593714D02*
X144852571Y-86831714D01*
X145034000Y-86831714D01*
X145142857Y-86868000D01*
X145215428Y-86940571D01*
X145251714Y-87013142D01*
X145288000Y-87158285D01*
X145288000Y-87267142D01*
X145251714Y-87412285D01*
X145215428Y-87484857D01*
X145142857Y-87557428D01*
X145034000Y-87593714D01*
X144852571Y-87593714D01*
X145542000Y-86831714D02*
X146050000Y-86831714D01*
X145723428Y-87593714D01*
G04 #@! TO.C,D8*
X151202571Y-87593714D02*
X151202571Y-86831714D01*
X151384000Y-86831714D01*
X151492857Y-86868000D01*
X151565428Y-86940571D01*
X151601714Y-87013142D01*
X151638000Y-87158285D01*
X151638000Y-87267142D01*
X151601714Y-87412285D01*
X151565428Y-87484857D01*
X151492857Y-87557428D01*
X151384000Y-87593714D01*
X151202571Y-87593714D01*
X152073428Y-87158285D02*
X152000857Y-87122000D01*
X151964571Y-87085714D01*
X151928285Y-87013142D01*
X151928285Y-86976857D01*
X151964571Y-86904285D01*
X152000857Y-86868000D01*
X152073428Y-86831714D01*
X152218571Y-86831714D01*
X152291142Y-86868000D01*
X152327428Y-86904285D01*
X152363714Y-86976857D01*
X152363714Y-87013142D01*
X152327428Y-87085714D01*
X152291142Y-87122000D01*
X152218571Y-87158285D01*
X152073428Y-87158285D01*
X152000857Y-87194571D01*
X151964571Y-87230857D01*
X151928285Y-87303428D01*
X151928285Y-87448571D01*
X151964571Y-87521142D01*
X152000857Y-87557428D01*
X152073428Y-87593714D01*
X152218571Y-87593714D01*
X152291142Y-87557428D01*
X152327428Y-87521142D01*
X152363714Y-87448571D01*
X152363714Y-87303428D01*
X152327428Y-87230857D01*
X152291142Y-87194571D01*
X152218571Y-87158285D01*
G04 #@! TO.C,D9*
X132152571Y-93181714D02*
X132152571Y-92419714D01*
X132334000Y-92419714D01*
X132442857Y-92456000D01*
X132515428Y-92528571D01*
X132551714Y-92601142D01*
X132588000Y-92746285D01*
X132588000Y-92855142D01*
X132551714Y-93000285D01*
X132515428Y-93072857D01*
X132442857Y-93145428D01*
X132334000Y-93181714D01*
X132152571Y-93181714D01*
X132950857Y-93181714D02*
X133096000Y-93181714D01*
X133168571Y-93145428D01*
X133204857Y-93109142D01*
X133277428Y-93000285D01*
X133313714Y-92855142D01*
X133313714Y-92564857D01*
X133277428Y-92492285D01*
X133241142Y-92456000D01*
X133168571Y-92419714D01*
X133023428Y-92419714D01*
X132950857Y-92456000D01*
X132914571Y-92492285D01*
X132878285Y-92564857D01*
X132878285Y-92746285D01*
X132914571Y-92818857D01*
X132950857Y-92855142D01*
X133023428Y-92891428D01*
X133168571Y-92891428D01*
X133241142Y-92855142D01*
X133277428Y-92818857D01*
X133313714Y-92746285D01*
G04 #@! TO.C,D10*
X138139714Y-93181714D02*
X138139714Y-92419714D01*
X138321142Y-92419714D01*
X138430000Y-92456000D01*
X138502571Y-92528571D01*
X138538857Y-92601142D01*
X138575142Y-92746285D01*
X138575142Y-92855142D01*
X138538857Y-93000285D01*
X138502571Y-93072857D01*
X138430000Y-93145428D01*
X138321142Y-93181714D01*
X138139714Y-93181714D01*
X139300857Y-93181714D02*
X138865428Y-93181714D01*
X139083142Y-93181714D02*
X139083142Y-92419714D01*
X139010571Y-92528571D01*
X138938000Y-92601142D01*
X138865428Y-92637428D01*
X139772571Y-92419714D02*
X139845142Y-92419714D01*
X139917714Y-92456000D01*
X139954000Y-92492285D01*
X139990285Y-92564857D01*
X140026571Y-92710000D01*
X140026571Y-92891428D01*
X139990285Y-93036571D01*
X139954000Y-93109142D01*
X139917714Y-93145428D01*
X139845142Y-93181714D01*
X139772571Y-93181714D01*
X139700000Y-93145428D01*
X139663714Y-93109142D01*
X139627428Y-93036571D01*
X139591142Y-92891428D01*
X139591142Y-92710000D01*
X139627428Y-92564857D01*
X139663714Y-92492285D01*
X139700000Y-92456000D01*
X139772571Y-92419714D01*
G04 #@! TO.C,D11*
X144489714Y-93181714D02*
X144489714Y-92419714D01*
X144671142Y-92419714D01*
X144780000Y-92456000D01*
X144852571Y-92528571D01*
X144888857Y-92601142D01*
X144925142Y-92746285D01*
X144925142Y-92855142D01*
X144888857Y-93000285D01*
X144852571Y-93072857D01*
X144780000Y-93145428D01*
X144671142Y-93181714D01*
X144489714Y-93181714D01*
X145650857Y-93181714D02*
X145215428Y-93181714D01*
X145433142Y-93181714D02*
X145433142Y-92419714D01*
X145360571Y-92528571D01*
X145288000Y-92601142D01*
X145215428Y-92637428D01*
X146376571Y-93181714D02*
X145941142Y-93181714D01*
X146158857Y-93181714D02*
X146158857Y-92419714D01*
X146086285Y-92528571D01*
X146013714Y-92601142D01*
X145941142Y-92637428D01*
G04 #@! TO.C,D12*
X150839714Y-93181714D02*
X150839714Y-92419714D01*
X151021142Y-92419714D01*
X151130000Y-92456000D01*
X151202571Y-92528571D01*
X151238857Y-92601142D01*
X151275142Y-92746285D01*
X151275142Y-92855142D01*
X151238857Y-93000285D01*
X151202571Y-93072857D01*
X151130000Y-93145428D01*
X151021142Y-93181714D01*
X150839714Y-93181714D01*
X152000857Y-93181714D02*
X151565428Y-93181714D01*
X151783142Y-93181714D02*
X151783142Y-92419714D01*
X151710571Y-92528571D01*
X151638000Y-92601142D01*
X151565428Y-92637428D01*
X152291142Y-92492285D02*
X152327428Y-92456000D01*
X152400000Y-92419714D01*
X152581428Y-92419714D01*
X152654000Y-92456000D01*
X152690285Y-92492285D01*
X152726571Y-92564857D01*
X152726571Y-92637428D01*
X152690285Y-92746285D01*
X152254857Y-93181714D01*
X152726571Y-93181714D01*
G04 #@! TO.C,D13*
X131789714Y-98769714D02*
X131789714Y-98007714D01*
X131971142Y-98007714D01*
X132080000Y-98044000D01*
X132152571Y-98116571D01*
X132188857Y-98189142D01*
X132225142Y-98334285D01*
X132225142Y-98443142D01*
X132188857Y-98588285D01*
X132152571Y-98660857D01*
X132080000Y-98733428D01*
X131971142Y-98769714D01*
X131789714Y-98769714D01*
X132950857Y-98769714D02*
X132515428Y-98769714D01*
X132733142Y-98769714D02*
X132733142Y-98007714D01*
X132660571Y-98116571D01*
X132588000Y-98189142D01*
X132515428Y-98225428D01*
X133204857Y-98007714D02*
X133676571Y-98007714D01*
X133422571Y-98298000D01*
X133531428Y-98298000D01*
X133604000Y-98334285D01*
X133640285Y-98370571D01*
X133676571Y-98443142D01*
X133676571Y-98624571D01*
X133640285Y-98697142D01*
X133604000Y-98733428D01*
X133531428Y-98769714D01*
X133313714Y-98769714D01*
X133241142Y-98733428D01*
X133204857Y-98697142D01*
G04 #@! TO.C,D14*
X138139714Y-98769714D02*
X138139714Y-98007714D01*
X138321142Y-98007714D01*
X138430000Y-98044000D01*
X138502571Y-98116571D01*
X138538857Y-98189142D01*
X138575142Y-98334285D01*
X138575142Y-98443142D01*
X138538857Y-98588285D01*
X138502571Y-98660857D01*
X138430000Y-98733428D01*
X138321142Y-98769714D01*
X138139714Y-98769714D01*
X139300857Y-98769714D02*
X138865428Y-98769714D01*
X139083142Y-98769714D02*
X139083142Y-98007714D01*
X139010571Y-98116571D01*
X138938000Y-98189142D01*
X138865428Y-98225428D01*
X139954000Y-98261714D02*
X139954000Y-98769714D01*
X139772571Y-97971428D02*
X139591142Y-98515714D01*
X140062857Y-98515714D01*
G04 #@! TO.C,D15*
X144489714Y-98769714D02*
X144489714Y-98007714D01*
X144671142Y-98007714D01*
X144780000Y-98044000D01*
X144852571Y-98116571D01*
X144888857Y-98189142D01*
X144925142Y-98334285D01*
X144925142Y-98443142D01*
X144888857Y-98588285D01*
X144852571Y-98660857D01*
X144780000Y-98733428D01*
X144671142Y-98769714D01*
X144489714Y-98769714D01*
X145650857Y-98769714D02*
X145215428Y-98769714D01*
X145433142Y-98769714D02*
X145433142Y-98007714D01*
X145360571Y-98116571D01*
X145288000Y-98189142D01*
X145215428Y-98225428D01*
X146340285Y-98007714D02*
X145977428Y-98007714D01*
X145941142Y-98370571D01*
X145977428Y-98334285D01*
X146050000Y-98298000D01*
X146231428Y-98298000D01*
X146304000Y-98334285D01*
X146340285Y-98370571D01*
X146376571Y-98443142D01*
X146376571Y-98624571D01*
X146340285Y-98697142D01*
X146304000Y-98733428D01*
X146231428Y-98769714D01*
X146050000Y-98769714D01*
X145977428Y-98733428D01*
X145941142Y-98697142D01*
G04 #@! TO.C,D16*
X150839714Y-98769714D02*
X150839714Y-98007714D01*
X151021142Y-98007714D01*
X151130000Y-98044000D01*
X151202571Y-98116571D01*
X151238857Y-98189142D01*
X151275142Y-98334285D01*
X151275142Y-98443142D01*
X151238857Y-98588285D01*
X151202571Y-98660857D01*
X151130000Y-98733428D01*
X151021142Y-98769714D01*
X150839714Y-98769714D01*
X152000857Y-98769714D02*
X151565428Y-98769714D01*
X151783142Y-98769714D02*
X151783142Y-98007714D01*
X151710571Y-98116571D01*
X151638000Y-98189142D01*
X151565428Y-98225428D01*
X152654000Y-98007714D02*
X152508857Y-98007714D01*
X152436285Y-98044000D01*
X152400000Y-98080285D01*
X152327428Y-98189142D01*
X152291142Y-98334285D01*
X152291142Y-98624571D01*
X152327428Y-98697142D01*
X152363714Y-98733428D01*
X152436285Y-98769714D01*
X152581428Y-98769714D01*
X152654000Y-98733428D01*
X152690285Y-98697142D01*
X152726571Y-98624571D01*
X152726571Y-98443142D01*
X152690285Y-98370571D01*
X152654000Y-98334285D01*
X152581428Y-98298000D01*
X152436285Y-98298000D01*
X152363714Y-98334285D01*
X152327428Y-98370571D01*
X152291142Y-98443142D01*
G04 #@! TO.C,D17*
X131789714Y-104357714D02*
X131789714Y-103595714D01*
X131971142Y-103595714D01*
X132080000Y-103632000D01*
X132152571Y-103704571D01*
X132188857Y-103777142D01*
X132225142Y-103922285D01*
X132225142Y-104031142D01*
X132188857Y-104176285D01*
X132152571Y-104248857D01*
X132080000Y-104321428D01*
X131971142Y-104357714D01*
X131789714Y-104357714D01*
X132950857Y-104357714D02*
X132515428Y-104357714D01*
X132733142Y-104357714D02*
X132733142Y-103595714D01*
X132660571Y-103704571D01*
X132588000Y-103777142D01*
X132515428Y-103813428D01*
X133204857Y-103595714D02*
X133712857Y-103595714D01*
X133386285Y-104357714D01*
G04 #@! TO.C,D18*
X138139714Y-104357714D02*
X138139714Y-103595714D01*
X138321142Y-103595714D01*
X138430000Y-103632000D01*
X138502571Y-103704571D01*
X138538857Y-103777142D01*
X138575142Y-103922285D01*
X138575142Y-104031142D01*
X138538857Y-104176285D01*
X138502571Y-104248857D01*
X138430000Y-104321428D01*
X138321142Y-104357714D01*
X138139714Y-104357714D01*
X139300857Y-104357714D02*
X138865428Y-104357714D01*
X139083142Y-104357714D02*
X139083142Y-103595714D01*
X139010571Y-103704571D01*
X138938000Y-103777142D01*
X138865428Y-103813428D01*
X139736285Y-103922285D02*
X139663714Y-103886000D01*
X139627428Y-103849714D01*
X139591142Y-103777142D01*
X139591142Y-103740857D01*
X139627428Y-103668285D01*
X139663714Y-103632000D01*
X139736285Y-103595714D01*
X139881428Y-103595714D01*
X139954000Y-103632000D01*
X139990285Y-103668285D01*
X140026571Y-103740857D01*
X140026571Y-103777142D01*
X139990285Y-103849714D01*
X139954000Y-103886000D01*
X139881428Y-103922285D01*
X139736285Y-103922285D01*
X139663714Y-103958571D01*
X139627428Y-103994857D01*
X139591142Y-104067428D01*
X139591142Y-104212571D01*
X139627428Y-104285142D01*
X139663714Y-104321428D01*
X139736285Y-104357714D01*
X139881428Y-104357714D01*
X139954000Y-104321428D01*
X139990285Y-104285142D01*
X140026571Y-104212571D01*
X140026571Y-104067428D01*
X139990285Y-103994857D01*
X139954000Y-103958571D01*
X139881428Y-103922285D01*
G04 #@! TO.C,D19*
X144489714Y-104357714D02*
X144489714Y-103595714D01*
X144671142Y-103595714D01*
X144780000Y-103632000D01*
X144852571Y-103704571D01*
X144888857Y-103777142D01*
X144925142Y-103922285D01*
X144925142Y-104031142D01*
X144888857Y-104176285D01*
X144852571Y-104248857D01*
X144780000Y-104321428D01*
X144671142Y-104357714D01*
X144489714Y-104357714D01*
X145650857Y-104357714D02*
X145215428Y-104357714D01*
X145433142Y-104357714D02*
X145433142Y-103595714D01*
X145360571Y-103704571D01*
X145288000Y-103777142D01*
X145215428Y-103813428D01*
X146013714Y-104357714D02*
X146158857Y-104357714D01*
X146231428Y-104321428D01*
X146267714Y-104285142D01*
X146340285Y-104176285D01*
X146376571Y-104031142D01*
X146376571Y-103740857D01*
X146340285Y-103668285D01*
X146304000Y-103632000D01*
X146231428Y-103595714D01*
X146086285Y-103595714D01*
X146013714Y-103632000D01*
X145977428Y-103668285D01*
X145941142Y-103740857D01*
X145941142Y-103922285D01*
X145977428Y-103994857D01*
X146013714Y-104031142D01*
X146086285Y-104067428D01*
X146231428Y-104067428D01*
X146304000Y-104031142D01*
X146340285Y-103994857D01*
X146376571Y-103922285D01*
G04 #@! TO.C,D20*
X150839714Y-104357714D02*
X150839714Y-103595714D01*
X151021142Y-103595714D01*
X151130000Y-103632000D01*
X151202571Y-103704571D01*
X151238857Y-103777142D01*
X151275142Y-103922285D01*
X151275142Y-104031142D01*
X151238857Y-104176285D01*
X151202571Y-104248857D01*
X151130000Y-104321428D01*
X151021142Y-104357714D01*
X150839714Y-104357714D01*
X151565428Y-103668285D02*
X151601714Y-103632000D01*
X151674285Y-103595714D01*
X151855714Y-103595714D01*
X151928285Y-103632000D01*
X151964571Y-103668285D01*
X152000857Y-103740857D01*
X152000857Y-103813428D01*
X151964571Y-103922285D01*
X151529142Y-104357714D01*
X152000857Y-104357714D01*
X152472571Y-103595714D02*
X152545142Y-103595714D01*
X152617714Y-103632000D01*
X152654000Y-103668285D01*
X152690285Y-103740857D01*
X152726571Y-103886000D01*
X152726571Y-104067428D01*
X152690285Y-104212571D01*
X152654000Y-104285142D01*
X152617714Y-104321428D01*
X152545142Y-104357714D01*
X152472571Y-104357714D01*
X152400000Y-104321428D01*
X152363714Y-104285142D01*
X152327428Y-104212571D01*
X152291142Y-104067428D01*
X152291142Y-103886000D01*
X152327428Y-103740857D01*
X152363714Y-103668285D01*
X152400000Y-103632000D01*
X152472571Y-103595714D01*
G04 #@! TO.C,R2*
X139573000Y-109818714D02*
X139319000Y-109455857D01*
X139137571Y-109818714D02*
X139137571Y-109056714D01*
X139427857Y-109056714D01*
X139500428Y-109093000D01*
X139536714Y-109129285D01*
X139573000Y-109201857D01*
X139573000Y-109310714D01*
X139536714Y-109383285D01*
X139500428Y-109419571D01*
X139427857Y-109455857D01*
X139137571Y-109455857D01*
X139863285Y-109129285D02*
X139899571Y-109093000D01*
X139972142Y-109056714D01*
X140153571Y-109056714D01*
X140226142Y-109093000D01*
X140262428Y-109129285D01*
X140298714Y-109201857D01*
X140298714Y-109274428D01*
X140262428Y-109383285D01*
X139827000Y-109818714D01*
X140298714Y-109818714D01*
G04 #@! TO.C,R3*
X142113000Y-109818714D02*
X141859000Y-109455857D01*
X141677571Y-109818714D02*
X141677571Y-109056714D01*
X141967857Y-109056714D01*
X142040428Y-109093000D01*
X142076714Y-109129285D01*
X142113000Y-109201857D01*
X142113000Y-109310714D01*
X142076714Y-109383285D01*
X142040428Y-109419571D01*
X141967857Y-109455857D01*
X141677571Y-109455857D01*
X142367000Y-109056714D02*
X142838714Y-109056714D01*
X142584714Y-109347000D01*
X142693571Y-109347000D01*
X142766142Y-109383285D01*
X142802428Y-109419571D01*
X142838714Y-109492142D01*
X142838714Y-109673571D01*
X142802428Y-109746142D01*
X142766142Y-109782428D01*
X142693571Y-109818714D01*
X142475857Y-109818714D01*
X142403285Y-109782428D01*
X142367000Y-109746142D01*
G04 #@! TO.C,R4*
X144653000Y-109818714D02*
X144399000Y-109455857D01*
X144217571Y-109818714D02*
X144217571Y-109056714D01*
X144507857Y-109056714D01*
X144580428Y-109093000D01*
X144616714Y-109129285D01*
X144653000Y-109201857D01*
X144653000Y-109310714D01*
X144616714Y-109383285D01*
X144580428Y-109419571D01*
X144507857Y-109455857D01*
X144217571Y-109455857D01*
X145306142Y-109310714D02*
X145306142Y-109818714D01*
X145124714Y-109020428D02*
X144943285Y-109564714D01*
X145415000Y-109564714D01*
G04 #@! TO.C,R5*
X147193000Y-109818714D02*
X146939000Y-109455857D01*
X146757571Y-109818714D02*
X146757571Y-109056714D01*
X147047857Y-109056714D01*
X147120428Y-109093000D01*
X147156714Y-109129285D01*
X147193000Y-109201857D01*
X147193000Y-109310714D01*
X147156714Y-109383285D01*
X147120428Y-109419571D01*
X147047857Y-109455857D01*
X146757571Y-109455857D01*
X147882428Y-109056714D02*
X147519571Y-109056714D01*
X147483285Y-109419571D01*
X147519571Y-109383285D01*
X147592142Y-109347000D01*
X147773571Y-109347000D01*
X147846142Y-109383285D01*
X147882428Y-109419571D01*
X147918714Y-109492142D01*
X147918714Y-109673571D01*
X147882428Y-109746142D01*
X147846142Y-109782428D01*
X147773571Y-109818714D01*
X147592142Y-109818714D01*
X147519571Y-109782428D01*
X147483285Y-109746142D01*
G04 #@! TD*
M02*
