M48
;DRILL file {KiCad (5.0.2)-1} date 3/1/2019 12:24:02 PM
;FORMAT={-:-/ absolute / inch / decimal}
FMAT,2
INCH,TZ
T1C0.0130
T2C0.0394
T3C0.1260
%
G90
G05
T1
X5.07Y-3.28
X5.07Y-3.54
X5.07Y-3.76
X5.07Y-3.98
X5.07Y-4.16
X5.08Y-4.26
X5.08Y-4.54
X5.1Y-3.32
X5.1Y-3.58
X5.1Y-3.8
X5.1Y-4.02
X5.1Y-4.2
X5.13Y-3.36
X5.13Y-3.62
X5.13Y-3.84
X5.13Y-4.13
X5.18Y-4.255
X5.23Y-3.39
X5.35Y-4.2
X5.38Y-4.235
X5.38Y-4.54
X5.52Y-4.49
X5.55Y-4.32
X5.55Y-4.4
X5.575Y-4.49
X5.65Y-4.32
X5.65Y-4.4
X5.845Y-4.4
X5.87Y-4.49
X5.97Y-3.39
X6.04Y-4.09
X6.07Y-3.615
X6.07Y-3.84
X6.07Y-4.06
X6.07Y-4.2
X6.1Y-3.3
X6.1Y-3.58
X6.1Y-3.8
X6.1Y-4.02
X6.1Y-4.16
X6.13Y-3.26
X6.13Y-3.54
X6.13Y-3.76
X6.13Y-3.98
X6.13Y-4.12
T2
X6.03Y-4.33
X6.03Y-4.43
X6.03Y-4.53
X6.13Y-4.33
X6.13Y-4.43
X6.13Y-4.53
T3
X5.1Y-3.1
X6.1Y-3.1
T0
M30
