G04 #@! TF.GenerationSoftware,KiCad,Pcbnew,(5.0.2)-1*
G04 #@! TF.CreationDate,2019-03-01T12:21:37-06:00*
G04 #@! TF.ProjectId,matrix_badge,6d617472-6978-45f6-9261-6467652e6b69,rev?*
G04 #@! TF.SameCoordinates,Original*
G04 #@! TF.FileFunction,Copper,L2,Bot*
G04 #@! TF.FilePolarity,Positive*
%FSLAX46Y46*%
G04 Gerber Fmt 4.6, Leading zero omitted, Abs format (unit mm)*
G04 Created by KiCad (PCBNEW (5.0.2)-1) date 3/1/2019 12:21:37 PM*
%MOMM*%
%LPD*%
G01*
G04 APERTURE LIST*
G04 #@! TA.AperFunction,NonConductor*
%ADD10C,0.300000*%
G04 #@! TD*
G04 #@! TA.AperFunction,ComponentPad*
%ADD11R,1.700000X1.700000*%
G04 #@! TD*
G04 #@! TA.AperFunction,ComponentPad*
%ADD12O,1.700000X1.700000*%
G04 #@! TD*
G04 #@! TA.AperFunction,SMDPad,CuDef*
%ADD13R,3.960000X3.960000*%
G04 #@! TD*
G04 #@! TA.AperFunction,SMDPad,CuDef*
%ADD14R,5.080000X1.270000*%
G04 #@! TD*
G04 #@! TA.AperFunction,Conductor*
%ADD15C,0.100000*%
G04 #@! TD*
G04 #@! TA.AperFunction,SMDPad,CuDef*
%ADD16C,1.150000*%
G04 #@! TD*
G04 #@! TA.AperFunction,SMDPad,CuDef*
%ADD17R,1.700000X0.650000*%
G04 #@! TD*
G04 #@! TA.AperFunction,SMDPad,CuDef*
%ADD18R,20.000000X5.000000*%
G04 #@! TD*
G04 #@! TA.AperFunction,ViaPad*
%ADD19C,0.685800*%
G04 #@! TD*
G04 #@! TA.AperFunction,Conductor*
%ADD20C,0.508000*%
G04 #@! TD*
G04 #@! TA.AperFunction,Conductor*
%ADD21C,0.254000*%
G04 #@! TD*
G04 APERTURE END LIST*
D10*
X134627714Y-115248571D02*
X134270571Y-116248571D01*
X133913428Y-115248571D01*
X133056285Y-114748571D02*
X132913428Y-114748571D01*
X132770571Y-114820000D01*
X132699142Y-114891428D01*
X132627714Y-115034285D01*
X132556285Y-115320000D01*
X132556285Y-115677142D01*
X132627714Y-115962857D01*
X132699142Y-116105714D01*
X132770571Y-116177142D01*
X132913428Y-116248571D01*
X133056285Y-116248571D01*
X133199142Y-116177142D01*
X133270571Y-116105714D01*
X133342000Y-115962857D01*
X133413428Y-115677142D01*
X133413428Y-115320000D01*
X133342000Y-115034285D01*
X133270571Y-114891428D01*
X133199142Y-114820000D01*
X133056285Y-114748571D01*
X131984857Y-114891428D02*
X131913428Y-114820000D01*
X131770571Y-114748571D01*
X131413428Y-114748571D01*
X131270571Y-114820000D01*
X131199142Y-114891428D01*
X131127714Y-115034285D01*
X131127714Y-115177142D01*
X131199142Y-115391428D01*
X132056285Y-116248571D01*
X131127714Y-116248571D01*
D11*
G04 #@! TO.P,J1,1*
G04 #@! TO.N,MISO*
X155702000Y-115062000D03*
D12*
G04 #@! TO.P,J1,2*
G04 #@! TO.N,VDD*
X153162000Y-115062000D03*
G04 #@! TO.P,J1,3*
G04 #@! TO.N,SCK*
X155702000Y-112522000D03*
G04 #@! TO.P,J1,4*
G04 #@! TO.N,MOSI*
X153162000Y-112522000D03*
G04 #@! TO.P,J1,5*
G04 #@! TO.N,~RST*
X155702000Y-109982000D03*
G04 #@! TO.P,J1,6*
G04 #@! TO.N,GND*
X153162000Y-109982000D03*
G04 #@! TD*
D13*
G04 #@! TO.P,BT1,2*
G04 #@! TO.N,GND*
X142240000Y-95250000D03*
D14*
G04 #@! TO.P,BT1,1*
G04 #@! TO.N,Net-(BT1-Pad1)*
X142240000Y-84265000D03*
X142240000Y-106235000D03*
G04 #@! TD*
D15*
G04 #@! TO.N,GND*
G04 #@! TO.C,C1*
G36*
X132554505Y-110941204D02*
X132578773Y-110944804D01*
X132602572Y-110950765D01*
X132625671Y-110959030D01*
X132647850Y-110969520D01*
X132668893Y-110982132D01*
X132688599Y-110996747D01*
X132706777Y-111013223D01*
X132723253Y-111031401D01*
X132737868Y-111051107D01*
X132750480Y-111072150D01*
X132760970Y-111094329D01*
X132769235Y-111117428D01*
X132775196Y-111141227D01*
X132778796Y-111165495D01*
X132780000Y-111189999D01*
X132780000Y-111840001D01*
X132778796Y-111864505D01*
X132775196Y-111888773D01*
X132769235Y-111912572D01*
X132760970Y-111935671D01*
X132750480Y-111957850D01*
X132737868Y-111978893D01*
X132723253Y-111998599D01*
X132706777Y-112016777D01*
X132688599Y-112033253D01*
X132668893Y-112047868D01*
X132647850Y-112060480D01*
X132625671Y-112070970D01*
X132602572Y-112079235D01*
X132578773Y-112085196D01*
X132554505Y-112088796D01*
X132530001Y-112090000D01*
X131629999Y-112090000D01*
X131605495Y-112088796D01*
X131581227Y-112085196D01*
X131557428Y-112079235D01*
X131534329Y-112070970D01*
X131512150Y-112060480D01*
X131491107Y-112047868D01*
X131471401Y-112033253D01*
X131453223Y-112016777D01*
X131436747Y-111998599D01*
X131422132Y-111978893D01*
X131409520Y-111957850D01*
X131399030Y-111935671D01*
X131390765Y-111912572D01*
X131384804Y-111888773D01*
X131381204Y-111864505D01*
X131380000Y-111840001D01*
X131380000Y-111189999D01*
X131381204Y-111165495D01*
X131384804Y-111141227D01*
X131390765Y-111117428D01*
X131399030Y-111094329D01*
X131409520Y-111072150D01*
X131422132Y-111051107D01*
X131436747Y-111031401D01*
X131453223Y-111013223D01*
X131471401Y-110996747D01*
X131491107Y-110982132D01*
X131512150Y-110969520D01*
X131534329Y-110959030D01*
X131557428Y-110950765D01*
X131581227Y-110944804D01*
X131605495Y-110941204D01*
X131629999Y-110940000D01*
X132530001Y-110940000D01*
X132554505Y-110941204D01*
X132554505Y-110941204D01*
G37*
D16*
G04 #@! TD*
G04 #@! TO.P,C1,2*
G04 #@! TO.N,GND*
X132080000Y-111515000D03*
D15*
G04 #@! TO.N,VDD*
G04 #@! TO.C,C1*
G36*
X132554505Y-108891204D02*
X132578773Y-108894804D01*
X132602572Y-108900765D01*
X132625671Y-108909030D01*
X132647850Y-108919520D01*
X132668893Y-108932132D01*
X132688599Y-108946747D01*
X132706777Y-108963223D01*
X132723253Y-108981401D01*
X132737868Y-109001107D01*
X132750480Y-109022150D01*
X132760970Y-109044329D01*
X132769235Y-109067428D01*
X132775196Y-109091227D01*
X132778796Y-109115495D01*
X132780000Y-109139999D01*
X132780000Y-109790001D01*
X132778796Y-109814505D01*
X132775196Y-109838773D01*
X132769235Y-109862572D01*
X132760970Y-109885671D01*
X132750480Y-109907850D01*
X132737868Y-109928893D01*
X132723253Y-109948599D01*
X132706777Y-109966777D01*
X132688599Y-109983253D01*
X132668893Y-109997868D01*
X132647850Y-110010480D01*
X132625671Y-110020970D01*
X132602572Y-110029235D01*
X132578773Y-110035196D01*
X132554505Y-110038796D01*
X132530001Y-110040000D01*
X131629999Y-110040000D01*
X131605495Y-110038796D01*
X131581227Y-110035196D01*
X131557428Y-110029235D01*
X131534329Y-110020970D01*
X131512150Y-110010480D01*
X131491107Y-109997868D01*
X131471401Y-109983253D01*
X131453223Y-109966777D01*
X131436747Y-109948599D01*
X131422132Y-109928893D01*
X131409520Y-109907850D01*
X131399030Y-109885671D01*
X131390765Y-109862572D01*
X131384804Y-109838773D01*
X131381204Y-109814505D01*
X131380000Y-109790001D01*
X131380000Y-109139999D01*
X131381204Y-109115495D01*
X131384804Y-109091227D01*
X131390765Y-109067428D01*
X131399030Y-109044329D01*
X131409520Y-109022150D01*
X131422132Y-109001107D01*
X131436747Y-108981401D01*
X131453223Y-108963223D01*
X131471401Y-108946747D01*
X131491107Y-108932132D01*
X131512150Y-108919520D01*
X131534329Y-108909030D01*
X131557428Y-108900765D01*
X131581227Y-108894804D01*
X131605495Y-108891204D01*
X131629999Y-108890000D01*
X132530001Y-108890000D01*
X132554505Y-108891204D01*
X132554505Y-108891204D01*
G37*
D16*
G04 #@! TD*
G04 #@! TO.P,C1,1*
G04 #@! TO.N,VDD*
X132080000Y-109465000D03*
D15*
G04 #@! TO.N,GND*
G04 #@! TO.C,C2*
G36*
X135094505Y-110941204D02*
X135118773Y-110944804D01*
X135142572Y-110950765D01*
X135165671Y-110959030D01*
X135187850Y-110969520D01*
X135208893Y-110982132D01*
X135228599Y-110996747D01*
X135246777Y-111013223D01*
X135263253Y-111031401D01*
X135277868Y-111051107D01*
X135290480Y-111072150D01*
X135300970Y-111094329D01*
X135309235Y-111117428D01*
X135315196Y-111141227D01*
X135318796Y-111165495D01*
X135320000Y-111189999D01*
X135320000Y-111840001D01*
X135318796Y-111864505D01*
X135315196Y-111888773D01*
X135309235Y-111912572D01*
X135300970Y-111935671D01*
X135290480Y-111957850D01*
X135277868Y-111978893D01*
X135263253Y-111998599D01*
X135246777Y-112016777D01*
X135228599Y-112033253D01*
X135208893Y-112047868D01*
X135187850Y-112060480D01*
X135165671Y-112070970D01*
X135142572Y-112079235D01*
X135118773Y-112085196D01*
X135094505Y-112088796D01*
X135070001Y-112090000D01*
X134169999Y-112090000D01*
X134145495Y-112088796D01*
X134121227Y-112085196D01*
X134097428Y-112079235D01*
X134074329Y-112070970D01*
X134052150Y-112060480D01*
X134031107Y-112047868D01*
X134011401Y-112033253D01*
X133993223Y-112016777D01*
X133976747Y-111998599D01*
X133962132Y-111978893D01*
X133949520Y-111957850D01*
X133939030Y-111935671D01*
X133930765Y-111912572D01*
X133924804Y-111888773D01*
X133921204Y-111864505D01*
X133920000Y-111840001D01*
X133920000Y-111189999D01*
X133921204Y-111165495D01*
X133924804Y-111141227D01*
X133930765Y-111117428D01*
X133939030Y-111094329D01*
X133949520Y-111072150D01*
X133962132Y-111051107D01*
X133976747Y-111031401D01*
X133993223Y-111013223D01*
X134011401Y-110996747D01*
X134031107Y-110982132D01*
X134052150Y-110969520D01*
X134074329Y-110959030D01*
X134097428Y-110950765D01*
X134121227Y-110944804D01*
X134145495Y-110941204D01*
X134169999Y-110940000D01*
X135070001Y-110940000D01*
X135094505Y-110941204D01*
X135094505Y-110941204D01*
G37*
D16*
G04 #@! TD*
G04 #@! TO.P,C2,2*
G04 #@! TO.N,GND*
X134620000Y-111515000D03*
D15*
G04 #@! TO.N,VDD*
G04 #@! TO.C,C2*
G36*
X135094505Y-108891204D02*
X135118773Y-108894804D01*
X135142572Y-108900765D01*
X135165671Y-108909030D01*
X135187850Y-108919520D01*
X135208893Y-108932132D01*
X135228599Y-108946747D01*
X135246777Y-108963223D01*
X135263253Y-108981401D01*
X135277868Y-109001107D01*
X135290480Y-109022150D01*
X135300970Y-109044329D01*
X135309235Y-109067428D01*
X135315196Y-109091227D01*
X135318796Y-109115495D01*
X135320000Y-109139999D01*
X135320000Y-109790001D01*
X135318796Y-109814505D01*
X135315196Y-109838773D01*
X135309235Y-109862572D01*
X135300970Y-109885671D01*
X135290480Y-109907850D01*
X135277868Y-109928893D01*
X135263253Y-109948599D01*
X135246777Y-109966777D01*
X135228599Y-109983253D01*
X135208893Y-109997868D01*
X135187850Y-110010480D01*
X135165671Y-110020970D01*
X135142572Y-110029235D01*
X135118773Y-110035196D01*
X135094505Y-110038796D01*
X135070001Y-110040000D01*
X134169999Y-110040000D01*
X134145495Y-110038796D01*
X134121227Y-110035196D01*
X134097428Y-110029235D01*
X134074329Y-110020970D01*
X134052150Y-110010480D01*
X134031107Y-109997868D01*
X134011401Y-109983253D01*
X133993223Y-109966777D01*
X133976747Y-109948599D01*
X133962132Y-109928893D01*
X133949520Y-109907850D01*
X133939030Y-109885671D01*
X133930765Y-109862572D01*
X133924804Y-109838773D01*
X133921204Y-109814505D01*
X133920000Y-109790001D01*
X133920000Y-109139999D01*
X133921204Y-109115495D01*
X133924804Y-109091227D01*
X133930765Y-109067428D01*
X133939030Y-109044329D01*
X133949520Y-109022150D01*
X133962132Y-109001107D01*
X133976747Y-108981401D01*
X133993223Y-108963223D01*
X134011401Y-108946747D01*
X134031107Y-108932132D01*
X134052150Y-108919520D01*
X134074329Y-108909030D01*
X134097428Y-108900765D01*
X134121227Y-108894804D01*
X134145495Y-108891204D01*
X134169999Y-108890000D01*
X135070001Y-108890000D01*
X135094505Y-108891204D01*
X135094505Y-108891204D01*
G37*
D16*
G04 #@! TD*
G04 #@! TO.P,C2,1*
G04 #@! TO.N,VDD*
X134620000Y-109465000D03*
D15*
G04 #@! TO.N,VDD*
G04 #@! TO.C,R1*
G36*
X150334505Y-108891204D02*
X150358773Y-108894804D01*
X150382572Y-108900765D01*
X150405671Y-108909030D01*
X150427850Y-108919520D01*
X150448893Y-108932132D01*
X150468599Y-108946747D01*
X150486777Y-108963223D01*
X150503253Y-108981401D01*
X150517868Y-109001107D01*
X150530480Y-109022150D01*
X150540970Y-109044329D01*
X150549235Y-109067428D01*
X150555196Y-109091227D01*
X150558796Y-109115495D01*
X150560000Y-109139999D01*
X150560000Y-109790001D01*
X150558796Y-109814505D01*
X150555196Y-109838773D01*
X150549235Y-109862572D01*
X150540970Y-109885671D01*
X150530480Y-109907850D01*
X150517868Y-109928893D01*
X150503253Y-109948599D01*
X150486777Y-109966777D01*
X150468599Y-109983253D01*
X150448893Y-109997868D01*
X150427850Y-110010480D01*
X150405671Y-110020970D01*
X150382572Y-110029235D01*
X150358773Y-110035196D01*
X150334505Y-110038796D01*
X150310001Y-110040000D01*
X149409999Y-110040000D01*
X149385495Y-110038796D01*
X149361227Y-110035196D01*
X149337428Y-110029235D01*
X149314329Y-110020970D01*
X149292150Y-110010480D01*
X149271107Y-109997868D01*
X149251401Y-109983253D01*
X149233223Y-109966777D01*
X149216747Y-109948599D01*
X149202132Y-109928893D01*
X149189520Y-109907850D01*
X149179030Y-109885671D01*
X149170765Y-109862572D01*
X149164804Y-109838773D01*
X149161204Y-109814505D01*
X149160000Y-109790001D01*
X149160000Y-109139999D01*
X149161204Y-109115495D01*
X149164804Y-109091227D01*
X149170765Y-109067428D01*
X149179030Y-109044329D01*
X149189520Y-109022150D01*
X149202132Y-109001107D01*
X149216747Y-108981401D01*
X149233223Y-108963223D01*
X149251401Y-108946747D01*
X149271107Y-108932132D01*
X149292150Y-108919520D01*
X149314329Y-108909030D01*
X149337428Y-108900765D01*
X149361227Y-108894804D01*
X149385495Y-108891204D01*
X149409999Y-108890000D01*
X150310001Y-108890000D01*
X150334505Y-108891204D01*
X150334505Y-108891204D01*
G37*
D16*
G04 #@! TD*
G04 #@! TO.P,R1,1*
G04 #@! TO.N,VDD*
X149860000Y-109465000D03*
D15*
G04 #@! TO.N,~RST*
G04 #@! TO.C,R1*
G36*
X150334505Y-110941204D02*
X150358773Y-110944804D01*
X150382572Y-110950765D01*
X150405671Y-110959030D01*
X150427850Y-110969520D01*
X150448893Y-110982132D01*
X150468599Y-110996747D01*
X150486777Y-111013223D01*
X150503253Y-111031401D01*
X150517868Y-111051107D01*
X150530480Y-111072150D01*
X150540970Y-111094329D01*
X150549235Y-111117428D01*
X150555196Y-111141227D01*
X150558796Y-111165495D01*
X150560000Y-111189999D01*
X150560000Y-111840001D01*
X150558796Y-111864505D01*
X150555196Y-111888773D01*
X150549235Y-111912572D01*
X150540970Y-111935671D01*
X150530480Y-111957850D01*
X150517868Y-111978893D01*
X150503253Y-111998599D01*
X150486777Y-112016777D01*
X150468599Y-112033253D01*
X150448893Y-112047868D01*
X150427850Y-112060480D01*
X150405671Y-112070970D01*
X150382572Y-112079235D01*
X150358773Y-112085196D01*
X150334505Y-112088796D01*
X150310001Y-112090000D01*
X149409999Y-112090000D01*
X149385495Y-112088796D01*
X149361227Y-112085196D01*
X149337428Y-112079235D01*
X149314329Y-112070970D01*
X149292150Y-112060480D01*
X149271107Y-112047868D01*
X149251401Y-112033253D01*
X149233223Y-112016777D01*
X149216747Y-111998599D01*
X149202132Y-111978893D01*
X149189520Y-111957850D01*
X149179030Y-111935671D01*
X149170765Y-111912572D01*
X149164804Y-111888773D01*
X149161204Y-111864505D01*
X149160000Y-111840001D01*
X149160000Y-111189999D01*
X149161204Y-111165495D01*
X149164804Y-111141227D01*
X149170765Y-111117428D01*
X149179030Y-111094329D01*
X149189520Y-111072150D01*
X149202132Y-111051107D01*
X149216747Y-111031401D01*
X149233223Y-111013223D01*
X149251401Y-110996747D01*
X149271107Y-110982132D01*
X149292150Y-110969520D01*
X149314329Y-110959030D01*
X149337428Y-110950765D01*
X149361227Y-110944804D01*
X149385495Y-110941204D01*
X149409999Y-110940000D01*
X150310001Y-110940000D01*
X150334505Y-110941204D01*
X150334505Y-110941204D01*
G37*
D16*
G04 #@! TD*
G04 #@! TO.P,R1,2*
G04 #@! TO.N,~RST*
X149860000Y-111515000D03*
D17*
G04 #@! TO.P,U1,1*
G04 #@! TO.N,~RST*
X145890000Y-109855000D03*
G04 #@! TO.P,U1,2*
G04 #@! TO.N,Net-(R5-Pad2)*
X145890000Y-111125000D03*
G04 #@! TO.P,U1,3*
G04 #@! TO.N,Net-(R6-Pad2)*
X145890000Y-112395000D03*
G04 #@! TO.P,U1,4*
G04 #@! TO.N,GND*
X145890000Y-113665000D03*
G04 #@! TO.P,U1,5*
G04 #@! TO.N,MOSI*
X138590000Y-113665000D03*
G04 #@! TO.P,U1,6*
G04 #@! TO.N,MISO*
X138590000Y-112395000D03*
G04 #@! TO.P,U1,7*
G04 #@! TO.N,SCK*
X138590000Y-111125000D03*
G04 #@! TO.P,U1,8*
G04 #@! TO.N,VDD*
X138590000Y-109855000D03*
G04 #@! TD*
D18*
G04 #@! TO.P,PIN,PIN*
G04 #@! TO.N,N/C*
X142240000Y-80010000D03*
G04 #@! TD*
D19*
G04 #@! TO.N,GND*
X132842000Y-86106000D03*
X151638000Y-86106000D03*
X141605000Y-114046000D03*
X143510000Y-109728000D03*
X140970000Y-109728000D03*
X129032000Y-108204000D03*
X154178000Y-91821000D03*
X130302000Y-104902000D03*
X153416000Y-103886000D03*
X129032000Y-115316000D03*
X136652000Y-115316000D03*
G04 #@! TO.N,P1*
X136652000Y-107569000D03*
G04 #@! TO.N,MOSI*
X140208000Y-114046000D03*
G04 #@! TO.N,MISO*
X140970000Y-111760000D03*
G04 #@! TO.N,SCK*
X143510000Y-111760000D03*
G04 #@! TO.N,Net-(R6-Pad2)*
X149098000Y-114046000D03*
G04 #@! TO.N,Net-(R5-Pad2)*
X148463000Y-111760000D03*
G04 #@! TO.N,VDD*
X131572000Y-108077000D03*
G04 #@! TO.N,P1*
X128778000Y-105664000D03*
X128778000Y-101092000D03*
X128778000Y-95504000D03*
X128778000Y-89916000D03*
X128778000Y-83312000D03*
G04 #@! TO.N,P2*
X129540000Y-106680000D03*
X129540000Y-84328000D03*
X129540000Y-96520000D03*
X129540000Y-102108000D03*
X129540000Y-90932000D03*
G04 #@! TO.N,P3*
X154178000Y-106680000D03*
X154178000Y-97536000D03*
X130302000Y-85344000D03*
X130302000Y-91948000D03*
X130302000Y-97536000D03*
X154178000Y-103124000D03*
G04 #@! TO.N,P4*
X154940000Y-83820000D03*
X154940000Y-90932000D03*
X154940000Y-96520000D03*
X154940000Y-102108000D03*
X154940000Y-105664000D03*
G04 #@! TO.N,P5*
X155702000Y-104648000D03*
X155702000Y-89916000D03*
X155702000Y-82804000D03*
X155702000Y-95504000D03*
X155702000Y-101092000D03*
G04 #@! TO.N,Net-(BT1-Pad1)*
X135890000Y-106680000D03*
G04 #@! TD*
D20*
G04 #@! TO.N,*
X142240000Y-76962000D02*
X142240000Y-80772000D01*
X149740000Y-80010000D02*
X151892000Y-82162000D01*
X142240000Y-80010000D02*
X149740000Y-80010000D01*
X151892000Y-82162000D02*
X151892000Y-83566000D01*
X133604000Y-80010000D02*
X142240000Y-80010000D01*
X132588000Y-83566000D02*
X132588000Y-80264000D01*
X132588000Y-81026000D02*
X133604000Y-80010000D01*
X132588000Y-79756000D02*
X132588000Y-76962000D01*
X142240000Y-80010000D02*
X132842000Y-80010000D01*
X132842000Y-80010000D02*
X132588000Y-79756000D01*
X151638000Y-79502000D02*
X151638000Y-76962000D01*
X142240000Y-80010000D02*
X151130000Y-80010000D01*
X151130000Y-80010000D02*
X151638000Y-79502000D01*
G04 #@! TO.N,GND*
X142240000Y-95250000D02*
X147320000Y-95250000D01*
X142240000Y-95250000D02*
X142240000Y-90170000D01*
X142240000Y-95250000D02*
X137160000Y-95250000D01*
X142240000Y-95250000D02*
X142240000Y-100330000D01*
D21*
X141986000Y-113665000D02*
X141605000Y-114046000D01*
X145890000Y-113665000D02*
X141986000Y-113665000D01*
D20*
G04 #@! TO.N,VDD*
X136906000Y-109855000D02*
X138590000Y-109855000D01*
D21*
X132080000Y-109465000D02*
X132080000Y-108077000D01*
D20*
X131572000Y-108077000D02*
X132080000Y-108077000D01*
D21*
X134620000Y-108790000D02*
X134620000Y-108077000D01*
X134620000Y-109465000D02*
X134620000Y-108790000D01*
D20*
X132080000Y-108077000D02*
X134620000Y-108077000D01*
X134620000Y-108077000D02*
X135128000Y-108077000D01*
D21*
X136906000Y-114046000D02*
X136906000Y-109855000D01*
X138176000Y-115316000D02*
X136906000Y-114046000D01*
X151384000Y-115316000D02*
X138176000Y-115316000D01*
X153162000Y-115062000D02*
X151638000Y-115062000D01*
X151638000Y-115062000D02*
X151384000Y-115316000D01*
X149860000Y-108790000D02*
X149528000Y-108458000D01*
X149860000Y-109465000D02*
X149860000Y-108790000D01*
X136779000Y-108458000D02*
X136144000Y-109093000D01*
X149528000Y-108458000D02*
X136779000Y-108458000D01*
D20*
X135128000Y-108077000D02*
X136144000Y-109093000D01*
X136144000Y-109093000D02*
X136906000Y-109855000D01*
D21*
G04 #@! TO.N,P1*
X128778000Y-101092000D02*
X128778000Y-104648000D01*
X128778000Y-95504000D02*
X128778000Y-101092000D01*
X128778000Y-89916000D02*
X128778000Y-95504000D01*
X128778000Y-104648000D02*
X128778000Y-105664000D01*
X128778000Y-83312000D02*
X128778000Y-89916000D01*
X136144000Y-107569000D02*
X136652000Y-107569000D01*
X135518039Y-107569000D02*
X136144000Y-107569000D01*
X128778000Y-106989374D02*
X129230626Y-107442000D01*
X129230626Y-107442000D02*
X129921000Y-107442000D01*
X129921000Y-107442000D02*
X130175000Y-107188000D01*
X130175000Y-107188000D02*
X135137039Y-107188000D01*
X128778000Y-105664000D02*
X128778000Y-106989374D01*
X135137039Y-107188000D02*
X135518039Y-107569000D01*
G04 #@! TO.N,P2*
X129540000Y-103632000D02*
X129540000Y-106680000D01*
X129540000Y-84328000D02*
X129540000Y-90932000D01*
X129540000Y-90932000D02*
X129540000Y-96520000D01*
X129540000Y-96520000D02*
X129540000Y-102108000D01*
X129540000Y-102108000D02*
X129540000Y-103632000D01*
X129540000Y-90932000D02*
X129540000Y-90932000D01*
G04 #@! TO.N,P3*
X154178000Y-103124000D02*
X154178000Y-103662815D01*
X154178000Y-103662815D02*
X154178000Y-106680000D01*
X154178000Y-97536000D02*
X154178000Y-103124000D01*
X130302000Y-85882815D02*
X130302000Y-91948000D01*
X130302000Y-85344000D02*
X130302000Y-85882815D01*
X130302000Y-91948000D02*
X130302000Y-92486815D01*
X130302000Y-92486815D02*
X130302000Y-97536000D01*
G04 #@! TO.N,P4*
X154940000Y-84328000D02*
X154940000Y-90932000D01*
X154940000Y-90932000D02*
X154940000Y-96520000D01*
X154940000Y-96520000D02*
X154940000Y-101346000D01*
X154940000Y-101346000D02*
X154940000Y-102108000D01*
X154940000Y-102108000D02*
X154940000Y-105664000D01*
X154940000Y-105664000D02*
X154940000Y-105664000D01*
X154940000Y-84328000D02*
X154940000Y-83820000D01*
G04 #@! TO.N,P5*
X155702000Y-104648000D02*
X155702000Y-101092000D01*
X155702000Y-89916000D02*
X155702000Y-83312000D01*
X155702000Y-95504000D02*
X155702000Y-89916000D01*
X155702000Y-101092000D02*
X155702000Y-95504000D01*
X155702000Y-83312000D02*
X155702000Y-82804000D01*
G04 #@! TO.N,MISO*
X154983882Y-115062000D02*
X155702000Y-115062000D01*
X140335000Y-112395000D02*
X140970000Y-111760000D01*
X138590000Y-112395000D02*
X140335000Y-112395000D01*
G04 #@! TO.N,SCK*
X142875000Y-111125000D02*
X143510000Y-111760000D01*
X139694000Y-111125000D02*
X139948000Y-110871000D01*
X138590000Y-111125000D02*
X139694000Y-111125000D01*
X142621000Y-110871000D02*
X142875000Y-111125000D01*
X139948000Y-110871000D02*
X142621000Y-110871000D01*
G04 #@! TO.N,MOSI*
X150876000Y-114808000D02*
X153162000Y-112522000D01*
X138590000Y-113665000D02*
X138590000Y-114460000D01*
X138590000Y-114460000D02*
X138938000Y-114808000D01*
X140208000Y-114046000D02*
X140208000Y-114808000D01*
X138938000Y-114808000D02*
X140208000Y-114808000D01*
X140208000Y-114808000D02*
X150876000Y-114808000D01*
G04 #@! TO.N,~RST*
X148200000Y-109855000D02*
X149860000Y-111515000D01*
X145890000Y-109855000D02*
X148200000Y-109855000D01*
X154432000Y-108712000D02*
X155702000Y-109982000D01*
X152663000Y-108712000D02*
X154432000Y-108712000D01*
X151638000Y-109737000D02*
X152663000Y-108712000D01*
X151638000Y-110744000D02*
X151638000Y-109737000D01*
X149860000Y-111515000D02*
X150867000Y-111515000D01*
X150867000Y-111515000D02*
X151638000Y-110744000D01*
G04 #@! TO.N,Net-(R5-Pad2)*
X147828000Y-111125000D02*
X148463000Y-111760000D01*
X145890000Y-111125000D02*
X147828000Y-111125000D01*
G04 #@! TO.N,Net-(R6-Pad2)*
X147447000Y-112395000D02*
X149098000Y-114046000D01*
X145890000Y-112395000D02*
X147447000Y-112395000D01*
D20*
G04 #@! TO.N,Net-(BT1-Pad1)*
X142240000Y-84265000D02*
X137859000Y-84265000D01*
X142240000Y-84265000D02*
X142240000Y-83058000D01*
X142240000Y-106235000D02*
X142240000Y-107442000D01*
X148273000Y-84265000D02*
X142240000Y-84265000D01*
X153162000Y-89154000D02*
X148273000Y-84265000D01*
X153162000Y-101346000D02*
X153162000Y-89154000D01*
X142240000Y-106235000D02*
X148273000Y-106235000D01*
X148273000Y-106235000D02*
X153162000Y-101346000D01*
X136335000Y-106235000D02*
X135890000Y-106680000D01*
X142240000Y-106235000D02*
X136335000Y-106235000D01*
G04 #@! TD*
D21*
G04 #@! TO.N,GND*
G36*
X131989844Y-76714235D02*
X131953001Y-76899459D01*
X131953001Y-77253742D01*
X131881106Y-77361341D01*
X131851536Y-77510000D01*
X131851536Y-82510000D01*
X131881106Y-82658659D01*
X131953000Y-82766257D01*
X131953000Y-83628540D01*
X131989843Y-83813764D01*
X132130191Y-84023809D01*
X132340235Y-84164157D01*
X132588000Y-84213440D01*
X132835764Y-84164157D01*
X133045809Y-84023809D01*
X133186157Y-83813765D01*
X133223000Y-83628541D01*
X133223000Y-82898464D01*
X141624294Y-82898464D01*
X141605001Y-82995459D01*
X141605001Y-83241536D01*
X139700000Y-83241536D01*
X139551341Y-83271106D01*
X139425314Y-83355314D01*
X139341106Y-83481341D01*
X139311536Y-83630000D01*
X137796459Y-83630000D01*
X137611235Y-83666843D01*
X137401191Y-83807191D01*
X137260843Y-84017235D01*
X137211560Y-84265000D01*
X137260843Y-84512765D01*
X137401191Y-84722809D01*
X137611235Y-84863157D01*
X137796459Y-84900000D01*
X139311536Y-84900000D01*
X139341106Y-85048659D01*
X139425314Y-85174686D01*
X139551341Y-85258894D01*
X139700000Y-85288464D01*
X144780000Y-85288464D01*
X144928659Y-85258894D01*
X145054686Y-85174686D01*
X145138894Y-85048659D01*
X145168464Y-84900000D01*
X148009976Y-84900000D01*
X152527001Y-89417026D01*
X152527000Y-101082975D01*
X148009976Y-105600000D01*
X145168464Y-105600000D01*
X145138894Y-105451341D01*
X145054686Y-105325314D01*
X144928659Y-105241106D01*
X144780000Y-105211536D01*
X139700000Y-105211536D01*
X139551341Y-105241106D01*
X139425314Y-105325314D01*
X139341106Y-105451341D01*
X139311536Y-105600000D01*
X136397536Y-105600000D01*
X136334999Y-105587561D01*
X136272462Y-105600000D01*
X136272459Y-105600000D01*
X136087235Y-105636843D01*
X135877191Y-105777191D01*
X135841764Y-105830211D01*
X135694569Y-105977406D01*
X135479944Y-106066307D01*
X135276307Y-106269944D01*
X135166100Y-106536007D01*
X135166100Y-106675830D01*
X135137039Y-106670049D01*
X135087011Y-106680000D01*
X130263900Y-106680000D01*
X130263900Y-106536007D01*
X130153693Y-106269944D01*
X130048000Y-106164251D01*
X130048000Y-102623749D01*
X130153693Y-102518056D01*
X130263900Y-102251993D01*
X130263900Y-101964007D01*
X130153693Y-101697944D01*
X130048000Y-101592251D01*
X130048000Y-98214334D01*
X130158007Y-98259900D01*
X130445993Y-98259900D01*
X130712056Y-98149693D01*
X130915693Y-97946056D01*
X131025900Y-97679993D01*
X131025900Y-97392007D01*
X130915693Y-97125944D01*
X130810000Y-97020251D01*
X130810000Y-92964000D01*
X138557000Y-92964000D01*
X138557000Y-97536000D01*
X138566667Y-97584601D01*
X138594197Y-97625803D01*
X139864197Y-98895803D01*
X139905399Y-98923333D01*
X139954000Y-98933000D01*
X144526000Y-98933000D01*
X144574601Y-98923333D01*
X144615803Y-98895803D01*
X145885803Y-97625803D01*
X145913333Y-97584601D01*
X145923000Y-97536000D01*
X145923000Y-92964000D01*
X145913333Y-92915399D01*
X145885803Y-92874197D01*
X144615803Y-91604197D01*
X144574601Y-91576667D01*
X144526000Y-91567000D01*
X139954000Y-91567000D01*
X139905399Y-91576667D01*
X139864197Y-91604197D01*
X138594197Y-92874197D01*
X138566667Y-92915399D01*
X138557000Y-92964000D01*
X130810000Y-92964000D01*
X130810000Y-92463749D01*
X130915693Y-92358056D01*
X131025900Y-92091993D01*
X131025900Y-91804007D01*
X130915693Y-91537944D01*
X130810000Y-91432251D01*
X130810000Y-85859749D01*
X130915693Y-85754056D01*
X131025900Y-85487993D01*
X131025900Y-85200007D01*
X130915693Y-84933944D01*
X130712056Y-84730307D01*
X130445993Y-84620100D01*
X130202552Y-84620100D01*
X130263900Y-84471993D01*
X130263900Y-84184007D01*
X130153693Y-83917944D01*
X129950056Y-83714307D01*
X129683993Y-83604100D01*
X129440552Y-83604100D01*
X129501900Y-83455993D01*
X129501900Y-83168007D01*
X129391693Y-82901944D01*
X129188056Y-82698307D01*
X128921993Y-82588100D01*
X128634007Y-82588100D01*
X128367944Y-82698307D01*
X128164307Y-82901944D01*
X128054100Y-83168007D01*
X128054100Y-83455993D01*
X128164307Y-83722056D01*
X128270000Y-83827749D01*
X128270001Y-89400250D01*
X128164307Y-89505944D01*
X128054100Y-89772007D01*
X128054100Y-90059993D01*
X128164307Y-90326056D01*
X128270000Y-90431749D01*
X128270001Y-94988250D01*
X128164307Y-95093944D01*
X128054100Y-95360007D01*
X128054100Y-95647993D01*
X128164307Y-95914056D01*
X128270000Y-96019749D01*
X128270001Y-100576250D01*
X128164307Y-100681944D01*
X128054100Y-100948007D01*
X128054100Y-101235993D01*
X128164307Y-101502056D01*
X128270000Y-101607749D01*
X128270001Y-104597964D01*
X128270000Y-104597969D01*
X128270000Y-105148251D01*
X128164307Y-105253944D01*
X128054100Y-105520007D01*
X128054100Y-105807993D01*
X128164307Y-106074056D01*
X128270000Y-106179749D01*
X128270001Y-106939341D01*
X128260049Y-106989374D01*
X128299475Y-107187585D01*
X128383412Y-107313206D01*
X128383415Y-107313209D01*
X128411754Y-107355621D01*
X128454165Y-107383960D01*
X128836040Y-107765835D01*
X128864379Y-107808247D01*
X128906791Y-107836586D01*
X128906793Y-107836588D01*
X129001410Y-107899809D01*
X129032414Y-107920525D01*
X129180594Y-107950000D01*
X129180598Y-107950000D01*
X129230626Y-107959951D01*
X129280654Y-107950000D01*
X129870972Y-107950000D01*
X129921000Y-107959951D01*
X129971028Y-107950000D01*
X129971032Y-107950000D01*
X130119212Y-107920525D01*
X130287247Y-107808247D01*
X130315588Y-107765832D01*
X130385420Y-107696000D01*
X130946272Y-107696000D01*
X130848100Y-107933007D01*
X130848100Y-108220993D01*
X130958307Y-108487056D01*
X131161944Y-108690693D01*
X131173812Y-108695609D01*
X131040136Y-108895670D01*
X130991536Y-109139999D01*
X130991536Y-109790001D01*
X131040136Y-110034330D01*
X131178537Y-110241463D01*
X131385670Y-110379864D01*
X131629999Y-110428464D01*
X132530001Y-110428464D01*
X132774330Y-110379864D01*
X132981463Y-110241463D01*
X133119864Y-110034330D01*
X133168464Y-109790001D01*
X133168464Y-109139999D01*
X133119864Y-108895670D01*
X132997140Y-108712000D01*
X133702860Y-108712000D01*
X133580136Y-108895670D01*
X133531536Y-109139999D01*
X133531536Y-109790001D01*
X133580136Y-110034330D01*
X133718537Y-110241463D01*
X133925670Y-110379864D01*
X134169999Y-110428464D01*
X135070001Y-110428464D01*
X135314330Y-110379864D01*
X135521463Y-110241463D01*
X135659864Y-110034330D01*
X135708464Y-109790001D01*
X135708464Y-109555489D01*
X135739212Y-109586237D01*
X136398001Y-110245027D01*
X136398000Y-113995972D01*
X136388049Y-114046000D01*
X136398000Y-114096028D01*
X136398000Y-114096031D01*
X136419838Y-114205819D01*
X136427475Y-114244211D01*
X136484447Y-114329475D01*
X136539753Y-114412247D01*
X136582168Y-114440588D01*
X137781414Y-115639835D01*
X137809753Y-115682247D01*
X137852165Y-115710586D01*
X137852167Y-115710588D01*
X137959215Y-115782115D01*
X137977788Y-115794525D01*
X138125968Y-115824000D01*
X138125971Y-115824000D01*
X138175999Y-115833951D01*
X138226027Y-115824000D01*
X151333972Y-115824000D01*
X151384000Y-115833951D01*
X151434028Y-115824000D01*
X151434032Y-115824000D01*
X151582212Y-115794525D01*
X151750247Y-115682247D01*
X151778588Y-115639832D01*
X151848420Y-115570000D01*
X152020925Y-115570000D01*
X152274499Y-115949501D01*
X152681688Y-116221576D01*
X153040761Y-116293000D01*
X153283239Y-116293000D01*
X153642312Y-116221576D01*
X154049501Y-115949501D01*
X154321576Y-115542312D01*
X154417116Y-115062000D01*
X154321576Y-114581688D01*
X154049501Y-114174499D01*
X153642312Y-113902424D01*
X153283239Y-113831000D01*
X153040761Y-113831000D01*
X152681688Y-113902424D01*
X152274499Y-114174499D01*
X152020925Y-114554000D01*
X151848420Y-114554000D01*
X152714348Y-113688073D01*
X153040761Y-113753000D01*
X153283239Y-113753000D01*
X153642312Y-113681576D01*
X154049501Y-113409501D01*
X154321576Y-113002312D01*
X154417116Y-112522000D01*
X154446884Y-112522000D01*
X154542424Y-113002312D01*
X154814499Y-113409501D01*
X155221688Y-113681576D01*
X155580761Y-113753000D01*
X155823239Y-113753000D01*
X156182312Y-113681576D01*
X156589501Y-113409501D01*
X156861576Y-113002312D01*
X156957116Y-112522000D01*
X156861576Y-112041688D01*
X156589501Y-111634499D01*
X156182312Y-111362424D01*
X155823239Y-111291000D01*
X155580761Y-111291000D01*
X155221688Y-111362424D01*
X154814499Y-111634499D01*
X154542424Y-112041688D01*
X154446884Y-112522000D01*
X154417116Y-112522000D01*
X154321576Y-112041688D01*
X154049501Y-111634499D01*
X153642312Y-111362424D01*
X153283239Y-111291000D01*
X153040761Y-111291000D01*
X152681688Y-111362424D01*
X152274499Y-111634499D01*
X152002424Y-112041688D01*
X151906884Y-112522000D01*
X151995927Y-112969652D01*
X150665580Y-114300000D01*
X149776334Y-114300000D01*
X149821900Y-114189993D01*
X149821900Y-113902007D01*
X149711693Y-113635944D01*
X149508056Y-113432307D01*
X149241993Y-113322100D01*
X149092520Y-113322100D01*
X148208579Y-112438159D01*
X148319007Y-112483900D01*
X148606993Y-112483900D01*
X148873056Y-112373693D01*
X148957235Y-112289514D01*
X148958537Y-112291463D01*
X149165670Y-112429864D01*
X149409999Y-112478464D01*
X150310001Y-112478464D01*
X150554330Y-112429864D01*
X150761463Y-112291463D01*
X150899864Y-112084330D01*
X150911859Y-112024028D01*
X150917028Y-112023000D01*
X150917032Y-112023000D01*
X151065212Y-111993525D01*
X151233247Y-111881247D01*
X151261588Y-111838832D01*
X151961835Y-111138585D01*
X152004247Y-111110247D01*
X152032586Y-111067835D01*
X152032588Y-111067833D01*
X152076098Y-111002714D01*
X152116525Y-110942212D01*
X152146000Y-110794032D01*
X152146000Y-110794028D01*
X152155951Y-110744000D01*
X152146000Y-110693972D01*
X152146000Y-110654962D01*
X152413944Y-110959652D01*
X152845018Y-111171501D01*
X153035000Y-111111193D01*
X153035000Y-110109000D01*
X153289000Y-110109000D01*
X153289000Y-111111193D01*
X153478982Y-111171501D01*
X153910056Y-110959652D01*
X154227245Y-110598964D01*
X154351489Y-110298980D01*
X154290627Y-110109000D01*
X153289000Y-110109000D01*
X153035000Y-110109000D01*
X153015000Y-110109000D01*
X153015000Y-109855000D01*
X153035000Y-109855000D01*
X153035000Y-109835000D01*
X153289000Y-109835000D01*
X153289000Y-109855000D01*
X154290627Y-109855000D01*
X154351489Y-109665020D01*
X154227245Y-109365036D01*
X154099700Y-109220000D01*
X154221580Y-109220000D01*
X154535928Y-109534348D01*
X154446884Y-109982000D01*
X154542424Y-110462312D01*
X154814499Y-110869501D01*
X155221688Y-111141576D01*
X155580761Y-111213000D01*
X155823239Y-111213000D01*
X156182312Y-111141576D01*
X156589501Y-110869501D01*
X156861576Y-110462312D01*
X156957116Y-109982000D01*
X156861576Y-109501688D01*
X156589501Y-109094499D01*
X156182312Y-108822424D01*
X155823239Y-108751000D01*
X155580761Y-108751000D01*
X155254348Y-108815928D01*
X154826588Y-108388168D01*
X154798247Y-108345753D01*
X154630212Y-108233475D01*
X154482032Y-108204000D01*
X154482028Y-108204000D01*
X154432000Y-108194049D01*
X154381972Y-108204000D01*
X152713028Y-108204000D01*
X152663000Y-108194049D01*
X152612972Y-108204000D01*
X152612968Y-108204000D01*
X152464788Y-108233475D01*
X152339167Y-108317412D01*
X152339165Y-108317414D01*
X152296753Y-108345753D01*
X152268414Y-108388165D01*
X151314166Y-109342414D01*
X151271754Y-109370753D01*
X151243415Y-109413165D01*
X151243412Y-109413168D01*
X151159475Y-109538789D01*
X151120049Y-109737000D01*
X151130001Y-109787032D01*
X151130000Y-110533579D01*
X150826984Y-110836596D01*
X150761463Y-110738537D01*
X150554330Y-110600136D01*
X150310001Y-110551536D01*
X149614956Y-110551536D01*
X149491884Y-110428464D01*
X150310001Y-110428464D01*
X150554330Y-110379864D01*
X150761463Y-110241463D01*
X150899864Y-110034330D01*
X150948464Y-109790001D01*
X150948464Y-109139999D01*
X150899864Y-108895670D01*
X150761463Y-108688537D01*
X150554330Y-108550136D01*
X150310001Y-108501536D01*
X150278221Y-108501536D01*
X150254588Y-108466167D01*
X150254586Y-108466165D01*
X150226247Y-108423753D01*
X150183835Y-108395414D01*
X149922587Y-108134167D01*
X149894247Y-108091753D01*
X149726212Y-107979475D01*
X149578032Y-107950000D01*
X149578028Y-107950000D01*
X149528000Y-107940049D01*
X149477972Y-107950000D01*
X142622693Y-107950000D01*
X142697809Y-107899809D01*
X142838157Y-107689765D01*
X142875000Y-107504541D01*
X142875000Y-107258464D01*
X144780000Y-107258464D01*
X144928659Y-107228894D01*
X145054686Y-107144686D01*
X145138894Y-107018659D01*
X145168464Y-106870000D01*
X148210463Y-106870000D01*
X148273000Y-106882439D01*
X148335537Y-106870000D01*
X148335541Y-106870000D01*
X148520765Y-106833157D01*
X148730809Y-106692809D01*
X148766238Y-106639786D01*
X153566789Y-101839236D01*
X153619809Y-101803809D01*
X153670001Y-101728692D01*
X153670001Y-102608250D01*
X153564307Y-102713944D01*
X153454100Y-102980007D01*
X153454100Y-103267993D01*
X153564307Y-103534056D01*
X153670000Y-103639749D01*
X153670001Y-106164250D01*
X153564307Y-106269944D01*
X153454100Y-106536007D01*
X153454100Y-106823993D01*
X153564307Y-107090056D01*
X153767944Y-107293693D01*
X154034007Y-107403900D01*
X154321993Y-107403900D01*
X154588056Y-107293693D01*
X154791693Y-107090056D01*
X154901900Y-106823993D01*
X154901900Y-106536007D01*
X154840552Y-106387900D01*
X155083993Y-106387900D01*
X155350056Y-106277693D01*
X155553693Y-106074056D01*
X155663900Y-105807993D01*
X155663900Y-105520007D01*
X155602552Y-105371900D01*
X155845993Y-105371900D01*
X156112056Y-105261693D01*
X156315693Y-105058056D01*
X156425900Y-104791993D01*
X156425900Y-104504007D01*
X156315693Y-104237944D01*
X156210000Y-104132251D01*
X156210000Y-101607749D01*
X156315693Y-101502056D01*
X156425900Y-101235993D01*
X156425900Y-100948007D01*
X156315693Y-100681944D01*
X156210000Y-100576251D01*
X156210000Y-96019749D01*
X156315693Y-95914056D01*
X156425900Y-95647993D01*
X156425900Y-95360007D01*
X156315693Y-95093944D01*
X156210000Y-94988251D01*
X156210000Y-90431749D01*
X156315693Y-90326056D01*
X156425900Y-90059993D01*
X156425900Y-89772007D01*
X156315693Y-89505944D01*
X156210000Y-89400251D01*
X156210000Y-83319749D01*
X156315693Y-83214056D01*
X156425900Y-82947993D01*
X156425900Y-82660007D01*
X156315693Y-82393944D01*
X156112056Y-82190307D01*
X155845993Y-82080100D01*
X155558007Y-82080100D01*
X155291944Y-82190307D01*
X155088307Y-82393944D01*
X154978100Y-82660007D01*
X154978100Y-82947993D01*
X155039448Y-83096100D01*
X154796007Y-83096100D01*
X154529944Y-83206307D01*
X154326307Y-83409944D01*
X154216100Y-83676007D01*
X154216100Y-83963993D01*
X154326307Y-84230056D01*
X154432000Y-84335749D01*
X154432001Y-90416250D01*
X154326307Y-90521944D01*
X154216100Y-90788007D01*
X154216100Y-91075993D01*
X154326307Y-91342056D01*
X154432000Y-91447749D01*
X154432001Y-96004250D01*
X154326307Y-96109944D01*
X154216100Y-96376007D01*
X154216100Y-96663993D01*
X154277448Y-96812100D01*
X154034007Y-96812100D01*
X153797000Y-96910272D01*
X153797000Y-89216536D01*
X153809439Y-89153999D01*
X153797000Y-89091462D01*
X153797000Y-89091459D01*
X153760157Y-88906235D01*
X153619809Y-88696191D01*
X153566789Y-88660764D01*
X148766238Y-83860214D01*
X148730809Y-83807191D01*
X148520765Y-83666843D01*
X148335541Y-83630000D01*
X148335537Y-83630000D01*
X148273000Y-83617561D01*
X148210463Y-83630000D01*
X145168464Y-83630000D01*
X145138894Y-83481341D01*
X145054686Y-83355314D01*
X144928659Y-83271106D01*
X144780000Y-83241536D01*
X142875000Y-83241536D01*
X142875000Y-82995459D01*
X142855707Y-82898464D01*
X151257001Y-82898464D01*
X151257001Y-83628541D01*
X151293844Y-83813765D01*
X151434192Y-84023809D01*
X151644236Y-84164157D01*
X151892000Y-84213440D01*
X152139765Y-84164157D01*
X152349809Y-84023809D01*
X152490157Y-83813765D01*
X152527000Y-83628541D01*
X152527000Y-82766257D01*
X152598894Y-82658659D01*
X152628464Y-82510000D01*
X152628464Y-78345955D01*
X152959000Y-78345955D01*
X152959000Y-79134045D01*
X153260589Y-79862146D01*
X153817854Y-80419411D01*
X154545955Y-80721000D01*
X155334045Y-80721000D01*
X156062146Y-80419411D01*
X156619411Y-79862146D01*
X156921000Y-79134045D01*
X156921000Y-78345955D01*
X156619411Y-77617854D01*
X156062146Y-77060589D01*
X155334045Y-76759000D01*
X154545955Y-76759000D01*
X153817854Y-77060589D01*
X153260589Y-77617854D01*
X152959000Y-78345955D01*
X152628464Y-78345955D01*
X152628464Y-77510000D01*
X152598894Y-77361341D01*
X152514686Y-77235314D01*
X152388659Y-77151106D01*
X152273000Y-77128100D01*
X152273000Y-76899459D01*
X152236157Y-76714235D01*
X152189561Y-76644500D01*
X156171112Y-76644500D01*
X156489991Y-76700727D01*
X156736213Y-76842884D01*
X156918966Y-77060680D01*
X157022997Y-77346503D01*
X157035500Y-77489412D01*
X157035501Y-115531107D01*
X156979273Y-115849991D01*
X156938883Y-115919950D01*
X156940464Y-115912000D01*
X156940464Y-114212000D01*
X156910894Y-114063341D01*
X156826686Y-113937314D01*
X156700659Y-113853106D01*
X156552000Y-113823536D01*
X154852000Y-113823536D01*
X154703341Y-113853106D01*
X154577314Y-113937314D01*
X154493106Y-114063341D01*
X154463536Y-114212000D01*
X154463536Y-115912000D01*
X154493106Y-116060659D01*
X154577314Y-116186686D01*
X154703341Y-116270894D01*
X154852000Y-116300464D01*
X156552000Y-116300464D01*
X156570204Y-116296843D01*
X156333498Y-116382997D01*
X156190588Y-116395500D01*
X135373000Y-116395500D01*
X135373000Y-114034000D01*
X130311000Y-114034000D01*
X130311000Y-116395500D01*
X128308888Y-116395500D01*
X127990009Y-116339273D01*
X127743787Y-116197116D01*
X127561034Y-115979320D01*
X127457003Y-115693498D01*
X127444500Y-115550588D01*
X127444500Y-111737250D01*
X130999000Y-111737250D01*
X130999000Y-112165786D01*
X131057004Y-112305820D01*
X131164181Y-112412996D01*
X131304215Y-112471000D01*
X131857750Y-112471000D01*
X131953000Y-112375750D01*
X131953000Y-111642000D01*
X132207000Y-111642000D01*
X132207000Y-112375750D01*
X132302250Y-112471000D01*
X132855785Y-112471000D01*
X132995819Y-112412996D01*
X133102996Y-112305820D01*
X133161000Y-112165786D01*
X133161000Y-111737250D01*
X133539000Y-111737250D01*
X133539000Y-112165786D01*
X133597004Y-112305820D01*
X133704181Y-112412996D01*
X133844215Y-112471000D01*
X134397750Y-112471000D01*
X134493000Y-112375750D01*
X134493000Y-111642000D01*
X134747000Y-111642000D01*
X134747000Y-112375750D01*
X134842250Y-112471000D01*
X135395785Y-112471000D01*
X135535819Y-112412996D01*
X135642996Y-112305820D01*
X135701000Y-112165786D01*
X135701000Y-111737250D01*
X135605750Y-111642000D01*
X134747000Y-111642000D01*
X134493000Y-111642000D01*
X133634250Y-111642000D01*
X133539000Y-111737250D01*
X133161000Y-111737250D01*
X133065750Y-111642000D01*
X132207000Y-111642000D01*
X131953000Y-111642000D01*
X131094250Y-111642000D01*
X130999000Y-111737250D01*
X127444500Y-111737250D01*
X127444500Y-110864214D01*
X130999000Y-110864214D01*
X130999000Y-111292750D01*
X131094250Y-111388000D01*
X131953000Y-111388000D01*
X131953000Y-110654250D01*
X132207000Y-110654250D01*
X132207000Y-111388000D01*
X133065750Y-111388000D01*
X133161000Y-111292750D01*
X133161000Y-110864214D01*
X133539000Y-110864214D01*
X133539000Y-111292750D01*
X133634250Y-111388000D01*
X134493000Y-111388000D01*
X134493000Y-110654250D01*
X134747000Y-110654250D01*
X134747000Y-111388000D01*
X135605750Y-111388000D01*
X135701000Y-111292750D01*
X135701000Y-110864214D01*
X135642996Y-110724180D01*
X135535819Y-110617004D01*
X135395785Y-110559000D01*
X134842250Y-110559000D01*
X134747000Y-110654250D01*
X134493000Y-110654250D01*
X134397750Y-110559000D01*
X133844215Y-110559000D01*
X133704181Y-110617004D01*
X133597004Y-110724180D01*
X133539000Y-110864214D01*
X133161000Y-110864214D01*
X133102996Y-110724180D01*
X132995819Y-110617004D01*
X132855785Y-110559000D01*
X132302250Y-110559000D01*
X132207000Y-110654250D01*
X131953000Y-110654250D01*
X131857750Y-110559000D01*
X131304215Y-110559000D01*
X131164181Y-110617004D01*
X131057004Y-110724180D01*
X130999000Y-110864214D01*
X127444500Y-110864214D01*
X127444500Y-78345955D01*
X127559000Y-78345955D01*
X127559000Y-79134045D01*
X127860589Y-79862146D01*
X128417854Y-80419411D01*
X129145955Y-80721000D01*
X129934045Y-80721000D01*
X130662146Y-80419411D01*
X131219411Y-79862146D01*
X131521000Y-79134045D01*
X131521000Y-78345955D01*
X131219411Y-77617854D01*
X130662146Y-77060589D01*
X129934045Y-76759000D01*
X129145955Y-76759000D01*
X128417854Y-77060589D01*
X127860589Y-77617854D01*
X127559000Y-78345955D01*
X127444500Y-78345955D01*
X127444500Y-77508888D01*
X127500727Y-77190009D01*
X127642884Y-76943787D01*
X127860680Y-76761034D01*
X128146503Y-76657003D01*
X128289412Y-76644500D01*
X132036440Y-76644500D01*
X131989844Y-76714235D01*
X131989844Y-76714235D01*
G37*
X131989844Y-76714235D02*
X131953001Y-76899459D01*
X131953001Y-77253742D01*
X131881106Y-77361341D01*
X131851536Y-77510000D01*
X131851536Y-82510000D01*
X131881106Y-82658659D01*
X131953000Y-82766257D01*
X131953000Y-83628540D01*
X131989843Y-83813764D01*
X132130191Y-84023809D01*
X132340235Y-84164157D01*
X132588000Y-84213440D01*
X132835764Y-84164157D01*
X133045809Y-84023809D01*
X133186157Y-83813765D01*
X133223000Y-83628541D01*
X133223000Y-82898464D01*
X141624294Y-82898464D01*
X141605001Y-82995459D01*
X141605001Y-83241536D01*
X139700000Y-83241536D01*
X139551341Y-83271106D01*
X139425314Y-83355314D01*
X139341106Y-83481341D01*
X139311536Y-83630000D01*
X137796459Y-83630000D01*
X137611235Y-83666843D01*
X137401191Y-83807191D01*
X137260843Y-84017235D01*
X137211560Y-84265000D01*
X137260843Y-84512765D01*
X137401191Y-84722809D01*
X137611235Y-84863157D01*
X137796459Y-84900000D01*
X139311536Y-84900000D01*
X139341106Y-85048659D01*
X139425314Y-85174686D01*
X139551341Y-85258894D01*
X139700000Y-85288464D01*
X144780000Y-85288464D01*
X144928659Y-85258894D01*
X145054686Y-85174686D01*
X145138894Y-85048659D01*
X145168464Y-84900000D01*
X148009976Y-84900000D01*
X152527001Y-89417026D01*
X152527000Y-101082975D01*
X148009976Y-105600000D01*
X145168464Y-105600000D01*
X145138894Y-105451341D01*
X145054686Y-105325314D01*
X144928659Y-105241106D01*
X144780000Y-105211536D01*
X139700000Y-105211536D01*
X139551341Y-105241106D01*
X139425314Y-105325314D01*
X139341106Y-105451341D01*
X139311536Y-105600000D01*
X136397536Y-105600000D01*
X136334999Y-105587561D01*
X136272462Y-105600000D01*
X136272459Y-105600000D01*
X136087235Y-105636843D01*
X135877191Y-105777191D01*
X135841764Y-105830211D01*
X135694569Y-105977406D01*
X135479944Y-106066307D01*
X135276307Y-106269944D01*
X135166100Y-106536007D01*
X135166100Y-106675830D01*
X135137039Y-106670049D01*
X135087011Y-106680000D01*
X130263900Y-106680000D01*
X130263900Y-106536007D01*
X130153693Y-106269944D01*
X130048000Y-106164251D01*
X130048000Y-102623749D01*
X130153693Y-102518056D01*
X130263900Y-102251993D01*
X130263900Y-101964007D01*
X130153693Y-101697944D01*
X130048000Y-101592251D01*
X130048000Y-98214334D01*
X130158007Y-98259900D01*
X130445993Y-98259900D01*
X130712056Y-98149693D01*
X130915693Y-97946056D01*
X131025900Y-97679993D01*
X131025900Y-97392007D01*
X130915693Y-97125944D01*
X130810000Y-97020251D01*
X130810000Y-92964000D01*
X138557000Y-92964000D01*
X138557000Y-97536000D01*
X138566667Y-97584601D01*
X138594197Y-97625803D01*
X139864197Y-98895803D01*
X139905399Y-98923333D01*
X139954000Y-98933000D01*
X144526000Y-98933000D01*
X144574601Y-98923333D01*
X144615803Y-98895803D01*
X145885803Y-97625803D01*
X145913333Y-97584601D01*
X145923000Y-97536000D01*
X145923000Y-92964000D01*
X145913333Y-92915399D01*
X145885803Y-92874197D01*
X144615803Y-91604197D01*
X144574601Y-91576667D01*
X144526000Y-91567000D01*
X139954000Y-91567000D01*
X139905399Y-91576667D01*
X139864197Y-91604197D01*
X138594197Y-92874197D01*
X138566667Y-92915399D01*
X138557000Y-92964000D01*
X130810000Y-92964000D01*
X130810000Y-92463749D01*
X130915693Y-92358056D01*
X131025900Y-92091993D01*
X131025900Y-91804007D01*
X130915693Y-91537944D01*
X130810000Y-91432251D01*
X130810000Y-85859749D01*
X130915693Y-85754056D01*
X131025900Y-85487993D01*
X131025900Y-85200007D01*
X130915693Y-84933944D01*
X130712056Y-84730307D01*
X130445993Y-84620100D01*
X130202552Y-84620100D01*
X130263900Y-84471993D01*
X130263900Y-84184007D01*
X130153693Y-83917944D01*
X129950056Y-83714307D01*
X129683993Y-83604100D01*
X129440552Y-83604100D01*
X129501900Y-83455993D01*
X129501900Y-83168007D01*
X129391693Y-82901944D01*
X129188056Y-82698307D01*
X128921993Y-82588100D01*
X128634007Y-82588100D01*
X128367944Y-82698307D01*
X128164307Y-82901944D01*
X128054100Y-83168007D01*
X128054100Y-83455993D01*
X128164307Y-83722056D01*
X128270000Y-83827749D01*
X128270001Y-89400250D01*
X128164307Y-89505944D01*
X128054100Y-89772007D01*
X128054100Y-90059993D01*
X128164307Y-90326056D01*
X128270000Y-90431749D01*
X128270001Y-94988250D01*
X128164307Y-95093944D01*
X128054100Y-95360007D01*
X128054100Y-95647993D01*
X128164307Y-95914056D01*
X128270000Y-96019749D01*
X128270001Y-100576250D01*
X128164307Y-100681944D01*
X128054100Y-100948007D01*
X128054100Y-101235993D01*
X128164307Y-101502056D01*
X128270000Y-101607749D01*
X128270001Y-104597964D01*
X128270000Y-104597969D01*
X128270000Y-105148251D01*
X128164307Y-105253944D01*
X128054100Y-105520007D01*
X128054100Y-105807993D01*
X128164307Y-106074056D01*
X128270000Y-106179749D01*
X128270001Y-106939341D01*
X128260049Y-106989374D01*
X128299475Y-107187585D01*
X128383412Y-107313206D01*
X128383415Y-107313209D01*
X128411754Y-107355621D01*
X128454165Y-107383960D01*
X128836040Y-107765835D01*
X128864379Y-107808247D01*
X128906791Y-107836586D01*
X128906793Y-107836588D01*
X129001410Y-107899809D01*
X129032414Y-107920525D01*
X129180594Y-107950000D01*
X129180598Y-107950000D01*
X129230626Y-107959951D01*
X129280654Y-107950000D01*
X129870972Y-107950000D01*
X129921000Y-107959951D01*
X129971028Y-107950000D01*
X129971032Y-107950000D01*
X130119212Y-107920525D01*
X130287247Y-107808247D01*
X130315588Y-107765832D01*
X130385420Y-107696000D01*
X130946272Y-107696000D01*
X130848100Y-107933007D01*
X130848100Y-108220993D01*
X130958307Y-108487056D01*
X131161944Y-108690693D01*
X131173812Y-108695609D01*
X131040136Y-108895670D01*
X130991536Y-109139999D01*
X130991536Y-109790001D01*
X131040136Y-110034330D01*
X131178537Y-110241463D01*
X131385670Y-110379864D01*
X131629999Y-110428464D01*
X132530001Y-110428464D01*
X132774330Y-110379864D01*
X132981463Y-110241463D01*
X133119864Y-110034330D01*
X133168464Y-109790001D01*
X133168464Y-109139999D01*
X133119864Y-108895670D01*
X132997140Y-108712000D01*
X133702860Y-108712000D01*
X133580136Y-108895670D01*
X133531536Y-109139999D01*
X133531536Y-109790001D01*
X133580136Y-110034330D01*
X133718537Y-110241463D01*
X133925670Y-110379864D01*
X134169999Y-110428464D01*
X135070001Y-110428464D01*
X135314330Y-110379864D01*
X135521463Y-110241463D01*
X135659864Y-110034330D01*
X135708464Y-109790001D01*
X135708464Y-109555489D01*
X135739212Y-109586237D01*
X136398001Y-110245027D01*
X136398000Y-113995972D01*
X136388049Y-114046000D01*
X136398000Y-114096028D01*
X136398000Y-114096031D01*
X136419838Y-114205819D01*
X136427475Y-114244211D01*
X136484447Y-114329475D01*
X136539753Y-114412247D01*
X136582168Y-114440588D01*
X137781414Y-115639835D01*
X137809753Y-115682247D01*
X137852165Y-115710586D01*
X137852167Y-115710588D01*
X137959215Y-115782115D01*
X137977788Y-115794525D01*
X138125968Y-115824000D01*
X138125971Y-115824000D01*
X138175999Y-115833951D01*
X138226027Y-115824000D01*
X151333972Y-115824000D01*
X151384000Y-115833951D01*
X151434028Y-115824000D01*
X151434032Y-115824000D01*
X151582212Y-115794525D01*
X151750247Y-115682247D01*
X151778588Y-115639832D01*
X151848420Y-115570000D01*
X152020925Y-115570000D01*
X152274499Y-115949501D01*
X152681688Y-116221576D01*
X153040761Y-116293000D01*
X153283239Y-116293000D01*
X153642312Y-116221576D01*
X154049501Y-115949501D01*
X154321576Y-115542312D01*
X154417116Y-115062000D01*
X154321576Y-114581688D01*
X154049501Y-114174499D01*
X153642312Y-113902424D01*
X153283239Y-113831000D01*
X153040761Y-113831000D01*
X152681688Y-113902424D01*
X152274499Y-114174499D01*
X152020925Y-114554000D01*
X151848420Y-114554000D01*
X152714348Y-113688073D01*
X153040761Y-113753000D01*
X153283239Y-113753000D01*
X153642312Y-113681576D01*
X154049501Y-113409501D01*
X154321576Y-113002312D01*
X154417116Y-112522000D01*
X154446884Y-112522000D01*
X154542424Y-113002312D01*
X154814499Y-113409501D01*
X155221688Y-113681576D01*
X155580761Y-113753000D01*
X155823239Y-113753000D01*
X156182312Y-113681576D01*
X156589501Y-113409501D01*
X156861576Y-113002312D01*
X156957116Y-112522000D01*
X156861576Y-112041688D01*
X156589501Y-111634499D01*
X156182312Y-111362424D01*
X155823239Y-111291000D01*
X155580761Y-111291000D01*
X155221688Y-111362424D01*
X154814499Y-111634499D01*
X154542424Y-112041688D01*
X154446884Y-112522000D01*
X154417116Y-112522000D01*
X154321576Y-112041688D01*
X154049501Y-111634499D01*
X153642312Y-111362424D01*
X153283239Y-111291000D01*
X153040761Y-111291000D01*
X152681688Y-111362424D01*
X152274499Y-111634499D01*
X152002424Y-112041688D01*
X151906884Y-112522000D01*
X151995927Y-112969652D01*
X150665580Y-114300000D01*
X149776334Y-114300000D01*
X149821900Y-114189993D01*
X149821900Y-113902007D01*
X149711693Y-113635944D01*
X149508056Y-113432307D01*
X149241993Y-113322100D01*
X149092520Y-113322100D01*
X148208579Y-112438159D01*
X148319007Y-112483900D01*
X148606993Y-112483900D01*
X148873056Y-112373693D01*
X148957235Y-112289514D01*
X148958537Y-112291463D01*
X149165670Y-112429864D01*
X149409999Y-112478464D01*
X150310001Y-112478464D01*
X150554330Y-112429864D01*
X150761463Y-112291463D01*
X150899864Y-112084330D01*
X150911859Y-112024028D01*
X150917028Y-112023000D01*
X150917032Y-112023000D01*
X151065212Y-111993525D01*
X151233247Y-111881247D01*
X151261588Y-111838832D01*
X151961835Y-111138585D01*
X152004247Y-111110247D01*
X152032586Y-111067835D01*
X152032588Y-111067833D01*
X152076098Y-111002714D01*
X152116525Y-110942212D01*
X152146000Y-110794032D01*
X152146000Y-110794028D01*
X152155951Y-110744000D01*
X152146000Y-110693972D01*
X152146000Y-110654962D01*
X152413944Y-110959652D01*
X152845018Y-111171501D01*
X153035000Y-111111193D01*
X153035000Y-110109000D01*
X153289000Y-110109000D01*
X153289000Y-111111193D01*
X153478982Y-111171501D01*
X153910056Y-110959652D01*
X154227245Y-110598964D01*
X154351489Y-110298980D01*
X154290627Y-110109000D01*
X153289000Y-110109000D01*
X153035000Y-110109000D01*
X153015000Y-110109000D01*
X153015000Y-109855000D01*
X153035000Y-109855000D01*
X153035000Y-109835000D01*
X153289000Y-109835000D01*
X153289000Y-109855000D01*
X154290627Y-109855000D01*
X154351489Y-109665020D01*
X154227245Y-109365036D01*
X154099700Y-109220000D01*
X154221580Y-109220000D01*
X154535928Y-109534348D01*
X154446884Y-109982000D01*
X154542424Y-110462312D01*
X154814499Y-110869501D01*
X155221688Y-111141576D01*
X155580761Y-111213000D01*
X155823239Y-111213000D01*
X156182312Y-111141576D01*
X156589501Y-110869501D01*
X156861576Y-110462312D01*
X156957116Y-109982000D01*
X156861576Y-109501688D01*
X156589501Y-109094499D01*
X156182312Y-108822424D01*
X155823239Y-108751000D01*
X155580761Y-108751000D01*
X155254348Y-108815928D01*
X154826588Y-108388168D01*
X154798247Y-108345753D01*
X154630212Y-108233475D01*
X154482032Y-108204000D01*
X154482028Y-108204000D01*
X154432000Y-108194049D01*
X154381972Y-108204000D01*
X152713028Y-108204000D01*
X152663000Y-108194049D01*
X152612972Y-108204000D01*
X152612968Y-108204000D01*
X152464788Y-108233475D01*
X152339167Y-108317412D01*
X152339165Y-108317414D01*
X152296753Y-108345753D01*
X152268414Y-108388165D01*
X151314166Y-109342414D01*
X151271754Y-109370753D01*
X151243415Y-109413165D01*
X151243412Y-109413168D01*
X151159475Y-109538789D01*
X151120049Y-109737000D01*
X151130001Y-109787032D01*
X151130000Y-110533579D01*
X150826984Y-110836596D01*
X150761463Y-110738537D01*
X150554330Y-110600136D01*
X150310001Y-110551536D01*
X149614956Y-110551536D01*
X149491884Y-110428464D01*
X150310001Y-110428464D01*
X150554330Y-110379864D01*
X150761463Y-110241463D01*
X150899864Y-110034330D01*
X150948464Y-109790001D01*
X150948464Y-109139999D01*
X150899864Y-108895670D01*
X150761463Y-108688537D01*
X150554330Y-108550136D01*
X150310001Y-108501536D01*
X150278221Y-108501536D01*
X150254588Y-108466167D01*
X150254586Y-108466165D01*
X150226247Y-108423753D01*
X150183835Y-108395414D01*
X149922587Y-108134167D01*
X149894247Y-108091753D01*
X149726212Y-107979475D01*
X149578032Y-107950000D01*
X149578028Y-107950000D01*
X149528000Y-107940049D01*
X149477972Y-107950000D01*
X142622693Y-107950000D01*
X142697809Y-107899809D01*
X142838157Y-107689765D01*
X142875000Y-107504541D01*
X142875000Y-107258464D01*
X144780000Y-107258464D01*
X144928659Y-107228894D01*
X145054686Y-107144686D01*
X145138894Y-107018659D01*
X145168464Y-106870000D01*
X148210463Y-106870000D01*
X148273000Y-106882439D01*
X148335537Y-106870000D01*
X148335541Y-106870000D01*
X148520765Y-106833157D01*
X148730809Y-106692809D01*
X148766238Y-106639786D01*
X153566789Y-101839236D01*
X153619809Y-101803809D01*
X153670001Y-101728692D01*
X153670001Y-102608250D01*
X153564307Y-102713944D01*
X153454100Y-102980007D01*
X153454100Y-103267993D01*
X153564307Y-103534056D01*
X153670000Y-103639749D01*
X153670001Y-106164250D01*
X153564307Y-106269944D01*
X153454100Y-106536007D01*
X153454100Y-106823993D01*
X153564307Y-107090056D01*
X153767944Y-107293693D01*
X154034007Y-107403900D01*
X154321993Y-107403900D01*
X154588056Y-107293693D01*
X154791693Y-107090056D01*
X154901900Y-106823993D01*
X154901900Y-106536007D01*
X154840552Y-106387900D01*
X155083993Y-106387900D01*
X155350056Y-106277693D01*
X155553693Y-106074056D01*
X155663900Y-105807993D01*
X155663900Y-105520007D01*
X155602552Y-105371900D01*
X155845993Y-105371900D01*
X156112056Y-105261693D01*
X156315693Y-105058056D01*
X156425900Y-104791993D01*
X156425900Y-104504007D01*
X156315693Y-104237944D01*
X156210000Y-104132251D01*
X156210000Y-101607749D01*
X156315693Y-101502056D01*
X156425900Y-101235993D01*
X156425900Y-100948007D01*
X156315693Y-100681944D01*
X156210000Y-100576251D01*
X156210000Y-96019749D01*
X156315693Y-95914056D01*
X156425900Y-95647993D01*
X156425900Y-95360007D01*
X156315693Y-95093944D01*
X156210000Y-94988251D01*
X156210000Y-90431749D01*
X156315693Y-90326056D01*
X156425900Y-90059993D01*
X156425900Y-89772007D01*
X156315693Y-89505944D01*
X156210000Y-89400251D01*
X156210000Y-83319749D01*
X156315693Y-83214056D01*
X156425900Y-82947993D01*
X156425900Y-82660007D01*
X156315693Y-82393944D01*
X156112056Y-82190307D01*
X155845993Y-82080100D01*
X155558007Y-82080100D01*
X155291944Y-82190307D01*
X155088307Y-82393944D01*
X154978100Y-82660007D01*
X154978100Y-82947993D01*
X155039448Y-83096100D01*
X154796007Y-83096100D01*
X154529944Y-83206307D01*
X154326307Y-83409944D01*
X154216100Y-83676007D01*
X154216100Y-83963993D01*
X154326307Y-84230056D01*
X154432000Y-84335749D01*
X154432001Y-90416250D01*
X154326307Y-90521944D01*
X154216100Y-90788007D01*
X154216100Y-91075993D01*
X154326307Y-91342056D01*
X154432000Y-91447749D01*
X154432001Y-96004250D01*
X154326307Y-96109944D01*
X154216100Y-96376007D01*
X154216100Y-96663993D01*
X154277448Y-96812100D01*
X154034007Y-96812100D01*
X153797000Y-96910272D01*
X153797000Y-89216536D01*
X153809439Y-89153999D01*
X153797000Y-89091462D01*
X153797000Y-89091459D01*
X153760157Y-88906235D01*
X153619809Y-88696191D01*
X153566789Y-88660764D01*
X148766238Y-83860214D01*
X148730809Y-83807191D01*
X148520765Y-83666843D01*
X148335541Y-83630000D01*
X148335537Y-83630000D01*
X148273000Y-83617561D01*
X148210463Y-83630000D01*
X145168464Y-83630000D01*
X145138894Y-83481341D01*
X145054686Y-83355314D01*
X144928659Y-83271106D01*
X144780000Y-83241536D01*
X142875000Y-83241536D01*
X142875000Y-82995459D01*
X142855707Y-82898464D01*
X151257001Y-82898464D01*
X151257001Y-83628541D01*
X151293844Y-83813765D01*
X151434192Y-84023809D01*
X151644236Y-84164157D01*
X151892000Y-84213440D01*
X152139765Y-84164157D01*
X152349809Y-84023809D01*
X152490157Y-83813765D01*
X152527000Y-83628541D01*
X152527000Y-82766257D01*
X152598894Y-82658659D01*
X152628464Y-82510000D01*
X152628464Y-78345955D01*
X152959000Y-78345955D01*
X152959000Y-79134045D01*
X153260589Y-79862146D01*
X153817854Y-80419411D01*
X154545955Y-80721000D01*
X155334045Y-80721000D01*
X156062146Y-80419411D01*
X156619411Y-79862146D01*
X156921000Y-79134045D01*
X156921000Y-78345955D01*
X156619411Y-77617854D01*
X156062146Y-77060589D01*
X155334045Y-76759000D01*
X154545955Y-76759000D01*
X153817854Y-77060589D01*
X153260589Y-77617854D01*
X152959000Y-78345955D01*
X152628464Y-78345955D01*
X152628464Y-77510000D01*
X152598894Y-77361341D01*
X152514686Y-77235314D01*
X152388659Y-77151106D01*
X152273000Y-77128100D01*
X152273000Y-76899459D01*
X152236157Y-76714235D01*
X152189561Y-76644500D01*
X156171112Y-76644500D01*
X156489991Y-76700727D01*
X156736213Y-76842884D01*
X156918966Y-77060680D01*
X157022997Y-77346503D01*
X157035500Y-77489412D01*
X157035501Y-115531107D01*
X156979273Y-115849991D01*
X156938883Y-115919950D01*
X156940464Y-115912000D01*
X156940464Y-114212000D01*
X156910894Y-114063341D01*
X156826686Y-113937314D01*
X156700659Y-113853106D01*
X156552000Y-113823536D01*
X154852000Y-113823536D01*
X154703341Y-113853106D01*
X154577314Y-113937314D01*
X154493106Y-114063341D01*
X154463536Y-114212000D01*
X154463536Y-115912000D01*
X154493106Y-116060659D01*
X154577314Y-116186686D01*
X154703341Y-116270894D01*
X154852000Y-116300464D01*
X156552000Y-116300464D01*
X156570204Y-116296843D01*
X156333498Y-116382997D01*
X156190588Y-116395500D01*
X135373000Y-116395500D01*
X135373000Y-114034000D01*
X130311000Y-114034000D01*
X130311000Y-116395500D01*
X128308888Y-116395500D01*
X127990009Y-116339273D01*
X127743787Y-116197116D01*
X127561034Y-115979320D01*
X127457003Y-115693498D01*
X127444500Y-115550588D01*
X127444500Y-111737250D01*
X130999000Y-111737250D01*
X130999000Y-112165786D01*
X131057004Y-112305820D01*
X131164181Y-112412996D01*
X131304215Y-112471000D01*
X131857750Y-112471000D01*
X131953000Y-112375750D01*
X131953000Y-111642000D01*
X132207000Y-111642000D01*
X132207000Y-112375750D01*
X132302250Y-112471000D01*
X132855785Y-112471000D01*
X132995819Y-112412996D01*
X133102996Y-112305820D01*
X133161000Y-112165786D01*
X133161000Y-111737250D01*
X133539000Y-111737250D01*
X133539000Y-112165786D01*
X133597004Y-112305820D01*
X133704181Y-112412996D01*
X133844215Y-112471000D01*
X134397750Y-112471000D01*
X134493000Y-112375750D01*
X134493000Y-111642000D01*
X134747000Y-111642000D01*
X134747000Y-112375750D01*
X134842250Y-112471000D01*
X135395785Y-112471000D01*
X135535819Y-112412996D01*
X135642996Y-112305820D01*
X135701000Y-112165786D01*
X135701000Y-111737250D01*
X135605750Y-111642000D01*
X134747000Y-111642000D01*
X134493000Y-111642000D01*
X133634250Y-111642000D01*
X133539000Y-111737250D01*
X133161000Y-111737250D01*
X133065750Y-111642000D01*
X132207000Y-111642000D01*
X131953000Y-111642000D01*
X131094250Y-111642000D01*
X130999000Y-111737250D01*
X127444500Y-111737250D01*
X127444500Y-110864214D01*
X130999000Y-110864214D01*
X130999000Y-111292750D01*
X131094250Y-111388000D01*
X131953000Y-111388000D01*
X131953000Y-110654250D01*
X132207000Y-110654250D01*
X132207000Y-111388000D01*
X133065750Y-111388000D01*
X133161000Y-111292750D01*
X133161000Y-110864214D01*
X133539000Y-110864214D01*
X133539000Y-111292750D01*
X133634250Y-111388000D01*
X134493000Y-111388000D01*
X134493000Y-110654250D01*
X134747000Y-110654250D01*
X134747000Y-111388000D01*
X135605750Y-111388000D01*
X135701000Y-111292750D01*
X135701000Y-110864214D01*
X135642996Y-110724180D01*
X135535819Y-110617004D01*
X135395785Y-110559000D01*
X134842250Y-110559000D01*
X134747000Y-110654250D01*
X134493000Y-110654250D01*
X134397750Y-110559000D01*
X133844215Y-110559000D01*
X133704181Y-110617004D01*
X133597004Y-110724180D01*
X133539000Y-110864214D01*
X133161000Y-110864214D01*
X133102996Y-110724180D01*
X132995819Y-110617004D01*
X132855785Y-110559000D01*
X132302250Y-110559000D01*
X132207000Y-110654250D01*
X131953000Y-110654250D01*
X131857750Y-110559000D01*
X131304215Y-110559000D01*
X131164181Y-110617004D01*
X131057004Y-110724180D01*
X130999000Y-110864214D01*
X127444500Y-110864214D01*
X127444500Y-78345955D01*
X127559000Y-78345955D01*
X127559000Y-79134045D01*
X127860589Y-79862146D01*
X128417854Y-80419411D01*
X129145955Y-80721000D01*
X129934045Y-80721000D01*
X130662146Y-80419411D01*
X131219411Y-79862146D01*
X131521000Y-79134045D01*
X131521000Y-78345955D01*
X131219411Y-77617854D01*
X130662146Y-77060589D01*
X129934045Y-76759000D01*
X129145955Y-76759000D01*
X128417854Y-77060589D01*
X127860589Y-77617854D01*
X127559000Y-78345955D01*
X127444500Y-78345955D01*
X127444500Y-77508888D01*
X127500727Y-77190009D01*
X127642884Y-76943787D01*
X127860680Y-76761034D01*
X128146503Y-76657003D01*
X128289412Y-76644500D01*
X132036440Y-76644500D01*
X131989844Y-76714235D01*
G36*
X148771536Y-109139999D02*
X148771536Y-109708116D01*
X148594588Y-109531168D01*
X148566247Y-109488753D01*
X148398212Y-109376475D01*
X148250032Y-109347000D01*
X148250028Y-109347000D01*
X148200000Y-109337049D01*
X148149972Y-109347000D01*
X147075948Y-109347000D01*
X147014686Y-109255314D01*
X146888659Y-109171106D01*
X146740000Y-109141536D01*
X145040000Y-109141536D01*
X144891341Y-109171106D01*
X144765314Y-109255314D01*
X144681106Y-109381341D01*
X144651536Y-109530000D01*
X144651536Y-110180000D01*
X144681106Y-110328659D01*
X144765314Y-110454686D01*
X144818165Y-110490000D01*
X144765314Y-110525314D01*
X144681106Y-110651341D01*
X144651536Y-110800000D01*
X144651536Y-111450000D01*
X144681106Y-111598659D01*
X144765314Y-111724686D01*
X144818165Y-111760000D01*
X144765314Y-111795314D01*
X144681106Y-111921341D01*
X144651536Y-112070000D01*
X144651536Y-112720000D01*
X144681106Y-112868659D01*
X144765314Y-112994686D01*
X144813980Y-113027204D01*
X144717004Y-113124181D01*
X144659000Y-113264215D01*
X144659000Y-113442750D01*
X144754250Y-113538000D01*
X145763000Y-113538000D01*
X145763000Y-113518000D01*
X146017000Y-113518000D01*
X146017000Y-113538000D01*
X147025750Y-113538000D01*
X147121000Y-113442750D01*
X147121000Y-113264215D01*
X147062996Y-113124181D01*
X146966020Y-113027204D01*
X147014686Y-112994686D01*
X147075948Y-112903000D01*
X147236580Y-112903000D01*
X148374100Y-114040520D01*
X148374100Y-114189993D01*
X148419666Y-114300000D01*
X146968816Y-114300000D01*
X147062996Y-114205819D01*
X147121000Y-114065785D01*
X147121000Y-113887250D01*
X147025750Y-113792000D01*
X146017000Y-113792000D01*
X146017000Y-113812000D01*
X145763000Y-113812000D01*
X145763000Y-113792000D01*
X144754250Y-113792000D01*
X144659000Y-113887250D01*
X144659000Y-114065785D01*
X144717004Y-114205819D01*
X144811184Y-114300000D01*
X140886334Y-114300000D01*
X140931900Y-114189993D01*
X140931900Y-113902007D01*
X140821693Y-113635944D01*
X140618056Y-113432307D01*
X140351993Y-113322100D01*
X140064007Y-113322100D01*
X139828464Y-113419665D01*
X139828464Y-113340000D01*
X139798894Y-113191341D01*
X139714686Y-113065314D01*
X139661835Y-113030000D01*
X139714686Y-112994686D01*
X139775948Y-112903000D01*
X140284972Y-112903000D01*
X140335000Y-112912951D01*
X140385028Y-112903000D01*
X140385032Y-112903000D01*
X140533212Y-112873525D01*
X140701247Y-112761247D01*
X140729588Y-112718832D01*
X140964520Y-112483900D01*
X141113993Y-112483900D01*
X141380056Y-112373693D01*
X141583693Y-112170056D01*
X141693900Y-111903993D01*
X141693900Y-111616007D01*
X141595728Y-111379000D01*
X142410580Y-111379000D01*
X142786100Y-111754520D01*
X142786100Y-111903993D01*
X142896307Y-112170056D01*
X143099944Y-112373693D01*
X143366007Y-112483900D01*
X143653993Y-112483900D01*
X143920056Y-112373693D01*
X144123693Y-112170056D01*
X144233900Y-111903993D01*
X144233900Y-111616007D01*
X144123693Y-111349944D01*
X143920056Y-111146307D01*
X143653993Y-111036100D01*
X143504520Y-111036100D01*
X143015588Y-110547168D01*
X142987247Y-110504753D01*
X142819212Y-110392475D01*
X142671032Y-110363000D01*
X142671028Y-110363000D01*
X142621000Y-110353049D01*
X142570972Y-110363000D01*
X139998027Y-110363000D01*
X139947999Y-110353049D01*
X139897971Y-110363000D01*
X139897968Y-110363000D01*
X139757245Y-110390992D01*
X139798894Y-110328659D01*
X139828464Y-110180000D01*
X139828464Y-109530000D01*
X139798894Y-109381341D01*
X139714686Y-109255314D01*
X139588659Y-109171106D01*
X139440000Y-109141536D01*
X137740000Y-109141536D01*
X137591341Y-109171106D01*
X137518165Y-109220000D01*
X137169025Y-109220000D01*
X136952223Y-109003198D01*
X136989421Y-108966000D01*
X148806147Y-108966000D01*
X148771536Y-109139999D01*
X148771536Y-109139999D01*
G37*
X148771536Y-109139999D02*
X148771536Y-109708116D01*
X148594588Y-109531168D01*
X148566247Y-109488753D01*
X148398212Y-109376475D01*
X148250032Y-109347000D01*
X148250028Y-109347000D01*
X148200000Y-109337049D01*
X148149972Y-109347000D01*
X147075948Y-109347000D01*
X147014686Y-109255314D01*
X146888659Y-109171106D01*
X146740000Y-109141536D01*
X145040000Y-109141536D01*
X144891341Y-109171106D01*
X144765314Y-109255314D01*
X144681106Y-109381341D01*
X144651536Y-109530000D01*
X144651536Y-110180000D01*
X144681106Y-110328659D01*
X144765314Y-110454686D01*
X144818165Y-110490000D01*
X144765314Y-110525314D01*
X144681106Y-110651341D01*
X144651536Y-110800000D01*
X144651536Y-111450000D01*
X144681106Y-111598659D01*
X144765314Y-111724686D01*
X144818165Y-111760000D01*
X144765314Y-111795314D01*
X144681106Y-111921341D01*
X144651536Y-112070000D01*
X144651536Y-112720000D01*
X144681106Y-112868659D01*
X144765314Y-112994686D01*
X144813980Y-113027204D01*
X144717004Y-113124181D01*
X144659000Y-113264215D01*
X144659000Y-113442750D01*
X144754250Y-113538000D01*
X145763000Y-113538000D01*
X145763000Y-113518000D01*
X146017000Y-113518000D01*
X146017000Y-113538000D01*
X147025750Y-113538000D01*
X147121000Y-113442750D01*
X147121000Y-113264215D01*
X147062996Y-113124181D01*
X146966020Y-113027204D01*
X147014686Y-112994686D01*
X147075948Y-112903000D01*
X147236580Y-112903000D01*
X148374100Y-114040520D01*
X148374100Y-114189993D01*
X148419666Y-114300000D01*
X146968816Y-114300000D01*
X147062996Y-114205819D01*
X147121000Y-114065785D01*
X147121000Y-113887250D01*
X147025750Y-113792000D01*
X146017000Y-113792000D01*
X146017000Y-113812000D01*
X145763000Y-113812000D01*
X145763000Y-113792000D01*
X144754250Y-113792000D01*
X144659000Y-113887250D01*
X144659000Y-114065785D01*
X144717004Y-114205819D01*
X144811184Y-114300000D01*
X140886334Y-114300000D01*
X140931900Y-114189993D01*
X140931900Y-113902007D01*
X140821693Y-113635944D01*
X140618056Y-113432307D01*
X140351993Y-113322100D01*
X140064007Y-113322100D01*
X139828464Y-113419665D01*
X139828464Y-113340000D01*
X139798894Y-113191341D01*
X139714686Y-113065314D01*
X139661835Y-113030000D01*
X139714686Y-112994686D01*
X139775948Y-112903000D01*
X140284972Y-112903000D01*
X140335000Y-112912951D01*
X140385028Y-112903000D01*
X140385032Y-112903000D01*
X140533212Y-112873525D01*
X140701247Y-112761247D01*
X140729588Y-112718832D01*
X140964520Y-112483900D01*
X141113993Y-112483900D01*
X141380056Y-112373693D01*
X141583693Y-112170056D01*
X141693900Y-111903993D01*
X141693900Y-111616007D01*
X141595728Y-111379000D01*
X142410580Y-111379000D01*
X142786100Y-111754520D01*
X142786100Y-111903993D01*
X142896307Y-112170056D01*
X143099944Y-112373693D01*
X143366007Y-112483900D01*
X143653993Y-112483900D01*
X143920056Y-112373693D01*
X144123693Y-112170056D01*
X144233900Y-111903993D01*
X144233900Y-111616007D01*
X144123693Y-111349944D01*
X143920056Y-111146307D01*
X143653993Y-111036100D01*
X143504520Y-111036100D01*
X143015588Y-110547168D01*
X142987247Y-110504753D01*
X142819212Y-110392475D01*
X142671032Y-110363000D01*
X142671028Y-110363000D01*
X142621000Y-110353049D01*
X142570972Y-110363000D01*
X139998027Y-110363000D01*
X139947999Y-110353049D01*
X139897971Y-110363000D01*
X139897968Y-110363000D01*
X139757245Y-110390992D01*
X139798894Y-110328659D01*
X139828464Y-110180000D01*
X139828464Y-109530000D01*
X139798894Y-109381341D01*
X139714686Y-109255314D01*
X139588659Y-109171106D01*
X139440000Y-109141536D01*
X137740000Y-109141536D01*
X137591341Y-109171106D01*
X137518165Y-109220000D01*
X137169025Y-109220000D01*
X136952223Y-109003198D01*
X136989421Y-108966000D01*
X148806147Y-108966000D01*
X148771536Y-109139999D01*
G04 #@! TD*
M02*
