G04 #@! TF.GenerationSoftware,KiCad,Pcbnew,(5.0.2)-1*
G04 #@! TF.CreationDate,2019-02-01T18:11:43-06:00*
G04 #@! TF.ProjectId,matrix_badge,6d617472-6978-45f6-9261-6467652e6b69,rev?*
G04 #@! TF.SameCoordinates,Original*
G04 #@! TF.FileFunction,Soldermask,Bot*
G04 #@! TF.FilePolarity,Negative*
%FSLAX46Y46*%
G04 Gerber Fmt 4.6, Leading zero omitted, Abs format (unit mm)*
G04 Created by KiCad (PCBNEW (5.0.2)-1) date 2/1/2019 6:11:43 PM*
%MOMM*%
%LPD*%
G01*
G04 APERTURE LIST*
%ADD10C,0.150000*%
%ADD11C,0.010000*%
%ADD12C,0.100000*%
G04 APERTURE END LIST*
D10*
G36*
X138430000Y-96520000D02*
X139700000Y-95250000D01*
X144780000Y-95250000D01*
X146050000Y-96520000D01*
X146050000Y-101600000D01*
X144780000Y-102870000D01*
X139700000Y-102870000D01*
X138430000Y-101600000D01*
X138430000Y-96520000D01*
G37*
X138430000Y-96520000D02*
X139700000Y-95250000D01*
X144780000Y-95250000D01*
X146050000Y-96520000D01*
X146050000Y-101600000D01*
X144780000Y-102870000D01*
X139700000Y-102870000D01*
X138430000Y-101600000D01*
X138430000Y-96520000D01*
D11*
G04 #@! TO.C,G\002A\002A\002A*
G36*
X150402308Y-84371630D02*
X150365874Y-84391435D01*
X150336406Y-84430337D01*
X150328487Y-84445070D01*
X150317294Y-84469136D01*
X150310146Y-84492665D01*
X150306555Y-84521331D01*
X150306030Y-84560810D01*
X150308082Y-84616776D01*
X150310172Y-84657371D01*
X150314322Y-84736868D01*
X150316991Y-84798278D01*
X150318179Y-84848870D01*
X150317887Y-84895915D01*
X150316116Y-84946681D01*
X150312865Y-85008438D01*
X150310207Y-85053771D01*
X150307343Y-85145034D01*
X150311655Y-85215045D01*
X150324105Y-85267182D01*
X150345657Y-85304821D01*
X150377273Y-85331341D01*
X150391511Y-85338915D01*
X150417148Y-85349890D01*
X150439461Y-85354254D01*
X150466725Y-85351951D01*
X150507212Y-85342927D01*
X150526604Y-85338027D01*
X150653874Y-85293409D01*
X150779094Y-85226117D01*
X150898050Y-85138784D01*
X150998187Y-85043166D01*
X151063223Y-84972870D01*
X151109312Y-84989536D01*
X151147595Y-84999475D01*
X151181763Y-84995919D01*
X151201489Y-84989536D01*
X151247578Y-84972870D01*
X151312614Y-85043166D01*
X151423747Y-85148026D01*
X151545136Y-85234663D01*
X151672661Y-85300436D01*
X151764876Y-85333080D01*
X151817439Y-85347407D01*
X151853314Y-85354224D01*
X151880032Y-85353687D01*
X151905121Y-85345954D01*
X151925552Y-85336439D01*
X151959318Y-85312215D01*
X151982962Y-85276076D01*
X151997294Y-85224970D01*
X152003125Y-85155845D01*
X152001265Y-85065647D01*
X152000594Y-85053771D01*
X151996457Y-84981935D01*
X151993799Y-84925449D01*
X151992619Y-84877045D01*
X151992920Y-84829453D01*
X151994700Y-84775404D01*
X151997962Y-84707627D01*
X152000629Y-84657371D01*
X152003910Y-84589711D01*
X152004886Y-84541712D01*
X152003070Y-84507699D01*
X151997972Y-84481996D01*
X151989101Y-84458930D01*
X151982314Y-84445070D01*
X151953426Y-84400052D01*
X151919675Y-84375462D01*
X151873437Y-84366476D01*
X151857470Y-84366100D01*
X151781922Y-84376047D01*
X151695913Y-84404305D01*
X151603719Y-84448495D01*
X151509618Y-84506241D01*
X151417886Y-84575165D01*
X151332800Y-84652890D01*
X151322450Y-84663516D01*
X151284220Y-84702711D01*
X151258793Y-84726012D01*
X151241674Y-84736121D01*
X151228364Y-84735740D01*
X151215030Y-84728038D01*
X151169990Y-84710770D01*
X151121858Y-84715083D01*
X151095771Y-84728038D01*
X151081892Y-84735933D01*
X151068512Y-84735925D01*
X151051132Y-84725313D01*
X151025255Y-84701394D01*
X150988351Y-84663516D01*
X150904442Y-84584822D01*
X150813332Y-84514619D01*
X150719297Y-84455286D01*
X150626614Y-84409199D01*
X150539559Y-84378736D01*
X150462409Y-84366273D01*
X150453331Y-84366100D01*
X150402308Y-84371630D01*
X150402308Y-84371630D01*
G37*
X150402308Y-84371630D02*
X150365874Y-84391435D01*
X150336406Y-84430337D01*
X150328487Y-84445070D01*
X150317294Y-84469136D01*
X150310146Y-84492665D01*
X150306555Y-84521331D01*
X150306030Y-84560810D01*
X150308082Y-84616776D01*
X150310172Y-84657371D01*
X150314322Y-84736868D01*
X150316991Y-84798278D01*
X150318179Y-84848870D01*
X150317887Y-84895915D01*
X150316116Y-84946681D01*
X150312865Y-85008438D01*
X150310207Y-85053771D01*
X150307343Y-85145034D01*
X150311655Y-85215045D01*
X150324105Y-85267182D01*
X150345657Y-85304821D01*
X150377273Y-85331341D01*
X150391511Y-85338915D01*
X150417148Y-85349890D01*
X150439461Y-85354254D01*
X150466725Y-85351951D01*
X150507212Y-85342927D01*
X150526604Y-85338027D01*
X150653874Y-85293409D01*
X150779094Y-85226117D01*
X150898050Y-85138784D01*
X150998187Y-85043166D01*
X151063223Y-84972870D01*
X151109312Y-84989536D01*
X151147595Y-84999475D01*
X151181763Y-84995919D01*
X151201489Y-84989536D01*
X151247578Y-84972870D01*
X151312614Y-85043166D01*
X151423747Y-85148026D01*
X151545136Y-85234663D01*
X151672661Y-85300436D01*
X151764876Y-85333080D01*
X151817439Y-85347407D01*
X151853314Y-85354224D01*
X151880032Y-85353687D01*
X151905121Y-85345954D01*
X151925552Y-85336439D01*
X151959318Y-85312215D01*
X151982962Y-85276076D01*
X151997294Y-85224970D01*
X152003125Y-85155845D01*
X152001265Y-85065647D01*
X152000594Y-85053771D01*
X151996457Y-84981935D01*
X151993799Y-84925449D01*
X151992619Y-84877045D01*
X151992920Y-84829453D01*
X151994700Y-84775404D01*
X151997962Y-84707627D01*
X152000629Y-84657371D01*
X152003910Y-84589711D01*
X152004886Y-84541712D01*
X152003070Y-84507699D01*
X151997972Y-84481996D01*
X151989101Y-84458930D01*
X151982314Y-84445070D01*
X151953426Y-84400052D01*
X151919675Y-84375462D01*
X151873437Y-84366476D01*
X151857470Y-84366100D01*
X151781922Y-84376047D01*
X151695913Y-84404305D01*
X151603719Y-84448495D01*
X151509618Y-84506241D01*
X151417886Y-84575165D01*
X151332800Y-84652890D01*
X151322450Y-84663516D01*
X151284220Y-84702711D01*
X151258793Y-84726012D01*
X151241674Y-84736121D01*
X151228364Y-84735740D01*
X151215030Y-84728038D01*
X151169990Y-84710770D01*
X151121858Y-84715083D01*
X151095771Y-84728038D01*
X151081892Y-84735933D01*
X151068512Y-84735925D01*
X151051132Y-84725313D01*
X151025255Y-84701394D01*
X150988351Y-84663516D01*
X150904442Y-84584822D01*
X150813332Y-84514619D01*
X150719297Y-84455286D01*
X150626614Y-84409199D01*
X150539559Y-84378736D01*
X150462409Y-84366273D01*
X150453331Y-84366100D01*
X150402308Y-84371630D01*
D12*
G36*
X156603000Y-115963000D02*
X154801000Y-115963000D01*
X154801000Y-114161000D01*
X156603000Y-114161000D01*
X156603000Y-115963000D01*
X156603000Y-115963000D01*
G37*
G36*
X153272442Y-114167518D02*
X153338627Y-114174037D01*
X153451853Y-114208384D01*
X153508467Y-114225557D01*
X153647087Y-114299652D01*
X153664991Y-114309222D01*
X153700729Y-114338552D01*
X153802186Y-114421814D01*
X153885448Y-114523271D01*
X153914778Y-114559009D01*
X153914779Y-114559011D01*
X153998443Y-114715533D01*
X153998443Y-114715534D01*
X154049963Y-114885373D01*
X154067359Y-115062000D01*
X154049963Y-115238627D01*
X154031183Y-115300535D01*
X153998443Y-115408467D01*
X153924348Y-115547087D01*
X153914778Y-115564991D01*
X153885448Y-115600729D01*
X153802186Y-115702186D01*
X153700729Y-115785448D01*
X153664991Y-115814778D01*
X153664989Y-115814779D01*
X153508467Y-115898443D01*
X153451853Y-115915616D01*
X153338627Y-115949963D01*
X153272443Y-115956481D01*
X153206260Y-115963000D01*
X153117740Y-115963000D01*
X153051557Y-115956481D01*
X152985373Y-115949963D01*
X152872147Y-115915616D01*
X152815533Y-115898443D01*
X152659011Y-115814779D01*
X152659009Y-115814778D01*
X152623271Y-115785448D01*
X152521814Y-115702186D01*
X152438552Y-115600729D01*
X152409222Y-115564991D01*
X152399652Y-115547087D01*
X152325557Y-115408467D01*
X152292817Y-115300535D01*
X152274037Y-115238627D01*
X152256641Y-115062000D01*
X152274037Y-114885373D01*
X152325557Y-114715534D01*
X152325557Y-114715533D01*
X152409221Y-114559011D01*
X152409222Y-114559009D01*
X152438552Y-114523271D01*
X152521814Y-114421814D01*
X152623271Y-114338552D01*
X152659009Y-114309222D01*
X152676913Y-114299652D01*
X152815533Y-114225557D01*
X152872147Y-114208384D01*
X152985373Y-114174037D01*
X153051558Y-114167518D01*
X153117740Y-114161000D01*
X153206260Y-114161000D01*
X153272442Y-114167518D01*
X153272442Y-114167518D01*
G37*
G36*
X134022000Y-115336000D02*
X132320000Y-115336000D01*
X132320000Y-114534000D01*
X134022000Y-114534000D01*
X134022000Y-115336000D01*
X134022000Y-115336000D01*
G37*
G36*
X138952000Y-115336000D02*
X137250000Y-115336000D01*
X137250000Y-114534000D01*
X138952000Y-114534000D01*
X138952000Y-115336000D01*
X138952000Y-115336000D01*
G37*
G36*
X129486677Y-113807465D02*
X129524364Y-113818898D01*
X129559103Y-113837466D01*
X129589548Y-113862452D01*
X129614534Y-113892897D01*
X129633102Y-113927636D01*
X129644535Y-113965323D01*
X129649000Y-114010661D01*
X129649000Y-115097339D01*
X129644535Y-115142677D01*
X129633102Y-115180364D01*
X129614534Y-115215103D01*
X129589548Y-115245548D01*
X129559103Y-115270534D01*
X129524364Y-115289102D01*
X129486677Y-115300535D01*
X129441339Y-115305000D01*
X128604661Y-115305000D01*
X128559323Y-115300535D01*
X128521636Y-115289102D01*
X128486897Y-115270534D01*
X128456452Y-115245548D01*
X128431466Y-115215103D01*
X128412898Y-115180364D01*
X128401465Y-115142677D01*
X128397000Y-115097339D01*
X128397000Y-114010661D01*
X128401465Y-113965323D01*
X128412898Y-113927636D01*
X128431466Y-113892897D01*
X128456452Y-113862452D01*
X128486897Y-113837466D01*
X128521636Y-113818898D01*
X128559323Y-113807465D01*
X128604661Y-113803000D01*
X129441339Y-113803000D01*
X129486677Y-113807465D01*
X129486677Y-113807465D01*
G37*
G36*
X131536677Y-113807465D02*
X131574364Y-113818898D01*
X131609103Y-113837466D01*
X131639548Y-113862452D01*
X131664534Y-113892897D01*
X131683102Y-113927636D01*
X131694535Y-113965323D01*
X131699000Y-114010661D01*
X131699000Y-115097339D01*
X131694535Y-115142677D01*
X131683102Y-115180364D01*
X131664534Y-115215103D01*
X131639548Y-115245548D01*
X131609103Y-115270534D01*
X131574364Y-115289102D01*
X131536677Y-115300535D01*
X131491339Y-115305000D01*
X130654661Y-115305000D01*
X130609323Y-115300535D01*
X130571636Y-115289102D01*
X130536897Y-115270534D01*
X130506452Y-115245548D01*
X130481466Y-115215103D01*
X130462898Y-115180364D01*
X130451465Y-115142677D01*
X130447000Y-115097339D01*
X130447000Y-114010661D01*
X130451465Y-113965323D01*
X130462898Y-113927636D01*
X130481466Y-113892897D01*
X130506452Y-113862452D01*
X130536897Y-113837466D01*
X130571636Y-113818898D01*
X130609323Y-113807465D01*
X130654661Y-113803000D01*
X131491339Y-113803000D01*
X131536677Y-113807465D01*
X131536677Y-113807465D01*
G37*
G36*
X134022000Y-114066000D02*
X132320000Y-114066000D01*
X132320000Y-113264000D01*
X134022000Y-113264000D01*
X134022000Y-114066000D01*
X134022000Y-114066000D01*
G37*
G36*
X138952000Y-114066000D02*
X137250000Y-114066000D01*
X137250000Y-113264000D01*
X138952000Y-113264000D01*
X138952000Y-114066000D01*
X138952000Y-114066000D01*
G37*
G36*
X153272442Y-111627518D02*
X153338627Y-111634037D01*
X153451853Y-111668384D01*
X153508467Y-111685557D01*
X153647087Y-111759652D01*
X153664991Y-111769222D01*
X153673530Y-111776230D01*
X153802186Y-111881814D01*
X153881665Y-111978661D01*
X153914778Y-112019009D01*
X153914779Y-112019011D01*
X153998443Y-112175533D01*
X154005121Y-112197548D01*
X154049963Y-112345373D01*
X154067359Y-112522000D01*
X154049963Y-112698627D01*
X154020425Y-112796000D01*
X153998443Y-112868467D01*
X153927694Y-113000827D01*
X153914778Y-113024991D01*
X153891032Y-113053925D01*
X153802186Y-113162186D01*
X153723049Y-113227131D01*
X153664991Y-113274778D01*
X153664989Y-113274779D01*
X153508467Y-113358443D01*
X153451853Y-113375616D01*
X153338627Y-113409963D01*
X153272442Y-113416482D01*
X153206260Y-113423000D01*
X153117740Y-113423000D01*
X153051558Y-113416482D01*
X152985373Y-113409963D01*
X152872147Y-113375616D01*
X152815533Y-113358443D01*
X152659011Y-113274779D01*
X152659009Y-113274778D01*
X152600951Y-113227131D01*
X152521814Y-113162186D01*
X152432968Y-113053925D01*
X152409222Y-113024991D01*
X152396306Y-113000827D01*
X152325557Y-112868467D01*
X152303575Y-112796000D01*
X152274037Y-112698627D01*
X152256641Y-112522000D01*
X152274037Y-112345373D01*
X152318879Y-112197548D01*
X152325557Y-112175533D01*
X152409221Y-112019011D01*
X152409222Y-112019009D01*
X152442335Y-111978661D01*
X152521814Y-111881814D01*
X152650470Y-111776230D01*
X152659009Y-111769222D01*
X152676913Y-111759652D01*
X152815533Y-111685557D01*
X152872147Y-111668384D01*
X152985373Y-111634037D01*
X153051558Y-111627518D01*
X153117740Y-111621000D01*
X153206260Y-111621000D01*
X153272442Y-111627518D01*
X153272442Y-111627518D01*
G37*
G36*
X155812442Y-111627518D02*
X155878627Y-111634037D01*
X155991853Y-111668384D01*
X156048467Y-111685557D01*
X156187087Y-111759652D01*
X156204991Y-111769222D01*
X156213530Y-111776230D01*
X156342186Y-111881814D01*
X156421665Y-111978661D01*
X156454778Y-112019009D01*
X156454779Y-112019011D01*
X156538443Y-112175533D01*
X156545121Y-112197548D01*
X156589963Y-112345373D01*
X156607359Y-112522000D01*
X156589963Y-112698627D01*
X156560425Y-112796000D01*
X156538443Y-112868467D01*
X156467694Y-113000827D01*
X156454778Y-113024991D01*
X156431032Y-113053925D01*
X156342186Y-113162186D01*
X156263049Y-113227131D01*
X156204991Y-113274778D01*
X156204989Y-113274779D01*
X156048467Y-113358443D01*
X155991853Y-113375616D01*
X155878627Y-113409963D01*
X155812442Y-113416482D01*
X155746260Y-113423000D01*
X155657740Y-113423000D01*
X155591558Y-113416482D01*
X155525373Y-113409963D01*
X155412147Y-113375616D01*
X155355533Y-113358443D01*
X155199011Y-113274779D01*
X155199009Y-113274778D01*
X155140951Y-113227131D01*
X155061814Y-113162186D01*
X154972968Y-113053925D01*
X154949222Y-113024991D01*
X154936306Y-113000827D01*
X154865557Y-112868467D01*
X154843575Y-112796000D01*
X154814037Y-112698627D01*
X154796641Y-112522000D01*
X154814037Y-112345373D01*
X154858879Y-112197548D01*
X154865557Y-112175533D01*
X154949221Y-112019011D01*
X154949222Y-112019009D01*
X154982335Y-111978661D01*
X155061814Y-111881814D01*
X155190470Y-111776230D01*
X155199009Y-111769222D01*
X155216913Y-111759652D01*
X155355533Y-111685557D01*
X155412147Y-111668384D01*
X155525373Y-111634037D01*
X155591558Y-111627518D01*
X155657740Y-111621000D01*
X155746260Y-111621000D01*
X155812442Y-111627518D01*
X155812442Y-111627518D01*
G37*
G36*
X150078677Y-111775465D02*
X150116364Y-111786898D01*
X150151103Y-111805466D01*
X150181548Y-111830452D01*
X150206534Y-111860897D01*
X150225102Y-111895636D01*
X150236535Y-111933323D01*
X150241000Y-111978661D01*
X150241000Y-113065339D01*
X150236535Y-113110677D01*
X150225102Y-113148364D01*
X150206534Y-113183103D01*
X150181548Y-113213548D01*
X150151103Y-113238534D01*
X150116364Y-113257102D01*
X150078677Y-113268535D01*
X150033339Y-113273000D01*
X149196661Y-113273000D01*
X149151323Y-113268535D01*
X149113636Y-113257102D01*
X149078897Y-113238534D01*
X149048452Y-113213548D01*
X149023466Y-113183103D01*
X149004898Y-113148364D01*
X148993465Y-113110677D01*
X148989000Y-113065339D01*
X148989000Y-111978661D01*
X148993465Y-111933323D01*
X149004898Y-111895636D01*
X149023466Y-111860897D01*
X149048452Y-111830452D01*
X149078897Y-111805466D01*
X149113636Y-111786898D01*
X149151323Y-111775465D01*
X149196661Y-111771000D01*
X150033339Y-111771000D01*
X150078677Y-111775465D01*
X150078677Y-111775465D01*
G37*
G36*
X148028677Y-111775465D02*
X148066364Y-111786898D01*
X148101103Y-111805466D01*
X148131548Y-111830452D01*
X148156534Y-111860897D01*
X148175102Y-111895636D01*
X148186535Y-111933323D01*
X148191000Y-111978661D01*
X148191000Y-113065339D01*
X148186535Y-113110677D01*
X148175102Y-113148364D01*
X148156534Y-113183103D01*
X148131548Y-113213548D01*
X148101103Y-113238534D01*
X148066364Y-113257102D01*
X148028677Y-113268535D01*
X147983339Y-113273000D01*
X147146661Y-113273000D01*
X147101323Y-113268535D01*
X147063636Y-113257102D01*
X147028897Y-113238534D01*
X146998452Y-113213548D01*
X146973466Y-113183103D01*
X146954898Y-113148364D01*
X146943465Y-113110677D01*
X146939000Y-113065339D01*
X146939000Y-111978661D01*
X146943465Y-111933323D01*
X146954898Y-111895636D01*
X146973466Y-111860897D01*
X146998452Y-111830452D01*
X147028897Y-111805466D01*
X147063636Y-111786898D01*
X147101323Y-111775465D01*
X147146661Y-111771000D01*
X147983339Y-111771000D01*
X148028677Y-111775465D01*
X148028677Y-111775465D01*
G37*
G36*
X134022000Y-112796000D02*
X132320000Y-112796000D01*
X132320000Y-111994000D01*
X134022000Y-111994000D01*
X134022000Y-112796000D01*
X134022000Y-112796000D01*
G37*
G36*
X138952000Y-112796000D02*
X137250000Y-112796000D01*
X137250000Y-111994000D01*
X138952000Y-111994000D01*
X138952000Y-112796000D01*
X138952000Y-112796000D01*
G37*
G36*
X131536677Y-110759465D02*
X131574364Y-110770898D01*
X131609103Y-110789466D01*
X131639548Y-110814452D01*
X131664534Y-110844897D01*
X131683102Y-110879636D01*
X131694535Y-110917323D01*
X131699000Y-110962661D01*
X131699000Y-112049339D01*
X131694535Y-112094677D01*
X131683102Y-112132364D01*
X131664534Y-112167103D01*
X131639548Y-112197548D01*
X131609103Y-112222534D01*
X131574364Y-112241102D01*
X131536677Y-112252535D01*
X131491339Y-112257000D01*
X130654661Y-112257000D01*
X130609323Y-112252535D01*
X130571636Y-112241102D01*
X130536897Y-112222534D01*
X130506452Y-112197548D01*
X130481466Y-112167103D01*
X130462898Y-112132364D01*
X130451465Y-112094677D01*
X130447000Y-112049339D01*
X130447000Y-110962661D01*
X130451465Y-110917323D01*
X130462898Y-110879636D01*
X130481466Y-110844897D01*
X130506452Y-110814452D01*
X130536897Y-110789466D01*
X130571636Y-110770898D01*
X130609323Y-110759465D01*
X130654661Y-110755000D01*
X131491339Y-110755000D01*
X131536677Y-110759465D01*
X131536677Y-110759465D01*
G37*
G36*
X129486677Y-110759465D02*
X129524364Y-110770898D01*
X129559103Y-110789466D01*
X129589548Y-110814452D01*
X129614534Y-110844897D01*
X129633102Y-110879636D01*
X129644535Y-110917323D01*
X129649000Y-110962661D01*
X129649000Y-112049339D01*
X129644535Y-112094677D01*
X129633102Y-112132364D01*
X129614534Y-112167103D01*
X129589548Y-112197548D01*
X129559103Y-112222534D01*
X129524364Y-112241102D01*
X129486677Y-112252535D01*
X129441339Y-112257000D01*
X128604661Y-112257000D01*
X128559323Y-112252535D01*
X128521636Y-112241102D01*
X128486897Y-112222534D01*
X128456452Y-112197548D01*
X128431466Y-112167103D01*
X128412898Y-112132364D01*
X128401465Y-112094677D01*
X128397000Y-112049339D01*
X128397000Y-110962661D01*
X128401465Y-110917323D01*
X128412898Y-110879636D01*
X128431466Y-110844897D01*
X128456452Y-110814452D01*
X128486897Y-110789466D01*
X128521636Y-110770898D01*
X128559323Y-110759465D01*
X128604661Y-110755000D01*
X129441339Y-110755000D01*
X129486677Y-110759465D01*
X129486677Y-110759465D01*
G37*
G36*
X134022000Y-111526000D02*
X132320000Y-111526000D01*
X132320000Y-110724000D01*
X134022000Y-110724000D01*
X134022000Y-111526000D01*
X134022000Y-111526000D01*
G37*
G36*
X138952000Y-111526000D02*
X137250000Y-111526000D01*
X137250000Y-110724000D01*
X138952000Y-110724000D01*
X138952000Y-111526000D01*
X138952000Y-111526000D01*
G37*
G36*
X155812443Y-109087519D02*
X155878627Y-109094037D01*
X155991853Y-109128384D01*
X156048467Y-109145557D01*
X156187087Y-109219652D01*
X156204991Y-109229222D01*
X156240729Y-109258552D01*
X156342186Y-109341814D01*
X156425448Y-109443271D01*
X156454778Y-109479009D01*
X156454779Y-109479011D01*
X156538443Y-109635533D01*
X156538443Y-109635534D01*
X156589963Y-109805373D01*
X156607359Y-109982000D01*
X156589963Y-110158627D01*
X156555616Y-110271853D01*
X156538443Y-110328467D01*
X156464348Y-110467087D01*
X156454778Y-110484991D01*
X156425448Y-110520729D01*
X156342186Y-110622186D01*
X156240729Y-110705448D01*
X156204991Y-110734778D01*
X156204989Y-110734779D01*
X156048467Y-110818443D01*
X155994814Y-110834718D01*
X155878627Y-110869963D01*
X155817717Y-110875962D01*
X155746260Y-110883000D01*
X155657740Y-110883000D01*
X155586283Y-110875962D01*
X155525373Y-110869963D01*
X155409186Y-110834718D01*
X155355533Y-110818443D01*
X155199011Y-110734779D01*
X155199009Y-110734778D01*
X155163271Y-110705448D01*
X155061814Y-110622186D01*
X154978552Y-110520729D01*
X154949222Y-110484991D01*
X154939652Y-110467087D01*
X154865557Y-110328467D01*
X154848384Y-110271853D01*
X154814037Y-110158627D01*
X154796641Y-109982000D01*
X154814037Y-109805373D01*
X154865557Y-109635534D01*
X154865557Y-109635533D01*
X154949221Y-109479011D01*
X154949222Y-109479009D01*
X154978552Y-109443271D01*
X155061814Y-109341814D01*
X155163271Y-109258552D01*
X155199009Y-109229222D01*
X155216913Y-109219652D01*
X155355533Y-109145557D01*
X155412147Y-109128384D01*
X155525373Y-109094037D01*
X155591557Y-109087519D01*
X155657740Y-109081000D01*
X155746260Y-109081000D01*
X155812443Y-109087519D01*
X155812443Y-109087519D01*
G37*
G36*
X153272443Y-109087519D02*
X153338627Y-109094037D01*
X153451853Y-109128384D01*
X153508467Y-109145557D01*
X153647087Y-109219652D01*
X153664991Y-109229222D01*
X153700729Y-109258552D01*
X153802186Y-109341814D01*
X153885448Y-109443271D01*
X153914778Y-109479009D01*
X153914779Y-109479011D01*
X153998443Y-109635533D01*
X153998443Y-109635534D01*
X154049963Y-109805373D01*
X154067359Y-109982000D01*
X154049963Y-110158627D01*
X154015616Y-110271853D01*
X153998443Y-110328467D01*
X153924348Y-110467087D01*
X153914778Y-110484991D01*
X153885448Y-110520729D01*
X153802186Y-110622186D01*
X153700729Y-110705448D01*
X153664991Y-110734778D01*
X153664989Y-110734779D01*
X153508467Y-110818443D01*
X153454814Y-110834718D01*
X153338627Y-110869963D01*
X153277717Y-110875962D01*
X153206260Y-110883000D01*
X153117740Y-110883000D01*
X153046283Y-110875962D01*
X152985373Y-110869963D01*
X152869186Y-110834718D01*
X152815533Y-110818443D01*
X152659011Y-110734779D01*
X152659009Y-110734778D01*
X152623271Y-110705448D01*
X152521814Y-110622186D01*
X152438552Y-110520729D01*
X152409222Y-110484991D01*
X152399652Y-110467087D01*
X152325557Y-110328467D01*
X152308384Y-110271853D01*
X152274037Y-110158627D01*
X152256641Y-109982000D01*
X152274037Y-109805373D01*
X152325557Y-109635534D01*
X152325557Y-109635533D01*
X152409221Y-109479011D01*
X152409222Y-109479009D01*
X152438552Y-109443271D01*
X152521814Y-109341814D01*
X152623271Y-109258552D01*
X152659009Y-109229222D01*
X152676913Y-109219652D01*
X152815533Y-109145557D01*
X152872147Y-109128384D01*
X152985373Y-109094037D01*
X153051557Y-109087519D01*
X153117740Y-109081000D01*
X153206260Y-109081000D01*
X153272443Y-109087519D01*
X153272443Y-109087519D01*
G37*
G36*
X144831000Y-110731000D02*
X139649000Y-110731000D01*
X139649000Y-109359000D01*
X144831000Y-109359000D01*
X144831000Y-110731000D01*
X144831000Y-110731000D01*
G37*
G36*
X144271000Y-101091000D02*
X140209000Y-101091000D01*
X140209000Y-97029000D01*
X144271000Y-97029000D01*
X144271000Y-101091000D01*
X144271000Y-101091000D01*
G37*
G36*
X144831000Y-88761000D02*
X139649000Y-88761000D01*
X139649000Y-87389000D01*
X144831000Y-87389000D01*
X144831000Y-88761000D01*
X144831000Y-88761000D01*
G37*
G36*
X143225401Y-76961053D02*
X143713322Y-77058107D01*
X144632546Y-77438862D01*
X145459825Y-77991632D01*
X146163368Y-78695175D01*
X146716138Y-79522454D01*
X147096893Y-80441678D01*
X147291000Y-81417520D01*
X147291000Y-82412480D01*
X147096893Y-83388322D01*
X146716138Y-84307546D01*
X146163368Y-85134825D01*
X145459825Y-85838368D01*
X144632546Y-86391138D01*
X143713322Y-86771893D01*
X143225401Y-86868947D01*
X142737481Y-86966000D01*
X141742519Y-86966000D01*
X141254599Y-86868947D01*
X140766678Y-86771893D01*
X139847454Y-86391138D01*
X139020175Y-85838368D01*
X138316632Y-85134825D01*
X137763862Y-84307546D01*
X137383107Y-83388322D01*
X137189000Y-82412480D01*
X137189000Y-81417520D01*
X137383107Y-80441678D01*
X137763862Y-79522454D01*
X138316632Y-78695175D01*
X139020175Y-77991632D01*
X139847454Y-77438862D01*
X140766678Y-77058107D01*
X141254599Y-76961053D01*
X141742519Y-76864000D01*
X142737481Y-76864000D01*
X143225401Y-76961053D01*
X143225401Y-76961053D01*
G37*
G36*
X129915256Y-77131298D02*
X130021579Y-77152447D01*
X130322042Y-77276903D01*
X130564430Y-77438862D01*
X130592454Y-77457587D01*
X130822413Y-77687546D01*
X131003098Y-77957960D01*
X131039550Y-78045963D01*
X131127553Y-78258421D01*
X131191000Y-78577391D01*
X131191000Y-78902609D01*
X131127553Y-79221579D01*
X131003097Y-79522042D01*
X131002820Y-79522456D01*
X130822413Y-79792454D01*
X130592454Y-80022413D01*
X130592451Y-80022415D01*
X130322042Y-80203097D01*
X130021579Y-80327553D01*
X129915256Y-80348702D01*
X129702611Y-80391000D01*
X129377389Y-80391000D01*
X129164744Y-80348702D01*
X129058421Y-80327553D01*
X128757958Y-80203097D01*
X128487549Y-80022415D01*
X128487546Y-80022413D01*
X128257587Y-79792454D01*
X128077180Y-79522456D01*
X128076903Y-79522042D01*
X127952447Y-79221579D01*
X127889000Y-78902609D01*
X127889000Y-78577391D01*
X127952447Y-78258421D01*
X128040450Y-78045963D01*
X128076902Y-77957960D01*
X128257587Y-77687546D01*
X128487546Y-77457587D01*
X128515570Y-77438862D01*
X128757958Y-77276903D01*
X129058421Y-77152447D01*
X129164744Y-77131298D01*
X129377389Y-77089000D01*
X129702611Y-77089000D01*
X129915256Y-77131298D01*
X129915256Y-77131298D01*
G37*
G36*
X155315256Y-77131298D02*
X155421579Y-77152447D01*
X155722042Y-77276903D01*
X155964430Y-77438862D01*
X155992454Y-77457587D01*
X156222413Y-77687546D01*
X156403098Y-77957960D01*
X156439550Y-78045963D01*
X156527553Y-78258421D01*
X156591000Y-78577391D01*
X156591000Y-78902609D01*
X156527553Y-79221579D01*
X156403097Y-79522042D01*
X156402820Y-79522456D01*
X156222413Y-79792454D01*
X155992454Y-80022413D01*
X155992451Y-80022415D01*
X155722042Y-80203097D01*
X155421579Y-80327553D01*
X155315256Y-80348702D01*
X155102611Y-80391000D01*
X154777389Y-80391000D01*
X154564744Y-80348702D01*
X154458421Y-80327553D01*
X154157958Y-80203097D01*
X153887549Y-80022415D01*
X153887546Y-80022413D01*
X153657587Y-79792454D01*
X153477180Y-79522456D01*
X153476903Y-79522042D01*
X153352447Y-79221579D01*
X153289000Y-78902609D01*
X153289000Y-78577391D01*
X153352447Y-78258421D01*
X153440450Y-78045963D01*
X153476902Y-77957960D01*
X153657587Y-77687546D01*
X153887546Y-77457587D01*
X153915570Y-77438862D01*
X154157958Y-77276903D01*
X154458421Y-77152447D01*
X154564744Y-77131298D01*
X154777389Y-77089000D01*
X155102611Y-77089000D01*
X155315256Y-77131298D01*
X155315256Y-77131298D01*
G37*
M02*
