G04 #@! TF.GenerationSoftware,KiCad,Pcbnew,(5.0.2)-1*
G04 #@! TF.CreationDate,2019-02-01T18:11:43-06:00*
G04 #@! TF.ProjectId,matrix_badge,6d617472-6978-45f6-9261-6467652e6b69,rev?*
G04 #@! TF.SameCoordinates,Original*
G04 #@! TF.FileFunction,Legend,Top*
G04 #@! TF.FilePolarity,Positive*
%FSLAX46Y46*%
G04 Gerber Fmt 4.6, Leading zero omitted, Abs format (unit mm)*
G04 Created by KiCad (PCBNEW (5.0.2)-1) date 2/1/2019 6:11:43 PM*
%MOMM*%
%LPD*%
G01*
G04 APERTURE LIST*
%ADD10C,0.150000*%
%ADD11C,0.127000*%
%ADD12C,0.010000*%
%ADD13C,0.100000*%
%ADD14C,0.120000*%
G04 APERTURE END LIST*
D10*
X153670000Y-106680000D02*
X153670000Y-82296000D01*
X153924000Y-82550000D02*
X130556000Y-82550000D01*
D11*
X157048200Y-116332000D02*
X157048200Y-115036600D01*
X156972000Y-116408200D02*
X157048200Y-116332000D01*
X155676600Y-116408200D02*
X156972000Y-116408200D01*
D10*
G36*
X132842000Y-104851200D02*
X133350000Y-104851200D01*
X133350000Y-104673400D01*
X132842000Y-104673400D01*
X132842000Y-104851200D01*
G37*
X132842000Y-104851200D02*
X133350000Y-104851200D01*
X133350000Y-104673400D01*
X132842000Y-104673400D01*
X132842000Y-104851200D01*
G36*
X145161000Y-105410000D02*
X145669000Y-105664000D01*
X145161000Y-105918000D01*
X145161000Y-105410000D01*
G37*
X145161000Y-105410000D02*
X145669000Y-105664000D01*
X145161000Y-105918000D01*
X145161000Y-105410000D01*
G36*
X132461000Y-105410000D02*
X132969000Y-105664000D01*
X132461000Y-105918000D01*
X132461000Y-105410000D01*
G37*
X132461000Y-105410000D02*
X132969000Y-105664000D01*
X132461000Y-105918000D01*
X132461000Y-105410000D01*
G36*
X138811000Y-105410000D02*
X139319000Y-105664000D01*
X138811000Y-105918000D01*
X138811000Y-105410000D01*
G37*
X138811000Y-105410000D02*
X139319000Y-105664000D01*
X138811000Y-105918000D01*
X138811000Y-105410000D01*
G36*
X145542000Y-104851200D02*
X146050000Y-104851200D01*
X146050000Y-104673400D01*
X145542000Y-104673400D01*
X145542000Y-104851200D01*
G37*
X145542000Y-104851200D02*
X146050000Y-104851200D01*
X146050000Y-104673400D01*
X145542000Y-104673400D01*
X145542000Y-104851200D01*
G36*
X145542000Y-106654600D02*
X146050000Y-106654600D01*
X146050000Y-106476800D01*
X145542000Y-106476800D01*
X145542000Y-106654600D01*
G37*
X145542000Y-106654600D02*
X146050000Y-106654600D01*
X146050000Y-106476800D01*
X145542000Y-106476800D01*
X145542000Y-106654600D01*
G36*
X151892000Y-106654600D02*
X152400000Y-106654600D01*
X152400000Y-106476800D01*
X151892000Y-106476800D01*
X151892000Y-106654600D01*
G37*
X151892000Y-106654600D02*
X152400000Y-106654600D01*
X152400000Y-106476800D01*
X151892000Y-106476800D01*
X151892000Y-106654600D01*
G36*
X132842000Y-106654600D02*
X133350000Y-106654600D01*
X133350000Y-106476800D01*
X132842000Y-106476800D01*
X132842000Y-106654600D01*
G37*
X132842000Y-106654600D02*
X133350000Y-106654600D01*
X133350000Y-106476800D01*
X132842000Y-106476800D01*
X132842000Y-106654600D01*
G36*
X151511000Y-105410000D02*
X152019000Y-105664000D01*
X151511000Y-105918000D01*
X151511000Y-105410000D01*
G37*
X151511000Y-105410000D02*
X152019000Y-105664000D01*
X151511000Y-105918000D01*
X151511000Y-105410000D01*
G36*
X139192000Y-106654600D02*
X139700000Y-106654600D01*
X139700000Y-106476800D01*
X139192000Y-106476800D01*
X139192000Y-106654600D01*
G37*
X139192000Y-106654600D02*
X139700000Y-106654600D01*
X139700000Y-106476800D01*
X139192000Y-106476800D01*
X139192000Y-106654600D01*
G36*
X151892000Y-104851200D02*
X152400000Y-104851200D01*
X152400000Y-104673400D01*
X151892000Y-104673400D01*
X151892000Y-104851200D01*
G37*
X151892000Y-104851200D02*
X152400000Y-104851200D01*
X152400000Y-104673400D01*
X151892000Y-104673400D01*
X151892000Y-104851200D01*
G36*
X139192000Y-104851200D02*
X139700000Y-104851200D01*
X139700000Y-104673400D01*
X139192000Y-104673400D01*
X139192000Y-104851200D01*
G37*
X139192000Y-104851200D02*
X139700000Y-104851200D01*
X139700000Y-104673400D01*
X139192000Y-104673400D01*
X139192000Y-104851200D01*
G36*
X132842000Y-99263200D02*
X133350000Y-99263200D01*
X133350000Y-99085400D01*
X132842000Y-99085400D01*
X132842000Y-99263200D01*
G37*
X132842000Y-99263200D02*
X133350000Y-99263200D01*
X133350000Y-99085400D01*
X132842000Y-99085400D01*
X132842000Y-99263200D01*
G36*
X145161000Y-99822000D02*
X145669000Y-100076000D01*
X145161000Y-100330000D01*
X145161000Y-99822000D01*
G37*
X145161000Y-99822000D02*
X145669000Y-100076000D01*
X145161000Y-100330000D01*
X145161000Y-99822000D01*
G36*
X132461000Y-99822000D02*
X132969000Y-100076000D01*
X132461000Y-100330000D01*
X132461000Y-99822000D01*
G37*
X132461000Y-99822000D02*
X132969000Y-100076000D01*
X132461000Y-100330000D01*
X132461000Y-99822000D01*
G36*
X138811000Y-99822000D02*
X139319000Y-100076000D01*
X138811000Y-100330000D01*
X138811000Y-99822000D01*
G37*
X138811000Y-99822000D02*
X139319000Y-100076000D01*
X138811000Y-100330000D01*
X138811000Y-99822000D01*
G36*
X145542000Y-99263200D02*
X146050000Y-99263200D01*
X146050000Y-99085400D01*
X145542000Y-99085400D01*
X145542000Y-99263200D01*
G37*
X145542000Y-99263200D02*
X146050000Y-99263200D01*
X146050000Y-99085400D01*
X145542000Y-99085400D01*
X145542000Y-99263200D01*
G36*
X145542000Y-101066600D02*
X146050000Y-101066600D01*
X146050000Y-100888800D01*
X145542000Y-100888800D01*
X145542000Y-101066600D01*
G37*
X145542000Y-101066600D02*
X146050000Y-101066600D01*
X146050000Y-100888800D01*
X145542000Y-100888800D01*
X145542000Y-101066600D01*
G36*
X151892000Y-101066600D02*
X152400000Y-101066600D01*
X152400000Y-100888800D01*
X151892000Y-100888800D01*
X151892000Y-101066600D01*
G37*
X151892000Y-101066600D02*
X152400000Y-101066600D01*
X152400000Y-100888800D01*
X151892000Y-100888800D01*
X151892000Y-101066600D01*
G36*
X132842000Y-101066600D02*
X133350000Y-101066600D01*
X133350000Y-100888800D01*
X132842000Y-100888800D01*
X132842000Y-101066600D01*
G37*
X132842000Y-101066600D02*
X133350000Y-101066600D01*
X133350000Y-100888800D01*
X132842000Y-100888800D01*
X132842000Y-101066600D01*
G36*
X151511000Y-99822000D02*
X152019000Y-100076000D01*
X151511000Y-100330000D01*
X151511000Y-99822000D01*
G37*
X151511000Y-99822000D02*
X152019000Y-100076000D01*
X151511000Y-100330000D01*
X151511000Y-99822000D01*
G36*
X139192000Y-101066600D02*
X139700000Y-101066600D01*
X139700000Y-100888800D01*
X139192000Y-100888800D01*
X139192000Y-101066600D01*
G37*
X139192000Y-101066600D02*
X139700000Y-101066600D01*
X139700000Y-100888800D01*
X139192000Y-100888800D01*
X139192000Y-101066600D01*
G36*
X151892000Y-99263200D02*
X152400000Y-99263200D01*
X152400000Y-99085400D01*
X151892000Y-99085400D01*
X151892000Y-99263200D01*
G37*
X151892000Y-99263200D02*
X152400000Y-99263200D01*
X152400000Y-99085400D01*
X151892000Y-99085400D01*
X151892000Y-99263200D01*
G36*
X139192000Y-99263200D02*
X139700000Y-99263200D01*
X139700000Y-99085400D01*
X139192000Y-99085400D01*
X139192000Y-99263200D01*
G37*
X139192000Y-99263200D02*
X139700000Y-99263200D01*
X139700000Y-99085400D01*
X139192000Y-99085400D01*
X139192000Y-99263200D01*
G36*
X132842000Y-93675200D02*
X133350000Y-93675200D01*
X133350000Y-93497400D01*
X132842000Y-93497400D01*
X132842000Y-93675200D01*
G37*
X132842000Y-93675200D02*
X133350000Y-93675200D01*
X133350000Y-93497400D01*
X132842000Y-93497400D01*
X132842000Y-93675200D01*
G36*
X145161000Y-94234000D02*
X145669000Y-94488000D01*
X145161000Y-94742000D01*
X145161000Y-94234000D01*
G37*
X145161000Y-94234000D02*
X145669000Y-94488000D01*
X145161000Y-94742000D01*
X145161000Y-94234000D01*
G36*
X132461000Y-94234000D02*
X132969000Y-94488000D01*
X132461000Y-94742000D01*
X132461000Y-94234000D01*
G37*
X132461000Y-94234000D02*
X132969000Y-94488000D01*
X132461000Y-94742000D01*
X132461000Y-94234000D01*
G36*
X138811000Y-94234000D02*
X139319000Y-94488000D01*
X138811000Y-94742000D01*
X138811000Y-94234000D01*
G37*
X138811000Y-94234000D02*
X139319000Y-94488000D01*
X138811000Y-94742000D01*
X138811000Y-94234000D01*
G36*
X145542000Y-93675200D02*
X146050000Y-93675200D01*
X146050000Y-93497400D01*
X145542000Y-93497400D01*
X145542000Y-93675200D01*
G37*
X145542000Y-93675200D02*
X146050000Y-93675200D01*
X146050000Y-93497400D01*
X145542000Y-93497400D01*
X145542000Y-93675200D01*
G36*
X145542000Y-95478600D02*
X146050000Y-95478600D01*
X146050000Y-95300800D01*
X145542000Y-95300800D01*
X145542000Y-95478600D01*
G37*
X145542000Y-95478600D02*
X146050000Y-95478600D01*
X146050000Y-95300800D01*
X145542000Y-95300800D01*
X145542000Y-95478600D01*
G36*
X151892000Y-95478600D02*
X152400000Y-95478600D01*
X152400000Y-95300800D01*
X151892000Y-95300800D01*
X151892000Y-95478600D01*
G37*
X151892000Y-95478600D02*
X152400000Y-95478600D01*
X152400000Y-95300800D01*
X151892000Y-95300800D01*
X151892000Y-95478600D01*
G36*
X132842000Y-95478600D02*
X133350000Y-95478600D01*
X133350000Y-95300800D01*
X132842000Y-95300800D01*
X132842000Y-95478600D01*
G37*
X132842000Y-95478600D02*
X133350000Y-95478600D01*
X133350000Y-95300800D01*
X132842000Y-95300800D01*
X132842000Y-95478600D01*
G36*
X151511000Y-94234000D02*
X152019000Y-94488000D01*
X151511000Y-94742000D01*
X151511000Y-94234000D01*
G37*
X151511000Y-94234000D02*
X152019000Y-94488000D01*
X151511000Y-94742000D01*
X151511000Y-94234000D01*
G36*
X139192000Y-95478600D02*
X139700000Y-95478600D01*
X139700000Y-95300800D01*
X139192000Y-95300800D01*
X139192000Y-95478600D01*
G37*
X139192000Y-95478600D02*
X139700000Y-95478600D01*
X139700000Y-95300800D01*
X139192000Y-95300800D01*
X139192000Y-95478600D01*
G36*
X151892000Y-93675200D02*
X152400000Y-93675200D01*
X152400000Y-93497400D01*
X151892000Y-93497400D01*
X151892000Y-93675200D01*
G37*
X151892000Y-93675200D02*
X152400000Y-93675200D01*
X152400000Y-93497400D01*
X151892000Y-93497400D01*
X151892000Y-93675200D01*
G36*
X139192000Y-93675200D02*
X139700000Y-93675200D01*
X139700000Y-93497400D01*
X139192000Y-93497400D01*
X139192000Y-93675200D01*
G37*
X139192000Y-93675200D02*
X139700000Y-93675200D01*
X139700000Y-93497400D01*
X139192000Y-93497400D01*
X139192000Y-93675200D01*
G36*
X132842000Y-88087200D02*
X133350000Y-88087200D01*
X133350000Y-87909400D01*
X132842000Y-87909400D01*
X132842000Y-88087200D01*
G37*
X132842000Y-88087200D02*
X133350000Y-88087200D01*
X133350000Y-87909400D01*
X132842000Y-87909400D01*
X132842000Y-88087200D01*
G36*
X145161000Y-88646000D02*
X145669000Y-88900000D01*
X145161000Y-89154000D01*
X145161000Y-88646000D01*
G37*
X145161000Y-88646000D02*
X145669000Y-88900000D01*
X145161000Y-89154000D01*
X145161000Y-88646000D01*
G36*
X132461000Y-88646000D02*
X132969000Y-88900000D01*
X132461000Y-89154000D01*
X132461000Y-88646000D01*
G37*
X132461000Y-88646000D02*
X132969000Y-88900000D01*
X132461000Y-89154000D01*
X132461000Y-88646000D01*
G36*
X138811000Y-88646000D02*
X139319000Y-88900000D01*
X138811000Y-89154000D01*
X138811000Y-88646000D01*
G37*
X138811000Y-88646000D02*
X139319000Y-88900000D01*
X138811000Y-89154000D01*
X138811000Y-88646000D01*
G36*
X145542000Y-88087200D02*
X146050000Y-88087200D01*
X146050000Y-87909400D01*
X145542000Y-87909400D01*
X145542000Y-88087200D01*
G37*
X145542000Y-88087200D02*
X146050000Y-88087200D01*
X146050000Y-87909400D01*
X145542000Y-87909400D01*
X145542000Y-88087200D01*
G36*
X145542000Y-89890600D02*
X146050000Y-89890600D01*
X146050000Y-89712800D01*
X145542000Y-89712800D01*
X145542000Y-89890600D01*
G37*
X145542000Y-89890600D02*
X146050000Y-89890600D01*
X146050000Y-89712800D01*
X145542000Y-89712800D01*
X145542000Y-89890600D01*
G36*
X151892000Y-89890600D02*
X152400000Y-89890600D01*
X152400000Y-89712800D01*
X151892000Y-89712800D01*
X151892000Y-89890600D01*
G37*
X151892000Y-89890600D02*
X152400000Y-89890600D01*
X152400000Y-89712800D01*
X151892000Y-89712800D01*
X151892000Y-89890600D01*
G36*
X132842000Y-89890600D02*
X133350000Y-89890600D01*
X133350000Y-89712800D01*
X132842000Y-89712800D01*
X132842000Y-89890600D01*
G37*
X132842000Y-89890600D02*
X133350000Y-89890600D01*
X133350000Y-89712800D01*
X132842000Y-89712800D01*
X132842000Y-89890600D01*
G36*
X151511000Y-88646000D02*
X152019000Y-88900000D01*
X151511000Y-89154000D01*
X151511000Y-88646000D01*
G37*
X151511000Y-88646000D02*
X152019000Y-88900000D01*
X151511000Y-89154000D01*
X151511000Y-88646000D01*
G36*
X139192000Y-89890600D02*
X139700000Y-89890600D01*
X139700000Y-89712800D01*
X139192000Y-89712800D01*
X139192000Y-89890600D01*
G37*
X139192000Y-89890600D02*
X139700000Y-89890600D01*
X139700000Y-89712800D01*
X139192000Y-89712800D01*
X139192000Y-89890600D01*
G36*
X151892000Y-88087200D02*
X152400000Y-88087200D01*
X152400000Y-87909400D01*
X151892000Y-87909400D01*
X151892000Y-88087200D01*
G37*
X151892000Y-88087200D02*
X152400000Y-88087200D01*
X152400000Y-87909400D01*
X151892000Y-87909400D01*
X151892000Y-88087200D01*
G36*
X139192000Y-88087200D02*
X139700000Y-88087200D01*
X139700000Y-87909400D01*
X139192000Y-87909400D01*
X139192000Y-88087200D01*
G37*
X139192000Y-88087200D02*
X139700000Y-88087200D01*
X139700000Y-87909400D01*
X139192000Y-87909400D01*
X139192000Y-88087200D01*
G36*
X151511000Y-83058000D02*
X152019000Y-83312000D01*
X151511000Y-83566000D01*
X151511000Y-83058000D01*
G37*
X151511000Y-83058000D02*
X152019000Y-83312000D01*
X151511000Y-83566000D01*
X151511000Y-83058000D01*
G36*
X145161000Y-83058000D02*
X145669000Y-83312000D01*
X145161000Y-83566000D01*
X145161000Y-83058000D01*
G37*
X145161000Y-83058000D02*
X145669000Y-83312000D01*
X145161000Y-83566000D01*
X145161000Y-83058000D01*
G36*
X138811000Y-83058000D02*
X139319000Y-83312000D01*
X138811000Y-83566000D01*
X138811000Y-83058000D01*
G37*
X138811000Y-83058000D02*
X139319000Y-83312000D01*
X138811000Y-83566000D01*
X138811000Y-83058000D01*
G36*
X132461000Y-83058000D02*
X132969000Y-83312000D01*
X132461000Y-83566000D01*
X132461000Y-83058000D01*
G37*
X132461000Y-83058000D02*
X132969000Y-83312000D01*
X132461000Y-83566000D01*
X132461000Y-83058000D01*
G36*
X151892000Y-82499200D02*
X152400000Y-82499200D01*
X152400000Y-82321400D01*
X151892000Y-82321400D01*
X151892000Y-82499200D01*
G37*
X151892000Y-82499200D02*
X152400000Y-82499200D01*
X152400000Y-82321400D01*
X151892000Y-82321400D01*
X151892000Y-82499200D01*
G36*
X151892000Y-84302600D02*
X152400000Y-84302600D01*
X152400000Y-84124800D01*
X151892000Y-84124800D01*
X151892000Y-84302600D01*
G37*
X151892000Y-84302600D02*
X152400000Y-84302600D01*
X152400000Y-84124800D01*
X151892000Y-84124800D01*
X151892000Y-84302600D01*
G36*
X145542000Y-82499200D02*
X146050000Y-82499200D01*
X146050000Y-82321400D01*
X145542000Y-82321400D01*
X145542000Y-82499200D01*
G37*
X145542000Y-82499200D02*
X146050000Y-82499200D01*
X146050000Y-82321400D01*
X145542000Y-82321400D01*
X145542000Y-82499200D01*
G36*
X145542000Y-84302600D02*
X146050000Y-84302600D01*
X146050000Y-84124800D01*
X145542000Y-84124800D01*
X145542000Y-84302600D01*
G37*
X145542000Y-84302600D02*
X146050000Y-84302600D01*
X146050000Y-84124800D01*
X145542000Y-84124800D01*
X145542000Y-84302600D01*
G36*
X139192000Y-82499200D02*
X139700000Y-82499200D01*
X139700000Y-82321400D01*
X139192000Y-82321400D01*
X139192000Y-82499200D01*
G37*
X139192000Y-82499200D02*
X139700000Y-82499200D01*
X139700000Y-82321400D01*
X139192000Y-82321400D01*
X139192000Y-82499200D01*
G36*
X139192000Y-84302600D02*
X139700000Y-84302600D01*
X139700000Y-84124800D01*
X139192000Y-84124800D01*
X139192000Y-84302600D01*
G37*
X139192000Y-84302600D02*
X139700000Y-84302600D01*
X139700000Y-84124800D01*
X139192000Y-84124800D01*
X139192000Y-84302600D01*
G36*
X132842000Y-84302600D02*
X133350000Y-84302600D01*
X133350000Y-84124800D01*
X132842000Y-84124800D01*
X132842000Y-84302600D01*
G37*
X132842000Y-84302600D02*
X133350000Y-84302600D01*
X133350000Y-84124800D01*
X132842000Y-84124800D01*
X132842000Y-84302600D01*
G36*
X132842000Y-82499200D02*
X133350000Y-82499200D01*
X133350000Y-82321400D01*
X132842000Y-82321400D01*
X132842000Y-82499200D01*
G37*
X132842000Y-82499200D02*
X133350000Y-82499200D01*
X133350000Y-82321400D01*
X132842000Y-82321400D01*
X132842000Y-82499200D01*
X130810000Y-106680000D02*
X130810000Y-82296000D01*
X153924000Y-106426000D02*
X130556000Y-106426000D01*
D12*
G04 #@! TO.C,G\002A\002A\002A*
G36*
X141376283Y-77208709D02*
X141433228Y-77254186D01*
X141452314Y-77283179D01*
X141466780Y-77315832D01*
X141474954Y-77349361D01*
X141475659Y-77387025D01*
X141467719Y-77432086D01*
X141449958Y-77487804D01*
X141421200Y-77557439D01*
X141380269Y-77644253D01*
X141325988Y-77751505D01*
X141257183Y-77882456D01*
X141192538Y-78003400D01*
X141126872Y-78125226D01*
X141074784Y-78220347D01*
X141034155Y-78292065D01*
X141002867Y-78343685D01*
X140978800Y-78378511D01*
X140959838Y-78399845D01*
X140943860Y-78410992D01*
X140928748Y-78415255D01*
X140928403Y-78415297D01*
X140882441Y-78420795D01*
X140888238Y-77966564D01*
X140890116Y-77829828D01*
X140892096Y-77722429D01*
X140894555Y-77639838D01*
X140897867Y-77577524D01*
X140902408Y-77530960D01*
X140908554Y-77495617D01*
X140916681Y-77466964D01*
X140927163Y-77440474D01*
X140932926Y-77427666D01*
X140993048Y-77325407D01*
X141067645Y-77251435D01*
X141130867Y-77214236D01*
X141218331Y-77187282D01*
X141302393Y-77185923D01*
X141376283Y-77208709D01*
X141376283Y-77208709D01*
G37*
X141376283Y-77208709D02*
X141433228Y-77254186D01*
X141452314Y-77283179D01*
X141466780Y-77315832D01*
X141474954Y-77349361D01*
X141475659Y-77387025D01*
X141467719Y-77432086D01*
X141449958Y-77487804D01*
X141421200Y-77557439D01*
X141380269Y-77644253D01*
X141325988Y-77751505D01*
X141257183Y-77882456D01*
X141192538Y-78003400D01*
X141126872Y-78125226D01*
X141074784Y-78220347D01*
X141034155Y-78292065D01*
X141002867Y-78343685D01*
X140978800Y-78378511D01*
X140959838Y-78399845D01*
X140943860Y-78410992D01*
X140928748Y-78415255D01*
X140928403Y-78415297D01*
X140882441Y-78420795D01*
X140888238Y-77966564D01*
X140890116Y-77829828D01*
X140892096Y-77722429D01*
X140894555Y-77639838D01*
X140897867Y-77577524D01*
X140902408Y-77530960D01*
X140908554Y-77495617D01*
X140916681Y-77466964D01*
X140927163Y-77440474D01*
X140932926Y-77427666D01*
X140993048Y-77325407D01*
X141067645Y-77251435D01*
X141130867Y-77214236D01*
X141218331Y-77187282D01*
X141302393Y-77185923D01*
X141376283Y-77208709D01*
G36*
X139089323Y-77050257D02*
X139129679Y-77053424D01*
X139141200Y-77058344D01*
X139136600Y-77077435D01*
X139123463Y-77125523D01*
X139102790Y-77199108D01*
X139075578Y-77294688D01*
X139042827Y-77408765D01*
X139005534Y-77537837D01*
X138964698Y-77678405D01*
X138946467Y-77740933D01*
X138904452Y-77885139D01*
X138865550Y-78019167D01*
X138830757Y-78139545D01*
X138801069Y-78242802D01*
X138777483Y-78325467D01*
X138760996Y-78384070D01*
X138752605Y-78415140D01*
X138751733Y-78419173D01*
X138762932Y-78412025D01*
X138793673Y-78384785D01*
X138839670Y-78341430D01*
X138896641Y-78285936D01*
X138916833Y-78265922D01*
X138997873Y-78187828D01*
X139065105Y-78129754D01*
X139126342Y-78085648D01*
X139189396Y-78049462D01*
X139208933Y-78039684D01*
X139340091Y-77988836D01*
X139463950Y-77965840D01*
X139577510Y-77969312D01*
X139677770Y-77997871D01*
X139761730Y-78050135D01*
X139826391Y-78124721D01*
X139868752Y-78220246D01*
X139885813Y-78335330D01*
X139886017Y-78351646D01*
X139884700Y-78401762D01*
X139880271Y-78452199D01*
X139871657Y-78507262D01*
X139857786Y-78571259D01*
X139837585Y-78648497D01*
X139809982Y-78743281D01*
X139773905Y-78859918D01*
X139728281Y-79002716D01*
X139709176Y-79061777D01*
X139673567Y-79173123D01*
X139641781Y-79275414D01*
X139615274Y-79363726D01*
X139595502Y-79433136D01*
X139583921Y-79478719D01*
X139581467Y-79493701D01*
X139592078Y-79533468D01*
X139606647Y-79552617D01*
X139647515Y-79566527D01*
X139697356Y-79549808D01*
X139754496Y-79503982D01*
X139817261Y-79430569D01*
X139883976Y-79331092D01*
X139921151Y-79266899D01*
X139957525Y-79201978D01*
X139984165Y-79162413D01*
X140008220Y-79144204D01*
X140036836Y-79143347D01*
X140077160Y-79155841D01*
X140102549Y-79165320D01*
X140141031Y-79179719D01*
X140087852Y-79285826D01*
X140000589Y-79436376D01*
X139902445Y-79563779D01*
X139795985Y-79666336D01*
X139683773Y-79742348D01*
X139568374Y-79790116D01*
X139452351Y-79807941D01*
X139338269Y-79794124D01*
X139326003Y-79790616D01*
X139243196Y-79748813D01*
X139179164Y-79682428D01*
X139138123Y-79597457D01*
X139124267Y-79503708D01*
X139131447Y-79428456D01*
X139152511Y-79325510D01*
X139186743Y-79197733D01*
X139233429Y-79047989D01*
X139251529Y-78994000D01*
X139302111Y-78840138D01*
X139344377Y-78700553D01*
X139377305Y-78579114D01*
X139399876Y-78479695D01*
X139411069Y-78406166D01*
X139412134Y-78384415D01*
X139407215Y-78326465D01*
X139389016Y-78286781D01*
X139370473Y-78266498D01*
X139316698Y-78237158D01*
X139251536Y-78236337D01*
X139177470Y-78261659D01*
X139096984Y-78310750D01*
X139012561Y-78381232D01*
X138926685Y-78470729D01*
X138841838Y-78576865D01*
X138760503Y-78697263D01*
X138685165Y-78829549D01*
X138618305Y-78971345D01*
X138608018Y-78996086D01*
X138580150Y-79070050D01*
X138547923Y-79164341D01*
X138515451Y-79266497D01*
X138488450Y-79358308D01*
X138462539Y-79450739D01*
X138436975Y-79541660D01*
X138414639Y-79620842D01*
X138398412Y-79678057D01*
X138397915Y-79679800D01*
X138368920Y-79781400D01*
X138128527Y-79786098D01*
X138042704Y-79787165D01*
X137970417Y-79786900D01*
X137917680Y-79785417D01*
X137890506Y-79782828D01*
X137888134Y-79781582D01*
X137892673Y-79764198D01*
X137905803Y-79716837D01*
X137926792Y-79642081D01*
X137954907Y-79542510D01*
X137989416Y-79420706D01*
X138029587Y-79279251D01*
X138074688Y-79120725D01*
X138123987Y-78947710D01*
X138176752Y-78762787D01*
X138226800Y-78587600D01*
X138282261Y-78392894D01*
X138334896Y-78206785D01*
X138383963Y-78031971D01*
X138428723Y-77871153D01*
X138468436Y-77727030D01*
X138502361Y-77602303D01*
X138529759Y-77499672D01*
X138549889Y-77421836D01*
X138562011Y-77371495D01*
X138565467Y-77352184D01*
X138550278Y-77304183D01*
X138505291Y-77271003D01*
X138431378Y-77253099D01*
X138369599Y-77249867D01*
X138315642Y-77248982D01*
X138288352Y-77244183D01*
X138280541Y-77232250D01*
X138284500Y-77211767D01*
X138296889Y-77164263D01*
X138305137Y-77129037D01*
X138314925Y-77084407D01*
X138529096Y-77073837D01*
X138637211Y-77068469D01*
X138758089Y-77062415D01*
X138874368Y-77056548D01*
X138942233Y-77053096D01*
X139025062Y-77050100D01*
X139089323Y-77050257D01*
X139089323Y-77050257D01*
G37*
X139089323Y-77050257D02*
X139129679Y-77053424D01*
X139141200Y-77058344D01*
X139136600Y-77077435D01*
X139123463Y-77125523D01*
X139102790Y-77199108D01*
X139075578Y-77294688D01*
X139042827Y-77408765D01*
X139005534Y-77537837D01*
X138964698Y-77678405D01*
X138946467Y-77740933D01*
X138904452Y-77885139D01*
X138865550Y-78019167D01*
X138830757Y-78139545D01*
X138801069Y-78242802D01*
X138777483Y-78325467D01*
X138760996Y-78384070D01*
X138752605Y-78415140D01*
X138751733Y-78419173D01*
X138762932Y-78412025D01*
X138793673Y-78384785D01*
X138839670Y-78341430D01*
X138896641Y-78285936D01*
X138916833Y-78265922D01*
X138997873Y-78187828D01*
X139065105Y-78129754D01*
X139126342Y-78085648D01*
X139189396Y-78049462D01*
X139208933Y-78039684D01*
X139340091Y-77988836D01*
X139463950Y-77965840D01*
X139577510Y-77969312D01*
X139677770Y-77997871D01*
X139761730Y-78050135D01*
X139826391Y-78124721D01*
X139868752Y-78220246D01*
X139885813Y-78335330D01*
X139886017Y-78351646D01*
X139884700Y-78401762D01*
X139880271Y-78452199D01*
X139871657Y-78507262D01*
X139857786Y-78571259D01*
X139837585Y-78648497D01*
X139809982Y-78743281D01*
X139773905Y-78859918D01*
X139728281Y-79002716D01*
X139709176Y-79061777D01*
X139673567Y-79173123D01*
X139641781Y-79275414D01*
X139615274Y-79363726D01*
X139595502Y-79433136D01*
X139583921Y-79478719D01*
X139581467Y-79493701D01*
X139592078Y-79533468D01*
X139606647Y-79552617D01*
X139647515Y-79566527D01*
X139697356Y-79549808D01*
X139754496Y-79503982D01*
X139817261Y-79430569D01*
X139883976Y-79331092D01*
X139921151Y-79266899D01*
X139957525Y-79201978D01*
X139984165Y-79162413D01*
X140008220Y-79144204D01*
X140036836Y-79143347D01*
X140077160Y-79155841D01*
X140102549Y-79165320D01*
X140141031Y-79179719D01*
X140087852Y-79285826D01*
X140000589Y-79436376D01*
X139902445Y-79563779D01*
X139795985Y-79666336D01*
X139683773Y-79742348D01*
X139568374Y-79790116D01*
X139452351Y-79807941D01*
X139338269Y-79794124D01*
X139326003Y-79790616D01*
X139243196Y-79748813D01*
X139179164Y-79682428D01*
X139138123Y-79597457D01*
X139124267Y-79503708D01*
X139131447Y-79428456D01*
X139152511Y-79325510D01*
X139186743Y-79197733D01*
X139233429Y-79047989D01*
X139251529Y-78994000D01*
X139302111Y-78840138D01*
X139344377Y-78700553D01*
X139377305Y-78579114D01*
X139399876Y-78479695D01*
X139411069Y-78406166D01*
X139412134Y-78384415D01*
X139407215Y-78326465D01*
X139389016Y-78286781D01*
X139370473Y-78266498D01*
X139316698Y-78237158D01*
X139251536Y-78236337D01*
X139177470Y-78261659D01*
X139096984Y-78310750D01*
X139012561Y-78381232D01*
X138926685Y-78470729D01*
X138841838Y-78576865D01*
X138760503Y-78697263D01*
X138685165Y-78829549D01*
X138618305Y-78971345D01*
X138608018Y-78996086D01*
X138580150Y-79070050D01*
X138547923Y-79164341D01*
X138515451Y-79266497D01*
X138488450Y-79358308D01*
X138462539Y-79450739D01*
X138436975Y-79541660D01*
X138414639Y-79620842D01*
X138398412Y-79678057D01*
X138397915Y-79679800D01*
X138368920Y-79781400D01*
X138128527Y-79786098D01*
X138042704Y-79787165D01*
X137970417Y-79786900D01*
X137917680Y-79785417D01*
X137890506Y-79782828D01*
X137888134Y-79781582D01*
X137892673Y-79764198D01*
X137905803Y-79716837D01*
X137926792Y-79642081D01*
X137954907Y-79542510D01*
X137989416Y-79420706D01*
X138029587Y-79279251D01*
X138074688Y-79120725D01*
X138123987Y-78947710D01*
X138176752Y-78762787D01*
X138226800Y-78587600D01*
X138282261Y-78392894D01*
X138334896Y-78206785D01*
X138383963Y-78031971D01*
X138428723Y-77871153D01*
X138468436Y-77727030D01*
X138502361Y-77602303D01*
X138529759Y-77499672D01*
X138549889Y-77421836D01*
X138562011Y-77371495D01*
X138565467Y-77352184D01*
X138550278Y-77304183D01*
X138505291Y-77271003D01*
X138431378Y-77253099D01*
X138369599Y-77249867D01*
X138315642Y-77248982D01*
X138288352Y-77244183D01*
X138280541Y-77232250D01*
X138284500Y-77211767D01*
X138296889Y-77164263D01*
X138305137Y-77129037D01*
X138314925Y-77084407D01*
X138529096Y-77073837D01*
X138637211Y-77068469D01*
X138758089Y-77062415D01*
X138874368Y-77056548D01*
X138942233Y-77053096D01*
X139025062Y-77050100D01*
X139089323Y-77050257D01*
G36*
X149100807Y-77995555D02*
X149148586Y-78016522D01*
X149216218Y-78068349D01*
X149260199Y-78135256D01*
X149281425Y-78210911D01*
X149280795Y-78288981D01*
X149259204Y-78363132D01*
X149217552Y-78427033D01*
X149156733Y-78474351D01*
X149080321Y-78498407D01*
X148999353Y-78495656D01*
X148931021Y-78462929D01*
X148873115Y-78398934D01*
X148853164Y-78365745D01*
X148824820Y-78320124D01*
X148799366Y-78289997D01*
X148786845Y-78282800D01*
X148761960Y-78292900D01*
X148727798Y-78324571D01*
X148682685Y-78379870D01*
X148624949Y-78460851D01*
X148552914Y-78569571D01*
X148551032Y-78572481D01*
X148424017Y-78769030D01*
X148547668Y-79130617D01*
X148592503Y-79259690D01*
X148629356Y-79359908D01*
X148660180Y-79434793D01*
X148686925Y-79487867D01*
X148711540Y-79522654D01*
X148735976Y-79542675D01*
X148762184Y-79551454D01*
X148781418Y-79552800D01*
X148815025Y-79539493D01*
X148860720Y-79503758D01*
X148912616Y-79451870D01*
X148964830Y-79390105D01*
X149011476Y-79324738D01*
X149038457Y-79278686D01*
X149088669Y-79182372D01*
X149153107Y-79218589D01*
X149185042Y-79237672D01*
X149202563Y-79255408D01*
X149204758Y-79278009D01*
X149190712Y-79311689D01*
X149159512Y-79362661D01*
X149124011Y-79416414D01*
X149030198Y-79540312D01*
X148929346Y-79642834D01*
X148824489Y-79723112D01*
X148718665Y-79780279D01*
X148614909Y-79813469D01*
X148516259Y-79821815D01*
X148425750Y-79804449D01*
X148346418Y-79760504D01*
X148281299Y-79689114D01*
X148264750Y-79661779D01*
X148237590Y-79606516D01*
X148205369Y-79532462D01*
X148173793Y-79452934D01*
X148164519Y-79427850D01*
X148137995Y-79357534D01*
X148118959Y-79315608D01*
X148105063Y-79298057D01*
X148093958Y-79300863D01*
X148091836Y-79303556D01*
X148074994Y-79327561D01*
X148043533Y-79372430D01*
X148002269Y-79431291D01*
X147964969Y-79484504D01*
X147912231Y-79555934D01*
X147857198Y-79624179D01*
X147807721Y-79679780D01*
X147781996Y-79704893D01*
X147684662Y-79771660D01*
X147578589Y-79811326D01*
X147470207Y-79822767D01*
X147365948Y-79804862D01*
X147319492Y-79785633D01*
X147241861Y-79730339D01*
X147190712Y-79659250D01*
X147168079Y-79577857D01*
X147175993Y-79491654D01*
X147193560Y-79445292D01*
X147238913Y-79379759D01*
X147300740Y-79340491D01*
X147383833Y-79324771D01*
X147407122Y-79324200D01*
X147475926Y-79329559D01*
X147527211Y-79349440D01*
X147569114Y-79389549D01*
X147609775Y-79455592D01*
X147618449Y-79472367D01*
X147644361Y-79517415D01*
X147667038Y-79546603D01*
X147676999Y-79552800D01*
X147719129Y-79536949D01*
X147772205Y-79489765D01*
X147835763Y-79411805D01*
X147909342Y-79303625D01*
X147977621Y-79191402D01*
X148043900Y-79077982D01*
X147935154Y-78761467D01*
X147899491Y-78658698D01*
X147865370Y-78562254D01*
X147835100Y-78478525D01*
X147810993Y-78413898D01*
X147795359Y-78374763D01*
X147795032Y-78374022D01*
X147758827Y-78314633D01*
X147717708Y-78288628D01*
X147671922Y-78295920D01*
X147621715Y-78336420D01*
X147567334Y-78410042D01*
X147534671Y-78466592D01*
X147469467Y-78587817D01*
X147415900Y-78550859D01*
X147380159Y-78526168D01*
X147358698Y-78511283D01*
X147356833Y-78509972D01*
X147361193Y-78494097D01*
X147377529Y-78455018D01*
X147402778Y-78399874D01*
X147415490Y-78373255D01*
X147491523Y-78242253D01*
X147580059Y-78135503D01*
X147678189Y-78055114D01*
X147783002Y-78003200D01*
X147891590Y-77981871D01*
X147951879Y-77983943D01*
X148028869Y-78001871D01*
X148094747Y-78038091D01*
X148152284Y-78095911D01*
X148204252Y-78178641D01*
X148253422Y-78289590D01*
X148287189Y-78384400D01*
X148310433Y-78453646D01*
X148330064Y-78510608D01*
X148343459Y-78547753D01*
X148347553Y-78557660D01*
X148358962Y-78549253D01*
X148385071Y-78517360D01*
X148422131Y-78466896D01*
X148466395Y-78402777D01*
X148471607Y-78395004D01*
X148582142Y-78244850D01*
X148690591Y-78128026D01*
X148796818Y-78044609D01*
X148900687Y-77994674D01*
X149002062Y-77978297D01*
X149100807Y-77995555D01*
X149100807Y-77995555D01*
G37*
X149100807Y-77995555D02*
X149148586Y-78016522D01*
X149216218Y-78068349D01*
X149260199Y-78135256D01*
X149281425Y-78210911D01*
X149280795Y-78288981D01*
X149259204Y-78363132D01*
X149217552Y-78427033D01*
X149156733Y-78474351D01*
X149080321Y-78498407D01*
X148999353Y-78495656D01*
X148931021Y-78462929D01*
X148873115Y-78398934D01*
X148853164Y-78365745D01*
X148824820Y-78320124D01*
X148799366Y-78289997D01*
X148786845Y-78282800D01*
X148761960Y-78292900D01*
X148727798Y-78324571D01*
X148682685Y-78379870D01*
X148624949Y-78460851D01*
X148552914Y-78569571D01*
X148551032Y-78572481D01*
X148424017Y-78769030D01*
X148547668Y-79130617D01*
X148592503Y-79259690D01*
X148629356Y-79359908D01*
X148660180Y-79434793D01*
X148686925Y-79487867D01*
X148711540Y-79522654D01*
X148735976Y-79542675D01*
X148762184Y-79551454D01*
X148781418Y-79552800D01*
X148815025Y-79539493D01*
X148860720Y-79503758D01*
X148912616Y-79451870D01*
X148964830Y-79390105D01*
X149011476Y-79324738D01*
X149038457Y-79278686D01*
X149088669Y-79182372D01*
X149153107Y-79218589D01*
X149185042Y-79237672D01*
X149202563Y-79255408D01*
X149204758Y-79278009D01*
X149190712Y-79311689D01*
X149159512Y-79362661D01*
X149124011Y-79416414D01*
X149030198Y-79540312D01*
X148929346Y-79642834D01*
X148824489Y-79723112D01*
X148718665Y-79780279D01*
X148614909Y-79813469D01*
X148516259Y-79821815D01*
X148425750Y-79804449D01*
X148346418Y-79760504D01*
X148281299Y-79689114D01*
X148264750Y-79661779D01*
X148237590Y-79606516D01*
X148205369Y-79532462D01*
X148173793Y-79452934D01*
X148164519Y-79427850D01*
X148137995Y-79357534D01*
X148118959Y-79315608D01*
X148105063Y-79298057D01*
X148093958Y-79300863D01*
X148091836Y-79303556D01*
X148074994Y-79327561D01*
X148043533Y-79372430D01*
X148002269Y-79431291D01*
X147964969Y-79484504D01*
X147912231Y-79555934D01*
X147857198Y-79624179D01*
X147807721Y-79679780D01*
X147781996Y-79704893D01*
X147684662Y-79771660D01*
X147578589Y-79811326D01*
X147470207Y-79822767D01*
X147365948Y-79804862D01*
X147319492Y-79785633D01*
X147241861Y-79730339D01*
X147190712Y-79659250D01*
X147168079Y-79577857D01*
X147175993Y-79491654D01*
X147193560Y-79445292D01*
X147238913Y-79379759D01*
X147300740Y-79340491D01*
X147383833Y-79324771D01*
X147407122Y-79324200D01*
X147475926Y-79329559D01*
X147527211Y-79349440D01*
X147569114Y-79389549D01*
X147609775Y-79455592D01*
X147618449Y-79472367D01*
X147644361Y-79517415D01*
X147667038Y-79546603D01*
X147676999Y-79552800D01*
X147719129Y-79536949D01*
X147772205Y-79489765D01*
X147835763Y-79411805D01*
X147909342Y-79303625D01*
X147977621Y-79191402D01*
X148043900Y-79077982D01*
X147935154Y-78761467D01*
X147899491Y-78658698D01*
X147865370Y-78562254D01*
X147835100Y-78478525D01*
X147810993Y-78413898D01*
X147795359Y-78374763D01*
X147795032Y-78374022D01*
X147758827Y-78314633D01*
X147717708Y-78288628D01*
X147671922Y-78295920D01*
X147621715Y-78336420D01*
X147567334Y-78410042D01*
X147534671Y-78466592D01*
X147469467Y-78587817D01*
X147415900Y-78550859D01*
X147380159Y-78526168D01*
X147358698Y-78511283D01*
X147356833Y-78509972D01*
X147361193Y-78494097D01*
X147377529Y-78455018D01*
X147402778Y-78399874D01*
X147415490Y-78373255D01*
X147491523Y-78242253D01*
X147580059Y-78135503D01*
X147678189Y-78055114D01*
X147783002Y-78003200D01*
X147891590Y-77981871D01*
X147951879Y-77983943D01*
X148028869Y-78001871D01*
X148094747Y-78038091D01*
X148152284Y-78095911D01*
X148204252Y-78178641D01*
X148253422Y-78289590D01*
X148287189Y-78384400D01*
X148310433Y-78453646D01*
X148330064Y-78510608D01*
X148343459Y-78547753D01*
X148347553Y-78557660D01*
X148358962Y-78549253D01*
X148385071Y-78517360D01*
X148422131Y-78466896D01*
X148466395Y-78402777D01*
X148471607Y-78395004D01*
X148582142Y-78244850D01*
X148690591Y-78128026D01*
X148796818Y-78044609D01*
X148900687Y-77994674D01*
X149002062Y-77978297D01*
X149100807Y-77995555D01*
G36*
X146590098Y-77964628D02*
X146727310Y-77984807D01*
X146841404Y-78026951D01*
X146930974Y-78089825D01*
X146994614Y-78172195D01*
X147030918Y-78272825D01*
X147039358Y-78359000D01*
X147024959Y-78479979D01*
X146980757Y-78590977D01*
X146906320Y-78692293D01*
X146801215Y-78784225D01*
X146665008Y-78867072D01*
X146497266Y-78941132D01*
X146297557Y-79006704D01*
X146065448Y-79064085D01*
X145994967Y-79078650D01*
X145897600Y-79098001D01*
X145897972Y-79228034D01*
X145904096Y-79331591D01*
X145922459Y-79409512D01*
X145929429Y-79426500D01*
X145984748Y-79512218D01*
X146058988Y-79572611D01*
X146148677Y-79607760D01*
X146250342Y-79617744D01*
X146360509Y-79602644D01*
X146475705Y-79562541D01*
X146592458Y-79497514D01*
X146706308Y-79408538D01*
X146811330Y-79313498D01*
X146871721Y-79359561D01*
X146932113Y-79405624D01*
X146876290Y-79463969D01*
X146794811Y-79539686D01*
X146697575Y-79615767D01*
X146598561Y-79681772D01*
X146543676Y-79712416D01*
X146397391Y-79770608D01*
X146236125Y-79807485D01*
X146071167Y-79821453D01*
X145913803Y-79810917D01*
X145883652Y-79805614D01*
X145746167Y-79763185D01*
X145628386Y-79695864D01*
X145530940Y-79606746D01*
X145454456Y-79498923D01*
X145399565Y-79375489D01*
X145366896Y-79239538D01*
X145357079Y-79094162D01*
X145370743Y-78942454D01*
X145370997Y-78941412D01*
X145919240Y-78941412D01*
X145971920Y-78931460D01*
X146015845Y-78920240D01*
X146076775Y-78901138D01*
X146130609Y-78882246D01*
X146265793Y-78819091D01*
X146374190Y-78738798D01*
X146446338Y-78657507D01*
X146510323Y-78552845D01*
X146546210Y-78447111D01*
X146557974Y-78328351D01*
X146558000Y-78321702D01*
X146556347Y-78259456D01*
X146548909Y-78219094D01*
X146531969Y-78188696D01*
X146508503Y-78162964D01*
X146449358Y-78123956D01*
X146383767Y-78116061D01*
X146314261Y-78137739D01*
X146243372Y-78187445D01*
X146173630Y-78263640D01*
X146107566Y-78364781D01*
X146075502Y-78426733D01*
X146019767Y-78559676D01*
X145971455Y-78705863D01*
X145936740Y-78846332D01*
X145933787Y-78861873D01*
X145919240Y-78941412D01*
X145370997Y-78941412D01*
X145408517Y-78787508D01*
X145471032Y-78632417D01*
X145558916Y-78480274D01*
X145601752Y-78420356D01*
X145720612Y-78290064D01*
X145863569Y-78177580D01*
X146024393Y-78085775D01*
X146196855Y-78017522D01*
X146374725Y-77975694D01*
X146551776Y-77963163D01*
X146590098Y-77964628D01*
X146590098Y-77964628D01*
G37*
X146590098Y-77964628D02*
X146727310Y-77984807D01*
X146841404Y-78026951D01*
X146930974Y-78089825D01*
X146994614Y-78172195D01*
X147030918Y-78272825D01*
X147039358Y-78359000D01*
X147024959Y-78479979D01*
X146980757Y-78590977D01*
X146906320Y-78692293D01*
X146801215Y-78784225D01*
X146665008Y-78867072D01*
X146497266Y-78941132D01*
X146297557Y-79006704D01*
X146065448Y-79064085D01*
X145994967Y-79078650D01*
X145897600Y-79098001D01*
X145897972Y-79228034D01*
X145904096Y-79331591D01*
X145922459Y-79409512D01*
X145929429Y-79426500D01*
X145984748Y-79512218D01*
X146058988Y-79572611D01*
X146148677Y-79607760D01*
X146250342Y-79617744D01*
X146360509Y-79602644D01*
X146475705Y-79562541D01*
X146592458Y-79497514D01*
X146706308Y-79408538D01*
X146811330Y-79313498D01*
X146871721Y-79359561D01*
X146932113Y-79405624D01*
X146876290Y-79463969D01*
X146794811Y-79539686D01*
X146697575Y-79615767D01*
X146598561Y-79681772D01*
X146543676Y-79712416D01*
X146397391Y-79770608D01*
X146236125Y-79807485D01*
X146071167Y-79821453D01*
X145913803Y-79810917D01*
X145883652Y-79805614D01*
X145746167Y-79763185D01*
X145628386Y-79695864D01*
X145530940Y-79606746D01*
X145454456Y-79498923D01*
X145399565Y-79375489D01*
X145366896Y-79239538D01*
X145357079Y-79094162D01*
X145370743Y-78942454D01*
X145370997Y-78941412D01*
X145919240Y-78941412D01*
X145971920Y-78931460D01*
X146015845Y-78920240D01*
X146076775Y-78901138D01*
X146130609Y-78882246D01*
X146265793Y-78819091D01*
X146374190Y-78738798D01*
X146446338Y-78657507D01*
X146510323Y-78552845D01*
X146546210Y-78447111D01*
X146557974Y-78328351D01*
X146558000Y-78321702D01*
X146556347Y-78259456D01*
X146548909Y-78219094D01*
X146531969Y-78188696D01*
X146508503Y-78162964D01*
X146449358Y-78123956D01*
X146383767Y-78116061D01*
X146314261Y-78137739D01*
X146243372Y-78187445D01*
X146173630Y-78263640D01*
X146107566Y-78364781D01*
X146075502Y-78426733D01*
X146019767Y-78559676D01*
X145971455Y-78705863D01*
X145936740Y-78846332D01*
X145933787Y-78861873D01*
X145919240Y-78941412D01*
X145370997Y-78941412D01*
X145408517Y-78787508D01*
X145471032Y-78632417D01*
X145558916Y-78480274D01*
X145601752Y-78420356D01*
X145720612Y-78290064D01*
X145863569Y-78177580D01*
X146024393Y-78085775D01*
X146196855Y-78017522D01*
X146374725Y-77975694D01*
X146551776Y-77963163D01*
X146590098Y-77964628D01*
G36*
X145047761Y-77566690D02*
X144964572Y-77854982D01*
X144890320Y-78112535D01*
X144824511Y-78341139D01*
X144766650Y-78542580D01*
X144716243Y-78718647D01*
X144672795Y-78871128D01*
X144635811Y-79001812D01*
X144604797Y-79112485D01*
X144579258Y-79204937D01*
X144558699Y-79280956D01*
X144542625Y-79342330D01*
X144530542Y-79390846D01*
X144521955Y-79428293D01*
X144516369Y-79456460D01*
X144513290Y-79477133D01*
X144512222Y-79492103D01*
X144512502Y-79501386D01*
X144523518Y-79547309D01*
X144547389Y-79564417D01*
X144585628Y-79552695D01*
X144639747Y-79512127D01*
X144653323Y-79499895D01*
X144691397Y-79459677D01*
X144738423Y-79402704D01*
X144788573Y-79336961D01*
X144836018Y-79270433D01*
X144874930Y-79211102D01*
X144899482Y-79166954D01*
X144903341Y-79157378D01*
X144918778Y-79155538D01*
X144950530Y-79167705D01*
X144987616Y-79187841D01*
X145019053Y-79209908D01*
X145033857Y-79227867D01*
X145034000Y-79229210D01*
X145025855Y-79248898D01*
X145004470Y-79288855D01*
X144974420Y-79340547D01*
X144973469Y-79342129D01*
X144879887Y-79484000D01*
X144786098Y-79596711D01*
X144687481Y-79684682D01*
X144579414Y-79752331D01*
X144511932Y-79783444D01*
X144396991Y-79817032D01*
X144291498Y-79818794D01*
X144193362Y-79788744D01*
X144187076Y-79785633D01*
X144121888Y-79743209D01*
X144079077Y-79690083D01*
X144055393Y-79619690D01*
X144047586Y-79525464D01*
X144047635Y-79503894D01*
X144048852Y-79473551D01*
X144052229Y-79439565D01*
X144058460Y-79399201D01*
X144068243Y-79349720D01*
X144082273Y-79288388D01*
X144101246Y-79212467D01*
X144125859Y-79119220D01*
X144156807Y-79005911D01*
X144194787Y-78869803D01*
X144240494Y-78708159D01*
X144294626Y-78518244D01*
X144328073Y-78401333D01*
X144378516Y-78225035D01*
X144426361Y-78057523D01*
X144470761Y-77901792D01*
X144510866Y-77760835D01*
X144545826Y-77637644D01*
X144574792Y-77535212D01*
X144596914Y-77456532D01*
X144611343Y-77404597D01*
X144617133Y-77382836D01*
X144613943Y-77329530D01*
X144595658Y-77298838D01*
X144572765Y-77277202D01*
X144541185Y-77263973D01*
X144491491Y-77256303D01*
X144443371Y-77252858D01*
X144384464Y-77249229D01*
X144341596Y-77246015D01*
X144323222Y-77243859D01*
X144323057Y-77243722D01*
X144327577Y-77227713D01*
X144338762Y-77189693D01*
X144346046Y-77165200D01*
X144368778Y-77089000D01*
X144502422Y-77078394D01*
X144566970Y-77073973D01*
X144655665Y-77068868D01*
X144758810Y-77063589D01*
X144866709Y-77058646D01*
X144917162Y-77056550D01*
X145198256Y-77045313D01*
X145047761Y-77566690D01*
X145047761Y-77566690D01*
G37*
X145047761Y-77566690D02*
X144964572Y-77854982D01*
X144890320Y-78112535D01*
X144824511Y-78341139D01*
X144766650Y-78542580D01*
X144716243Y-78718647D01*
X144672795Y-78871128D01*
X144635811Y-79001812D01*
X144604797Y-79112485D01*
X144579258Y-79204937D01*
X144558699Y-79280956D01*
X144542625Y-79342330D01*
X144530542Y-79390846D01*
X144521955Y-79428293D01*
X144516369Y-79456460D01*
X144513290Y-79477133D01*
X144512222Y-79492103D01*
X144512502Y-79501386D01*
X144523518Y-79547309D01*
X144547389Y-79564417D01*
X144585628Y-79552695D01*
X144639747Y-79512127D01*
X144653323Y-79499895D01*
X144691397Y-79459677D01*
X144738423Y-79402704D01*
X144788573Y-79336961D01*
X144836018Y-79270433D01*
X144874930Y-79211102D01*
X144899482Y-79166954D01*
X144903341Y-79157378D01*
X144918778Y-79155538D01*
X144950530Y-79167705D01*
X144987616Y-79187841D01*
X145019053Y-79209908D01*
X145033857Y-79227867D01*
X145034000Y-79229210D01*
X145025855Y-79248898D01*
X145004470Y-79288855D01*
X144974420Y-79340547D01*
X144973469Y-79342129D01*
X144879887Y-79484000D01*
X144786098Y-79596711D01*
X144687481Y-79684682D01*
X144579414Y-79752331D01*
X144511932Y-79783444D01*
X144396991Y-79817032D01*
X144291498Y-79818794D01*
X144193362Y-79788744D01*
X144187076Y-79785633D01*
X144121888Y-79743209D01*
X144079077Y-79690083D01*
X144055393Y-79619690D01*
X144047586Y-79525464D01*
X144047635Y-79503894D01*
X144048852Y-79473551D01*
X144052229Y-79439565D01*
X144058460Y-79399201D01*
X144068243Y-79349720D01*
X144082273Y-79288388D01*
X144101246Y-79212467D01*
X144125859Y-79119220D01*
X144156807Y-79005911D01*
X144194787Y-78869803D01*
X144240494Y-78708159D01*
X144294626Y-78518244D01*
X144328073Y-78401333D01*
X144378516Y-78225035D01*
X144426361Y-78057523D01*
X144470761Y-77901792D01*
X144510866Y-77760835D01*
X144545826Y-77637644D01*
X144574792Y-77535212D01*
X144596914Y-77456532D01*
X144611343Y-77404597D01*
X144617133Y-77382836D01*
X144613943Y-77329530D01*
X144595658Y-77298838D01*
X144572765Y-77277202D01*
X144541185Y-77263973D01*
X144491491Y-77256303D01*
X144443371Y-77252858D01*
X144384464Y-77249229D01*
X144341596Y-77246015D01*
X144323222Y-77243859D01*
X144323057Y-77243722D01*
X144327577Y-77227713D01*
X144338762Y-77189693D01*
X144346046Y-77165200D01*
X144368778Y-77089000D01*
X144502422Y-77078394D01*
X144566970Y-77073973D01*
X144655665Y-77068868D01*
X144758810Y-77063589D01*
X144866709Y-77058646D01*
X144917162Y-77056550D01*
X145198256Y-77045313D01*
X145047761Y-77566690D01*
G36*
X136871277Y-77020455D02*
X137054766Y-77049679D01*
X137218941Y-77106224D01*
X137363340Y-77189953D01*
X137430355Y-77244096D01*
X137517322Y-77322286D01*
X137565277Y-77276343D01*
X137607283Y-77228215D01*
X137643196Y-77174726D01*
X137644467Y-77172399D01*
X137666370Y-77137270D01*
X137690627Y-77120206D01*
X137729875Y-77114769D01*
X137758329Y-77114400D01*
X137809238Y-77116897D01*
X137831529Y-77125385D01*
X137832367Y-77136785D01*
X137826938Y-77158572D01*
X137815797Y-77209203D01*
X137799859Y-77284310D01*
X137780037Y-77379527D01*
X137757248Y-77490485D01*
X137732406Y-77612816D01*
X137725958Y-77644785D01*
X137628138Y-78130400D01*
X137469903Y-78130400D01*
X137459849Y-77956833D01*
X137443711Y-77784547D01*
X137415874Y-77641067D01*
X137374547Y-77522817D01*
X137317943Y-77426217D01*
X137244272Y-77347692D01*
X137151746Y-77283664D01*
X137113079Y-77263278D01*
X137056089Y-77236654D01*
X137009242Y-77220163D01*
X136960749Y-77211412D01*
X136898817Y-77208012D01*
X136838267Y-77207533D01*
X136759305Y-77208508D01*
X136702237Y-77213083D01*
X136655112Y-77223732D01*
X136605975Y-77242930D01*
X136558511Y-77265457D01*
X136429608Y-77346485D01*
X136308411Y-77458260D01*
X136196617Y-77598202D01*
X136095921Y-77763731D01*
X136008019Y-77952265D01*
X135934607Y-78161223D01*
X135908425Y-78254755D01*
X135877089Y-78399775D01*
X135855128Y-78553383D01*
X135842693Y-78708652D01*
X135839932Y-78858655D01*
X135846995Y-78996464D01*
X135864033Y-79115150D01*
X135887977Y-79199783D01*
X135954817Y-79328812D01*
X136044599Y-79435765D01*
X136153543Y-79519370D01*
X136277869Y-79578355D01*
X136413797Y-79611450D01*
X136557548Y-79617383D01*
X136705340Y-79594884D01*
X136853394Y-79542681D01*
X136875850Y-79531984D01*
X136975907Y-79469485D01*
X137078357Y-79382275D01*
X137175770Y-79278057D01*
X137260717Y-79164531D01*
X137309336Y-79082601D01*
X137344645Y-79017167D01*
X137369434Y-78977470D01*
X137387812Y-78958703D01*
X137403891Y-78956058D01*
X137414029Y-78960149D01*
X137454828Y-78979467D01*
X137489036Y-78993557D01*
X137532485Y-79010077D01*
X137492030Y-79101554D01*
X137394964Y-79282786D01*
X137274632Y-79442454D01*
X137133575Y-79578290D01*
X136974337Y-79688028D01*
X136799460Y-79769400D01*
X136711267Y-79797565D01*
X136628284Y-79813988D01*
X136522581Y-79825693D01*
X136404974Y-79832358D01*
X136286279Y-79833662D01*
X136177310Y-79829285D01*
X136088884Y-79818904D01*
X136076267Y-79816433D01*
X135884999Y-79761136D01*
X135717354Y-79681876D01*
X135573896Y-79579496D01*
X135455190Y-79454841D01*
X135361800Y-79308751D01*
X135294292Y-79142071D01*
X135253230Y-78955643D01*
X135239180Y-78750311D01*
X135247190Y-78579133D01*
X135283902Y-78335454D01*
X135346797Y-78104646D01*
X135434262Y-77889242D01*
X135544683Y-77691775D01*
X135676445Y-77514776D01*
X135827936Y-77360780D01*
X135997540Y-77232317D01*
X136163638Y-77140949D01*
X136292576Y-77087649D01*
X136415499Y-77051481D01*
X136546235Y-77029099D01*
X136668934Y-77018687D01*
X136871277Y-77020455D01*
X136871277Y-77020455D01*
G37*
X136871277Y-77020455D02*
X137054766Y-77049679D01*
X137218941Y-77106224D01*
X137363340Y-77189953D01*
X137430355Y-77244096D01*
X137517322Y-77322286D01*
X137565277Y-77276343D01*
X137607283Y-77228215D01*
X137643196Y-77174726D01*
X137644467Y-77172399D01*
X137666370Y-77137270D01*
X137690627Y-77120206D01*
X137729875Y-77114769D01*
X137758329Y-77114400D01*
X137809238Y-77116897D01*
X137831529Y-77125385D01*
X137832367Y-77136785D01*
X137826938Y-77158572D01*
X137815797Y-77209203D01*
X137799859Y-77284310D01*
X137780037Y-77379527D01*
X137757248Y-77490485D01*
X137732406Y-77612816D01*
X137725958Y-77644785D01*
X137628138Y-78130400D01*
X137469903Y-78130400D01*
X137459849Y-77956833D01*
X137443711Y-77784547D01*
X137415874Y-77641067D01*
X137374547Y-77522817D01*
X137317943Y-77426217D01*
X137244272Y-77347692D01*
X137151746Y-77283664D01*
X137113079Y-77263278D01*
X137056089Y-77236654D01*
X137009242Y-77220163D01*
X136960749Y-77211412D01*
X136898817Y-77208012D01*
X136838267Y-77207533D01*
X136759305Y-77208508D01*
X136702237Y-77213083D01*
X136655112Y-77223732D01*
X136605975Y-77242930D01*
X136558511Y-77265457D01*
X136429608Y-77346485D01*
X136308411Y-77458260D01*
X136196617Y-77598202D01*
X136095921Y-77763731D01*
X136008019Y-77952265D01*
X135934607Y-78161223D01*
X135908425Y-78254755D01*
X135877089Y-78399775D01*
X135855128Y-78553383D01*
X135842693Y-78708652D01*
X135839932Y-78858655D01*
X135846995Y-78996464D01*
X135864033Y-79115150D01*
X135887977Y-79199783D01*
X135954817Y-79328812D01*
X136044599Y-79435765D01*
X136153543Y-79519370D01*
X136277869Y-79578355D01*
X136413797Y-79611450D01*
X136557548Y-79617383D01*
X136705340Y-79594884D01*
X136853394Y-79542681D01*
X136875850Y-79531984D01*
X136975907Y-79469485D01*
X137078357Y-79382275D01*
X137175770Y-79278057D01*
X137260717Y-79164531D01*
X137309336Y-79082601D01*
X137344645Y-79017167D01*
X137369434Y-78977470D01*
X137387812Y-78958703D01*
X137403891Y-78956058D01*
X137414029Y-78960149D01*
X137454828Y-78979467D01*
X137489036Y-78993557D01*
X137532485Y-79010077D01*
X137492030Y-79101554D01*
X137394964Y-79282786D01*
X137274632Y-79442454D01*
X137133575Y-79578290D01*
X136974337Y-79688028D01*
X136799460Y-79769400D01*
X136711267Y-79797565D01*
X136628284Y-79813988D01*
X136522581Y-79825693D01*
X136404974Y-79832358D01*
X136286279Y-79833662D01*
X136177310Y-79829285D01*
X136088884Y-79818904D01*
X136076267Y-79816433D01*
X135884999Y-79761136D01*
X135717354Y-79681876D01*
X135573896Y-79579496D01*
X135455190Y-79454841D01*
X135361800Y-79308751D01*
X135294292Y-79142071D01*
X135253230Y-78955643D01*
X135239180Y-78750311D01*
X135247190Y-78579133D01*
X135283902Y-78335454D01*
X135346797Y-78104646D01*
X135434262Y-77889242D01*
X135544683Y-77691775D01*
X135676445Y-77514776D01*
X135827936Y-77360780D01*
X135997540Y-77232317D01*
X136163638Y-77140949D01*
X136292576Y-77087649D01*
X136415499Y-77051481D01*
X136546235Y-77029099D01*
X136668934Y-77018687D01*
X136871277Y-77020455D01*
G36*
X143055780Y-78021753D02*
X143113593Y-78027536D01*
X143161749Y-78039969D01*
X143212323Y-78061336D01*
X143224852Y-78067404D01*
X143336180Y-78140709D01*
X143428159Y-78241245D01*
X143490778Y-78348501D01*
X143509328Y-78390613D01*
X143521857Y-78428810D01*
X143529499Y-78471237D01*
X143533385Y-78526040D01*
X143534647Y-78601365D01*
X143534602Y-78663800D01*
X143533465Y-78760287D01*
X143529991Y-78832717D01*
X143522872Y-78890880D01*
X143510797Y-78944572D01*
X143492458Y-79003584D01*
X143487057Y-79019400D01*
X143403526Y-79211687D01*
X143290991Y-79387330D01*
X143187931Y-79508222D01*
X143061996Y-79624481D01*
X142934196Y-79709540D01*
X142800445Y-79765994D01*
X142766308Y-79775756D01*
X142617790Y-79801602D01*
X142479499Y-79800123D01*
X142354602Y-79772287D01*
X142246270Y-79719059D01*
X142157671Y-79641405D01*
X142110837Y-79576036D01*
X142064075Y-79496243D01*
X141973858Y-79816622D01*
X141945152Y-79922379D01*
X141920913Y-80019129D01*
X141902470Y-80100978D01*
X141891155Y-80162029D01*
X141888254Y-80195877D01*
X141901508Y-80243686D01*
X141935090Y-80275118D01*
X141993059Y-80292365D01*
X142076736Y-80297617D01*
X142130800Y-80298976D01*
X142160418Y-80307019D01*
X142168753Y-80328206D01*
X142158968Y-80368995D01*
X142138684Y-80424120D01*
X142122305Y-80467200D01*
X141017129Y-80467200D01*
X141027566Y-80425613D01*
X141045227Y-80361338D01*
X141063332Y-80323288D01*
X141089557Y-80304604D01*
X141131576Y-80298426D01*
X141170497Y-80297866D01*
X141259017Y-80287925D01*
X141324904Y-80256115D01*
X141373636Y-80199454D01*
X141383261Y-80182071D01*
X141392026Y-80157980D01*
X141408839Y-80105248D01*
X141432653Y-80027504D01*
X141462421Y-79928378D01*
X141497097Y-79811496D01*
X141535633Y-79680487D01*
X141576983Y-79538979D01*
X141620100Y-79390601D01*
X141643813Y-79308582D01*
X142176884Y-79308582D01*
X142178057Y-79319787D01*
X142203293Y-79419551D01*
X142250376Y-79494973D01*
X142315933Y-79544314D01*
X142396592Y-79565837D01*
X142488981Y-79557804D01*
X142576668Y-79525225D01*
X142658765Y-79471022D01*
X142735084Y-79391913D01*
X142808075Y-79284867D01*
X142876412Y-79154867D01*
X142938940Y-79005249D01*
X142982642Y-78862379D01*
X143008070Y-78728859D01*
X143015776Y-78607293D01*
X143006314Y-78500285D01*
X142980234Y-78410438D01*
X142938089Y-78340357D01*
X142880431Y-78292645D01*
X142807812Y-78269905D01*
X142720785Y-78274742D01*
X142691333Y-78282140D01*
X142629981Y-78312612D01*
X142560483Y-78367302D01*
X142489062Y-78439760D01*
X142421939Y-78523537D01*
X142365337Y-78612182D01*
X142355823Y-78629933D01*
X142288838Y-78775016D01*
X142235653Y-78922405D01*
X142198066Y-79065117D01*
X142177877Y-79196170D01*
X142176884Y-79308582D01*
X141643813Y-79308582D01*
X141663937Y-79238980D01*
X141707448Y-79087745D01*
X141749585Y-78940525D01*
X141789302Y-78800947D01*
X141825551Y-78672639D01*
X141857287Y-78559230D01*
X141883462Y-78464349D01*
X141903029Y-78391622D01*
X141914941Y-78344679D01*
X141918267Y-78327786D01*
X141902505Y-78288433D01*
X141858901Y-78257583D01*
X141792974Y-78237919D01*
X141721250Y-78232000D01*
X141665843Y-78231219D01*
X141626947Y-78229181D01*
X141613467Y-78226550D01*
X141618440Y-78208781D01*
X141631092Y-78169682D01*
X141639850Y-78143669D01*
X141666233Y-78066240D01*
X141847283Y-78056341D01*
X141941622Y-78051298D01*
X142053780Y-78045479D01*
X142167746Y-78039706D01*
X142242869Y-78035994D01*
X142457405Y-78025547D01*
X142416775Y-78183807D01*
X142399349Y-78252077D01*
X142385587Y-78306737D01*
X142377339Y-78340399D01*
X142375806Y-78347435D01*
X142386596Y-78338689D01*
X142415795Y-78310769D01*
X142458165Y-78268742D01*
X142482541Y-78244136D01*
X142603730Y-78139897D01*
X142706545Y-78077901D01*
X142767132Y-78049619D01*
X142816230Y-78032467D01*
X142866654Y-78023710D01*
X142931213Y-78020614D01*
X142976238Y-78020333D01*
X143055780Y-78021753D01*
X143055780Y-78021753D01*
G37*
X143055780Y-78021753D02*
X143113593Y-78027536D01*
X143161749Y-78039969D01*
X143212323Y-78061336D01*
X143224852Y-78067404D01*
X143336180Y-78140709D01*
X143428159Y-78241245D01*
X143490778Y-78348501D01*
X143509328Y-78390613D01*
X143521857Y-78428810D01*
X143529499Y-78471237D01*
X143533385Y-78526040D01*
X143534647Y-78601365D01*
X143534602Y-78663800D01*
X143533465Y-78760287D01*
X143529991Y-78832717D01*
X143522872Y-78890880D01*
X143510797Y-78944572D01*
X143492458Y-79003584D01*
X143487057Y-79019400D01*
X143403526Y-79211687D01*
X143290991Y-79387330D01*
X143187931Y-79508222D01*
X143061996Y-79624481D01*
X142934196Y-79709540D01*
X142800445Y-79765994D01*
X142766308Y-79775756D01*
X142617790Y-79801602D01*
X142479499Y-79800123D01*
X142354602Y-79772287D01*
X142246270Y-79719059D01*
X142157671Y-79641405D01*
X142110837Y-79576036D01*
X142064075Y-79496243D01*
X141973858Y-79816622D01*
X141945152Y-79922379D01*
X141920913Y-80019129D01*
X141902470Y-80100978D01*
X141891155Y-80162029D01*
X141888254Y-80195877D01*
X141901508Y-80243686D01*
X141935090Y-80275118D01*
X141993059Y-80292365D01*
X142076736Y-80297617D01*
X142130800Y-80298976D01*
X142160418Y-80307019D01*
X142168753Y-80328206D01*
X142158968Y-80368995D01*
X142138684Y-80424120D01*
X142122305Y-80467200D01*
X141017129Y-80467200D01*
X141027566Y-80425613D01*
X141045227Y-80361338D01*
X141063332Y-80323288D01*
X141089557Y-80304604D01*
X141131576Y-80298426D01*
X141170497Y-80297866D01*
X141259017Y-80287925D01*
X141324904Y-80256115D01*
X141373636Y-80199454D01*
X141383261Y-80182071D01*
X141392026Y-80157980D01*
X141408839Y-80105248D01*
X141432653Y-80027504D01*
X141462421Y-79928378D01*
X141497097Y-79811496D01*
X141535633Y-79680487D01*
X141576983Y-79538979D01*
X141620100Y-79390601D01*
X141643813Y-79308582D01*
X142176884Y-79308582D01*
X142178057Y-79319787D01*
X142203293Y-79419551D01*
X142250376Y-79494973D01*
X142315933Y-79544314D01*
X142396592Y-79565837D01*
X142488981Y-79557804D01*
X142576668Y-79525225D01*
X142658765Y-79471022D01*
X142735084Y-79391913D01*
X142808075Y-79284867D01*
X142876412Y-79154867D01*
X142938940Y-79005249D01*
X142982642Y-78862379D01*
X143008070Y-78728859D01*
X143015776Y-78607293D01*
X143006314Y-78500285D01*
X142980234Y-78410438D01*
X142938089Y-78340357D01*
X142880431Y-78292645D01*
X142807812Y-78269905D01*
X142720785Y-78274742D01*
X142691333Y-78282140D01*
X142629981Y-78312612D01*
X142560483Y-78367302D01*
X142489062Y-78439760D01*
X142421939Y-78523537D01*
X142365337Y-78612182D01*
X142355823Y-78629933D01*
X142288838Y-78775016D01*
X142235653Y-78922405D01*
X142198066Y-79065117D01*
X142177877Y-79196170D01*
X142176884Y-79308582D01*
X141643813Y-79308582D01*
X141663937Y-79238980D01*
X141707448Y-79087745D01*
X141749585Y-78940525D01*
X141789302Y-78800947D01*
X141825551Y-78672639D01*
X141857287Y-78559230D01*
X141883462Y-78464349D01*
X141903029Y-78391622D01*
X141914941Y-78344679D01*
X141918267Y-78327786D01*
X141902505Y-78288433D01*
X141858901Y-78257583D01*
X141792974Y-78237919D01*
X141721250Y-78232000D01*
X141665843Y-78231219D01*
X141626947Y-78229181D01*
X141613467Y-78226550D01*
X141618440Y-78208781D01*
X141631092Y-78169682D01*
X141639850Y-78143669D01*
X141666233Y-78066240D01*
X141847283Y-78056341D01*
X141941622Y-78051298D01*
X142053780Y-78045479D01*
X142167746Y-78039706D01*
X142242869Y-78035994D01*
X142457405Y-78025547D01*
X142416775Y-78183807D01*
X142399349Y-78252077D01*
X142385587Y-78306737D01*
X142377339Y-78340399D01*
X142375806Y-78347435D01*
X142386596Y-78338689D01*
X142415795Y-78310769D01*
X142458165Y-78268742D01*
X142482541Y-78244136D01*
X142603730Y-78139897D01*
X142706545Y-78077901D01*
X142767132Y-78049619D01*
X142816230Y-78032467D01*
X142866654Y-78023710D01*
X142931213Y-78020614D01*
X142976238Y-78020333D01*
X143055780Y-78021753D01*
D13*
G04 #@! TO.C,S1*
X137467000Y-110210000D02*
X137117000Y-109835000D01*
X137117000Y-109835000D02*
X136017000Y-109835000D01*
X136017000Y-109835000D02*
X136017000Y-108785000D01*
X136992000Y-113685000D02*
X137467000Y-113685000D01*
X137467000Y-113685000D02*
X137467000Y-113285000D01*
X128217000Y-110210000D02*
X128217000Y-109835000D01*
X128217000Y-109835000D02*
X128567000Y-109835000D01*
X128617000Y-113685000D02*
X128217000Y-113685000D01*
X128217000Y-113685000D02*
X128217000Y-113310000D01*
D14*
G04 #@! TO.C,R6*
X150570000Y-111498748D02*
X150570000Y-112021252D01*
X149150000Y-111498748D02*
X149150000Y-112021252D01*
G04 #@! TO.C,D1*
X132415000Y-82512001D02*
X133015000Y-82512001D01*
X132395000Y-84112000D02*
X132994999Y-84112000D01*
G04 #@! TO.C,D2*
X138745000Y-84112000D02*
X139345000Y-84112000D01*
X138765000Y-82512000D02*
X139365000Y-82512000D01*
G04 #@! TO.C,D3*
X145115000Y-82512000D02*
X145715000Y-82512000D01*
X145095000Y-84112000D02*
X145695000Y-84112000D01*
G04 #@! TO.C,D4*
X151445000Y-84112000D02*
X152045000Y-84112000D01*
X151465000Y-82512000D02*
X152065000Y-82512000D01*
G04 #@! TO.C,D5*
X132395000Y-89700000D02*
X132995000Y-89700000D01*
X132415000Y-88100000D02*
X133015000Y-88100000D01*
G04 #@! TO.C,D6*
X138765000Y-88100000D02*
X139365000Y-88100000D01*
X138745000Y-89700000D02*
X139345000Y-89700000D01*
G04 #@! TO.C,D7*
X145095000Y-89700000D02*
X145695000Y-89700000D01*
X145115000Y-88100000D02*
X145715000Y-88100000D01*
G04 #@! TO.C,D8*
X151465000Y-88100000D02*
X152065000Y-88100000D01*
X151445000Y-89700000D02*
X152045000Y-89700000D01*
G04 #@! TO.C,D9*
X132395000Y-95288000D02*
X132995000Y-95288000D01*
X132415000Y-93688000D02*
X133015000Y-93688000D01*
G04 #@! TO.C,D10*
X138765000Y-93688000D02*
X139365000Y-93688000D01*
X138745000Y-95288000D02*
X139345000Y-95288000D01*
G04 #@! TO.C,D11*
X145095000Y-95288000D02*
X145695000Y-95288000D01*
X145115000Y-93688000D02*
X145715000Y-93688000D01*
G04 #@! TO.C,D12*
X151465000Y-93688000D02*
X152065000Y-93688000D01*
X151445000Y-95288000D02*
X152045000Y-95288000D01*
G04 #@! TO.C,D13*
X132395000Y-100876000D02*
X132995000Y-100876000D01*
X132415000Y-99276000D02*
X133015000Y-99276000D01*
G04 #@! TO.C,D14*
X138765000Y-99276000D02*
X139365000Y-99276000D01*
X138745000Y-100876000D02*
X139345000Y-100876000D01*
G04 #@! TO.C,D15*
X145095000Y-100876000D02*
X145695000Y-100876000D01*
X145115000Y-99276000D02*
X145715000Y-99276000D01*
G04 #@! TO.C,D16*
X151465000Y-99276000D02*
X152065000Y-99276000D01*
X151445000Y-100876000D02*
X152045000Y-100876000D01*
G04 #@! TO.C,D17*
X132395000Y-106464000D02*
X132995000Y-106464000D01*
X132415000Y-104864000D02*
X133015000Y-104864000D01*
G04 #@! TO.C,D18*
X138765000Y-104864000D02*
X139365000Y-104864000D01*
X138745000Y-106464000D02*
X139345000Y-106464000D01*
G04 #@! TO.C,D19*
X145095000Y-106464000D02*
X145695000Y-106464000D01*
X145115000Y-104864000D02*
X145715000Y-104864000D01*
G04 #@! TO.C,D20*
X151465000Y-104864000D02*
X152065000Y-104864000D01*
X151445000Y-106464000D02*
X152045000Y-106464000D01*
G04 #@! TO.C,R2*
X140410000Y-111498748D02*
X140410000Y-112021252D01*
X138990000Y-111498748D02*
X138990000Y-112021252D01*
G04 #@! TO.C,R3*
X141530000Y-111498748D02*
X141530000Y-112021252D01*
X142950000Y-111498748D02*
X142950000Y-112021252D01*
G04 #@! TO.C,R4*
X145490000Y-111498748D02*
X145490000Y-112021252D01*
X144070000Y-111498748D02*
X144070000Y-112021252D01*
G04 #@! TO.C,R5*
X146610000Y-111498748D02*
X146610000Y-112021252D01*
X148030000Y-111498748D02*
X148030000Y-112021252D01*
D12*
G04 #@! TO.C,G\002A\002A\002A*
G36*
X127720365Y-82396661D02*
X127752941Y-82528154D01*
X127822726Y-82622502D01*
X127931253Y-82681642D01*
X127950535Y-82687476D01*
X128003792Y-82694695D01*
X128102184Y-82700746D01*
X128237943Y-82705630D01*
X128403298Y-82709352D01*
X128590483Y-82711915D01*
X128791727Y-82713323D01*
X128999262Y-82713580D01*
X129205320Y-82712689D01*
X129402132Y-82710654D01*
X129581928Y-82707479D01*
X129736941Y-82703167D01*
X129859401Y-82697722D01*
X129941540Y-82691148D01*
X129968744Y-82686524D01*
X130076620Y-82631968D01*
X130095124Y-82608208D01*
X130915833Y-82608208D01*
X130915833Y-106394250D01*
X153564166Y-106394250D01*
X153564166Y-102797660D01*
X154281158Y-102797660D01*
X154283146Y-103022043D01*
X154283368Y-103038787D01*
X154286296Y-103237963D01*
X154289489Y-103391288D01*
X154293590Y-103505827D01*
X154299241Y-103588644D01*
X154307084Y-103646804D01*
X154317764Y-103687372D01*
X154331923Y-103717411D01*
X154347165Y-103739933D01*
X154412336Y-103801604D01*
X154491883Y-103845858D01*
X154492686Y-103846142D01*
X154542753Y-103854333D01*
X154638094Y-103861449D01*
X154771076Y-103867460D01*
X154934068Y-103872334D01*
X155119436Y-103876043D01*
X155319550Y-103878555D01*
X155526776Y-103879843D01*
X155733481Y-103879874D01*
X155932035Y-103878620D01*
X156114803Y-103876050D01*
X156274155Y-103872134D01*
X156402457Y-103866843D01*
X156492078Y-103860146D01*
X156529464Y-103854142D01*
X156613669Y-103816388D01*
X156686423Y-103761482D01*
X156688214Y-103759605D01*
X156707963Y-103737492D01*
X156723260Y-103713886D01*
X156734767Y-103682056D01*
X156743149Y-103635273D01*
X156749067Y-103566809D01*
X156753184Y-103469933D01*
X156756164Y-103337918D01*
X156758668Y-103164033D01*
X156760331Y-103027400D01*
X156762455Y-102804282D01*
X156762283Y-102627579D01*
X156758913Y-102490810D01*
X156751440Y-102387492D01*
X156738961Y-102311143D01*
X156720572Y-102255280D01*
X156695369Y-102213421D01*
X156662449Y-102179083D01*
X156639412Y-102160019D01*
X156620727Y-102146961D01*
X156597672Y-102136290D01*
X156565088Y-102127765D01*
X156517817Y-102121146D01*
X156450702Y-102116193D01*
X156358585Y-102112665D01*
X156236308Y-102110324D01*
X156078713Y-102108928D01*
X155880641Y-102108238D01*
X155636935Y-102108013D01*
X155522083Y-102108000D01*
X155258392Y-102108084D01*
X155042443Y-102108505D01*
X154869063Y-102109514D01*
X154733077Y-102111361D01*
X154629313Y-102114298D01*
X154552594Y-102118575D01*
X154497749Y-102124443D01*
X154459602Y-102132154D01*
X154432980Y-102141958D01*
X154412708Y-102154106D01*
X154401809Y-102162336D01*
X154364150Y-102197314D01*
X154334729Y-102240306D01*
X154312688Y-102297661D01*
X154297167Y-102375726D01*
X154287311Y-102480849D01*
X154282261Y-102619378D01*
X154281158Y-102797660D01*
X153564166Y-102797660D01*
X153564166Y-98564327D01*
X154281158Y-98564327D01*
X154283146Y-98788710D01*
X154283368Y-98805454D01*
X154286296Y-99004630D01*
X154289489Y-99157955D01*
X154293590Y-99272494D01*
X154299241Y-99355311D01*
X154307084Y-99413471D01*
X154317764Y-99454038D01*
X154331923Y-99484077D01*
X154347165Y-99506599D01*
X154412336Y-99568271D01*
X154491883Y-99612525D01*
X154492686Y-99612808D01*
X154542753Y-99621000D01*
X154638094Y-99628116D01*
X154771076Y-99634126D01*
X154934068Y-99639001D01*
X155119436Y-99642709D01*
X155319550Y-99645222D01*
X155526776Y-99646509D01*
X155733481Y-99646541D01*
X155932035Y-99645286D01*
X156114803Y-99642716D01*
X156274155Y-99638801D01*
X156402457Y-99633510D01*
X156492078Y-99626813D01*
X156529464Y-99620809D01*
X156613669Y-99583055D01*
X156686423Y-99528149D01*
X156688214Y-99526271D01*
X156707963Y-99504159D01*
X156723260Y-99480552D01*
X156734767Y-99448722D01*
X156743149Y-99401940D01*
X156749067Y-99333475D01*
X156753184Y-99236600D01*
X156756164Y-99104584D01*
X156758668Y-98930699D01*
X156760331Y-98794067D01*
X156762455Y-98570948D01*
X156762283Y-98394246D01*
X156758913Y-98257477D01*
X156751440Y-98154159D01*
X156738961Y-98077809D01*
X156720572Y-98021947D01*
X156695369Y-97980088D01*
X156662449Y-97945750D01*
X156639412Y-97926686D01*
X156620727Y-97913628D01*
X156597672Y-97902957D01*
X156565088Y-97894431D01*
X156517817Y-97887812D01*
X156450702Y-97882859D01*
X156358585Y-97879332D01*
X156236308Y-97876991D01*
X156078713Y-97875595D01*
X155880641Y-97874905D01*
X155636935Y-97874680D01*
X155522083Y-97874666D01*
X155258392Y-97874751D01*
X155042443Y-97875172D01*
X154869063Y-97876181D01*
X154733077Y-97878028D01*
X154629313Y-97880965D01*
X154552594Y-97885242D01*
X154497749Y-97891110D01*
X154459602Y-97898821D01*
X154432980Y-97908625D01*
X154412708Y-97920773D01*
X154401809Y-97929002D01*
X154364150Y-97963980D01*
X154334729Y-98006973D01*
X154312688Y-98064328D01*
X154297167Y-98142393D01*
X154287311Y-98247516D01*
X154282261Y-98386044D01*
X154281158Y-98564327D01*
X153564166Y-98564327D01*
X153564166Y-94330993D01*
X154281158Y-94330993D01*
X154283146Y-94555377D01*
X154283368Y-94572120D01*
X154286296Y-94771296D01*
X154289489Y-94924622D01*
X154293590Y-95039160D01*
X154299241Y-95121978D01*
X154307084Y-95180138D01*
X154317764Y-95220705D01*
X154331923Y-95250744D01*
X154347165Y-95273266D01*
X154412336Y-95334938D01*
X154491883Y-95379191D01*
X154492686Y-95379475D01*
X154542753Y-95387667D01*
X154638094Y-95394783D01*
X154771076Y-95400793D01*
X154934068Y-95405667D01*
X155119436Y-95409376D01*
X155319550Y-95411889D01*
X155526776Y-95413176D01*
X155733481Y-95413207D01*
X155932035Y-95411953D01*
X156114803Y-95409383D01*
X156274155Y-95405467D01*
X156402457Y-95400176D01*
X156492078Y-95393479D01*
X156529464Y-95387476D01*
X156613669Y-95349721D01*
X156686423Y-95294816D01*
X156688214Y-95292938D01*
X156707963Y-95270825D01*
X156723260Y-95247219D01*
X156734767Y-95215389D01*
X156743149Y-95168606D01*
X156749067Y-95100142D01*
X156753184Y-95003267D01*
X156756164Y-94871251D01*
X156758668Y-94697366D01*
X156760331Y-94560734D01*
X156762455Y-94337615D01*
X156762283Y-94160912D01*
X156758913Y-94024143D01*
X156751440Y-93920825D01*
X156738961Y-93844476D01*
X156720572Y-93788613D01*
X156695369Y-93746754D01*
X156662449Y-93712417D01*
X156639412Y-93693353D01*
X156620727Y-93680295D01*
X156597672Y-93669623D01*
X156565088Y-93661098D01*
X156517817Y-93654479D01*
X156450702Y-93649526D01*
X156358585Y-93645999D01*
X156236308Y-93643657D01*
X156078713Y-93642262D01*
X155880641Y-93641571D01*
X155636935Y-93641346D01*
X155522083Y-93641333D01*
X155258392Y-93641417D01*
X155042443Y-93641839D01*
X154869063Y-93642847D01*
X154733077Y-93644695D01*
X154629313Y-93647631D01*
X154552594Y-93651908D01*
X154497749Y-93657777D01*
X154459602Y-93665487D01*
X154432980Y-93675291D01*
X154412708Y-93687440D01*
X154401809Y-93695669D01*
X154364150Y-93730647D01*
X154334729Y-93773639D01*
X154312688Y-93830994D01*
X154297167Y-93909059D01*
X154287311Y-94014182D01*
X154282261Y-94152711D01*
X154281158Y-94330993D01*
X153564166Y-94330993D01*
X153564166Y-90097660D01*
X154281158Y-90097660D01*
X154283146Y-90322043D01*
X154283368Y-90338787D01*
X154286296Y-90537963D01*
X154289489Y-90691288D01*
X154293590Y-90805827D01*
X154299241Y-90888644D01*
X154307084Y-90946804D01*
X154317764Y-90987372D01*
X154331923Y-91017411D01*
X154347165Y-91039933D01*
X154412336Y-91101604D01*
X154491883Y-91145858D01*
X154492686Y-91146142D01*
X154542753Y-91154333D01*
X154638094Y-91161449D01*
X154771076Y-91167460D01*
X154934068Y-91172334D01*
X155119436Y-91176043D01*
X155319550Y-91178555D01*
X155526776Y-91179843D01*
X155733481Y-91179874D01*
X155932035Y-91178620D01*
X156114803Y-91176050D01*
X156274155Y-91172134D01*
X156402457Y-91166843D01*
X156492078Y-91160146D01*
X156529464Y-91154142D01*
X156613669Y-91116388D01*
X156686423Y-91061482D01*
X156688214Y-91059605D01*
X156707963Y-91037492D01*
X156723260Y-91013886D01*
X156734767Y-90982056D01*
X156743149Y-90935273D01*
X156749067Y-90866809D01*
X156753184Y-90769933D01*
X156756164Y-90637918D01*
X156758668Y-90464033D01*
X156760331Y-90327400D01*
X156762455Y-90104282D01*
X156762283Y-89927579D01*
X156758913Y-89790810D01*
X156751440Y-89687492D01*
X156738961Y-89611143D01*
X156720572Y-89555280D01*
X156695369Y-89513421D01*
X156662449Y-89479083D01*
X156639412Y-89460019D01*
X156620727Y-89446961D01*
X156597672Y-89436290D01*
X156565088Y-89427765D01*
X156517817Y-89421146D01*
X156450702Y-89416193D01*
X156358585Y-89412665D01*
X156236308Y-89410324D01*
X156078713Y-89408928D01*
X155880641Y-89408238D01*
X155636935Y-89408013D01*
X155522083Y-89408000D01*
X155258392Y-89408084D01*
X155042443Y-89408505D01*
X154869063Y-89409514D01*
X154733077Y-89411361D01*
X154629313Y-89414298D01*
X154552594Y-89418575D01*
X154497749Y-89424443D01*
X154459602Y-89432154D01*
X154432980Y-89441958D01*
X154412708Y-89454106D01*
X154401809Y-89462336D01*
X154364150Y-89497314D01*
X154334729Y-89540306D01*
X154312688Y-89597661D01*
X154297167Y-89675726D01*
X154287311Y-89780849D01*
X154282261Y-89919378D01*
X154281158Y-90097660D01*
X153564166Y-90097660D01*
X153564166Y-85864327D01*
X154281158Y-85864327D01*
X154283146Y-86088710D01*
X154283368Y-86105454D01*
X154286296Y-86304630D01*
X154289489Y-86457955D01*
X154293590Y-86572494D01*
X154299241Y-86655311D01*
X154307084Y-86713471D01*
X154317764Y-86754038D01*
X154331923Y-86784077D01*
X154347165Y-86806599D01*
X154412336Y-86868271D01*
X154491883Y-86912525D01*
X154492686Y-86912808D01*
X154542753Y-86921000D01*
X154638094Y-86928116D01*
X154771076Y-86934126D01*
X154934068Y-86939001D01*
X155119436Y-86942709D01*
X155319550Y-86945222D01*
X155526776Y-86946509D01*
X155733481Y-86946541D01*
X155932035Y-86945286D01*
X156114803Y-86942716D01*
X156274155Y-86938801D01*
X156402457Y-86933510D01*
X156492078Y-86926813D01*
X156529464Y-86920809D01*
X156613669Y-86883055D01*
X156686423Y-86828149D01*
X156688214Y-86826271D01*
X156707963Y-86804159D01*
X156723260Y-86780552D01*
X156734767Y-86748722D01*
X156743149Y-86701940D01*
X156749067Y-86633475D01*
X156753184Y-86536600D01*
X156756164Y-86404584D01*
X156758668Y-86230699D01*
X156760331Y-86094067D01*
X156762455Y-85870948D01*
X156762283Y-85694246D01*
X156758913Y-85557477D01*
X156751440Y-85454159D01*
X156738961Y-85377809D01*
X156720572Y-85321947D01*
X156695369Y-85280088D01*
X156662449Y-85245750D01*
X156639412Y-85226686D01*
X156620727Y-85213628D01*
X156597672Y-85202957D01*
X156565088Y-85194431D01*
X156517817Y-85187812D01*
X156450702Y-85182859D01*
X156358585Y-85179332D01*
X156236308Y-85176991D01*
X156078713Y-85175595D01*
X155880641Y-85174905D01*
X155636935Y-85174680D01*
X155522083Y-85174666D01*
X155258392Y-85174751D01*
X155042443Y-85175172D01*
X154869063Y-85176181D01*
X154733077Y-85178028D01*
X154629313Y-85180965D01*
X154552594Y-85185242D01*
X154497749Y-85191110D01*
X154459602Y-85198821D01*
X154432980Y-85208625D01*
X154412708Y-85220773D01*
X154401809Y-85229002D01*
X154364150Y-85263980D01*
X154334729Y-85306973D01*
X154312688Y-85364328D01*
X154297167Y-85442393D01*
X154287311Y-85547516D01*
X154282261Y-85686044D01*
X154281158Y-85864327D01*
X153564166Y-85864327D01*
X153564166Y-82608208D01*
X130915833Y-82608208D01*
X130095124Y-82608208D01*
X130150200Y-82537488D01*
X130189860Y-82402586D01*
X130191110Y-82393643D01*
X130208275Y-82264250D01*
X154271659Y-82264250D01*
X154285420Y-82386335D01*
X154321455Y-82522366D01*
X154393748Y-82621815D01*
X154492686Y-82679475D01*
X154542753Y-82687667D01*
X154638094Y-82694783D01*
X154771076Y-82700793D01*
X154934068Y-82705667D01*
X155119436Y-82709376D01*
X155319550Y-82711889D01*
X155526776Y-82713176D01*
X155733481Y-82713207D01*
X155932035Y-82711953D01*
X156114803Y-82709383D01*
X156274155Y-82705467D01*
X156402457Y-82700176D01*
X156492078Y-82693479D01*
X156529464Y-82687476D01*
X156643930Y-82633208D01*
X156719385Y-82543934D01*
X156757208Y-82417913D01*
X156759563Y-82397405D01*
X156772357Y-82264250D01*
X157480000Y-82264250D01*
X157480000Y-106738208D01*
X156765625Y-106738208D01*
X156765625Y-106657519D01*
X156752836Y-106573501D01*
X156726088Y-106500375D01*
X156705882Y-106461727D01*
X156685648Y-106429906D01*
X156660364Y-106404250D01*
X156625010Y-106384094D01*
X156574565Y-106368777D01*
X156504008Y-106357634D01*
X156408318Y-106350003D01*
X156282474Y-106345220D01*
X156121456Y-106342621D01*
X155920242Y-106341545D01*
X155673812Y-106341327D01*
X155522083Y-106341333D01*
X155255641Y-106341533D01*
X155037066Y-106342263D01*
X154861309Y-106343720D01*
X154723322Y-106346101D01*
X154618055Y-106349603D01*
X154540460Y-106354421D01*
X154485489Y-106360753D01*
X154448092Y-106368794D01*
X154423220Y-106378743D01*
X154413925Y-106384478D01*
X154351222Y-106453129D01*
X154302556Y-106550768D01*
X154279191Y-106653537D01*
X154278541Y-106671212D01*
X154278541Y-106738208D01*
X142240000Y-106738208D01*
X141287388Y-106738201D01*
X140386266Y-106738178D01*
X139535209Y-106738133D01*
X138732790Y-106738061D01*
X137977584Y-106737955D01*
X137268163Y-106737811D01*
X136603102Y-106737623D01*
X135980975Y-106737385D01*
X135400355Y-106737093D01*
X134859816Y-106736740D01*
X134357933Y-106736321D01*
X133893279Y-106735830D01*
X133464428Y-106735263D01*
X133069953Y-106734614D01*
X132708429Y-106733876D01*
X132378430Y-106733045D01*
X132078529Y-106732116D01*
X131807300Y-106731082D01*
X131563317Y-106729938D01*
X131345155Y-106728679D01*
X131151385Y-106727299D01*
X130980584Y-106725793D01*
X130831324Y-106724155D01*
X130702179Y-106722380D01*
X130591724Y-106720462D01*
X130498531Y-106718396D01*
X130421176Y-106716176D01*
X130358231Y-106713797D01*
X130308271Y-106711253D01*
X130269869Y-106708540D01*
X130241600Y-106705650D01*
X130222036Y-106702580D01*
X130209753Y-106699323D01*
X130203324Y-106695873D01*
X130201322Y-106692227D01*
X130201310Y-106691906D01*
X130182793Y-106570793D01*
X130133506Y-106465464D01*
X130061672Y-106393428D01*
X130060928Y-106392972D01*
X130037155Y-106379965D01*
X130009166Y-106369351D01*
X129971676Y-106360886D01*
X129919400Y-106354329D01*
X129847053Y-106349435D01*
X129749350Y-106345964D01*
X129621007Y-106343671D01*
X129456740Y-106342315D01*
X129251262Y-106341653D01*
X128999290Y-106341442D01*
X128938490Y-106341432D01*
X127900418Y-106341333D01*
X127818024Y-106414952D01*
X127758513Y-106483664D01*
X127728511Y-106566895D01*
X127721561Y-106613389D01*
X127707493Y-106738208D01*
X127366145Y-106738208D01*
X127212483Y-106736571D01*
X127106176Y-106731320D01*
X127041755Y-106721944D01*
X127013748Y-106707930D01*
X127012247Y-106705135D01*
X127011437Y-106676764D01*
X127010670Y-106597133D01*
X127009946Y-106467897D01*
X127009266Y-106290711D01*
X127008630Y-106067231D01*
X127008040Y-105799114D01*
X127007496Y-105488015D01*
X127006998Y-105135589D01*
X127006549Y-104743493D01*
X127006148Y-104313382D01*
X127005796Y-103846913D01*
X127005495Y-103345739D01*
X127005244Y-102811519D01*
X127005051Y-102262409D01*
X127727604Y-102262409D01*
X127727604Y-103691236D01*
X127792292Y-103760093D01*
X127861444Y-103815448D01*
X127937343Y-103852306D01*
X127937812Y-103852443D01*
X127990262Y-103859795D01*
X128087443Y-103865845D01*
X128221791Y-103870617D01*
X128385741Y-103874134D01*
X128571729Y-103876419D01*
X128772191Y-103877495D01*
X128979563Y-103877386D01*
X129186280Y-103876114D01*
X129384778Y-103873704D01*
X129567494Y-103870178D01*
X129726861Y-103865560D01*
X129855317Y-103859873D01*
X129945297Y-103853140D01*
X129987313Y-103846142D01*
X130066810Y-103802227D01*
X130132338Y-103740597D01*
X130132834Y-103739932D01*
X130150573Y-103713078D01*
X130164231Y-103681652D01*
X130174464Y-103638523D01*
X130181929Y-103576561D01*
X130187284Y-103488637D01*
X130191184Y-103367620D01*
X130194288Y-103206380D01*
X130196579Y-103048058D01*
X130198790Y-102817448D01*
X130197874Y-102633573D01*
X130192896Y-102490299D01*
X130182920Y-102381488D01*
X130167011Y-102301006D01*
X130144234Y-102242717D01*
X130113655Y-102200485D01*
X130074338Y-102168175D01*
X130061207Y-102159808D01*
X130037404Y-102146760D01*
X130009472Y-102136112D01*
X129972126Y-102127621D01*
X129920077Y-102121042D01*
X129848039Y-102116133D01*
X129750727Y-102112650D01*
X129622853Y-102110350D01*
X129459130Y-102108989D01*
X129254273Y-102108323D01*
X129002994Y-102108109D01*
X128938490Y-102108098D01*
X127900418Y-102108000D01*
X127814011Y-102185204D01*
X127727604Y-102262409D01*
X127005051Y-102262409D01*
X127005045Y-102245907D01*
X127004899Y-101650559D01*
X127004805Y-101027130D01*
X127004766Y-100377278D01*
X127004782Y-99702657D01*
X127004853Y-99004922D01*
X127004980Y-98285731D01*
X127005044Y-98029075D01*
X127727604Y-98029075D01*
X127727604Y-99457903D01*
X127792292Y-99526760D01*
X127861444Y-99582115D01*
X127937343Y-99618973D01*
X127937812Y-99619110D01*
X127990262Y-99626462D01*
X128087443Y-99632512D01*
X128221791Y-99637284D01*
X128385741Y-99640801D01*
X128571729Y-99643085D01*
X128772191Y-99644162D01*
X128979563Y-99644052D01*
X129186280Y-99642781D01*
X129384778Y-99640371D01*
X129567494Y-99636845D01*
X129726861Y-99632227D01*
X129855317Y-99626540D01*
X129945297Y-99619807D01*
X129987313Y-99612808D01*
X130066810Y-99568894D01*
X130132338Y-99507263D01*
X130132834Y-99506599D01*
X130150573Y-99479745D01*
X130164231Y-99448319D01*
X130174464Y-99405190D01*
X130181929Y-99343228D01*
X130187284Y-99255304D01*
X130191184Y-99134287D01*
X130194288Y-98973047D01*
X130196579Y-98814725D01*
X130198790Y-98584115D01*
X130197874Y-98400240D01*
X130192896Y-98256965D01*
X130182920Y-98148155D01*
X130167011Y-98067673D01*
X130144234Y-98009384D01*
X130113655Y-97967152D01*
X130074338Y-97934841D01*
X130061207Y-97926475D01*
X130037404Y-97913427D01*
X130009472Y-97902779D01*
X129972126Y-97894287D01*
X129920077Y-97887709D01*
X129848039Y-97882800D01*
X129750727Y-97879317D01*
X129622853Y-97877017D01*
X129459130Y-97875655D01*
X129254273Y-97874989D01*
X129002994Y-97874776D01*
X128938490Y-97874765D01*
X127900418Y-97874666D01*
X127814011Y-97951871D01*
X127727604Y-98029075D01*
X127005044Y-98029075D01*
X127005165Y-97546739D01*
X127005407Y-96789601D01*
X127005708Y-96015973D01*
X127006069Y-95227511D01*
X127006463Y-94474770D01*
X127006839Y-93795742D01*
X127727604Y-93795742D01*
X127727604Y-95224570D01*
X127792292Y-95293427D01*
X127861444Y-95348782D01*
X127937343Y-95385639D01*
X127937812Y-95385776D01*
X127990262Y-95393128D01*
X128087443Y-95399179D01*
X128221791Y-95403950D01*
X128385741Y-95407467D01*
X128571729Y-95409752D01*
X128772191Y-95410828D01*
X128979563Y-95410719D01*
X129186280Y-95409448D01*
X129384778Y-95407038D01*
X129567494Y-95403512D01*
X129726861Y-95398894D01*
X129855317Y-95393206D01*
X129945297Y-95386473D01*
X129987313Y-95379475D01*
X130066810Y-95335560D01*
X130132338Y-95273930D01*
X130132834Y-95273265D01*
X130150573Y-95246412D01*
X130164231Y-95214986D01*
X130174464Y-95171857D01*
X130181929Y-95109895D01*
X130187284Y-95021970D01*
X130191184Y-94900953D01*
X130194288Y-94739714D01*
X130196579Y-94581392D01*
X130198790Y-94350781D01*
X130197874Y-94166907D01*
X130192896Y-94023632D01*
X130182920Y-93914821D01*
X130167011Y-93834339D01*
X130144234Y-93776050D01*
X130113655Y-93733818D01*
X130074338Y-93701508D01*
X130061207Y-93693142D01*
X130037404Y-93680094D01*
X130009472Y-93669446D01*
X129972126Y-93660954D01*
X129920077Y-93654376D01*
X129848039Y-93649467D01*
X129750727Y-93645984D01*
X129622853Y-93643683D01*
X129459130Y-93642322D01*
X129254273Y-93641656D01*
X129002994Y-93641442D01*
X128938490Y-93641432D01*
X127900418Y-93641333D01*
X127814011Y-93718537D01*
X127727604Y-93795742D01*
X127006839Y-93795742D01*
X127009187Y-89562409D01*
X127727604Y-89562409D01*
X127727604Y-90991236D01*
X127792292Y-91060093D01*
X127861444Y-91115448D01*
X127937343Y-91152306D01*
X127937812Y-91152443D01*
X127990262Y-91159795D01*
X128087443Y-91165845D01*
X128221791Y-91170617D01*
X128385741Y-91174134D01*
X128571729Y-91176419D01*
X128772191Y-91177495D01*
X128979563Y-91177386D01*
X129186280Y-91176114D01*
X129384778Y-91173704D01*
X129567494Y-91170178D01*
X129726861Y-91165560D01*
X129855317Y-91159873D01*
X129945297Y-91153140D01*
X129987313Y-91146142D01*
X130066810Y-91102227D01*
X130132338Y-91040597D01*
X130132834Y-91039932D01*
X130150573Y-91013078D01*
X130164231Y-90981652D01*
X130174464Y-90938523D01*
X130181929Y-90876561D01*
X130187284Y-90788637D01*
X130191184Y-90667620D01*
X130194288Y-90506380D01*
X130196579Y-90348058D01*
X130198790Y-90117448D01*
X130197874Y-89933573D01*
X130192896Y-89790299D01*
X130182920Y-89681488D01*
X130167011Y-89601006D01*
X130144234Y-89542717D01*
X130113655Y-89500485D01*
X130074338Y-89468175D01*
X130061207Y-89459808D01*
X130037404Y-89446760D01*
X130009472Y-89436112D01*
X129972126Y-89427621D01*
X129920077Y-89421042D01*
X129848039Y-89416133D01*
X129750727Y-89412650D01*
X129622853Y-89410350D01*
X129459130Y-89408989D01*
X129254273Y-89408323D01*
X129002994Y-89408109D01*
X128938490Y-89408098D01*
X127900418Y-89408000D01*
X127814011Y-89485204D01*
X127727604Y-89562409D01*
X127009187Y-89562409D01*
X127011535Y-85329075D01*
X127727604Y-85329075D01*
X127727604Y-86757903D01*
X127792292Y-86826760D01*
X127861444Y-86882115D01*
X127937343Y-86918973D01*
X127937812Y-86919110D01*
X127990262Y-86926462D01*
X128087443Y-86932512D01*
X128221791Y-86937284D01*
X128385741Y-86940801D01*
X128571729Y-86943085D01*
X128772191Y-86944162D01*
X128979563Y-86944052D01*
X129186280Y-86942781D01*
X129384778Y-86940371D01*
X129567494Y-86936845D01*
X129726861Y-86932227D01*
X129855317Y-86926540D01*
X129945297Y-86919807D01*
X129987313Y-86912808D01*
X130066810Y-86868894D01*
X130132338Y-86807263D01*
X130132834Y-86806599D01*
X130150573Y-86779745D01*
X130164231Y-86748319D01*
X130174464Y-86705190D01*
X130181929Y-86643228D01*
X130187284Y-86555304D01*
X130191184Y-86434287D01*
X130194288Y-86273047D01*
X130196579Y-86114725D01*
X130198790Y-85884115D01*
X130197874Y-85700240D01*
X130192896Y-85556965D01*
X130182920Y-85448155D01*
X130167011Y-85367673D01*
X130144234Y-85309384D01*
X130113655Y-85267152D01*
X130074338Y-85234841D01*
X130061207Y-85226475D01*
X130037404Y-85213427D01*
X130009472Y-85202779D01*
X129972126Y-85194287D01*
X129920077Y-85187709D01*
X129848039Y-85182800D01*
X129750727Y-85179317D01*
X129622853Y-85177017D01*
X129459130Y-85175655D01*
X129254273Y-85174989D01*
X129002994Y-85174776D01*
X128938490Y-85174765D01*
X127900418Y-85174666D01*
X127814011Y-85251871D01*
X127727604Y-85329075D01*
X127011535Y-85329075D01*
X127013229Y-82277479D01*
X127360364Y-82270120D01*
X127707499Y-82262762D01*
X127720365Y-82396661D01*
X127720365Y-82396661D01*
G37*
X127720365Y-82396661D02*
X127752941Y-82528154D01*
X127822726Y-82622502D01*
X127931253Y-82681642D01*
X127950535Y-82687476D01*
X128003792Y-82694695D01*
X128102184Y-82700746D01*
X128237943Y-82705630D01*
X128403298Y-82709352D01*
X128590483Y-82711915D01*
X128791727Y-82713323D01*
X128999262Y-82713580D01*
X129205320Y-82712689D01*
X129402132Y-82710654D01*
X129581928Y-82707479D01*
X129736941Y-82703167D01*
X129859401Y-82697722D01*
X129941540Y-82691148D01*
X129968744Y-82686524D01*
X130076620Y-82631968D01*
X130095124Y-82608208D01*
X130915833Y-82608208D01*
X130915833Y-106394250D01*
X153564166Y-106394250D01*
X153564166Y-102797660D01*
X154281158Y-102797660D01*
X154283146Y-103022043D01*
X154283368Y-103038787D01*
X154286296Y-103237963D01*
X154289489Y-103391288D01*
X154293590Y-103505827D01*
X154299241Y-103588644D01*
X154307084Y-103646804D01*
X154317764Y-103687372D01*
X154331923Y-103717411D01*
X154347165Y-103739933D01*
X154412336Y-103801604D01*
X154491883Y-103845858D01*
X154492686Y-103846142D01*
X154542753Y-103854333D01*
X154638094Y-103861449D01*
X154771076Y-103867460D01*
X154934068Y-103872334D01*
X155119436Y-103876043D01*
X155319550Y-103878555D01*
X155526776Y-103879843D01*
X155733481Y-103879874D01*
X155932035Y-103878620D01*
X156114803Y-103876050D01*
X156274155Y-103872134D01*
X156402457Y-103866843D01*
X156492078Y-103860146D01*
X156529464Y-103854142D01*
X156613669Y-103816388D01*
X156686423Y-103761482D01*
X156688214Y-103759605D01*
X156707963Y-103737492D01*
X156723260Y-103713886D01*
X156734767Y-103682056D01*
X156743149Y-103635273D01*
X156749067Y-103566809D01*
X156753184Y-103469933D01*
X156756164Y-103337918D01*
X156758668Y-103164033D01*
X156760331Y-103027400D01*
X156762455Y-102804282D01*
X156762283Y-102627579D01*
X156758913Y-102490810D01*
X156751440Y-102387492D01*
X156738961Y-102311143D01*
X156720572Y-102255280D01*
X156695369Y-102213421D01*
X156662449Y-102179083D01*
X156639412Y-102160019D01*
X156620727Y-102146961D01*
X156597672Y-102136290D01*
X156565088Y-102127765D01*
X156517817Y-102121146D01*
X156450702Y-102116193D01*
X156358585Y-102112665D01*
X156236308Y-102110324D01*
X156078713Y-102108928D01*
X155880641Y-102108238D01*
X155636935Y-102108013D01*
X155522083Y-102108000D01*
X155258392Y-102108084D01*
X155042443Y-102108505D01*
X154869063Y-102109514D01*
X154733077Y-102111361D01*
X154629313Y-102114298D01*
X154552594Y-102118575D01*
X154497749Y-102124443D01*
X154459602Y-102132154D01*
X154432980Y-102141958D01*
X154412708Y-102154106D01*
X154401809Y-102162336D01*
X154364150Y-102197314D01*
X154334729Y-102240306D01*
X154312688Y-102297661D01*
X154297167Y-102375726D01*
X154287311Y-102480849D01*
X154282261Y-102619378D01*
X154281158Y-102797660D01*
X153564166Y-102797660D01*
X153564166Y-98564327D01*
X154281158Y-98564327D01*
X154283146Y-98788710D01*
X154283368Y-98805454D01*
X154286296Y-99004630D01*
X154289489Y-99157955D01*
X154293590Y-99272494D01*
X154299241Y-99355311D01*
X154307084Y-99413471D01*
X154317764Y-99454038D01*
X154331923Y-99484077D01*
X154347165Y-99506599D01*
X154412336Y-99568271D01*
X154491883Y-99612525D01*
X154492686Y-99612808D01*
X154542753Y-99621000D01*
X154638094Y-99628116D01*
X154771076Y-99634126D01*
X154934068Y-99639001D01*
X155119436Y-99642709D01*
X155319550Y-99645222D01*
X155526776Y-99646509D01*
X155733481Y-99646541D01*
X155932035Y-99645286D01*
X156114803Y-99642716D01*
X156274155Y-99638801D01*
X156402457Y-99633510D01*
X156492078Y-99626813D01*
X156529464Y-99620809D01*
X156613669Y-99583055D01*
X156686423Y-99528149D01*
X156688214Y-99526271D01*
X156707963Y-99504159D01*
X156723260Y-99480552D01*
X156734767Y-99448722D01*
X156743149Y-99401940D01*
X156749067Y-99333475D01*
X156753184Y-99236600D01*
X156756164Y-99104584D01*
X156758668Y-98930699D01*
X156760331Y-98794067D01*
X156762455Y-98570948D01*
X156762283Y-98394246D01*
X156758913Y-98257477D01*
X156751440Y-98154159D01*
X156738961Y-98077809D01*
X156720572Y-98021947D01*
X156695369Y-97980088D01*
X156662449Y-97945750D01*
X156639412Y-97926686D01*
X156620727Y-97913628D01*
X156597672Y-97902957D01*
X156565088Y-97894431D01*
X156517817Y-97887812D01*
X156450702Y-97882859D01*
X156358585Y-97879332D01*
X156236308Y-97876991D01*
X156078713Y-97875595D01*
X155880641Y-97874905D01*
X155636935Y-97874680D01*
X155522083Y-97874666D01*
X155258392Y-97874751D01*
X155042443Y-97875172D01*
X154869063Y-97876181D01*
X154733077Y-97878028D01*
X154629313Y-97880965D01*
X154552594Y-97885242D01*
X154497749Y-97891110D01*
X154459602Y-97898821D01*
X154432980Y-97908625D01*
X154412708Y-97920773D01*
X154401809Y-97929002D01*
X154364150Y-97963980D01*
X154334729Y-98006973D01*
X154312688Y-98064328D01*
X154297167Y-98142393D01*
X154287311Y-98247516D01*
X154282261Y-98386044D01*
X154281158Y-98564327D01*
X153564166Y-98564327D01*
X153564166Y-94330993D01*
X154281158Y-94330993D01*
X154283146Y-94555377D01*
X154283368Y-94572120D01*
X154286296Y-94771296D01*
X154289489Y-94924622D01*
X154293590Y-95039160D01*
X154299241Y-95121978D01*
X154307084Y-95180138D01*
X154317764Y-95220705D01*
X154331923Y-95250744D01*
X154347165Y-95273266D01*
X154412336Y-95334938D01*
X154491883Y-95379191D01*
X154492686Y-95379475D01*
X154542753Y-95387667D01*
X154638094Y-95394783D01*
X154771076Y-95400793D01*
X154934068Y-95405667D01*
X155119436Y-95409376D01*
X155319550Y-95411889D01*
X155526776Y-95413176D01*
X155733481Y-95413207D01*
X155932035Y-95411953D01*
X156114803Y-95409383D01*
X156274155Y-95405467D01*
X156402457Y-95400176D01*
X156492078Y-95393479D01*
X156529464Y-95387476D01*
X156613669Y-95349721D01*
X156686423Y-95294816D01*
X156688214Y-95292938D01*
X156707963Y-95270825D01*
X156723260Y-95247219D01*
X156734767Y-95215389D01*
X156743149Y-95168606D01*
X156749067Y-95100142D01*
X156753184Y-95003267D01*
X156756164Y-94871251D01*
X156758668Y-94697366D01*
X156760331Y-94560734D01*
X156762455Y-94337615D01*
X156762283Y-94160912D01*
X156758913Y-94024143D01*
X156751440Y-93920825D01*
X156738961Y-93844476D01*
X156720572Y-93788613D01*
X156695369Y-93746754D01*
X156662449Y-93712417D01*
X156639412Y-93693353D01*
X156620727Y-93680295D01*
X156597672Y-93669623D01*
X156565088Y-93661098D01*
X156517817Y-93654479D01*
X156450702Y-93649526D01*
X156358585Y-93645999D01*
X156236308Y-93643657D01*
X156078713Y-93642262D01*
X155880641Y-93641571D01*
X155636935Y-93641346D01*
X155522083Y-93641333D01*
X155258392Y-93641417D01*
X155042443Y-93641839D01*
X154869063Y-93642847D01*
X154733077Y-93644695D01*
X154629313Y-93647631D01*
X154552594Y-93651908D01*
X154497749Y-93657777D01*
X154459602Y-93665487D01*
X154432980Y-93675291D01*
X154412708Y-93687440D01*
X154401809Y-93695669D01*
X154364150Y-93730647D01*
X154334729Y-93773639D01*
X154312688Y-93830994D01*
X154297167Y-93909059D01*
X154287311Y-94014182D01*
X154282261Y-94152711D01*
X154281158Y-94330993D01*
X153564166Y-94330993D01*
X153564166Y-90097660D01*
X154281158Y-90097660D01*
X154283146Y-90322043D01*
X154283368Y-90338787D01*
X154286296Y-90537963D01*
X154289489Y-90691288D01*
X154293590Y-90805827D01*
X154299241Y-90888644D01*
X154307084Y-90946804D01*
X154317764Y-90987372D01*
X154331923Y-91017411D01*
X154347165Y-91039933D01*
X154412336Y-91101604D01*
X154491883Y-91145858D01*
X154492686Y-91146142D01*
X154542753Y-91154333D01*
X154638094Y-91161449D01*
X154771076Y-91167460D01*
X154934068Y-91172334D01*
X155119436Y-91176043D01*
X155319550Y-91178555D01*
X155526776Y-91179843D01*
X155733481Y-91179874D01*
X155932035Y-91178620D01*
X156114803Y-91176050D01*
X156274155Y-91172134D01*
X156402457Y-91166843D01*
X156492078Y-91160146D01*
X156529464Y-91154142D01*
X156613669Y-91116388D01*
X156686423Y-91061482D01*
X156688214Y-91059605D01*
X156707963Y-91037492D01*
X156723260Y-91013886D01*
X156734767Y-90982056D01*
X156743149Y-90935273D01*
X156749067Y-90866809D01*
X156753184Y-90769933D01*
X156756164Y-90637918D01*
X156758668Y-90464033D01*
X156760331Y-90327400D01*
X156762455Y-90104282D01*
X156762283Y-89927579D01*
X156758913Y-89790810D01*
X156751440Y-89687492D01*
X156738961Y-89611143D01*
X156720572Y-89555280D01*
X156695369Y-89513421D01*
X156662449Y-89479083D01*
X156639412Y-89460019D01*
X156620727Y-89446961D01*
X156597672Y-89436290D01*
X156565088Y-89427765D01*
X156517817Y-89421146D01*
X156450702Y-89416193D01*
X156358585Y-89412665D01*
X156236308Y-89410324D01*
X156078713Y-89408928D01*
X155880641Y-89408238D01*
X155636935Y-89408013D01*
X155522083Y-89408000D01*
X155258392Y-89408084D01*
X155042443Y-89408505D01*
X154869063Y-89409514D01*
X154733077Y-89411361D01*
X154629313Y-89414298D01*
X154552594Y-89418575D01*
X154497749Y-89424443D01*
X154459602Y-89432154D01*
X154432980Y-89441958D01*
X154412708Y-89454106D01*
X154401809Y-89462336D01*
X154364150Y-89497314D01*
X154334729Y-89540306D01*
X154312688Y-89597661D01*
X154297167Y-89675726D01*
X154287311Y-89780849D01*
X154282261Y-89919378D01*
X154281158Y-90097660D01*
X153564166Y-90097660D01*
X153564166Y-85864327D01*
X154281158Y-85864327D01*
X154283146Y-86088710D01*
X154283368Y-86105454D01*
X154286296Y-86304630D01*
X154289489Y-86457955D01*
X154293590Y-86572494D01*
X154299241Y-86655311D01*
X154307084Y-86713471D01*
X154317764Y-86754038D01*
X154331923Y-86784077D01*
X154347165Y-86806599D01*
X154412336Y-86868271D01*
X154491883Y-86912525D01*
X154492686Y-86912808D01*
X154542753Y-86921000D01*
X154638094Y-86928116D01*
X154771076Y-86934126D01*
X154934068Y-86939001D01*
X155119436Y-86942709D01*
X155319550Y-86945222D01*
X155526776Y-86946509D01*
X155733481Y-86946541D01*
X155932035Y-86945286D01*
X156114803Y-86942716D01*
X156274155Y-86938801D01*
X156402457Y-86933510D01*
X156492078Y-86926813D01*
X156529464Y-86920809D01*
X156613669Y-86883055D01*
X156686423Y-86828149D01*
X156688214Y-86826271D01*
X156707963Y-86804159D01*
X156723260Y-86780552D01*
X156734767Y-86748722D01*
X156743149Y-86701940D01*
X156749067Y-86633475D01*
X156753184Y-86536600D01*
X156756164Y-86404584D01*
X156758668Y-86230699D01*
X156760331Y-86094067D01*
X156762455Y-85870948D01*
X156762283Y-85694246D01*
X156758913Y-85557477D01*
X156751440Y-85454159D01*
X156738961Y-85377809D01*
X156720572Y-85321947D01*
X156695369Y-85280088D01*
X156662449Y-85245750D01*
X156639412Y-85226686D01*
X156620727Y-85213628D01*
X156597672Y-85202957D01*
X156565088Y-85194431D01*
X156517817Y-85187812D01*
X156450702Y-85182859D01*
X156358585Y-85179332D01*
X156236308Y-85176991D01*
X156078713Y-85175595D01*
X155880641Y-85174905D01*
X155636935Y-85174680D01*
X155522083Y-85174666D01*
X155258392Y-85174751D01*
X155042443Y-85175172D01*
X154869063Y-85176181D01*
X154733077Y-85178028D01*
X154629313Y-85180965D01*
X154552594Y-85185242D01*
X154497749Y-85191110D01*
X154459602Y-85198821D01*
X154432980Y-85208625D01*
X154412708Y-85220773D01*
X154401809Y-85229002D01*
X154364150Y-85263980D01*
X154334729Y-85306973D01*
X154312688Y-85364328D01*
X154297167Y-85442393D01*
X154287311Y-85547516D01*
X154282261Y-85686044D01*
X154281158Y-85864327D01*
X153564166Y-85864327D01*
X153564166Y-82608208D01*
X130915833Y-82608208D01*
X130095124Y-82608208D01*
X130150200Y-82537488D01*
X130189860Y-82402586D01*
X130191110Y-82393643D01*
X130208275Y-82264250D01*
X154271659Y-82264250D01*
X154285420Y-82386335D01*
X154321455Y-82522366D01*
X154393748Y-82621815D01*
X154492686Y-82679475D01*
X154542753Y-82687667D01*
X154638094Y-82694783D01*
X154771076Y-82700793D01*
X154934068Y-82705667D01*
X155119436Y-82709376D01*
X155319550Y-82711889D01*
X155526776Y-82713176D01*
X155733481Y-82713207D01*
X155932035Y-82711953D01*
X156114803Y-82709383D01*
X156274155Y-82705467D01*
X156402457Y-82700176D01*
X156492078Y-82693479D01*
X156529464Y-82687476D01*
X156643930Y-82633208D01*
X156719385Y-82543934D01*
X156757208Y-82417913D01*
X156759563Y-82397405D01*
X156772357Y-82264250D01*
X157480000Y-82264250D01*
X157480000Y-106738208D01*
X156765625Y-106738208D01*
X156765625Y-106657519D01*
X156752836Y-106573501D01*
X156726088Y-106500375D01*
X156705882Y-106461727D01*
X156685648Y-106429906D01*
X156660364Y-106404250D01*
X156625010Y-106384094D01*
X156574565Y-106368777D01*
X156504008Y-106357634D01*
X156408318Y-106350003D01*
X156282474Y-106345220D01*
X156121456Y-106342621D01*
X155920242Y-106341545D01*
X155673812Y-106341327D01*
X155522083Y-106341333D01*
X155255641Y-106341533D01*
X155037066Y-106342263D01*
X154861309Y-106343720D01*
X154723322Y-106346101D01*
X154618055Y-106349603D01*
X154540460Y-106354421D01*
X154485489Y-106360753D01*
X154448092Y-106368794D01*
X154423220Y-106378743D01*
X154413925Y-106384478D01*
X154351222Y-106453129D01*
X154302556Y-106550768D01*
X154279191Y-106653537D01*
X154278541Y-106671212D01*
X154278541Y-106738208D01*
X142240000Y-106738208D01*
X141287388Y-106738201D01*
X140386266Y-106738178D01*
X139535209Y-106738133D01*
X138732790Y-106738061D01*
X137977584Y-106737955D01*
X137268163Y-106737811D01*
X136603102Y-106737623D01*
X135980975Y-106737385D01*
X135400355Y-106737093D01*
X134859816Y-106736740D01*
X134357933Y-106736321D01*
X133893279Y-106735830D01*
X133464428Y-106735263D01*
X133069953Y-106734614D01*
X132708429Y-106733876D01*
X132378430Y-106733045D01*
X132078529Y-106732116D01*
X131807300Y-106731082D01*
X131563317Y-106729938D01*
X131345155Y-106728679D01*
X131151385Y-106727299D01*
X130980584Y-106725793D01*
X130831324Y-106724155D01*
X130702179Y-106722380D01*
X130591724Y-106720462D01*
X130498531Y-106718396D01*
X130421176Y-106716176D01*
X130358231Y-106713797D01*
X130308271Y-106711253D01*
X130269869Y-106708540D01*
X130241600Y-106705650D01*
X130222036Y-106702580D01*
X130209753Y-106699323D01*
X130203324Y-106695873D01*
X130201322Y-106692227D01*
X130201310Y-106691906D01*
X130182793Y-106570793D01*
X130133506Y-106465464D01*
X130061672Y-106393428D01*
X130060928Y-106392972D01*
X130037155Y-106379965D01*
X130009166Y-106369351D01*
X129971676Y-106360886D01*
X129919400Y-106354329D01*
X129847053Y-106349435D01*
X129749350Y-106345964D01*
X129621007Y-106343671D01*
X129456740Y-106342315D01*
X129251262Y-106341653D01*
X128999290Y-106341442D01*
X128938490Y-106341432D01*
X127900418Y-106341333D01*
X127818024Y-106414952D01*
X127758513Y-106483664D01*
X127728511Y-106566895D01*
X127721561Y-106613389D01*
X127707493Y-106738208D01*
X127366145Y-106738208D01*
X127212483Y-106736571D01*
X127106176Y-106731320D01*
X127041755Y-106721944D01*
X127013748Y-106707930D01*
X127012247Y-106705135D01*
X127011437Y-106676764D01*
X127010670Y-106597133D01*
X127009946Y-106467897D01*
X127009266Y-106290711D01*
X127008630Y-106067231D01*
X127008040Y-105799114D01*
X127007496Y-105488015D01*
X127006998Y-105135589D01*
X127006549Y-104743493D01*
X127006148Y-104313382D01*
X127005796Y-103846913D01*
X127005495Y-103345739D01*
X127005244Y-102811519D01*
X127005051Y-102262409D01*
X127727604Y-102262409D01*
X127727604Y-103691236D01*
X127792292Y-103760093D01*
X127861444Y-103815448D01*
X127937343Y-103852306D01*
X127937812Y-103852443D01*
X127990262Y-103859795D01*
X128087443Y-103865845D01*
X128221791Y-103870617D01*
X128385741Y-103874134D01*
X128571729Y-103876419D01*
X128772191Y-103877495D01*
X128979563Y-103877386D01*
X129186280Y-103876114D01*
X129384778Y-103873704D01*
X129567494Y-103870178D01*
X129726861Y-103865560D01*
X129855317Y-103859873D01*
X129945297Y-103853140D01*
X129987313Y-103846142D01*
X130066810Y-103802227D01*
X130132338Y-103740597D01*
X130132834Y-103739932D01*
X130150573Y-103713078D01*
X130164231Y-103681652D01*
X130174464Y-103638523D01*
X130181929Y-103576561D01*
X130187284Y-103488637D01*
X130191184Y-103367620D01*
X130194288Y-103206380D01*
X130196579Y-103048058D01*
X130198790Y-102817448D01*
X130197874Y-102633573D01*
X130192896Y-102490299D01*
X130182920Y-102381488D01*
X130167011Y-102301006D01*
X130144234Y-102242717D01*
X130113655Y-102200485D01*
X130074338Y-102168175D01*
X130061207Y-102159808D01*
X130037404Y-102146760D01*
X130009472Y-102136112D01*
X129972126Y-102127621D01*
X129920077Y-102121042D01*
X129848039Y-102116133D01*
X129750727Y-102112650D01*
X129622853Y-102110350D01*
X129459130Y-102108989D01*
X129254273Y-102108323D01*
X129002994Y-102108109D01*
X128938490Y-102108098D01*
X127900418Y-102108000D01*
X127814011Y-102185204D01*
X127727604Y-102262409D01*
X127005051Y-102262409D01*
X127005045Y-102245907D01*
X127004899Y-101650559D01*
X127004805Y-101027130D01*
X127004766Y-100377278D01*
X127004782Y-99702657D01*
X127004853Y-99004922D01*
X127004980Y-98285731D01*
X127005044Y-98029075D01*
X127727604Y-98029075D01*
X127727604Y-99457903D01*
X127792292Y-99526760D01*
X127861444Y-99582115D01*
X127937343Y-99618973D01*
X127937812Y-99619110D01*
X127990262Y-99626462D01*
X128087443Y-99632512D01*
X128221791Y-99637284D01*
X128385741Y-99640801D01*
X128571729Y-99643085D01*
X128772191Y-99644162D01*
X128979563Y-99644052D01*
X129186280Y-99642781D01*
X129384778Y-99640371D01*
X129567494Y-99636845D01*
X129726861Y-99632227D01*
X129855317Y-99626540D01*
X129945297Y-99619807D01*
X129987313Y-99612808D01*
X130066810Y-99568894D01*
X130132338Y-99507263D01*
X130132834Y-99506599D01*
X130150573Y-99479745D01*
X130164231Y-99448319D01*
X130174464Y-99405190D01*
X130181929Y-99343228D01*
X130187284Y-99255304D01*
X130191184Y-99134287D01*
X130194288Y-98973047D01*
X130196579Y-98814725D01*
X130198790Y-98584115D01*
X130197874Y-98400240D01*
X130192896Y-98256965D01*
X130182920Y-98148155D01*
X130167011Y-98067673D01*
X130144234Y-98009384D01*
X130113655Y-97967152D01*
X130074338Y-97934841D01*
X130061207Y-97926475D01*
X130037404Y-97913427D01*
X130009472Y-97902779D01*
X129972126Y-97894287D01*
X129920077Y-97887709D01*
X129848039Y-97882800D01*
X129750727Y-97879317D01*
X129622853Y-97877017D01*
X129459130Y-97875655D01*
X129254273Y-97874989D01*
X129002994Y-97874776D01*
X128938490Y-97874765D01*
X127900418Y-97874666D01*
X127814011Y-97951871D01*
X127727604Y-98029075D01*
X127005044Y-98029075D01*
X127005165Y-97546739D01*
X127005407Y-96789601D01*
X127005708Y-96015973D01*
X127006069Y-95227511D01*
X127006463Y-94474770D01*
X127006839Y-93795742D01*
X127727604Y-93795742D01*
X127727604Y-95224570D01*
X127792292Y-95293427D01*
X127861444Y-95348782D01*
X127937343Y-95385639D01*
X127937812Y-95385776D01*
X127990262Y-95393128D01*
X128087443Y-95399179D01*
X128221791Y-95403950D01*
X128385741Y-95407467D01*
X128571729Y-95409752D01*
X128772191Y-95410828D01*
X128979563Y-95410719D01*
X129186280Y-95409448D01*
X129384778Y-95407038D01*
X129567494Y-95403512D01*
X129726861Y-95398894D01*
X129855317Y-95393206D01*
X129945297Y-95386473D01*
X129987313Y-95379475D01*
X130066810Y-95335560D01*
X130132338Y-95273930D01*
X130132834Y-95273265D01*
X130150573Y-95246412D01*
X130164231Y-95214986D01*
X130174464Y-95171857D01*
X130181929Y-95109895D01*
X130187284Y-95021970D01*
X130191184Y-94900953D01*
X130194288Y-94739714D01*
X130196579Y-94581392D01*
X130198790Y-94350781D01*
X130197874Y-94166907D01*
X130192896Y-94023632D01*
X130182920Y-93914821D01*
X130167011Y-93834339D01*
X130144234Y-93776050D01*
X130113655Y-93733818D01*
X130074338Y-93701508D01*
X130061207Y-93693142D01*
X130037404Y-93680094D01*
X130009472Y-93669446D01*
X129972126Y-93660954D01*
X129920077Y-93654376D01*
X129848039Y-93649467D01*
X129750727Y-93645984D01*
X129622853Y-93643683D01*
X129459130Y-93642322D01*
X129254273Y-93641656D01*
X129002994Y-93641442D01*
X128938490Y-93641432D01*
X127900418Y-93641333D01*
X127814011Y-93718537D01*
X127727604Y-93795742D01*
X127006839Y-93795742D01*
X127009187Y-89562409D01*
X127727604Y-89562409D01*
X127727604Y-90991236D01*
X127792292Y-91060093D01*
X127861444Y-91115448D01*
X127937343Y-91152306D01*
X127937812Y-91152443D01*
X127990262Y-91159795D01*
X128087443Y-91165845D01*
X128221791Y-91170617D01*
X128385741Y-91174134D01*
X128571729Y-91176419D01*
X128772191Y-91177495D01*
X128979563Y-91177386D01*
X129186280Y-91176114D01*
X129384778Y-91173704D01*
X129567494Y-91170178D01*
X129726861Y-91165560D01*
X129855317Y-91159873D01*
X129945297Y-91153140D01*
X129987313Y-91146142D01*
X130066810Y-91102227D01*
X130132338Y-91040597D01*
X130132834Y-91039932D01*
X130150573Y-91013078D01*
X130164231Y-90981652D01*
X130174464Y-90938523D01*
X130181929Y-90876561D01*
X130187284Y-90788637D01*
X130191184Y-90667620D01*
X130194288Y-90506380D01*
X130196579Y-90348058D01*
X130198790Y-90117448D01*
X130197874Y-89933573D01*
X130192896Y-89790299D01*
X130182920Y-89681488D01*
X130167011Y-89601006D01*
X130144234Y-89542717D01*
X130113655Y-89500485D01*
X130074338Y-89468175D01*
X130061207Y-89459808D01*
X130037404Y-89446760D01*
X130009472Y-89436112D01*
X129972126Y-89427621D01*
X129920077Y-89421042D01*
X129848039Y-89416133D01*
X129750727Y-89412650D01*
X129622853Y-89410350D01*
X129459130Y-89408989D01*
X129254273Y-89408323D01*
X129002994Y-89408109D01*
X128938490Y-89408098D01*
X127900418Y-89408000D01*
X127814011Y-89485204D01*
X127727604Y-89562409D01*
X127009187Y-89562409D01*
X127011535Y-85329075D01*
X127727604Y-85329075D01*
X127727604Y-86757903D01*
X127792292Y-86826760D01*
X127861444Y-86882115D01*
X127937343Y-86918973D01*
X127937812Y-86919110D01*
X127990262Y-86926462D01*
X128087443Y-86932512D01*
X128221791Y-86937284D01*
X128385741Y-86940801D01*
X128571729Y-86943085D01*
X128772191Y-86944162D01*
X128979563Y-86944052D01*
X129186280Y-86942781D01*
X129384778Y-86940371D01*
X129567494Y-86936845D01*
X129726861Y-86932227D01*
X129855317Y-86926540D01*
X129945297Y-86919807D01*
X129987313Y-86912808D01*
X130066810Y-86868894D01*
X130132338Y-86807263D01*
X130132834Y-86806599D01*
X130150573Y-86779745D01*
X130164231Y-86748319D01*
X130174464Y-86705190D01*
X130181929Y-86643228D01*
X130187284Y-86555304D01*
X130191184Y-86434287D01*
X130194288Y-86273047D01*
X130196579Y-86114725D01*
X130198790Y-85884115D01*
X130197874Y-85700240D01*
X130192896Y-85556965D01*
X130182920Y-85448155D01*
X130167011Y-85367673D01*
X130144234Y-85309384D01*
X130113655Y-85267152D01*
X130074338Y-85234841D01*
X130061207Y-85226475D01*
X130037404Y-85213427D01*
X130009472Y-85202779D01*
X129972126Y-85194287D01*
X129920077Y-85187709D01*
X129848039Y-85182800D01*
X129750727Y-85179317D01*
X129622853Y-85177017D01*
X129459130Y-85175655D01*
X129254273Y-85174989D01*
X129002994Y-85174776D01*
X128938490Y-85174765D01*
X127900418Y-85174666D01*
X127814011Y-85251871D01*
X127727604Y-85329075D01*
X127011535Y-85329075D01*
X127013229Y-82277479D01*
X127360364Y-82270120D01*
X127707499Y-82262762D01*
X127720365Y-82396661D01*
G04 #@! TO.C,S1*
D10*
X128197428Y-109274428D02*
X128306285Y-109310714D01*
X128487714Y-109310714D01*
X128560285Y-109274428D01*
X128596571Y-109238142D01*
X128632857Y-109165571D01*
X128632857Y-109093000D01*
X128596571Y-109020428D01*
X128560285Y-108984142D01*
X128487714Y-108947857D01*
X128342571Y-108911571D01*
X128270000Y-108875285D01*
X128233714Y-108839000D01*
X128197428Y-108766428D01*
X128197428Y-108693857D01*
X128233714Y-108621285D01*
X128270000Y-108585000D01*
X128342571Y-108548714D01*
X128524000Y-108548714D01*
X128632857Y-108585000D01*
X129358571Y-109310714D02*
X128923142Y-109310714D01*
X129140857Y-109310714D02*
X129140857Y-108548714D01*
X129068285Y-108657571D01*
X128995714Y-108730142D01*
X128923142Y-108766428D01*
G04 #@! TO.C,R6*
X149733000Y-109818714D02*
X149479000Y-109455857D01*
X149297571Y-109818714D02*
X149297571Y-109056714D01*
X149587857Y-109056714D01*
X149660428Y-109093000D01*
X149696714Y-109129285D01*
X149733000Y-109201857D01*
X149733000Y-109310714D01*
X149696714Y-109383285D01*
X149660428Y-109419571D01*
X149587857Y-109455857D01*
X149297571Y-109455857D01*
X150386142Y-109056714D02*
X150241000Y-109056714D01*
X150168428Y-109093000D01*
X150132142Y-109129285D01*
X150059571Y-109238142D01*
X150023285Y-109383285D01*
X150023285Y-109673571D01*
X150059571Y-109746142D01*
X150095857Y-109782428D01*
X150168428Y-109818714D01*
X150313571Y-109818714D01*
X150386142Y-109782428D01*
X150422428Y-109746142D01*
X150458714Y-109673571D01*
X150458714Y-109492142D01*
X150422428Y-109419571D01*
X150386142Y-109383285D01*
X150313571Y-109347000D01*
X150168428Y-109347000D01*
X150095857Y-109383285D01*
X150059571Y-109419571D01*
X150023285Y-109492142D01*
G04 #@! TO.C,D1*
X132152571Y-82132714D02*
X132152571Y-81370714D01*
X132334000Y-81370714D01*
X132442857Y-81407000D01*
X132515428Y-81479571D01*
X132551714Y-81552142D01*
X132588000Y-81697285D01*
X132588000Y-81806142D01*
X132551714Y-81951285D01*
X132515428Y-82023857D01*
X132442857Y-82096428D01*
X132334000Y-82132714D01*
X132152571Y-82132714D01*
X133313714Y-82132714D02*
X132878285Y-82132714D01*
X133096000Y-82132714D02*
X133096000Y-81370714D01*
X133023428Y-81479571D01*
X132950857Y-81552142D01*
X132878285Y-81588428D01*
G04 #@! TO.C,D2*
X138502571Y-82132714D02*
X138502571Y-81370714D01*
X138684000Y-81370714D01*
X138792857Y-81407000D01*
X138865428Y-81479571D01*
X138901714Y-81552142D01*
X138938000Y-81697285D01*
X138938000Y-81806142D01*
X138901714Y-81951285D01*
X138865428Y-82023857D01*
X138792857Y-82096428D01*
X138684000Y-82132714D01*
X138502571Y-82132714D01*
X139228285Y-81443285D02*
X139264571Y-81407000D01*
X139337142Y-81370714D01*
X139518571Y-81370714D01*
X139591142Y-81407000D01*
X139627428Y-81443285D01*
X139663714Y-81515857D01*
X139663714Y-81588428D01*
X139627428Y-81697285D01*
X139192000Y-82132714D01*
X139663714Y-82132714D01*
G04 #@! TO.C,D3*
X144852571Y-82132714D02*
X144852571Y-81370714D01*
X145034000Y-81370714D01*
X145142857Y-81407000D01*
X145215428Y-81479571D01*
X145251714Y-81552142D01*
X145288000Y-81697285D01*
X145288000Y-81806142D01*
X145251714Y-81951285D01*
X145215428Y-82023857D01*
X145142857Y-82096428D01*
X145034000Y-82132714D01*
X144852571Y-82132714D01*
X145542000Y-81370714D02*
X146013714Y-81370714D01*
X145759714Y-81661000D01*
X145868571Y-81661000D01*
X145941142Y-81697285D01*
X145977428Y-81733571D01*
X146013714Y-81806142D01*
X146013714Y-81987571D01*
X145977428Y-82060142D01*
X145941142Y-82096428D01*
X145868571Y-82132714D01*
X145650857Y-82132714D01*
X145578285Y-82096428D01*
X145542000Y-82060142D01*
G04 #@! TO.C,D4*
X151202571Y-82132714D02*
X151202571Y-81370714D01*
X151384000Y-81370714D01*
X151492857Y-81407000D01*
X151565428Y-81479571D01*
X151601714Y-81552142D01*
X151638000Y-81697285D01*
X151638000Y-81806142D01*
X151601714Y-81951285D01*
X151565428Y-82023857D01*
X151492857Y-82096428D01*
X151384000Y-82132714D01*
X151202571Y-82132714D01*
X152291142Y-81624714D02*
X152291142Y-82132714D01*
X152109714Y-81334428D02*
X151928285Y-81878714D01*
X152400000Y-81878714D01*
G04 #@! TO.C,D5*
X132152571Y-87720714D02*
X132152571Y-86958714D01*
X132334000Y-86958714D01*
X132442857Y-86995000D01*
X132515428Y-87067571D01*
X132551714Y-87140142D01*
X132588000Y-87285285D01*
X132588000Y-87394142D01*
X132551714Y-87539285D01*
X132515428Y-87611857D01*
X132442857Y-87684428D01*
X132334000Y-87720714D01*
X132152571Y-87720714D01*
X133277428Y-86958714D02*
X132914571Y-86958714D01*
X132878285Y-87321571D01*
X132914571Y-87285285D01*
X132987142Y-87249000D01*
X133168571Y-87249000D01*
X133241142Y-87285285D01*
X133277428Y-87321571D01*
X133313714Y-87394142D01*
X133313714Y-87575571D01*
X133277428Y-87648142D01*
X133241142Y-87684428D01*
X133168571Y-87720714D01*
X132987142Y-87720714D01*
X132914571Y-87684428D01*
X132878285Y-87648142D01*
G04 #@! TO.C,D6*
X138502571Y-87720714D02*
X138502571Y-86958714D01*
X138684000Y-86958714D01*
X138792857Y-86995000D01*
X138865428Y-87067571D01*
X138901714Y-87140142D01*
X138938000Y-87285285D01*
X138938000Y-87394142D01*
X138901714Y-87539285D01*
X138865428Y-87611857D01*
X138792857Y-87684428D01*
X138684000Y-87720714D01*
X138502571Y-87720714D01*
X139591142Y-86958714D02*
X139446000Y-86958714D01*
X139373428Y-86995000D01*
X139337142Y-87031285D01*
X139264571Y-87140142D01*
X139228285Y-87285285D01*
X139228285Y-87575571D01*
X139264571Y-87648142D01*
X139300857Y-87684428D01*
X139373428Y-87720714D01*
X139518571Y-87720714D01*
X139591142Y-87684428D01*
X139627428Y-87648142D01*
X139663714Y-87575571D01*
X139663714Y-87394142D01*
X139627428Y-87321571D01*
X139591142Y-87285285D01*
X139518571Y-87249000D01*
X139373428Y-87249000D01*
X139300857Y-87285285D01*
X139264571Y-87321571D01*
X139228285Y-87394142D01*
G04 #@! TO.C,D7*
X144852571Y-87720714D02*
X144852571Y-86958714D01*
X145034000Y-86958714D01*
X145142857Y-86995000D01*
X145215428Y-87067571D01*
X145251714Y-87140142D01*
X145288000Y-87285285D01*
X145288000Y-87394142D01*
X145251714Y-87539285D01*
X145215428Y-87611857D01*
X145142857Y-87684428D01*
X145034000Y-87720714D01*
X144852571Y-87720714D01*
X145542000Y-86958714D02*
X146050000Y-86958714D01*
X145723428Y-87720714D01*
G04 #@! TO.C,D8*
X151202571Y-87720714D02*
X151202571Y-86958714D01*
X151384000Y-86958714D01*
X151492857Y-86995000D01*
X151565428Y-87067571D01*
X151601714Y-87140142D01*
X151638000Y-87285285D01*
X151638000Y-87394142D01*
X151601714Y-87539285D01*
X151565428Y-87611857D01*
X151492857Y-87684428D01*
X151384000Y-87720714D01*
X151202571Y-87720714D01*
X152073428Y-87285285D02*
X152000857Y-87249000D01*
X151964571Y-87212714D01*
X151928285Y-87140142D01*
X151928285Y-87103857D01*
X151964571Y-87031285D01*
X152000857Y-86995000D01*
X152073428Y-86958714D01*
X152218571Y-86958714D01*
X152291142Y-86995000D01*
X152327428Y-87031285D01*
X152363714Y-87103857D01*
X152363714Y-87140142D01*
X152327428Y-87212714D01*
X152291142Y-87249000D01*
X152218571Y-87285285D01*
X152073428Y-87285285D01*
X152000857Y-87321571D01*
X151964571Y-87357857D01*
X151928285Y-87430428D01*
X151928285Y-87575571D01*
X151964571Y-87648142D01*
X152000857Y-87684428D01*
X152073428Y-87720714D01*
X152218571Y-87720714D01*
X152291142Y-87684428D01*
X152327428Y-87648142D01*
X152363714Y-87575571D01*
X152363714Y-87430428D01*
X152327428Y-87357857D01*
X152291142Y-87321571D01*
X152218571Y-87285285D01*
G04 #@! TO.C,D9*
X132152571Y-93308714D02*
X132152571Y-92546714D01*
X132334000Y-92546714D01*
X132442857Y-92583000D01*
X132515428Y-92655571D01*
X132551714Y-92728142D01*
X132588000Y-92873285D01*
X132588000Y-92982142D01*
X132551714Y-93127285D01*
X132515428Y-93199857D01*
X132442857Y-93272428D01*
X132334000Y-93308714D01*
X132152571Y-93308714D01*
X132950857Y-93308714D02*
X133096000Y-93308714D01*
X133168571Y-93272428D01*
X133204857Y-93236142D01*
X133277428Y-93127285D01*
X133313714Y-92982142D01*
X133313714Y-92691857D01*
X133277428Y-92619285D01*
X133241142Y-92583000D01*
X133168571Y-92546714D01*
X133023428Y-92546714D01*
X132950857Y-92583000D01*
X132914571Y-92619285D01*
X132878285Y-92691857D01*
X132878285Y-92873285D01*
X132914571Y-92945857D01*
X132950857Y-92982142D01*
X133023428Y-93018428D01*
X133168571Y-93018428D01*
X133241142Y-92982142D01*
X133277428Y-92945857D01*
X133313714Y-92873285D01*
G04 #@! TO.C,D10*
X138139714Y-93308714D02*
X138139714Y-92546714D01*
X138321142Y-92546714D01*
X138430000Y-92583000D01*
X138502571Y-92655571D01*
X138538857Y-92728142D01*
X138575142Y-92873285D01*
X138575142Y-92982142D01*
X138538857Y-93127285D01*
X138502571Y-93199857D01*
X138430000Y-93272428D01*
X138321142Y-93308714D01*
X138139714Y-93308714D01*
X139300857Y-93308714D02*
X138865428Y-93308714D01*
X139083142Y-93308714D02*
X139083142Y-92546714D01*
X139010571Y-92655571D01*
X138938000Y-92728142D01*
X138865428Y-92764428D01*
X139772571Y-92546714D02*
X139845142Y-92546714D01*
X139917714Y-92583000D01*
X139954000Y-92619285D01*
X139990285Y-92691857D01*
X140026571Y-92837000D01*
X140026571Y-93018428D01*
X139990285Y-93163571D01*
X139954000Y-93236142D01*
X139917714Y-93272428D01*
X139845142Y-93308714D01*
X139772571Y-93308714D01*
X139700000Y-93272428D01*
X139663714Y-93236142D01*
X139627428Y-93163571D01*
X139591142Y-93018428D01*
X139591142Y-92837000D01*
X139627428Y-92691857D01*
X139663714Y-92619285D01*
X139700000Y-92583000D01*
X139772571Y-92546714D01*
G04 #@! TO.C,D11*
X144489714Y-93308714D02*
X144489714Y-92546714D01*
X144671142Y-92546714D01*
X144780000Y-92583000D01*
X144852571Y-92655571D01*
X144888857Y-92728142D01*
X144925142Y-92873285D01*
X144925142Y-92982142D01*
X144888857Y-93127285D01*
X144852571Y-93199857D01*
X144780000Y-93272428D01*
X144671142Y-93308714D01*
X144489714Y-93308714D01*
X145650857Y-93308714D02*
X145215428Y-93308714D01*
X145433142Y-93308714D02*
X145433142Y-92546714D01*
X145360571Y-92655571D01*
X145288000Y-92728142D01*
X145215428Y-92764428D01*
X146376571Y-93308714D02*
X145941142Y-93308714D01*
X146158857Y-93308714D02*
X146158857Y-92546714D01*
X146086285Y-92655571D01*
X146013714Y-92728142D01*
X145941142Y-92764428D01*
G04 #@! TO.C,D12*
X150839714Y-93308714D02*
X150839714Y-92546714D01*
X151021142Y-92546714D01*
X151130000Y-92583000D01*
X151202571Y-92655571D01*
X151238857Y-92728142D01*
X151275142Y-92873285D01*
X151275142Y-92982142D01*
X151238857Y-93127285D01*
X151202571Y-93199857D01*
X151130000Y-93272428D01*
X151021142Y-93308714D01*
X150839714Y-93308714D01*
X152000857Y-93308714D02*
X151565428Y-93308714D01*
X151783142Y-93308714D02*
X151783142Y-92546714D01*
X151710571Y-92655571D01*
X151638000Y-92728142D01*
X151565428Y-92764428D01*
X152291142Y-92619285D02*
X152327428Y-92583000D01*
X152400000Y-92546714D01*
X152581428Y-92546714D01*
X152654000Y-92583000D01*
X152690285Y-92619285D01*
X152726571Y-92691857D01*
X152726571Y-92764428D01*
X152690285Y-92873285D01*
X152254857Y-93308714D01*
X152726571Y-93308714D01*
G04 #@! TO.C,D13*
X131789714Y-98580714D02*
X131789714Y-97818714D01*
X131971142Y-97818714D01*
X132080000Y-97855000D01*
X132152571Y-97927571D01*
X132188857Y-98000142D01*
X132225142Y-98145285D01*
X132225142Y-98254142D01*
X132188857Y-98399285D01*
X132152571Y-98471857D01*
X132080000Y-98544428D01*
X131971142Y-98580714D01*
X131789714Y-98580714D01*
X132950857Y-98580714D02*
X132515428Y-98580714D01*
X132733142Y-98580714D02*
X132733142Y-97818714D01*
X132660571Y-97927571D01*
X132588000Y-98000142D01*
X132515428Y-98036428D01*
X133204857Y-97818714D02*
X133676571Y-97818714D01*
X133422571Y-98109000D01*
X133531428Y-98109000D01*
X133604000Y-98145285D01*
X133640285Y-98181571D01*
X133676571Y-98254142D01*
X133676571Y-98435571D01*
X133640285Y-98508142D01*
X133604000Y-98544428D01*
X133531428Y-98580714D01*
X133313714Y-98580714D01*
X133241142Y-98544428D01*
X133204857Y-98508142D01*
G04 #@! TO.C,D14*
X138139714Y-98580714D02*
X138139714Y-97818714D01*
X138321142Y-97818714D01*
X138430000Y-97855000D01*
X138502571Y-97927571D01*
X138538857Y-98000142D01*
X138575142Y-98145285D01*
X138575142Y-98254142D01*
X138538857Y-98399285D01*
X138502571Y-98471857D01*
X138430000Y-98544428D01*
X138321142Y-98580714D01*
X138139714Y-98580714D01*
X139300857Y-98580714D02*
X138865428Y-98580714D01*
X139083142Y-98580714D02*
X139083142Y-97818714D01*
X139010571Y-97927571D01*
X138938000Y-98000142D01*
X138865428Y-98036428D01*
X139954000Y-98072714D02*
X139954000Y-98580714D01*
X139772571Y-97782428D02*
X139591142Y-98326714D01*
X140062857Y-98326714D01*
G04 #@! TO.C,D15*
X144489714Y-98580714D02*
X144489714Y-97818714D01*
X144671142Y-97818714D01*
X144780000Y-97855000D01*
X144852571Y-97927571D01*
X144888857Y-98000142D01*
X144925142Y-98145285D01*
X144925142Y-98254142D01*
X144888857Y-98399285D01*
X144852571Y-98471857D01*
X144780000Y-98544428D01*
X144671142Y-98580714D01*
X144489714Y-98580714D01*
X145650857Y-98580714D02*
X145215428Y-98580714D01*
X145433142Y-98580714D02*
X145433142Y-97818714D01*
X145360571Y-97927571D01*
X145288000Y-98000142D01*
X145215428Y-98036428D01*
X146340285Y-97818714D02*
X145977428Y-97818714D01*
X145941142Y-98181571D01*
X145977428Y-98145285D01*
X146050000Y-98109000D01*
X146231428Y-98109000D01*
X146304000Y-98145285D01*
X146340285Y-98181571D01*
X146376571Y-98254142D01*
X146376571Y-98435571D01*
X146340285Y-98508142D01*
X146304000Y-98544428D01*
X146231428Y-98580714D01*
X146050000Y-98580714D01*
X145977428Y-98544428D01*
X145941142Y-98508142D01*
G04 #@! TO.C,D16*
X150839714Y-98580714D02*
X150839714Y-97818714D01*
X151021142Y-97818714D01*
X151130000Y-97855000D01*
X151202571Y-97927571D01*
X151238857Y-98000142D01*
X151275142Y-98145285D01*
X151275142Y-98254142D01*
X151238857Y-98399285D01*
X151202571Y-98471857D01*
X151130000Y-98544428D01*
X151021142Y-98580714D01*
X150839714Y-98580714D01*
X152000857Y-98580714D02*
X151565428Y-98580714D01*
X151783142Y-98580714D02*
X151783142Y-97818714D01*
X151710571Y-97927571D01*
X151638000Y-98000142D01*
X151565428Y-98036428D01*
X152654000Y-97818714D02*
X152508857Y-97818714D01*
X152436285Y-97855000D01*
X152400000Y-97891285D01*
X152327428Y-98000142D01*
X152291142Y-98145285D01*
X152291142Y-98435571D01*
X152327428Y-98508142D01*
X152363714Y-98544428D01*
X152436285Y-98580714D01*
X152581428Y-98580714D01*
X152654000Y-98544428D01*
X152690285Y-98508142D01*
X152726571Y-98435571D01*
X152726571Y-98254142D01*
X152690285Y-98181571D01*
X152654000Y-98145285D01*
X152581428Y-98109000D01*
X152436285Y-98109000D01*
X152363714Y-98145285D01*
X152327428Y-98181571D01*
X152291142Y-98254142D01*
G04 #@! TO.C,D17*
X131789714Y-104484714D02*
X131789714Y-103722714D01*
X131971142Y-103722714D01*
X132080000Y-103759000D01*
X132152571Y-103831571D01*
X132188857Y-103904142D01*
X132225142Y-104049285D01*
X132225142Y-104158142D01*
X132188857Y-104303285D01*
X132152571Y-104375857D01*
X132080000Y-104448428D01*
X131971142Y-104484714D01*
X131789714Y-104484714D01*
X132950857Y-104484714D02*
X132515428Y-104484714D01*
X132733142Y-104484714D02*
X132733142Y-103722714D01*
X132660571Y-103831571D01*
X132588000Y-103904142D01*
X132515428Y-103940428D01*
X133204857Y-103722714D02*
X133712857Y-103722714D01*
X133386285Y-104484714D01*
G04 #@! TO.C,D18*
X138139714Y-104484714D02*
X138139714Y-103722714D01*
X138321142Y-103722714D01*
X138430000Y-103759000D01*
X138502571Y-103831571D01*
X138538857Y-103904142D01*
X138575142Y-104049285D01*
X138575142Y-104158142D01*
X138538857Y-104303285D01*
X138502571Y-104375857D01*
X138430000Y-104448428D01*
X138321142Y-104484714D01*
X138139714Y-104484714D01*
X139300857Y-104484714D02*
X138865428Y-104484714D01*
X139083142Y-104484714D02*
X139083142Y-103722714D01*
X139010571Y-103831571D01*
X138938000Y-103904142D01*
X138865428Y-103940428D01*
X139736285Y-104049285D02*
X139663714Y-104013000D01*
X139627428Y-103976714D01*
X139591142Y-103904142D01*
X139591142Y-103867857D01*
X139627428Y-103795285D01*
X139663714Y-103759000D01*
X139736285Y-103722714D01*
X139881428Y-103722714D01*
X139954000Y-103759000D01*
X139990285Y-103795285D01*
X140026571Y-103867857D01*
X140026571Y-103904142D01*
X139990285Y-103976714D01*
X139954000Y-104013000D01*
X139881428Y-104049285D01*
X139736285Y-104049285D01*
X139663714Y-104085571D01*
X139627428Y-104121857D01*
X139591142Y-104194428D01*
X139591142Y-104339571D01*
X139627428Y-104412142D01*
X139663714Y-104448428D01*
X139736285Y-104484714D01*
X139881428Y-104484714D01*
X139954000Y-104448428D01*
X139990285Y-104412142D01*
X140026571Y-104339571D01*
X140026571Y-104194428D01*
X139990285Y-104121857D01*
X139954000Y-104085571D01*
X139881428Y-104049285D01*
G04 #@! TO.C,D19*
X144489714Y-104484714D02*
X144489714Y-103722714D01*
X144671142Y-103722714D01*
X144780000Y-103759000D01*
X144852571Y-103831571D01*
X144888857Y-103904142D01*
X144925142Y-104049285D01*
X144925142Y-104158142D01*
X144888857Y-104303285D01*
X144852571Y-104375857D01*
X144780000Y-104448428D01*
X144671142Y-104484714D01*
X144489714Y-104484714D01*
X145650857Y-104484714D02*
X145215428Y-104484714D01*
X145433142Y-104484714D02*
X145433142Y-103722714D01*
X145360571Y-103831571D01*
X145288000Y-103904142D01*
X145215428Y-103940428D01*
X146013714Y-104484714D02*
X146158857Y-104484714D01*
X146231428Y-104448428D01*
X146267714Y-104412142D01*
X146340285Y-104303285D01*
X146376571Y-104158142D01*
X146376571Y-103867857D01*
X146340285Y-103795285D01*
X146304000Y-103759000D01*
X146231428Y-103722714D01*
X146086285Y-103722714D01*
X146013714Y-103759000D01*
X145977428Y-103795285D01*
X145941142Y-103867857D01*
X145941142Y-104049285D01*
X145977428Y-104121857D01*
X146013714Y-104158142D01*
X146086285Y-104194428D01*
X146231428Y-104194428D01*
X146304000Y-104158142D01*
X146340285Y-104121857D01*
X146376571Y-104049285D01*
G04 #@! TO.C,D20*
X150839714Y-104484714D02*
X150839714Y-103722714D01*
X151021142Y-103722714D01*
X151130000Y-103759000D01*
X151202571Y-103831571D01*
X151238857Y-103904142D01*
X151275142Y-104049285D01*
X151275142Y-104158142D01*
X151238857Y-104303285D01*
X151202571Y-104375857D01*
X151130000Y-104448428D01*
X151021142Y-104484714D01*
X150839714Y-104484714D01*
X151565428Y-103795285D02*
X151601714Y-103759000D01*
X151674285Y-103722714D01*
X151855714Y-103722714D01*
X151928285Y-103759000D01*
X151964571Y-103795285D01*
X152000857Y-103867857D01*
X152000857Y-103940428D01*
X151964571Y-104049285D01*
X151529142Y-104484714D01*
X152000857Y-104484714D01*
X152472571Y-103722714D02*
X152545142Y-103722714D01*
X152617714Y-103759000D01*
X152654000Y-103795285D01*
X152690285Y-103867857D01*
X152726571Y-104013000D01*
X152726571Y-104194428D01*
X152690285Y-104339571D01*
X152654000Y-104412142D01*
X152617714Y-104448428D01*
X152545142Y-104484714D01*
X152472571Y-104484714D01*
X152400000Y-104448428D01*
X152363714Y-104412142D01*
X152327428Y-104339571D01*
X152291142Y-104194428D01*
X152291142Y-104013000D01*
X152327428Y-103867857D01*
X152363714Y-103795285D01*
X152400000Y-103759000D01*
X152472571Y-103722714D01*
G04 #@! TO.C,J1*
X154178000Y-107786714D02*
X154178000Y-108331000D01*
X154141714Y-108439857D01*
X154069142Y-108512428D01*
X153960285Y-108548714D01*
X153887714Y-108548714D01*
X154940000Y-108548714D02*
X154504571Y-108548714D01*
X154722285Y-108548714D02*
X154722285Y-107786714D01*
X154649714Y-107895571D01*
X154577142Y-107968142D01*
X154504571Y-108004428D01*
G04 #@! TO.C,R2*
X139573000Y-109818714D02*
X139319000Y-109455857D01*
X139137571Y-109818714D02*
X139137571Y-109056714D01*
X139427857Y-109056714D01*
X139500428Y-109093000D01*
X139536714Y-109129285D01*
X139573000Y-109201857D01*
X139573000Y-109310714D01*
X139536714Y-109383285D01*
X139500428Y-109419571D01*
X139427857Y-109455857D01*
X139137571Y-109455857D01*
X139863285Y-109129285D02*
X139899571Y-109093000D01*
X139972142Y-109056714D01*
X140153571Y-109056714D01*
X140226142Y-109093000D01*
X140262428Y-109129285D01*
X140298714Y-109201857D01*
X140298714Y-109274428D01*
X140262428Y-109383285D01*
X139827000Y-109818714D01*
X140298714Y-109818714D01*
G04 #@! TO.C,R3*
X142113000Y-109818714D02*
X141859000Y-109455857D01*
X141677571Y-109818714D02*
X141677571Y-109056714D01*
X141967857Y-109056714D01*
X142040428Y-109093000D01*
X142076714Y-109129285D01*
X142113000Y-109201857D01*
X142113000Y-109310714D01*
X142076714Y-109383285D01*
X142040428Y-109419571D01*
X141967857Y-109455857D01*
X141677571Y-109455857D01*
X142367000Y-109056714D02*
X142838714Y-109056714D01*
X142584714Y-109347000D01*
X142693571Y-109347000D01*
X142766142Y-109383285D01*
X142802428Y-109419571D01*
X142838714Y-109492142D01*
X142838714Y-109673571D01*
X142802428Y-109746142D01*
X142766142Y-109782428D01*
X142693571Y-109818714D01*
X142475857Y-109818714D01*
X142403285Y-109782428D01*
X142367000Y-109746142D01*
G04 #@! TO.C,R4*
X144653000Y-109818714D02*
X144399000Y-109455857D01*
X144217571Y-109818714D02*
X144217571Y-109056714D01*
X144507857Y-109056714D01*
X144580428Y-109093000D01*
X144616714Y-109129285D01*
X144653000Y-109201857D01*
X144653000Y-109310714D01*
X144616714Y-109383285D01*
X144580428Y-109419571D01*
X144507857Y-109455857D01*
X144217571Y-109455857D01*
X145306142Y-109310714D02*
X145306142Y-109818714D01*
X145124714Y-109020428D02*
X144943285Y-109564714D01*
X145415000Y-109564714D01*
G04 #@! TO.C,R5*
X147193000Y-109818714D02*
X146939000Y-109455857D01*
X146757571Y-109818714D02*
X146757571Y-109056714D01*
X147047857Y-109056714D01*
X147120428Y-109093000D01*
X147156714Y-109129285D01*
X147193000Y-109201857D01*
X147193000Y-109310714D01*
X147156714Y-109383285D01*
X147120428Y-109419571D01*
X147047857Y-109455857D01*
X146757571Y-109455857D01*
X147882428Y-109056714D02*
X147519571Y-109056714D01*
X147483285Y-109419571D01*
X147519571Y-109383285D01*
X147592142Y-109347000D01*
X147773571Y-109347000D01*
X147846142Y-109383285D01*
X147882428Y-109419571D01*
X147918714Y-109492142D01*
X147918714Y-109673571D01*
X147882428Y-109746142D01*
X147846142Y-109782428D01*
X147773571Y-109818714D01*
X147592142Y-109818714D01*
X147519571Y-109782428D01*
X147483285Y-109746142D01*
G04 #@! TD*
M02*
