G04 #@! TF.GenerationSoftware,KiCad,Pcbnew,(5.0.2)-1*
G04 #@! TF.CreationDate,2019-03-01T12:21:37-06:00*
G04 #@! TF.ProjectId,matrix_badge,6d617472-6978-45f6-9261-6467652e6b69,rev?*
G04 #@! TF.SameCoordinates,Original*
G04 #@! TF.FileFunction,Legend,Bot*
G04 #@! TF.FilePolarity,Positive*
%FSLAX46Y46*%
G04 Gerber Fmt 4.6, Leading zero omitted, Abs format (unit mm)*
G04 Created by KiCad (PCBNEW (5.0.2)-1) date 3/1/2019 12:21:37 PM*
%MOMM*%
%LPD*%
G01*
G04 APERTURE LIST*
%ADD10C,0.127000*%
%ADD11C,0.254000*%
%ADD12C,0.300000*%
%ADD13C,0.120000*%
%ADD14C,0.100000*%
%ADD15C,0.010000*%
%ADD16C,0.150000*%
G04 APERTURE END LIST*
D10*
X151828500Y-112776000D02*
X146939000Y-112776000D01*
X151828500Y-113982500D02*
X146939000Y-113982500D01*
X146939000Y-112776000D02*
X146939000Y-116395500D01*
X151828500Y-115189000D02*
X146939000Y-115189000D01*
X149352000Y-116395500D02*
X149352000Y-112776000D01*
X154432000Y-116395500D02*
X146939000Y-116395500D01*
X151579942Y-116099771D02*
X151579942Y-115490171D01*
X151376742Y-115925600D01*
X151173542Y-115490171D01*
X151173542Y-116099771D01*
X150883257Y-116099771D02*
X150883257Y-115490171D01*
X150622000Y-116070742D02*
X150534914Y-116099771D01*
X150389771Y-116099771D01*
X150331714Y-116070742D01*
X150302685Y-116041714D01*
X150273657Y-115983657D01*
X150273657Y-115925600D01*
X150302685Y-115867542D01*
X150331714Y-115838514D01*
X150389771Y-115809485D01*
X150505885Y-115780457D01*
X150563942Y-115751428D01*
X150592971Y-115722400D01*
X150622000Y-115664342D01*
X150622000Y-115606285D01*
X150592971Y-115548228D01*
X150563942Y-115519200D01*
X150505885Y-115490171D01*
X150360742Y-115490171D01*
X150273657Y-115519200D01*
X149896285Y-115490171D02*
X149780171Y-115490171D01*
X149722114Y-115519200D01*
X149664057Y-115577257D01*
X149635028Y-115693371D01*
X149635028Y-115896571D01*
X149664057Y-116012685D01*
X149722114Y-116070742D01*
X149780171Y-116099771D01*
X149896285Y-116099771D01*
X149954342Y-116070742D01*
X150012400Y-116012685D01*
X150041428Y-115896571D01*
X150041428Y-115693371D01*
X150012400Y-115577257D01*
X149954342Y-115519200D01*
X149896285Y-115490171D01*
X148900242Y-115490171D02*
X148522871Y-115490171D01*
X148726071Y-115722400D01*
X148638985Y-115722400D01*
X148580928Y-115751428D01*
X148551900Y-115780457D01*
X148522871Y-115838514D01*
X148522871Y-115983657D01*
X148551900Y-116041714D01*
X148580928Y-116070742D01*
X148638985Y-116099771D01*
X148813157Y-116099771D01*
X148871214Y-116070742D01*
X148900242Y-116041714D01*
X148348700Y-115490171D02*
X148145500Y-116099771D01*
X147942300Y-115490171D01*
X147797157Y-115490171D02*
X147419785Y-115490171D01*
X147622985Y-115722400D01*
X147535900Y-115722400D01*
X147477842Y-115751428D01*
X147448814Y-115780457D01*
X147419785Y-115838514D01*
X147419785Y-115983657D01*
X147448814Y-116041714D01*
X147477842Y-116070742D01*
X147535900Y-116099771D01*
X147710071Y-116099771D01*
X147768128Y-116070742D01*
X147797157Y-116041714D01*
X151188057Y-113048142D02*
X151710571Y-113831914D01*
X150636514Y-113686771D02*
X150839714Y-113396485D01*
X150984857Y-113686771D02*
X150984857Y-113077171D01*
X150752628Y-113077171D01*
X150694571Y-113106200D01*
X150665542Y-113135228D01*
X150636514Y-113193285D01*
X150636514Y-113280371D01*
X150665542Y-113338428D01*
X150694571Y-113367457D01*
X150752628Y-113396485D01*
X150984857Y-113396485D01*
X150404285Y-113657742D02*
X150317200Y-113686771D01*
X150172057Y-113686771D01*
X150114000Y-113657742D01*
X150084971Y-113628714D01*
X150055942Y-113570657D01*
X150055942Y-113512600D01*
X150084971Y-113454542D01*
X150114000Y-113425514D01*
X150172057Y-113396485D01*
X150288171Y-113367457D01*
X150346228Y-113338428D01*
X150375257Y-113309400D01*
X150404285Y-113251342D01*
X150404285Y-113193285D01*
X150375257Y-113135228D01*
X150346228Y-113106200D01*
X150288171Y-113077171D01*
X150143028Y-113077171D01*
X150055942Y-113106200D01*
X149881771Y-113077171D02*
X149533428Y-113077171D01*
X149707600Y-113686771D02*
X149707600Y-113077171D01*
X148609957Y-113106200D02*
X148668014Y-113077171D01*
X148755100Y-113077171D01*
X148842185Y-113106200D01*
X148900242Y-113164257D01*
X148929271Y-113222314D01*
X148958300Y-113338428D01*
X148958300Y-113425514D01*
X148929271Y-113541628D01*
X148900242Y-113599685D01*
X148842185Y-113657742D01*
X148755100Y-113686771D01*
X148697042Y-113686771D01*
X148609957Y-113657742D01*
X148580928Y-113628714D01*
X148580928Y-113425514D01*
X148697042Y-113425514D01*
X148319671Y-113686771D02*
X148319671Y-113077171D01*
X147971328Y-113686771D01*
X147971328Y-113077171D01*
X147681042Y-113686771D02*
X147681042Y-113077171D01*
X147535900Y-113077171D01*
X147448814Y-113106200D01*
X147390757Y-113164257D01*
X147361728Y-113222314D01*
X147332700Y-113338428D01*
X147332700Y-113425514D01*
X147361728Y-113541628D01*
X147390757Y-113599685D01*
X147448814Y-113657742D01*
X147535900Y-113686771D01*
X147681042Y-113686771D01*
X151405771Y-114864242D02*
X151318685Y-114893271D01*
X151173542Y-114893271D01*
X151115485Y-114864242D01*
X151086457Y-114835214D01*
X151057428Y-114777157D01*
X151057428Y-114719100D01*
X151086457Y-114661042D01*
X151115485Y-114632014D01*
X151173542Y-114602985D01*
X151289657Y-114573957D01*
X151347714Y-114544928D01*
X151376742Y-114515900D01*
X151405771Y-114457842D01*
X151405771Y-114399785D01*
X151376742Y-114341728D01*
X151347714Y-114312700D01*
X151289657Y-114283671D01*
X151144514Y-114283671D01*
X151057428Y-114312700D01*
X150447828Y-114835214D02*
X150476857Y-114864242D01*
X150563942Y-114893271D01*
X150622000Y-114893271D01*
X150709085Y-114864242D01*
X150767142Y-114806185D01*
X150796171Y-114748128D01*
X150825200Y-114632014D01*
X150825200Y-114544928D01*
X150796171Y-114428814D01*
X150767142Y-114370757D01*
X150709085Y-114312700D01*
X150622000Y-114283671D01*
X150563942Y-114283671D01*
X150476857Y-114312700D01*
X150447828Y-114341728D01*
X150186571Y-114893271D02*
X150186571Y-114283671D01*
X149838228Y-114893271D02*
X150099485Y-114544928D01*
X149838228Y-114283671D02*
X150186571Y-114632014D01*
X149103442Y-114893271D02*
X149103442Y-114283671D01*
X148900242Y-114719100D01*
X148697042Y-114283671D01*
X148697042Y-114893271D01*
X148290642Y-114283671D02*
X148174528Y-114283671D01*
X148116471Y-114312700D01*
X148058414Y-114370757D01*
X148029385Y-114486871D01*
X148029385Y-114690071D01*
X148058414Y-114806185D01*
X148116471Y-114864242D01*
X148174528Y-114893271D01*
X148290642Y-114893271D01*
X148348700Y-114864242D01*
X148406757Y-114806185D01*
X148435785Y-114690071D01*
X148435785Y-114486871D01*
X148406757Y-114370757D01*
X148348700Y-114312700D01*
X148290642Y-114283671D01*
X147797157Y-114864242D02*
X147710071Y-114893271D01*
X147564928Y-114893271D01*
X147506871Y-114864242D01*
X147477842Y-114835214D01*
X147448814Y-114777157D01*
X147448814Y-114719100D01*
X147477842Y-114661042D01*
X147506871Y-114632014D01*
X147564928Y-114602985D01*
X147681042Y-114573957D01*
X147739100Y-114544928D01*
X147768128Y-114515900D01*
X147797157Y-114457842D01*
X147797157Y-114399785D01*
X147768128Y-114341728D01*
X147739100Y-114312700D01*
X147681042Y-114283671D01*
X147535900Y-114283671D01*
X147448814Y-114312700D01*
X147187557Y-114893271D02*
X147187557Y-114283671D01*
D11*
X145923000Y-108712000D02*
G75*
G03X145923000Y-108712000I-127000J0D01*
G01*
D12*
X129432857Y-85714285D02*
X129504285Y-85928571D01*
X129575714Y-86000000D01*
X129718571Y-86071428D01*
X129932857Y-86071428D01*
X130075714Y-86000000D01*
X130147142Y-85928571D01*
X130218571Y-85785714D01*
X130218571Y-85214285D01*
X128718571Y-85214285D01*
X128718571Y-85714285D01*
X128790000Y-85857142D01*
X128861428Y-85928571D01*
X129004285Y-86000000D01*
X129147142Y-86000000D01*
X129290000Y-85928571D01*
X129361428Y-85857142D01*
X129432857Y-85714285D01*
X129432857Y-85214285D01*
X129218571Y-87357142D02*
X130218571Y-87357142D01*
X129218571Y-86714285D02*
X130004285Y-86714285D01*
X130147142Y-86785714D01*
X130218571Y-86928571D01*
X130218571Y-87142857D01*
X130147142Y-87285714D01*
X130075714Y-87357142D01*
X130218571Y-88071428D02*
X129218571Y-88071428D01*
X128718571Y-88071428D02*
X128790000Y-88000000D01*
X128861428Y-88071428D01*
X128790000Y-88142857D01*
X128718571Y-88071428D01*
X128861428Y-88071428D01*
X130218571Y-89000000D02*
X130147142Y-88857142D01*
X130004285Y-88785714D01*
X128718571Y-88785714D01*
X130218571Y-90214285D02*
X128718571Y-90214285D01*
X130147142Y-90214285D02*
X130218571Y-90071428D01*
X130218571Y-89785714D01*
X130147142Y-89642857D01*
X130075714Y-89571428D01*
X129932857Y-89500000D01*
X129504285Y-89500000D01*
X129361428Y-89571428D01*
X129290000Y-89642857D01*
X129218571Y-89785714D01*
X129218571Y-90071428D01*
X129290000Y-90214285D01*
X130218571Y-92071428D02*
X128718571Y-92071428D01*
X129218571Y-92785714D02*
X130218571Y-92785714D01*
X129361428Y-92785714D02*
X129290000Y-92857142D01*
X129218571Y-93000000D01*
X129218571Y-93214285D01*
X129290000Y-93357142D01*
X129432857Y-93428571D01*
X130218571Y-93428571D01*
X130147142Y-94071428D02*
X130218571Y-94214285D01*
X130218571Y-94500000D01*
X130147142Y-94642857D01*
X130004285Y-94714285D01*
X129932857Y-94714285D01*
X129790000Y-94642857D01*
X129718571Y-94500000D01*
X129718571Y-94285714D01*
X129647142Y-94142857D01*
X129504285Y-94071428D01*
X129432857Y-94071428D01*
X129290000Y-94142857D01*
X129218571Y-94285714D01*
X129218571Y-94500000D01*
X129290000Y-94642857D01*
X129218571Y-95142857D02*
X129218571Y-95714285D01*
X128718571Y-95357142D02*
X130004285Y-95357142D01*
X130147142Y-95428571D01*
X130218571Y-95571428D01*
X130218571Y-95714285D01*
X130218571Y-96214285D02*
X129218571Y-96214285D01*
X129504285Y-96214285D02*
X129361428Y-96285714D01*
X129290000Y-96357142D01*
X129218571Y-96500000D01*
X129218571Y-96642857D01*
X129218571Y-97785714D02*
X130218571Y-97785714D01*
X129218571Y-97142857D02*
X130004285Y-97142857D01*
X130147142Y-97214285D01*
X130218571Y-97357142D01*
X130218571Y-97571428D01*
X130147142Y-97714285D01*
X130075714Y-97785714D01*
X130147142Y-99142857D02*
X130218571Y-99000000D01*
X130218571Y-98714285D01*
X130147142Y-98571428D01*
X130075714Y-98500000D01*
X129932857Y-98428571D01*
X129504285Y-98428571D01*
X129361428Y-98500000D01*
X129290000Y-98571428D01*
X129218571Y-98714285D01*
X129218571Y-99000000D01*
X129290000Y-99142857D01*
X129218571Y-99571428D02*
X129218571Y-100142857D01*
X128718571Y-99785714D02*
X130004285Y-99785714D01*
X130147142Y-99857142D01*
X130218571Y-100000000D01*
X130218571Y-100142857D01*
X130218571Y-100642857D02*
X129218571Y-100642857D01*
X128718571Y-100642857D02*
X128790000Y-100571428D01*
X128861428Y-100642857D01*
X128790000Y-100714285D01*
X128718571Y-100642857D01*
X128861428Y-100642857D01*
X130218571Y-101571428D02*
X130147142Y-101428571D01*
X130075714Y-101357142D01*
X129932857Y-101285714D01*
X129504285Y-101285714D01*
X129361428Y-101357142D01*
X129290000Y-101428571D01*
X129218571Y-101571428D01*
X129218571Y-101785714D01*
X129290000Y-101928571D01*
X129361428Y-102000000D01*
X129504285Y-102071428D01*
X129932857Y-102071428D01*
X130075714Y-102000000D01*
X130147142Y-101928571D01*
X130218571Y-101785714D01*
X130218571Y-101571428D01*
X129218571Y-102714285D02*
X130218571Y-102714285D01*
X129361428Y-102714285D02*
X129290000Y-102785714D01*
X129218571Y-102928571D01*
X129218571Y-103142857D01*
X129290000Y-103285714D01*
X129432857Y-103357142D01*
X130218571Y-103357142D01*
X130147142Y-104000000D02*
X130218571Y-104142857D01*
X130218571Y-104428571D01*
X130147142Y-104571428D01*
X130004285Y-104642857D01*
X129932857Y-104642857D01*
X129790000Y-104571428D01*
X129718571Y-104428571D01*
X129718571Y-104214285D01*
X129647142Y-104071428D01*
X129504285Y-104000000D01*
X129432857Y-104000000D01*
X129290000Y-104071428D01*
X129218571Y-104214285D01*
X129218571Y-104428571D01*
X129290000Y-104571428D01*
X130075714Y-105285714D02*
X130147142Y-105357142D01*
X130218571Y-105285714D01*
X130147142Y-105214285D01*
X130075714Y-105285714D01*
X130218571Y-105285714D01*
X129290000Y-105285714D02*
X129361428Y-105357142D01*
X129432857Y-105285714D01*
X129361428Y-105214285D01*
X129290000Y-105285714D01*
X129432857Y-105285714D01*
X132504571Y-86285714D02*
X131004571Y-86285714D01*
X131576000Y-86285714D02*
X131504571Y-86428571D01*
X131504571Y-86714285D01*
X131576000Y-86857142D01*
X131647428Y-86928571D01*
X131790285Y-87000000D01*
X132218857Y-87000000D01*
X132361714Y-86928571D01*
X132433142Y-86857142D01*
X132504571Y-86714285D01*
X132504571Y-86428571D01*
X132433142Y-86285714D01*
X132504571Y-87642857D02*
X131504571Y-87642857D01*
X131004571Y-87642857D02*
X131076000Y-87571428D01*
X131147428Y-87642857D01*
X131076000Y-87714285D01*
X131004571Y-87642857D01*
X131147428Y-87642857D01*
X131504571Y-88142857D02*
X131504571Y-88714285D01*
X131004571Y-88357142D02*
X132290285Y-88357142D01*
X132433142Y-88428571D01*
X132504571Y-88571428D01*
X132504571Y-88714285D01*
X132361714Y-89214285D02*
X132433142Y-89285714D01*
X132504571Y-89214285D01*
X132433142Y-89142857D01*
X132361714Y-89214285D01*
X132504571Y-89214285D01*
X132504571Y-90142857D02*
X132433142Y-90000000D01*
X132290285Y-89928571D01*
X131004571Y-89928571D01*
X131504571Y-90571428D02*
X132504571Y-90928571D01*
X131504571Y-91285714D02*
X132504571Y-90928571D01*
X132861714Y-90785714D01*
X132933142Y-90714285D01*
X133004571Y-90571428D01*
X130933142Y-92928571D02*
X132861714Y-91642857D01*
X131504571Y-93428571D02*
X133004571Y-93428571D01*
X131576000Y-93428571D02*
X131504571Y-93571428D01*
X131504571Y-93857142D01*
X131576000Y-94000000D01*
X131647428Y-94071428D01*
X131790285Y-94142857D01*
X132218857Y-94142857D01*
X132361714Y-94071428D01*
X132433142Y-94000000D01*
X132504571Y-93857142D01*
X132504571Y-93571428D01*
X132433142Y-93428571D01*
X132504571Y-95000000D02*
X132433142Y-94857142D01*
X132290285Y-94785714D01*
X131004571Y-94785714D01*
X132433142Y-96142857D02*
X132504571Y-96000000D01*
X132504571Y-95714285D01*
X132433142Y-95571428D01*
X132290285Y-95500000D01*
X131718857Y-95500000D01*
X131576000Y-95571428D01*
X131504571Y-95714285D01*
X131504571Y-96000000D01*
X131576000Y-96142857D01*
X131718857Y-96214285D01*
X131861714Y-96214285D01*
X132004571Y-95500000D01*
X132504571Y-96714285D02*
X131504571Y-97500000D01*
X131504571Y-96714285D02*
X132504571Y-97500000D01*
X131647428Y-98285714D02*
X131576000Y-98142857D01*
X131504571Y-98071428D01*
X131361714Y-98000000D01*
X131290285Y-98000000D01*
X131147428Y-98071428D01*
X131076000Y-98142857D01*
X131004571Y-98285714D01*
X131004571Y-98571428D01*
X131076000Y-98714285D01*
X131147428Y-98785714D01*
X131290285Y-98857142D01*
X131361714Y-98857142D01*
X131504571Y-98785714D01*
X131576000Y-98714285D01*
X131647428Y-98571428D01*
X131647428Y-98285714D01*
X131718857Y-98142857D01*
X131790285Y-98071428D01*
X131933142Y-98000000D01*
X132218857Y-98000000D01*
X132361714Y-98071428D01*
X132433142Y-98142857D01*
X132504571Y-98285714D01*
X132504571Y-98571428D01*
X132433142Y-98714285D01*
X132361714Y-98785714D01*
X132218857Y-98857142D01*
X131933142Y-98857142D01*
X131790285Y-98785714D01*
X131718857Y-98714285D01*
X131647428Y-98571428D01*
X131004571Y-100214285D02*
X131004571Y-99500000D01*
X131718857Y-99428571D01*
X131647428Y-99500000D01*
X131576000Y-99642857D01*
X131576000Y-100000000D01*
X131647428Y-100142857D01*
X131718857Y-100214285D01*
X131861714Y-100285714D01*
X132218857Y-100285714D01*
X132361714Y-100214285D01*
X132433142Y-100142857D01*
X132504571Y-100000000D01*
X132504571Y-99642857D01*
X132433142Y-99500000D01*
X132361714Y-99428571D01*
X131504571Y-100928571D02*
X133004571Y-100928571D01*
X131576000Y-100928571D02*
X131504571Y-101071428D01*
X131504571Y-101357142D01*
X131576000Y-101500000D01*
X131647428Y-101571428D01*
X131790285Y-101642857D01*
X132218857Y-101642857D01*
X132361714Y-101571428D01*
X132433142Y-101500000D01*
X132504571Y-101357142D01*
X132504571Y-101071428D01*
X132433142Y-100928571D01*
X132433142Y-102928571D02*
X132504571Y-102785714D01*
X132504571Y-102500000D01*
X132433142Y-102357142D01*
X132361714Y-102285714D01*
X132218857Y-102214285D01*
X131790285Y-102214285D01*
X131647428Y-102285714D01*
X131576000Y-102357142D01*
X131504571Y-102500000D01*
X131504571Y-102785714D01*
X131576000Y-102928571D01*
X132504571Y-103571428D02*
X131004571Y-103571428D01*
X131576000Y-103571428D02*
X131504571Y-103714285D01*
X131504571Y-104000000D01*
X131576000Y-104142857D01*
X131647428Y-104214285D01*
X131790285Y-104285714D01*
X132218857Y-104285714D01*
X132361714Y-104214285D01*
X132433142Y-104142857D01*
X132504571Y-104000000D01*
X132504571Y-103714285D01*
X132433142Y-103571428D01*
D13*
G04 #@! TO.C,J1*
X151832000Y-116392000D02*
X154432000Y-116392000D01*
X151832000Y-116392000D02*
X151832000Y-108652000D01*
X151832000Y-108652000D02*
X157032000Y-108652000D01*
X157032000Y-113792000D02*
X157032000Y-108652000D01*
X154432000Y-113792000D02*
X157032000Y-113792000D01*
X154432000Y-116392000D02*
X154432000Y-113792000D01*
X157032000Y-116392000D02*
X157032000Y-115062000D01*
X155702000Y-116392000D02*
X157032000Y-116392000D01*
D14*
G04 #@! TO.C,BT1*
X133686464Y-101254601D02*
G75*
G03X133690000Y-89250000I-7806464J6004601D01*
G01*
X133673470Y-101253354D02*
G75*
G03X134660000Y-104590000I1716530J-1306646D01*
G01*
X138610000Y-106030000D02*
X134660000Y-104590000D01*
X149780000Y-103950000D02*
X147700000Y-106030000D01*
X149780000Y-86550000D02*
X149780000Y-103950000D01*
X149780000Y-86550000D02*
X147700000Y-84470000D01*
X138610000Y-84470000D02*
X134660000Y-85910000D01*
X134651831Y-85924756D02*
G75*
G03X133690000Y-89250000I738169J-2015244D01*
G01*
X147700000Y-106030000D02*
X145240000Y-106030000D01*
X139240000Y-106030000D02*
X138610000Y-106030000D01*
X147700000Y-84470000D02*
X145240000Y-84470000D01*
X139240000Y-84470000D02*
X138610000Y-84470000D01*
D13*
G04 #@! TO.C,C1*
X132790000Y-110228748D02*
X132790000Y-110751252D01*
X131370000Y-110228748D02*
X131370000Y-110751252D01*
G04 #@! TO.C,C2*
X135330000Y-110228748D02*
X135330000Y-110751252D01*
X133910000Y-110228748D02*
X133910000Y-110751252D01*
G04 #@! TO.C,R1*
X149150000Y-110228748D02*
X149150000Y-110751252D01*
X150570000Y-110228748D02*
X150570000Y-110751252D01*
D15*
G04 #@! TO.C,REF\002A\002A*
G36*
X153114186Y-102370931D02*
X153030365Y-102815555D01*
X152721080Y-102943053D01*
X152411794Y-103070551D01*
X152040754Y-102818246D01*
X151936843Y-102747996D01*
X151842913Y-102685272D01*
X151763348Y-102632938D01*
X151702530Y-102593857D01*
X151664843Y-102570893D01*
X151654579Y-102565942D01*
X151636090Y-102578676D01*
X151596580Y-102613882D01*
X151540478Y-102667062D01*
X151472213Y-102733718D01*
X151396214Y-102809354D01*
X151316908Y-102889472D01*
X151238725Y-102969574D01*
X151166093Y-103045164D01*
X151103441Y-103111745D01*
X151055197Y-103164818D01*
X151025790Y-103199887D01*
X151018759Y-103211623D01*
X151028877Y-103233260D01*
X151057241Y-103280662D01*
X151100871Y-103349193D01*
X151156782Y-103434215D01*
X151221994Y-103531093D01*
X151259781Y-103586350D01*
X151328657Y-103687248D01*
X151389860Y-103778299D01*
X151440422Y-103854970D01*
X151477372Y-103912728D01*
X151497742Y-103947043D01*
X151500803Y-103954254D01*
X151493864Y-103974748D01*
X151474949Y-104022513D01*
X151446913Y-104090832D01*
X151412609Y-104172989D01*
X151374891Y-104262270D01*
X151336613Y-104351958D01*
X151300630Y-104435338D01*
X151269794Y-104505694D01*
X151246961Y-104556310D01*
X151234983Y-104580471D01*
X151234276Y-104581422D01*
X151215469Y-104586036D01*
X151165382Y-104596328D01*
X151089207Y-104611287D01*
X150992135Y-104629901D01*
X150879357Y-104651159D01*
X150813558Y-104663418D01*
X150693050Y-104686362D01*
X150584203Y-104708195D01*
X150492524Y-104727722D01*
X150423519Y-104743748D01*
X150382696Y-104755079D01*
X150374489Y-104758674D01*
X150366452Y-104783006D01*
X150359967Y-104837959D01*
X150355030Y-104917108D01*
X150351636Y-105014026D01*
X150349782Y-105122287D01*
X150349462Y-105235465D01*
X150350673Y-105347135D01*
X150353410Y-105450868D01*
X150357669Y-105540241D01*
X150363445Y-105608826D01*
X150370733Y-105650197D01*
X150375105Y-105658810D01*
X150401236Y-105669133D01*
X150456607Y-105683892D01*
X150533893Y-105701352D01*
X150625770Y-105719780D01*
X150657842Y-105725741D01*
X150812476Y-105754066D01*
X150934625Y-105776876D01*
X151028327Y-105795080D01*
X151097616Y-105809583D01*
X151146529Y-105821292D01*
X151179103Y-105831115D01*
X151199372Y-105839956D01*
X151211374Y-105848724D01*
X151213053Y-105850457D01*
X151229816Y-105878371D01*
X151255386Y-105932695D01*
X151287212Y-106006777D01*
X151322740Y-106093965D01*
X151359417Y-106187608D01*
X151394689Y-106281052D01*
X151426004Y-106367647D01*
X151450807Y-106440740D01*
X151466546Y-106493678D01*
X151470668Y-106519811D01*
X151470324Y-106520726D01*
X151456359Y-106542086D01*
X151424678Y-106589084D01*
X151378609Y-106656827D01*
X151321482Y-106740423D01*
X151256627Y-106834982D01*
X151238157Y-106861854D01*
X151172301Y-106959275D01*
X151114350Y-107048163D01*
X151067462Y-107123412D01*
X151034793Y-107179920D01*
X151019500Y-107212581D01*
X151018759Y-107216593D01*
X151031608Y-107237684D01*
X151067112Y-107279464D01*
X151120707Y-107337445D01*
X151187829Y-107407135D01*
X151263913Y-107484045D01*
X151344396Y-107563683D01*
X151424713Y-107641561D01*
X151500301Y-107713186D01*
X151566595Y-107774070D01*
X151619031Y-107819721D01*
X151653045Y-107845650D01*
X151662455Y-107849883D01*
X151684357Y-107839912D01*
X151729200Y-107813020D01*
X151789679Y-107773736D01*
X151836211Y-107742117D01*
X151920525Y-107684098D01*
X152020374Y-107615784D01*
X152120527Y-107547579D01*
X152174373Y-107511075D01*
X152356629Y-107387800D01*
X152509619Y-107470520D01*
X152579318Y-107506759D01*
X152638586Y-107534926D01*
X152678689Y-107550991D01*
X152688897Y-107553226D01*
X152701171Y-107536722D01*
X152725387Y-107490082D01*
X152759737Y-107417609D01*
X152802412Y-107323606D01*
X152851606Y-107212374D01*
X152905510Y-107088215D01*
X152962316Y-106955432D01*
X153020218Y-106818327D01*
X153077407Y-106681202D01*
X153132076Y-106548358D01*
X153182416Y-106424098D01*
X153226620Y-106312725D01*
X153262881Y-106218539D01*
X153289391Y-106145844D01*
X153304342Y-106098941D01*
X153306746Y-106082833D01*
X153287689Y-106062286D01*
X153245964Y-106028933D01*
X153190294Y-105989702D01*
X153185622Y-105986599D01*
X153041736Y-105871423D01*
X152925717Y-105737053D01*
X152838570Y-105587784D01*
X152781301Y-105427913D01*
X152754914Y-105261737D01*
X152760415Y-105093552D01*
X152798810Y-104927655D01*
X152871105Y-104768342D01*
X152892374Y-104733487D01*
X153003004Y-104592737D01*
X153133698Y-104479714D01*
X153279936Y-104395003D01*
X153437192Y-104339194D01*
X153600943Y-104312874D01*
X153766667Y-104316630D01*
X153929838Y-104351050D01*
X154085935Y-104416723D01*
X154230433Y-104514235D01*
X154275131Y-104553813D01*
X154388888Y-104677703D01*
X154471782Y-104808124D01*
X154528644Y-104954315D01*
X154560313Y-105099088D01*
X154568131Y-105261860D01*
X154542062Y-105425440D01*
X154484755Y-105584298D01*
X154398856Y-105732906D01*
X154287014Y-105865735D01*
X154151877Y-105977256D01*
X154134117Y-105989011D01*
X154077850Y-106027508D01*
X154035077Y-106060863D01*
X154014628Y-106082160D01*
X154014331Y-106082833D01*
X154018721Y-106105871D01*
X154036124Y-106158157D01*
X154064732Y-106235390D01*
X154102735Y-106333268D01*
X154148326Y-106447491D01*
X154199697Y-106573758D01*
X154255038Y-106707767D01*
X154312542Y-106845218D01*
X154370399Y-106981808D01*
X154426802Y-107113237D01*
X154479942Y-107235205D01*
X154528010Y-107343409D01*
X154569199Y-107433549D01*
X154601699Y-107501323D01*
X154623703Y-107542430D01*
X154632564Y-107553226D01*
X154659640Y-107544819D01*
X154710303Y-107522272D01*
X154775817Y-107489613D01*
X154811841Y-107470520D01*
X154964832Y-107387800D01*
X155147088Y-107511075D01*
X155240125Y-107574228D01*
X155341985Y-107643727D01*
X155437438Y-107709165D01*
X155485250Y-107742117D01*
X155552495Y-107787273D01*
X155609436Y-107823057D01*
X155648646Y-107844938D01*
X155661381Y-107849563D01*
X155679917Y-107837085D01*
X155720941Y-107802252D01*
X155780475Y-107748678D01*
X155854542Y-107679983D01*
X155939165Y-107599781D01*
X155992685Y-107548286D01*
X156086319Y-107456286D01*
X156167241Y-107373999D01*
X156232177Y-107304945D01*
X156277858Y-107252644D01*
X156301011Y-107220616D01*
X156303232Y-107214116D01*
X156292924Y-107189394D01*
X156264439Y-107139405D01*
X156220937Y-107069212D01*
X156165577Y-106983875D01*
X156101520Y-106888456D01*
X156083303Y-106861854D01*
X156016927Y-106765167D01*
X155957378Y-106678117D01*
X155907984Y-106605595D01*
X155872075Y-106552493D01*
X155852981Y-106523703D01*
X155851136Y-106520726D01*
X155853895Y-106497782D01*
X155868538Y-106447336D01*
X155892513Y-106376041D01*
X155923266Y-106290547D01*
X155958244Y-106197507D01*
X155994893Y-106103574D01*
X156030661Y-106015399D01*
X156062994Y-105939634D01*
X156089338Y-105882931D01*
X156107142Y-105851943D01*
X156108407Y-105850457D01*
X156119294Y-105841601D01*
X156137682Y-105832843D01*
X156167606Y-105823277D01*
X156213103Y-105811996D01*
X156278209Y-105798093D01*
X156366961Y-105780663D01*
X156483393Y-105758798D01*
X156631542Y-105731591D01*
X156663618Y-105725741D01*
X156758686Y-105707374D01*
X156841565Y-105689405D01*
X156904930Y-105673569D01*
X156941458Y-105661600D01*
X156946356Y-105658810D01*
X156954427Y-105634072D01*
X156960987Y-105578790D01*
X156966033Y-105499389D01*
X156969559Y-105402296D01*
X156971561Y-105293938D01*
X156972036Y-105180740D01*
X156970977Y-105069128D01*
X156968382Y-104965529D01*
X156964246Y-104876368D01*
X156958563Y-104808072D01*
X156951331Y-104767066D01*
X156946971Y-104758674D01*
X156922698Y-104750208D01*
X156867426Y-104736435D01*
X156786662Y-104718550D01*
X156685912Y-104697748D01*
X156570683Y-104675223D01*
X156507902Y-104663418D01*
X156388787Y-104641151D01*
X156282565Y-104620979D01*
X156194427Y-104603915D01*
X156129566Y-104590969D01*
X156093174Y-104583155D01*
X156087184Y-104581422D01*
X156077061Y-104561890D01*
X156055662Y-104514843D01*
X156025839Y-104447003D01*
X155990445Y-104365091D01*
X155952332Y-104275828D01*
X155914353Y-104185935D01*
X155879360Y-104102135D01*
X155850206Y-104031147D01*
X155829743Y-103979694D01*
X155820823Y-103954497D01*
X155820657Y-103953396D01*
X155830769Y-103933519D01*
X155859117Y-103887777D01*
X155902723Y-103820717D01*
X155958606Y-103736884D01*
X156023787Y-103640826D01*
X156061679Y-103585650D01*
X156130725Y-103484481D01*
X156192050Y-103392630D01*
X156242663Y-103314744D01*
X156279571Y-103255469D01*
X156299782Y-103219451D01*
X156302701Y-103211377D01*
X156290153Y-103192584D01*
X156255463Y-103152457D01*
X156203063Y-103095493D01*
X156137384Y-103026185D01*
X156062856Y-102949031D01*
X155983913Y-102868525D01*
X155904983Y-102789163D01*
X155830500Y-102715440D01*
X155764894Y-102651852D01*
X155712596Y-102602894D01*
X155678039Y-102573061D01*
X155666478Y-102565942D01*
X155647654Y-102575953D01*
X155602631Y-102604078D01*
X155535787Y-102647454D01*
X155451499Y-102703218D01*
X155354144Y-102768506D01*
X155280707Y-102818246D01*
X154909667Y-103070551D01*
X154291095Y-102815555D01*
X154207275Y-102370931D01*
X154123454Y-101926307D01*
X153198006Y-101926307D01*
X153114186Y-102370931D01*
X153114186Y-102370931D01*
G37*
X153114186Y-102370931D02*
X153030365Y-102815555D01*
X152721080Y-102943053D01*
X152411794Y-103070551D01*
X152040754Y-102818246D01*
X151936843Y-102747996D01*
X151842913Y-102685272D01*
X151763348Y-102632938D01*
X151702530Y-102593857D01*
X151664843Y-102570893D01*
X151654579Y-102565942D01*
X151636090Y-102578676D01*
X151596580Y-102613882D01*
X151540478Y-102667062D01*
X151472213Y-102733718D01*
X151396214Y-102809354D01*
X151316908Y-102889472D01*
X151238725Y-102969574D01*
X151166093Y-103045164D01*
X151103441Y-103111745D01*
X151055197Y-103164818D01*
X151025790Y-103199887D01*
X151018759Y-103211623D01*
X151028877Y-103233260D01*
X151057241Y-103280662D01*
X151100871Y-103349193D01*
X151156782Y-103434215D01*
X151221994Y-103531093D01*
X151259781Y-103586350D01*
X151328657Y-103687248D01*
X151389860Y-103778299D01*
X151440422Y-103854970D01*
X151477372Y-103912728D01*
X151497742Y-103947043D01*
X151500803Y-103954254D01*
X151493864Y-103974748D01*
X151474949Y-104022513D01*
X151446913Y-104090832D01*
X151412609Y-104172989D01*
X151374891Y-104262270D01*
X151336613Y-104351958D01*
X151300630Y-104435338D01*
X151269794Y-104505694D01*
X151246961Y-104556310D01*
X151234983Y-104580471D01*
X151234276Y-104581422D01*
X151215469Y-104586036D01*
X151165382Y-104596328D01*
X151089207Y-104611287D01*
X150992135Y-104629901D01*
X150879357Y-104651159D01*
X150813558Y-104663418D01*
X150693050Y-104686362D01*
X150584203Y-104708195D01*
X150492524Y-104727722D01*
X150423519Y-104743748D01*
X150382696Y-104755079D01*
X150374489Y-104758674D01*
X150366452Y-104783006D01*
X150359967Y-104837959D01*
X150355030Y-104917108D01*
X150351636Y-105014026D01*
X150349782Y-105122287D01*
X150349462Y-105235465D01*
X150350673Y-105347135D01*
X150353410Y-105450868D01*
X150357669Y-105540241D01*
X150363445Y-105608826D01*
X150370733Y-105650197D01*
X150375105Y-105658810D01*
X150401236Y-105669133D01*
X150456607Y-105683892D01*
X150533893Y-105701352D01*
X150625770Y-105719780D01*
X150657842Y-105725741D01*
X150812476Y-105754066D01*
X150934625Y-105776876D01*
X151028327Y-105795080D01*
X151097616Y-105809583D01*
X151146529Y-105821292D01*
X151179103Y-105831115D01*
X151199372Y-105839956D01*
X151211374Y-105848724D01*
X151213053Y-105850457D01*
X151229816Y-105878371D01*
X151255386Y-105932695D01*
X151287212Y-106006777D01*
X151322740Y-106093965D01*
X151359417Y-106187608D01*
X151394689Y-106281052D01*
X151426004Y-106367647D01*
X151450807Y-106440740D01*
X151466546Y-106493678D01*
X151470668Y-106519811D01*
X151470324Y-106520726D01*
X151456359Y-106542086D01*
X151424678Y-106589084D01*
X151378609Y-106656827D01*
X151321482Y-106740423D01*
X151256627Y-106834982D01*
X151238157Y-106861854D01*
X151172301Y-106959275D01*
X151114350Y-107048163D01*
X151067462Y-107123412D01*
X151034793Y-107179920D01*
X151019500Y-107212581D01*
X151018759Y-107216593D01*
X151031608Y-107237684D01*
X151067112Y-107279464D01*
X151120707Y-107337445D01*
X151187829Y-107407135D01*
X151263913Y-107484045D01*
X151344396Y-107563683D01*
X151424713Y-107641561D01*
X151500301Y-107713186D01*
X151566595Y-107774070D01*
X151619031Y-107819721D01*
X151653045Y-107845650D01*
X151662455Y-107849883D01*
X151684357Y-107839912D01*
X151729200Y-107813020D01*
X151789679Y-107773736D01*
X151836211Y-107742117D01*
X151920525Y-107684098D01*
X152020374Y-107615784D01*
X152120527Y-107547579D01*
X152174373Y-107511075D01*
X152356629Y-107387800D01*
X152509619Y-107470520D01*
X152579318Y-107506759D01*
X152638586Y-107534926D01*
X152678689Y-107550991D01*
X152688897Y-107553226D01*
X152701171Y-107536722D01*
X152725387Y-107490082D01*
X152759737Y-107417609D01*
X152802412Y-107323606D01*
X152851606Y-107212374D01*
X152905510Y-107088215D01*
X152962316Y-106955432D01*
X153020218Y-106818327D01*
X153077407Y-106681202D01*
X153132076Y-106548358D01*
X153182416Y-106424098D01*
X153226620Y-106312725D01*
X153262881Y-106218539D01*
X153289391Y-106145844D01*
X153304342Y-106098941D01*
X153306746Y-106082833D01*
X153287689Y-106062286D01*
X153245964Y-106028933D01*
X153190294Y-105989702D01*
X153185622Y-105986599D01*
X153041736Y-105871423D01*
X152925717Y-105737053D01*
X152838570Y-105587784D01*
X152781301Y-105427913D01*
X152754914Y-105261737D01*
X152760415Y-105093552D01*
X152798810Y-104927655D01*
X152871105Y-104768342D01*
X152892374Y-104733487D01*
X153003004Y-104592737D01*
X153133698Y-104479714D01*
X153279936Y-104395003D01*
X153437192Y-104339194D01*
X153600943Y-104312874D01*
X153766667Y-104316630D01*
X153929838Y-104351050D01*
X154085935Y-104416723D01*
X154230433Y-104514235D01*
X154275131Y-104553813D01*
X154388888Y-104677703D01*
X154471782Y-104808124D01*
X154528644Y-104954315D01*
X154560313Y-105099088D01*
X154568131Y-105261860D01*
X154542062Y-105425440D01*
X154484755Y-105584298D01*
X154398856Y-105732906D01*
X154287014Y-105865735D01*
X154151877Y-105977256D01*
X154134117Y-105989011D01*
X154077850Y-106027508D01*
X154035077Y-106060863D01*
X154014628Y-106082160D01*
X154014331Y-106082833D01*
X154018721Y-106105871D01*
X154036124Y-106158157D01*
X154064732Y-106235390D01*
X154102735Y-106333268D01*
X154148326Y-106447491D01*
X154199697Y-106573758D01*
X154255038Y-106707767D01*
X154312542Y-106845218D01*
X154370399Y-106981808D01*
X154426802Y-107113237D01*
X154479942Y-107235205D01*
X154528010Y-107343409D01*
X154569199Y-107433549D01*
X154601699Y-107501323D01*
X154623703Y-107542430D01*
X154632564Y-107553226D01*
X154659640Y-107544819D01*
X154710303Y-107522272D01*
X154775817Y-107489613D01*
X154811841Y-107470520D01*
X154964832Y-107387800D01*
X155147088Y-107511075D01*
X155240125Y-107574228D01*
X155341985Y-107643727D01*
X155437438Y-107709165D01*
X155485250Y-107742117D01*
X155552495Y-107787273D01*
X155609436Y-107823057D01*
X155648646Y-107844938D01*
X155661381Y-107849563D01*
X155679917Y-107837085D01*
X155720941Y-107802252D01*
X155780475Y-107748678D01*
X155854542Y-107679983D01*
X155939165Y-107599781D01*
X155992685Y-107548286D01*
X156086319Y-107456286D01*
X156167241Y-107373999D01*
X156232177Y-107304945D01*
X156277858Y-107252644D01*
X156301011Y-107220616D01*
X156303232Y-107214116D01*
X156292924Y-107189394D01*
X156264439Y-107139405D01*
X156220937Y-107069212D01*
X156165577Y-106983875D01*
X156101520Y-106888456D01*
X156083303Y-106861854D01*
X156016927Y-106765167D01*
X155957378Y-106678117D01*
X155907984Y-106605595D01*
X155872075Y-106552493D01*
X155852981Y-106523703D01*
X155851136Y-106520726D01*
X155853895Y-106497782D01*
X155868538Y-106447336D01*
X155892513Y-106376041D01*
X155923266Y-106290547D01*
X155958244Y-106197507D01*
X155994893Y-106103574D01*
X156030661Y-106015399D01*
X156062994Y-105939634D01*
X156089338Y-105882931D01*
X156107142Y-105851943D01*
X156108407Y-105850457D01*
X156119294Y-105841601D01*
X156137682Y-105832843D01*
X156167606Y-105823277D01*
X156213103Y-105811996D01*
X156278209Y-105798093D01*
X156366961Y-105780663D01*
X156483393Y-105758798D01*
X156631542Y-105731591D01*
X156663618Y-105725741D01*
X156758686Y-105707374D01*
X156841565Y-105689405D01*
X156904930Y-105673569D01*
X156941458Y-105661600D01*
X156946356Y-105658810D01*
X156954427Y-105634072D01*
X156960987Y-105578790D01*
X156966033Y-105499389D01*
X156969559Y-105402296D01*
X156971561Y-105293938D01*
X156972036Y-105180740D01*
X156970977Y-105069128D01*
X156968382Y-104965529D01*
X156964246Y-104876368D01*
X156958563Y-104808072D01*
X156951331Y-104767066D01*
X156946971Y-104758674D01*
X156922698Y-104750208D01*
X156867426Y-104736435D01*
X156786662Y-104718550D01*
X156685912Y-104697748D01*
X156570683Y-104675223D01*
X156507902Y-104663418D01*
X156388787Y-104641151D01*
X156282565Y-104620979D01*
X156194427Y-104603915D01*
X156129566Y-104590969D01*
X156093174Y-104583155D01*
X156087184Y-104581422D01*
X156077061Y-104561890D01*
X156055662Y-104514843D01*
X156025839Y-104447003D01*
X155990445Y-104365091D01*
X155952332Y-104275828D01*
X155914353Y-104185935D01*
X155879360Y-104102135D01*
X155850206Y-104031147D01*
X155829743Y-103979694D01*
X155820823Y-103954497D01*
X155820657Y-103953396D01*
X155830769Y-103933519D01*
X155859117Y-103887777D01*
X155902723Y-103820717D01*
X155958606Y-103736884D01*
X156023787Y-103640826D01*
X156061679Y-103585650D01*
X156130725Y-103484481D01*
X156192050Y-103392630D01*
X156242663Y-103314744D01*
X156279571Y-103255469D01*
X156299782Y-103219451D01*
X156302701Y-103211377D01*
X156290153Y-103192584D01*
X156255463Y-103152457D01*
X156203063Y-103095493D01*
X156137384Y-103026185D01*
X156062856Y-102949031D01*
X155983913Y-102868525D01*
X155904983Y-102789163D01*
X155830500Y-102715440D01*
X155764894Y-102651852D01*
X155712596Y-102602894D01*
X155678039Y-102573061D01*
X155666478Y-102565942D01*
X155647654Y-102575953D01*
X155602631Y-102604078D01*
X155535787Y-102647454D01*
X155451499Y-102703218D01*
X155354144Y-102768506D01*
X155280707Y-102818246D01*
X154909667Y-103070551D01*
X154291095Y-102815555D01*
X154207275Y-102370931D01*
X154123454Y-101926307D01*
X153198006Y-101926307D01*
X153114186Y-102370931D01*
G04 #@! TO.C,G\002A\002A\002A*
G36*
X153471705Y-82361234D02*
X153196514Y-82388480D01*
X152996900Y-82424013D01*
X152716338Y-82496434D01*
X152446611Y-82591659D01*
X152188488Y-82709171D01*
X151942738Y-82848453D01*
X151710133Y-83008988D01*
X151491442Y-83190259D01*
X151287435Y-83391749D01*
X151098881Y-83612942D01*
X150974649Y-83781900D01*
X150835895Y-84004264D01*
X150715375Y-84242155D01*
X150614030Y-84492496D01*
X150532803Y-84752210D01*
X150472635Y-85018219D01*
X150434467Y-85287447D01*
X150419240Y-85556815D01*
X150418994Y-85598000D01*
X150431727Y-85881632D01*
X150468949Y-86160706D01*
X150529948Y-86433856D01*
X150614014Y-86699713D01*
X150720435Y-86956912D01*
X150848503Y-87204087D01*
X150997505Y-87439870D01*
X151166731Y-87662894D01*
X151355471Y-87871794D01*
X151563014Y-88065203D01*
X151788649Y-88241754D01*
X151796750Y-88247529D01*
X152027689Y-88396262D01*
X152272386Y-88524623D01*
X152528485Y-88631876D01*
X152793631Y-88717282D01*
X153065466Y-88780105D01*
X153341635Y-88819606D01*
X153619780Y-88835047D01*
X153673826Y-88835193D01*
X153758608Y-88833627D01*
X153846584Y-88830182D01*
X153929537Y-88825299D01*
X153999253Y-88819418D01*
X154025600Y-88816369D01*
X154321235Y-88765854D01*
X154603605Y-88693697D01*
X154872839Y-88599837D01*
X155129066Y-88484213D01*
X155372417Y-88346764D01*
X155603020Y-88187429D01*
X155821005Y-88006147D01*
X155897142Y-87934800D01*
X156012629Y-87819443D01*
X156112821Y-87710538D01*
X156203815Y-87600846D01*
X156291713Y-87483128D01*
X156355488Y-87390851D01*
X156457770Y-87226203D01*
X156553734Y-87047121D01*
X156640693Y-86859814D01*
X156715959Y-86670488D01*
X156776844Y-86485351D01*
X156818307Y-86321900D01*
X156838969Y-86222924D01*
X156855204Y-86140053D01*
X156867541Y-86067887D01*
X156876511Y-86001029D01*
X156882646Y-85934078D01*
X156886475Y-85861635D01*
X156888529Y-85778302D01*
X156889339Y-85678680D01*
X156889450Y-85598000D01*
X156889261Y-85551249D01*
X156678468Y-85551249D01*
X156677449Y-85671061D01*
X156669884Y-85797757D01*
X156660273Y-85899986D01*
X156618873Y-86177881D01*
X156554174Y-86446041D01*
X156466436Y-86703906D01*
X156355919Y-86950916D01*
X156222882Y-87186510D01*
X156067586Y-87410129D01*
X155890288Y-87621212D01*
X155835522Y-87679249D01*
X155629438Y-87874896D01*
X155411829Y-88048082D01*
X155183105Y-88198599D01*
X154943674Y-88326242D01*
X154693945Y-88430804D01*
X154434329Y-88512078D01*
X154165234Y-88569858D01*
X154031950Y-88589296D01*
X153951239Y-88596815D01*
X153852295Y-88602157D01*
X153742200Y-88605265D01*
X153628033Y-88606083D01*
X153516875Y-88604554D01*
X153415804Y-88600622D01*
X153337971Y-88594848D01*
X153237225Y-88582081D01*
X153125016Y-88563187D01*
X153007842Y-88539636D01*
X152892201Y-88512896D01*
X152784591Y-88484435D01*
X152691511Y-88455722D01*
X152641300Y-88437389D01*
X152438331Y-88351902D01*
X152256348Y-88264688D01*
X152090960Y-88172919D01*
X151937776Y-88073767D01*
X151792407Y-87964404D01*
X151650461Y-87842003D01*
X151516833Y-87713139D01*
X151330192Y-87507232D01*
X151164754Y-87288184D01*
X151021108Y-87057044D01*
X150899846Y-86814860D01*
X150801557Y-86562683D01*
X150730178Y-86315550D01*
X150707758Y-86220193D01*
X150690167Y-86137573D01*
X150676832Y-86062300D01*
X150667182Y-85988981D01*
X150660642Y-85912226D01*
X150656641Y-85826642D01*
X150654605Y-85726838D01*
X150653962Y-85607422D01*
X150653954Y-85598000D01*
X150654469Y-85473261D01*
X150656564Y-85368521D01*
X150660818Y-85278399D01*
X150667809Y-85197513D01*
X150678116Y-85120483D01*
X150692318Y-85041926D01*
X150710993Y-84956462D01*
X150732462Y-84867750D01*
X150810718Y-84605203D01*
X150911471Y-84353236D01*
X151033630Y-84113009D01*
X151176105Y-83885682D01*
X151337802Y-83672416D01*
X151517632Y-83474368D01*
X151714503Y-83292701D01*
X151927323Y-83128573D01*
X152155003Y-82983145D01*
X152396449Y-82857577D01*
X152650571Y-82753027D01*
X152755600Y-82717329D01*
X152999648Y-82651910D01*
X153253398Y-82607913D01*
X153513092Y-82585313D01*
X153774975Y-82584084D01*
X154035290Y-82604200D01*
X154290281Y-82645635D01*
X154536193Y-82708365D01*
X154603450Y-82729923D01*
X154861925Y-82829714D01*
X155107209Y-82950482D01*
X155338359Y-83091048D01*
X155554428Y-83250236D01*
X155754471Y-83426868D01*
X155937541Y-83619768D01*
X156102694Y-83827757D01*
X156248983Y-84049658D01*
X156375464Y-84284294D01*
X156481190Y-84530489D01*
X156565216Y-84787064D01*
X156626596Y-85052842D01*
X156660916Y-85291381D01*
X156672954Y-85428097D01*
X156678468Y-85551249D01*
X156889261Y-85551249D01*
X156888948Y-85473913D01*
X156887118Y-85370038D01*
X156883482Y-85281200D01*
X156877560Y-85202226D01*
X156868869Y-85127940D01*
X156856931Y-85053169D01*
X156841265Y-84972738D01*
X156824009Y-84893150D01*
X156750079Y-84619905D01*
X156652997Y-84355666D01*
X156533833Y-84101794D01*
X156393658Y-83859651D01*
X156233542Y-83630598D01*
X156054555Y-83415997D01*
X155857769Y-83217209D01*
X155644253Y-83035597D01*
X155415077Y-82872522D01*
X155171313Y-82729345D01*
X155090473Y-82687989D01*
X154837064Y-82576749D01*
X154573760Y-82487800D01*
X154303065Y-82421458D01*
X154027487Y-82378039D01*
X153749532Y-82357859D01*
X153471705Y-82361234D01*
X153471705Y-82361234D01*
G37*
X153471705Y-82361234D02*
X153196514Y-82388480D01*
X152996900Y-82424013D01*
X152716338Y-82496434D01*
X152446611Y-82591659D01*
X152188488Y-82709171D01*
X151942738Y-82848453D01*
X151710133Y-83008988D01*
X151491442Y-83190259D01*
X151287435Y-83391749D01*
X151098881Y-83612942D01*
X150974649Y-83781900D01*
X150835895Y-84004264D01*
X150715375Y-84242155D01*
X150614030Y-84492496D01*
X150532803Y-84752210D01*
X150472635Y-85018219D01*
X150434467Y-85287447D01*
X150419240Y-85556815D01*
X150418994Y-85598000D01*
X150431727Y-85881632D01*
X150468949Y-86160706D01*
X150529948Y-86433856D01*
X150614014Y-86699713D01*
X150720435Y-86956912D01*
X150848503Y-87204087D01*
X150997505Y-87439870D01*
X151166731Y-87662894D01*
X151355471Y-87871794D01*
X151563014Y-88065203D01*
X151788649Y-88241754D01*
X151796750Y-88247529D01*
X152027689Y-88396262D01*
X152272386Y-88524623D01*
X152528485Y-88631876D01*
X152793631Y-88717282D01*
X153065466Y-88780105D01*
X153341635Y-88819606D01*
X153619780Y-88835047D01*
X153673826Y-88835193D01*
X153758608Y-88833627D01*
X153846584Y-88830182D01*
X153929537Y-88825299D01*
X153999253Y-88819418D01*
X154025600Y-88816369D01*
X154321235Y-88765854D01*
X154603605Y-88693697D01*
X154872839Y-88599837D01*
X155129066Y-88484213D01*
X155372417Y-88346764D01*
X155603020Y-88187429D01*
X155821005Y-88006147D01*
X155897142Y-87934800D01*
X156012629Y-87819443D01*
X156112821Y-87710538D01*
X156203815Y-87600846D01*
X156291713Y-87483128D01*
X156355488Y-87390851D01*
X156457770Y-87226203D01*
X156553734Y-87047121D01*
X156640693Y-86859814D01*
X156715959Y-86670488D01*
X156776844Y-86485351D01*
X156818307Y-86321900D01*
X156838969Y-86222924D01*
X156855204Y-86140053D01*
X156867541Y-86067887D01*
X156876511Y-86001029D01*
X156882646Y-85934078D01*
X156886475Y-85861635D01*
X156888529Y-85778302D01*
X156889339Y-85678680D01*
X156889450Y-85598000D01*
X156889261Y-85551249D01*
X156678468Y-85551249D01*
X156677449Y-85671061D01*
X156669884Y-85797757D01*
X156660273Y-85899986D01*
X156618873Y-86177881D01*
X156554174Y-86446041D01*
X156466436Y-86703906D01*
X156355919Y-86950916D01*
X156222882Y-87186510D01*
X156067586Y-87410129D01*
X155890288Y-87621212D01*
X155835522Y-87679249D01*
X155629438Y-87874896D01*
X155411829Y-88048082D01*
X155183105Y-88198599D01*
X154943674Y-88326242D01*
X154693945Y-88430804D01*
X154434329Y-88512078D01*
X154165234Y-88569858D01*
X154031950Y-88589296D01*
X153951239Y-88596815D01*
X153852295Y-88602157D01*
X153742200Y-88605265D01*
X153628033Y-88606083D01*
X153516875Y-88604554D01*
X153415804Y-88600622D01*
X153337971Y-88594848D01*
X153237225Y-88582081D01*
X153125016Y-88563187D01*
X153007842Y-88539636D01*
X152892201Y-88512896D01*
X152784591Y-88484435D01*
X152691511Y-88455722D01*
X152641300Y-88437389D01*
X152438331Y-88351902D01*
X152256348Y-88264688D01*
X152090960Y-88172919D01*
X151937776Y-88073767D01*
X151792407Y-87964404D01*
X151650461Y-87842003D01*
X151516833Y-87713139D01*
X151330192Y-87507232D01*
X151164754Y-87288184D01*
X151021108Y-87057044D01*
X150899846Y-86814860D01*
X150801557Y-86562683D01*
X150730178Y-86315550D01*
X150707758Y-86220193D01*
X150690167Y-86137573D01*
X150676832Y-86062300D01*
X150667182Y-85988981D01*
X150660642Y-85912226D01*
X150656641Y-85826642D01*
X150654605Y-85726838D01*
X150653962Y-85607422D01*
X150653954Y-85598000D01*
X150654469Y-85473261D01*
X150656564Y-85368521D01*
X150660818Y-85278399D01*
X150667809Y-85197513D01*
X150678116Y-85120483D01*
X150692318Y-85041926D01*
X150710993Y-84956462D01*
X150732462Y-84867750D01*
X150810718Y-84605203D01*
X150911471Y-84353236D01*
X151033630Y-84113009D01*
X151176105Y-83885682D01*
X151337802Y-83672416D01*
X151517632Y-83474368D01*
X151714503Y-83292701D01*
X151927323Y-83128573D01*
X152155003Y-82983145D01*
X152396449Y-82857577D01*
X152650571Y-82753027D01*
X152755600Y-82717329D01*
X152999648Y-82651910D01*
X153253398Y-82607913D01*
X153513092Y-82585313D01*
X153774975Y-82584084D01*
X154035290Y-82604200D01*
X154290281Y-82645635D01*
X154536193Y-82708365D01*
X154603450Y-82729923D01*
X154861925Y-82829714D01*
X155107209Y-82950482D01*
X155338359Y-83091048D01*
X155554428Y-83250236D01*
X155754471Y-83426868D01*
X155937541Y-83619768D01*
X156102694Y-83827757D01*
X156248983Y-84049658D01*
X156375464Y-84284294D01*
X156481190Y-84530489D01*
X156565216Y-84787064D01*
X156626596Y-85052842D01*
X156660916Y-85291381D01*
X156672954Y-85428097D01*
X156678468Y-85551249D01*
X156889261Y-85551249D01*
X156888948Y-85473913D01*
X156887118Y-85370038D01*
X156883482Y-85281200D01*
X156877560Y-85202226D01*
X156868869Y-85127940D01*
X156856931Y-85053169D01*
X156841265Y-84972738D01*
X156824009Y-84893150D01*
X156750079Y-84619905D01*
X156652997Y-84355666D01*
X156533833Y-84101794D01*
X156393658Y-83859651D01*
X156233542Y-83630598D01*
X156054555Y-83415997D01*
X155857769Y-83217209D01*
X155644253Y-83035597D01*
X155415077Y-82872522D01*
X155171313Y-82729345D01*
X155090473Y-82687989D01*
X154837064Y-82576749D01*
X154573760Y-82487800D01*
X154303065Y-82421458D01*
X154027487Y-82378039D01*
X153749532Y-82357859D01*
X153471705Y-82361234D01*
G36*
X152615506Y-85773715D02*
X152575328Y-85803448D01*
X152559096Y-85830163D01*
X152550262Y-85857339D01*
X152548051Y-85886410D01*
X152552432Y-85925973D01*
X152558612Y-85960419D01*
X152602098Y-86120543D01*
X152668722Y-86272939D01*
X152756909Y-86415745D01*
X152865084Y-86547096D01*
X152991671Y-86665127D01*
X153135096Y-86767973D01*
X153293781Y-86853771D01*
X153325540Y-86867997D01*
X153409160Y-86900643D01*
X153495223Y-86927867D01*
X153578225Y-86948422D01*
X153652662Y-86961062D01*
X153713029Y-86964542D01*
X153739850Y-86961787D01*
X153766401Y-86956532D01*
X153806977Y-86948620D01*
X153835100Y-86943179D01*
X153953515Y-86911287D01*
X154080689Y-86860497D01*
X154211465Y-86793163D01*
X154336750Y-86714355D01*
X154465748Y-86610354D01*
X154579951Y-86487430D01*
X154677370Y-86348600D01*
X154756016Y-86196876D01*
X154813898Y-86035274D01*
X154831709Y-85964407D01*
X154842138Y-85914238D01*
X154846501Y-85881245D01*
X154844839Y-85857952D01*
X154837190Y-85836879D01*
X154832432Y-85827337D01*
X154799476Y-85786451D01*
X154757162Y-85766443D01*
X154711190Y-85768278D01*
X154667265Y-85792919D01*
X154661408Y-85798438D01*
X154639032Y-85827257D01*
X154623422Y-85865348D01*
X154611340Y-85920679D01*
X154611070Y-85922263D01*
X154587400Y-86013560D01*
X154547671Y-86113172D01*
X154495753Y-86213660D01*
X154435513Y-86307591D01*
X154370821Y-86387526D01*
X154366761Y-86391843D01*
X154272056Y-86480219D01*
X154166667Y-86558820D01*
X154055048Y-86625392D01*
X153941651Y-86677681D01*
X153830932Y-86713436D01*
X153727343Y-86730402D01*
X153695400Y-86731493D01*
X153597016Y-86721109D01*
X153489067Y-86691907D01*
X153376312Y-86646047D01*
X153263513Y-86585686D01*
X153155430Y-86512981D01*
X153082848Y-86453887D01*
X153010034Y-86378712D01*
X152940926Y-86287434D01*
X152879019Y-86186333D01*
X152827809Y-86081688D01*
X152790790Y-85979777D01*
X152772632Y-85896622D01*
X152758188Y-85844777D01*
X152732262Y-85801355D01*
X152699437Y-85772233D01*
X152668504Y-85763100D01*
X152615506Y-85773715D01*
X152615506Y-85773715D01*
G37*
X152615506Y-85773715D02*
X152575328Y-85803448D01*
X152559096Y-85830163D01*
X152550262Y-85857339D01*
X152548051Y-85886410D01*
X152552432Y-85925973D01*
X152558612Y-85960419D01*
X152602098Y-86120543D01*
X152668722Y-86272939D01*
X152756909Y-86415745D01*
X152865084Y-86547096D01*
X152991671Y-86665127D01*
X153135096Y-86767973D01*
X153293781Y-86853771D01*
X153325540Y-86867997D01*
X153409160Y-86900643D01*
X153495223Y-86927867D01*
X153578225Y-86948422D01*
X153652662Y-86961062D01*
X153713029Y-86964542D01*
X153739850Y-86961787D01*
X153766401Y-86956532D01*
X153806977Y-86948620D01*
X153835100Y-86943179D01*
X153953515Y-86911287D01*
X154080689Y-86860497D01*
X154211465Y-86793163D01*
X154336750Y-86714355D01*
X154465748Y-86610354D01*
X154579951Y-86487430D01*
X154677370Y-86348600D01*
X154756016Y-86196876D01*
X154813898Y-86035274D01*
X154831709Y-85964407D01*
X154842138Y-85914238D01*
X154846501Y-85881245D01*
X154844839Y-85857952D01*
X154837190Y-85836879D01*
X154832432Y-85827337D01*
X154799476Y-85786451D01*
X154757162Y-85766443D01*
X154711190Y-85768278D01*
X154667265Y-85792919D01*
X154661408Y-85798438D01*
X154639032Y-85827257D01*
X154623422Y-85865348D01*
X154611340Y-85920679D01*
X154611070Y-85922263D01*
X154587400Y-86013560D01*
X154547671Y-86113172D01*
X154495753Y-86213660D01*
X154435513Y-86307591D01*
X154370821Y-86387526D01*
X154366761Y-86391843D01*
X154272056Y-86480219D01*
X154166667Y-86558820D01*
X154055048Y-86625392D01*
X153941651Y-86677681D01*
X153830932Y-86713436D01*
X153727343Y-86730402D01*
X153695400Y-86731493D01*
X153597016Y-86721109D01*
X153489067Y-86691907D01*
X153376312Y-86646047D01*
X153263513Y-86585686D01*
X153155430Y-86512981D01*
X153082848Y-86453887D01*
X153010034Y-86378712D01*
X152940926Y-86287434D01*
X152879019Y-86186333D01*
X152827809Y-86081688D01*
X152790790Y-85979777D01*
X152772632Y-85896622D01*
X152758188Y-85844777D01*
X152732262Y-85801355D01*
X152699437Y-85772233D01*
X152668504Y-85763100D01*
X152615506Y-85773715D01*
G36*
X152943102Y-84755335D02*
X152844021Y-84795852D01*
X152754718Y-84858497D01*
X152722630Y-84889366D01*
X152656732Y-84970769D01*
X152612849Y-85054802D01*
X152603756Y-85080475D01*
X152591134Y-85111747D01*
X152574766Y-85125236D01*
X152546778Y-85128100D01*
X152496719Y-85139129D01*
X152457998Y-85168424D01*
X152434624Y-85210292D01*
X152430601Y-85259040D01*
X152437030Y-85284035D01*
X152461281Y-85317156D01*
X152501132Y-85343172D01*
X152546809Y-85356172D01*
X152557135Y-85356700D01*
X152580068Y-85361940D01*
X152595246Y-85381993D01*
X152603408Y-85404325D01*
X152629566Y-85463433D01*
X152670341Y-85527720D01*
X152719323Y-85588116D01*
X152762721Y-85629701D01*
X152854436Y-85689561D01*
X152953207Y-85726889D01*
X153055600Y-85742289D01*
X153158184Y-85736364D01*
X153257525Y-85709716D01*
X153350192Y-85662948D01*
X153432751Y-85596663D01*
X153501772Y-85511463D01*
X153509901Y-85498485D01*
X153532176Y-85457391D01*
X153549763Y-85413235D01*
X153564358Y-85360106D01*
X153577656Y-85292092D01*
X153585907Y-85239661D01*
X153352500Y-85239661D01*
X153350707Y-85291721D01*
X153343475Y-85329489D01*
X153328022Y-85363934D01*
X153315911Y-85384023D01*
X153263180Y-85449120D01*
X153201101Y-85491592D01*
X153153797Y-85508117D01*
X153085039Y-85515238D01*
X153012641Y-85507068D01*
X152947948Y-85485254D01*
X152930793Y-85475703D01*
X152893551Y-85445521D01*
X152857748Y-85406197D01*
X152847804Y-85392422D01*
X152829845Y-85362304D01*
X152819284Y-85333740D01*
X152814226Y-85298268D01*
X152812775Y-85247426D01*
X152812750Y-85235925D01*
X152813585Y-85182544D01*
X152817350Y-85146607D01*
X152825940Y-85120179D01*
X152841250Y-85095325D01*
X152848703Y-85085325D01*
X152908073Y-85025384D01*
X152977172Y-84985109D01*
X153051668Y-84965163D01*
X153127234Y-84966212D01*
X153199537Y-84988920D01*
X153252403Y-85023363D01*
X153306495Y-85079363D01*
X153338588Y-85140537D01*
X153351770Y-85213562D01*
X153352500Y-85239661D01*
X153585907Y-85239661D01*
X153588065Y-85225950D01*
X153604324Y-85184004D01*
X153636311Y-85161260D01*
X153681378Y-85159385D01*
X153690661Y-85161389D01*
X153719379Y-85175129D01*
X153740959Y-85202433D01*
X153757510Y-85247263D01*
X153770920Y-85312250D01*
X153783683Y-85369172D01*
X153801898Y-85426707D01*
X153817960Y-85464650D01*
X153862176Y-85533560D01*
X153920705Y-85599676D01*
X153985701Y-85654942D01*
X154030286Y-85682576D01*
X154068626Y-85698865D01*
X154118711Y-85715727D01*
X154172679Y-85731029D01*
X154222670Y-85742642D01*
X154260822Y-85748432D01*
X154273250Y-85748449D01*
X154294838Y-85745460D01*
X154317700Y-85742021D01*
X154434869Y-85712299D01*
X154537191Y-85662082D01*
X154623896Y-85591996D01*
X154694214Y-85502668D01*
X154747375Y-85394723D01*
X154748540Y-85391625D01*
X154766575Y-85364438D01*
X154785391Y-85356700D01*
X154832028Y-85348770D01*
X154873218Y-85328253D01*
X154899319Y-85300050D01*
X154900150Y-85298320D01*
X154905451Y-85278244D01*
X154542644Y-85278244D01*
X154522607Y-85350350D01*
X154495272Y-85394562D01*
X154456321Y-85438587D01*
X154412810Y-85475806D01*
X154371795Y-85499599D01*
X154359296Y-85503538D01*
X154328975Y-85510834D01*
X154311350Y-85515942D01*
X154285897Y-85518050D01*
X154245675Y-85514573D01*
X154200304Y-85507029D01*
X154159403Y-85496934D01*
X154137132Y-85488444D01*
X154078269Y-85445109D01*
X154030869Y-85384553D01*
X153999263Y-85313934D01*
X153987779Y-85241502D01*
X153998597Y-85172272D01*
X154028616Y-85102828D01*
X154073233Y-85041812D01*
X154112420Y-85007528D01*
X154143884Y-84987579D01*
X154172391Y-84976079D01*
X154206986Y-84970762D01*
X154256716Y-84969362D01*
X154264820Y-84969350D01*
X154317426Y-84970439D01*
X154353859Y-84975228D01*
X154383307Y-84985994D01*
X154414956Y-85005017D01*
X154418668Y-85007511D01*
X154477288Y-85060949D01*
X154518593Y-85127520D01*
X154540930Y-85201769D01*
X154542644Y-85278244D01*
X154905451Y-85278244D01*
X154914958Y-85242247D01*
X154907300Y-85193530D01*
X154879057Y-85155842D01*
X154832109Y-85132856D01*
X154813578Y-85129223D01*
X154781241Y-85123114D01*
X154761580Y-85111581D01*
X154747063Y-85087806D01*
X154735176Y-85058250D01*
X154685203Y-84961456D01*
X154615224Y-84878835D01*
X154527619Y-84812567D01*
X154424772Y-84764829D01*
X154408438Y-84759482D01*
X154299248Y-84738034D01*
X154192145Y-84741463D01*
X154089015Y-84769250D01*
X153991745Y-84820873D01*
X153902221Y-84895810D01*
X153897555Y-84900602D01*
X153826660Y-84974171D01*
X153776905Y-84956443D01*
X153699276Y-84940267D01*
X153613406Y-84941892D01*
X153564499Y-84950923D01*
X153511250Y-84964247D01*
X153428079Y-84882941D01*
X153368956Y-84830153D01*
X153315057Y-84793942D01*
X153269329Y-84772873D01*
X153158724Y-84743213D01*
X153048992Y-84737578D01*
X152943102Y-84755335D01*
X152943102Y-84755335D01*
G37*
X152943102Y-84755335D02*
X152844021Y-84795852D01*
X152754718Y-84858497D01*
X152722630Y-84889366D01*
X152656732Y-84970769D01*
X152612849Y-85054802D01*
X152603756Y-85080475D01*
X152591134Y-85111747D01*
X152574766Y-85125236D01*
X152546778Y-85128100D01*
X152496719Y-85139129D01*
X152457998Y-85168424D01*
X152434624Y-85210292D01*
X152430601Y-85259040D01*
X152437030Y-85284035D01*
X152461281Y-85317156D01*
X152501132Y-85343172D01*
X152546809Y-85356172D01*
X152557135Y-85356700D01*
X152580068Y-85361940D01*
X152595246Y-85381993D01*
X152603408Y-85404325D01*
X152629566Y-85463433D01*
X152670341Y-85527720D01*
X152719323Y-85588116D01*
X152762721Y-85629701D01*
X152854436Y-85689561D01*
X152953207Y-85726889D01*
X153055600Y-85742289D01*
X153158184Y-85736364D01*
X153257525Y-85709716D01*
X153350192Y-85662948D01*
X153432751Y-85596663D01*
X153501772Y-85511463D01*
X153509901Y-85498485D01*
X153532176Y-85457391D01*
X153549763Y-85413235D01*
X153564358Y-85360106D01*
X153577656Y-85292092D01*
X153585907Y-85239661D01*
X153352500Y-85239661D01*
X153350707Y-85291721D01*
X153343475Y-85329489D01*
X153328022Y-85363934D01*
X153315911Y-85384023D01*
X153263180Y-85449120D01*
X153201101Y-85491592D01*
X153153797Y-85508117D01*
X153085039Y-85515238D01*
X153012641Y-85507068D01*
X152947948Y-85485254D01*
X152930793Y-85475703D01*
X152893551Y-85445521D01*
X152857748Y-85406197D01*
X152847804Y-85392422D01*
X152829845Y-85362304D01*
X152819284Y-85333740D01*
X152814226Y-85298268D01*
X152812775Y-85247426D01*
X152812750Y-85235925D01*
X152813585Y-85182544D01*
X152817350Y-85146607D01*
X152825940Y-85120179D01*
X152841250Y-85095325D01*
X152848703Y-85085325D01*
X152908073Y-85025384D01*
X152977172Y-84985109D01*
X153051668Y-84965163D01*
X153127234Y-84966212D01*
X153199537Y-84988920D01*
X153252403Y-85023363D01*
X153306495Y-85079363D01*
X153338588Y-85140537D01*
X153351770Y-85213562D01*
X153352500Y-85239661D01*
X153585907Y-85239661D01*
X153588065Y-85225950D01*
X153604324Y-85184004D01*
X153636311Y-85161260D01*
X153681378Y-85159385D01*
X153690661Y-85161389D01*
X153719379Y-85175129D01*
X153740959Y-85202433D01*
X153757510Y-85247263D01*
X153770920Y-85312250D01*
X153783683Y-85369172D01*
X153801898Y-85426707D01*
X153817960Y-85464650D01*
X153862176Y-85533560D01*
X153920705Y-85599676D01*
X153985701Y-85654942D01*
X154030286Y-85682576D01*
X154068626Y-85698865D01*
X154118711Y-85715727D01*
X154172679Y-85731029D01*
X154222670Y-85742642D01*
X154260822Y-85748432D01*
X154273250Y-85748449D01*
X154294838Y-85745460D01*
X154317700Y-85742021D01*
X154434869Y-85712299D01*
X154537191Y-85662082D01*
X154623896Y-85591996D01*
X154694214Y-85502668D01*
X154747375Y-85394723D01*
X154748540Y-85391625D01*
X154766575Y-85364438D01*
X154785391Y-85356700D01*
X154832028Y-85348770D01*
X154873218Y-85328253D01*
X154899319Y-85300050D01*
X154900150Y-85298320D01*
X154905451Y-85278244D01*
X154542644Y-85278244D01*
X154522607Y-85350350D01*
X154495272Y-85394562D01*
X154456321Y-85438587D01*
X154412810Y-85475806D01*
X154371795Y-85499599D01*
X154359296Y-85503538D01*
X154328975Y-85510834D01*
X154311350Y-85515942D01*
X154285897Y-85518050D01*
X154245675Y-85514573D01*
X154200304Y-85507029D01*
X154159403Y-85496934D01*
X154137132Y-85488444D01*
X154078269Y-85445109D01*
X154030869Y-85384553D01*
X153999263Y-85313934D01*
X153987779Y-85241502D01*
X153998597Y-85172272D01*
X154028616Y-85102828D01*
X154073233Y-85041812D01*
X154112420Y-85007528D01*
X154143884Y-84987579D01*
X154172391Y-84976079D01*
X154206986Y-84970762D01*
X154256716Y-84969362D01*
X154264820Y-84969350D01*
X154317426Y-84970439D01*
X154353859Y-84975228D01*
X154383307Y-84985994D01*
X154414956Y-85005017D01*
X154418668Y-85007511D01*
X154477288Y-85060949D01*
X154518593Y-85127520D01*
X154540930Y-85201769D01*
X154542644Y-85278244D01*
X154905451Y-85278244D01*
X154914958Y-85242247D01*
X154907300Y-85193530D01*
X154879057Y-85155842D01*
X154832109Y-85132856D01*
X154813578Y-85129223D01*
X154781241Y-85123114D01*
X154761580Y-85111581D01*
X154747063Y-85087806D01*
X154735176Y-85058250D01*
X154685203Y-84961456D01*
X154615224Y-84878835D01*
X154527619Y-84812567D01*
X154424772Y-84764829D01*
X154408438Y-84759482D01*
X154299248Y-84738034D01*
X154192145Y-84741463D01*
X154089015Y-84769250D01*
X153991745Y-84820873D01*
X153902221Y-84895810D01*
X153897555Y-84900602D01*
X153826660Y-84974171D01*
X153776905Y-84956443D01*
X153699276Y-84940267D01*
X153613406Y-84941892D01*
X153564499Y-84950923D01*
X153511250Y-84964247D01*
X153428079Y-84882941D01*
X153368956Y-84830153D01*
X153315057Y-84793942D01*
X153269329Y-84772873D01*
X153158724Y-84743213D01*
X153048992Y-84737578D01*
X152943102Y-84755335D01*
G36*
X153433437Y-83275843D02*
X153276552Y-83304193D01*
X153138074Y-83345821D01*
X152972332Y-83421182D01*
X152817951Y-83518684D01*
X152675831Y-83637323D01*
X152546875Y-83776093D01*
X152431984Y-83933990D01*
X152332060Y-84110009D01*
X152248004Y-84303144D01*
X152227032Y-84361320D01*
X152204221Y-84430802D01*
X152191888Y-84480184D01*
X152190773Y-84512824D01*
X152201613Y-84532081D01*
X152225147Y-84541314D01*
X152262114Y-84543880D01*
X152267167Y-84543900D01*
X152321724Y-84543900D01*
X152370387Y-84693125D01*
X152390890Y-84755286D01*
X152405936Y-84797235D01*
X152417829Y-84822943D01*
X152428873Y-84836383D01*
X152441373Y-84841528D01*
X152456935Y-84842350D01*
X152481802Y-84839647D01*
X152494930Y-84826776D01*
X152502917Y-84796592D01*
X152503828Y-84791550D01*
X152508418Y-84753095D01*
X152511903Y-84700416D01*
X152513553Y-84644685D01*
X152513569Y-84642814D01*
X152514300Y-84544879D01*
X152561925Y-84532364D01*
X152604150Y-84521516D01*
X152654299Y-84508960D01*
X152673050Y-84504351D01*
X152764229Y-84476840D01*
X152867020Y-84437170D01*
X152973254Y-84389112D01*
X153074765Y-84336442D01*
X153163382Y-84282932D01*
X153186169Y-84267324D01*
X153267487Y-84209643D01*
X153378108Y-84224371D01*
X153498359Y-84235347D01*
X153630509Y-84238658D01*
X153769147Y-84234816D01*
X153908864Y-84224332D01*
X154044249Y-84207716D01*
X154169894Y-84185481D01*
X154280387Y-84158137D01*
X154356772Y-84131904D01*
X154382233Y-84133874D01*
X154418824Y-84152439D01*
X154462057Y-84184165D01*
X154507440Y-84225618D01*
X154550484Y-84273366D01*
X154563395Y-84289900D01*
X154600049Y-84343210D01*
X154639047Y-84406910D01*
X154672548Y-84468120D01*
X154675512Y-84474050D01*
X154696813Y-84520799D01*
X154721080Y-84579839D01*
X154746466Y-84645955D01*
X154771127Y-84713935D01*
X154793216Y-84778566D01*
X154810890Y-84834636D01*
X154822301Y-84876932D01*
X154825700Y-84898333D01*
X154834234Y-84926146D01*
X154840940Y-84935060D01*
X154864811Y-84947347D01*
X154893753Y-84949362D01*
X154916120Y-84941197D01*
X154920871Y-84934425D01*
X154960743Y-84810548D01*
X154994164Y-84689969D01*
X155020535Y-84576023D01*
X155039257Y-84472042D01*
X155049730Y-84381361D01*
X155051354Y-84307313D01*
X155043530Y-84253232D01*
X155043431Y-84252902D01*
X155016121Y-84197289D01*
X154967666Y-84137025D01*
X154901212Y-84074883D01*
X154819906Y-84013632D01*
X154726896Y-83956044D01*
X154675073Y-83928528D01*
X154637448Y-83908733D01*
X154618079Y-83893937D01*
X154612277Y-83878247D01*
X154615349Y-83855773D01*
X154615731Y-83854000D01*
X154627914Y-83789264D01*
X154631881Y-83739278D01*
X154627602Y-83694746D01*
X154615077Y-83646467D01*
X154580590Y-83574261D01*
X154525327Y-83505282D01*
X154453861Y-83444379D01*
X154386417Y-83403889D01*
X154251905Y-83348250D01*
X154100810Y-83306011D01*
X153938274Y-83277412D01*
X153769439Y-83262692D01*
X153599446Y-83262089D01*
X153433437Y-83275843D01*
X153433437Y-83275843D01*
G37*
X153433437Y-83275843D02*
X153276552Y-83304193D01*
X153138074Y-83345821D01*
X152972332Y-83421182D01*
X152817951Y-83518684D01*
X152675831Y-83637323D01*
X152546875Y-83776093D01*
X152431984Y-83933990D01*
X152332060Y-84110009D01*
X152248004Y-84303144D01*
X152227032Y-84361320D01*
X152204221Y-84430802D01*
X152191888Y-84480184D01*
X152190773Y-84512824D01*
X152201613Y-84532081D01*
X152225147Y-84541314D01*
X152262114Y-84543880D01*
X152267167Y-84543900D01*
X152321724Y-84543900D01*
X152370387Y-84693125D01*
X152390890Y-84755286D01*
X152405936Y-84797235D01*
X152417829Y-84822943D01*
X152428873Y-84836383D01*
X152441373Y-84841528D01*
X152456935Y-84842350D01*
X152481802Y-84839647D01*
X152494930Y-84826776D01*
X152502917Y-84796592D01*
X152503828Y-84791550D01*
X152508418Y-84753095D01*
X152511903Y-84700416D01*
X152513553Y-84644685D01*
X152513569Y-84642814D01*
X152514300Y-84544879D01*
X152561925Y-84532364D01*
X152604150Y-84521516D01*
X152654299Y-84508960D01*
X152673050Y-84504351D01*
X152764229Y-84476840D01*
X152867020Y-84437170D01*
X152973254Y-84389112D01*
X153074765Y-84336442D01*
X153163382Y-84282932D01*
X153186169Y-84267324D01*
X153267487Y-84209643D01*
X153378108Y-84224371D01*
X153498359Y-84235347D01*
X153630509Y-84238658D01*
X153769147Y-84234816D01*
X153908864Y-84224332D01*
X154044249Y-84207716D01*
X154169894Y-84185481D01*
X154280387Y-84158137D01*
X154356772Y-84131904D01*
X154382233Y-84133874D01*
X154418824Y-84152439D01*
X154462057Y-84184165D01*
X154507440Y-84225618D01*
X154550484Y-84273366D01*
X154563395Y-84289900D01*
X154600049Y-84343210D01*
X154639047Y-84406910D01*
X154672548Y-84468120D01*
X154675512Y-84474050D01*
X154696813Y-84520799D01*
X154721080Y-84579839D01*
X154746466Y-84645955D01*
X154771127Y-84713935D01*
X154793216Y-84778566D01*
X154810890Y-84834636D01*
X154822301Y-84876932D01*
X154825700Y-84898333D01*
X154834234Y-84926146D01*
X154840940Y-84935060D01*
X154864811Y-84947347D01*
X154893753Y-84949362D01*
X154916120Y-84941197D01*
X154920871Y-84934425D01*
X154960743Y-84810548D01*
X154994164Y-84689969D01*
X155020535Y-84576023D01*
X155039257Y-84472042D01*
X155049730Y-84381361D01*
X155051354Y-84307313D01*
X155043530Y-84253232D01*
X155043431Y-84252902D01*
X155016121Y-84197289D01*
X154967666Y-84137025D01*
X154901212Y-84074883D01*
X154819906Y-84013632D01*
X154726896Y-83956044D01*
X154675073Y-83928528D01*
X154637448Y-83908733D01*
X154618079Y-83893937D01*
X154612277Y-83878247D01*
X154615349Y-83855773D01*
X154615731Y-83854000D01*
X154627914Y-83789264D01*
X154631881Y-83739278D01*
X154627602Y-83694746D01*
X154615077Y-83646467D01*
X154580590Y-83574261D01*
X154525327Y-83505282D01*
X154453861Y-83444379D01*
X154386417Y-83403889D01*
X154251905Y-83348250D01*
X154100810Y-83306011D01*
X153938274Y-83277412D01*
X153769439Y-83262692D01*
X153599446Y-83262089D01*
X153433437Y-83275843D01*
D16*
G04 #@! TO.C,U1*
X144990000Y-109005000D02*
X144990000Y-109210000D01*
X139490000Y-109005000D02*
X139490000Y-109305000D01*
X139490000Y-114515000D02*
X139490000Y-114215000D01*
X144990000Y-114515000D02*
X144990000Y-114215000D01*
X144990000Y-109005000D02*
X139490000Y-109005000D01*
X144990000Y-114515000D02*
X139490000Y-114515000D01*
X144990000Y-109210000D02*
X146740000Y-109210000D01*
G04 #@! TO.C,BT1*
X142838714Y-107641571D02*
X142729857Y-107677857D01*
X142693571Y-107714142D01*
X142657285Y-107786714D01*
X142657285Y-107895571D01*
X142693571Y-107968142D01*
X142729857Y-108004428D01*
X142802428Y-108040714D01*
X143092714Y-108040714D01*
X143092714Y-107278714D01*
X142838714Y-107278714D01*
X142766142Y-107315000D01*
X142729857Y-107351285D01*
X142693571Y-107423857D01*
X142693571Y-107496428D01*
X142729857Y-107569000D01*
X142766142Y-107605285D01*
X142838714Y-107641571D01*
X143092714Y-107641571D01*
X142439571Y-107278714D02*
X142004142Y-107278714D01*
X142221857Y-108040714D02*
X142221857Y-107278714D01*
X141351000Y-108040714D02*
X141786428Y-108040714D01*
X141568714Y-108040714D02*
X141568714Y-107278714D01*
X141641285Y-107387571D01*
X141713857Y-107460142D01*
X141786428Y-107496428D01*
G04 #@! TO.C,C1*
X132207000Y-113302142D02*
X132243285Y-113338428D01*
X132352142Y-113374714D01*
X132424714Y-113374714D01*
X132533571Y-113338428D01*
X132606142Y-113265857D01*
X132642428Y-113193285D01*
X132678714Y-113048142D01*
X132678714Y-112939285D01*
X132642428Y-112794142D01*
X132606142Y-112721571D01*
X132533571Y-112649000D01*
X132424714Y-112612714D01*
X132352142Y-112612714D01*
X132243285Y-112649000D01*
X132207000Y-112685285D01*
X131481285Y-113374714D02*
X131916714Y-113374714D01*
X131699000Y-113374714D02*
X131699000Y-112612714D01*
X131771571Y-112721571D01*
X131844142Y-112794142D01*
X131916714Y-112830428D01*
G04 #@! TO.C,C2*
X134747000Y-113302142D02*
X134783285Y-113338428D01*
X134892142Y-113374714D01*
X134964714Y-113374714D01*
X135073571Y-113338428D01*
X135146142Y-113265857D01*
X135182428Y-113193285D01*
X135218714Y-113048142D01*
X135218714Y-112939285D01*
X135182428Y-112794142D01*
X135146142Y-112721571D01*
X135073571Y-112649000D01*
X134964714Y-112612714D01*
X134892142Y-112612714D01*
X134783285Y-112649000D01*
X134747000Y-112685285D01*
X134456714Y-112685285D02*
X134420428Y-112649000D01*
X134347857Y-112612714D01*
X134166428Y-112612714D01*
X134093857Y-112649000D01*
X134057571Y-112685285D01*
X134021285Y-112757857D01*
X134021285Y-112830428D01*
X134057571Y-112939285D01*
X134493000Y-113374714D01*
X134021285Y-113374714D01*
G04 #@! TO.C,R1*
X149987000Y-108294714D02*
X150241000Y-107931857D01*
X150422428Y-108294714D02*
X150422428Y-107532714D01*
X150132142Y-107532714D01*
X150059571Y-107569000D01*
X150023285Y-107605285D01*
X149987000Y-107677857D01*
X149987000Y-107786714D01*
X150023285Y-107859285D01*
X150059571Y-107895571D01*
X150132142Y-107931857D01*
X150422428Y-107931857D01*
X149261285Y-108294714D02*
X149696714Y-108294714D01*
X149479000Y-108294714D02*
X149479000Y-107532714D01*
X149551571Y-107641571D01*
X149624142Y-107714142D01*
X149696714Y-107750428D01*
G04 #@! TO.C,U1*
X142820571Y-114898714D02*
X142820571Y-115515571D01*
X142784285Y-115588142D01*
X142748000Y-115624428D01*
X142675428Y-115660714D01*
X142530285Y-115660714D01*
X142457714Y-115624428D01*
X142421428Y-115588142D01*
X142385142Y-115515571D01*
X142385142Y-114898714D01*
X141623142Y-115660714D02*
X142058571Y-115660714D01*
X141840857Y-115660714D02*
X141840857Y-114898714D01*
X141913428Y-115007571D01*
X141986000Y-115080142D01*
X142058571Y-115116428D01*
G04 #@! TO.C,PIN*
X133876142Y-83656714D02*
X133876142Y-82894714D01*
X133585857Y-82894714D01*
X133513285Y-82931000D01*
X133477000Y-82967285D01*
X133440714Y-83039857D01*
X133440714Y-83148714D01*
X133477000Y-83221285D01*
X133513285Y-83257571D01*
X133585857Y-83293857D01*
X133876142Y-83293857D01*
X133114142Y-83656714D02*
X133114142Y-82894714D01*
X132751285Y-83656714D02*
X132751285Y-82894714D01*
X132315857Y-83656714D01*
X132315857Y-82894714D01*
G04 #@! TD*
M02*
